G04*
G04 #@! TF.GenerationSoftware,Altium Limited,Altium Designer,20.0.13 (296)*
G04*
G04 Layer_Color=128*
%FSLAX25Y25*%
%MOIN*%
G70*
G01*
G75*
%ADD13C,0.00984*%
%ADD22C,0.03937*%
%ADD23C,0.02362*%
%ADD26R,0.04724X0.05315*%
%ADD27R,0.04194X0.03494*%
%ADD30R,0.03150X0.05512*%
%ADD31R,0.03494X0.04194*%
%ADD39R,0.05512X0.03150*%
%ADD174R,0.03937X0.06693*%
%ADD175R,0.04724X0.02756*%
%ADD176R,0.05039X0.02677*%
%ADD177R,0.06693X0.03937*%
D13*
X290335Y123603D02*
Y123996D01*
Y121437D02*
Y121831D01*
Y119469D02*
Y119863D01*
Y117500D02*
Y117894D01*
Y117500D02*
Y117894D01*
Y119469D02*
Y119863D01*
Y121437D02*
Y121831D01*
Y123603D02*
Y123996D01*
X291713Y117500D02*
Y117894D01*
Y119469D02*
Y119863D01*
Y121437D02*
Y121831D01*
Y123603D02*
Y123996D01*
X290335Y70493D02*
Y70886D01*
Y72658D02*
Y73052D01*
Y74626D02*
Y75020D01*
Y76595D02*
Y76989D01*
X291713Y70493D02*
Y70886D01*
Y72658D02*
Y73052D01*
Y74626D02*
Y75020D01*
Y76595D02*
Y76989D01*
Y76595D02*
Y76989D01*
Y74626D02*
Y75020D01*
Y72658D02*
Y73052D01*
Y70493D02*
Y70886D01*
Y24036D02*
Y24430D01*
Y26201D02*
Y26595D01*
Y28170D02*
Y28563D01*
Y30138D02*
Y30532D01*
Y30138D02*
Y30532D01*
Y28170D02*
Y28563D01*
Y26201D02*
Y26595D01*
Y24036D02*
Y24430D01*
X290335Y30138D02*
Y30532D01*
Y28170D02*
Y28563D01*
Y26201D02*
Y26595D01*
Y24036D02*
Y24430D01*
D22*
X5408Y32087D02*
Y99803D01*
X4921Y32087D02*
X5408D01*
X0Y31496D02*
Y99803D01*
X10827Y31890D02*
Y99803D01*
X11024D01*
X8071Y32087D02*
Y99606D01*
X8268D01*
X4921Y32087D02*
Y99803D01*
X5894D01*
X1772Y31693D02*
Y99803D01*
X1575D02*
X1772D01*
X-1969Y31496D02*
Y99803D01*
Y-1969D02*
Y31496D01*
X13583D01*
X-1969Y99803D02*
X13757D01*
X-1969D02*
Y380315D01*
X291732Y137205D02*
X382677D01*
Y-1969D02*
Y137205D01*
X-1969Y-1969D02*
X382677D01*
X-1969Y380315D02*
X291732D01*
Y137205D02*
Y380315D01*
X13583Y31496D02*
X13757Y31670D01*
Y99803D01*
X-1969Y-1969D02*
X-1575D01*
D23*
X291024Y126319D02*
Y136614D01*
Y103091D02*
Y114902D01*
Y79587D02*
Y91398D01*
Y56359D02*
Y68170D01*
Y33130D02*
Y44941D01*
Y-846D02*
Y21556D01*
X290984Y100217D02*
X291024Y100256D01*
X290984Y94233D02*
X291024Y94272D01*
X290945Y97343D02*
X290984Y97382D01*
X290945Y50611D02*
X290984Y50650D01*
Y47501D02*
X291024Y47540D01*
X290984Y53485D02*
X291024Y53524D01*
D26*
X314370Y61024D02*
D03*
X304528D02*
D03*
D27*
X330315Y20464D02*
D03*
X336615D02*
D03*
X298425Y66929D02*
D03*
X304725D02*
D03*
X308268Y71645D02*
D03*
X314568D02*
D03*
Y76763D02*
D03*
X308268D02*
D03*
X320866Y92511D02*
D03*
X327166D02*
D03*
X349212Y51968D02*
D03*
X355512D02*
D03*
X367426D02*
D03*
X361126D02*
D03*
D30*
X311614Y13968D02*
D03*
X319094D02*
D03*
X327756Y98417D02*
D03*
X320276D02*
D03*
D31*
X349213Y8267D02*
D03*
Y14567D02*
D03*
X324016Y14559D02*
D03*
Y8259D02*
D03*
X318898Y26763D02*
D03*
Y20463D02*
D03*
X324016Y26763D02*
D03*
Y20463D02*
D03*
X307874Y81881D02*
D03*
Y88181D02*
D03*
X314961D02*
D03*
Y81881D02*
D03*
X348819Y88181D02*
D03*
Y81881D02*
D03*
X353937Y88181D02*
D03*
Y81881D02*
D03*
X359055Y81881D02*
D03*
Y88181D02*
D03*
X353937Y76370D02*
D03*
Y70070D02*
D03*
X359055Y76370D02*
D03*
Y70070D02*
D03*
X353937Y64559D02*
D03*
Y58259D02*
D03*
X359055Y64559D02*
D03*
Y58259D02*
D03*
D39*
X312205Y37983D02*
D03*
Y45464D02*
D03*
X327953Y37983D02*
D03*
Y45464D02*
D03*
X320079Y37983D02*
D03*
Y45464D02*
D03*
X312598Y19873D02*
D03*
Y27354D02*
D03*
D174*
X330118Y27157D02*
D03*
X341535D02*
D03*
D175*
X340748Y15542D02*
D03*
Y8062D02*
D03*
X330511Y15542D02*
D03*
Y11802D02*
D03*
Y8062D02*
D03*
D176*
X321051Y56744D02*
D03*
Y61744D02*
D03*
Y66744D02*
D03*
Y71744D02*
D03*
Y76744D02*
D03*
Y81744D02*
D03*
Y86744D02*
D03*
X341996Y56744D02*
D03*
Y61744D02*
D03*
Y66744D02*
D03*
Y71744D02*
D03*
Y76744D02*
D03*
Y81744D02*
D03*
Y86744D02*
D03*
D177*
X366142Y69389D02*
D03*
Y57972D02*
D03*
Y88468D02*
D03*
Y77050D02*
D03*
M02*
