G04*
G04 #@! TF.GenerationSoftware,Altium Limited,Altium Designer,20.0.13 (296)*
G04*
G04 Layer_Color=32768*
%FSLAX25Y25*%
%MOIN*%
G70*
G01*
G75*
%ADD13C,0.00984*%
%ADD22C,0.03937*%
%ADD23C,0.02362*%
D13*
X290335Y123603D02*
Y123996D01*
Y121437D02*
Y121831D01*
Y119469D02*
Y119863D01*
Y117500D02*
Y117894D01*
Y117500D02*
Y117894D01*
Y119469D02*
Y119863D01*
Y121437D02*
Y121831D01*
Y123603D02*
Y123996D01*
X291713Y117500D02*
Y117894D01*
Y119469D02*
Y119863D01*
Y121437D02*
Y121831D01*
Y123603D02*
Y123996D01*
X290335Y70493D02*
Y70886D01*
Y72658D02*
Y73052D01*
Y74626D02*
Y75020D01*
Y76595D02*
Y76989D01*
X291713Y70493D02*
Y70886D01*
Y72658D02*
Y73052D01*
Y74626D02*
Y75020D01*
Y76595D02*
Y76989D01*
Y76595D02*
Y76989D01*
Y74626D02*
Y75020D01*
Y72658D02*
Y73052D01*
Y70493D02*
Y70886D01*
Y24036D02*
Y24430D01*
Y26201D02*
Y26595D01*
Y28170D02*
Y28563D01*
Y30138D02*
Y30532D01*
Y30138D02*
Y30532D01*
Y28170D02*
Y28563D01*
Y26201D02*
Y26595D01*
Y24036D02*
Y24430D01*
X290335Y30138D02*
Y30532D01*
Y28170D02*
Y28563D01*
Y26201D02*
Y26595D01*
Y24036D02*
Y24430D01*
Y123603D02*
Y123996D01*
Y121437D02*
Y121831D01*
Y119469D02*
Y119863D01*
Y117500D02*
Y117894D01*
Y117500D02*
Y117894D01*
Y119469D02*
Y119863D01*
Y121437D02*
Y121831D01*
Y123603D02*
Y123996D01*
X291713Y117500D02*
Y117894D01*
Y119469D02*
Y119863D01*
Y121437D02*
Y121831D01*
Y123603D02*
Y123996D01*
X290335Y70493D02*
Y70886D01*
Y72658D02*
Y73052D01*
Y74626D02*
Y75020D01*
Y76595D02*
Y76989D01*
X291713Y70493D02*
Y70886D01*
Y72658D02*
Y73052D01*
Y74626D02*
Y75020D01*
Y76595D02*
Y76989D01*
Y76595D02*
Y76989D01*
Y74626D02*
Y75020D01*
Y72658D02*
Y73052D01*
Y70493D02*
Y70886D01*
Y24036D02*
Y24430D01*
Y26201D02*
Y26595D01*
Y28170D02*
Y28563D01*
Y30138D02*
Y30532D01*
Y30138D02*
Y30532D01*
Y28170D02*
Y28563D01*
Y26201D02*
Y26595D01*
Y24036D02*
Y24430D01*
X290335Y30138D02*
Y30532D01*
Y28170D02*
Y28563D01*
Y26201D02*
Y26595D01*
Y24036D02*
Y24430D01*
D22*
X5408Y32087D02*
Y99803D01*
X4921Y32087D02*
X5408D01*
X0Y31496D02*
Y99803D01*
X10827Y31890D02*
Y99803D01*
X11024D01*
X8071Y32087D02*
Y99606D01*
X8268D01*
X4921Y32087D02*
Y99803D01*
X5894D01*
X1772Y31693D02*
Y99803D01*
X1575D02*
X1772D01*
X-1969Y31496D02*
Y99803D01*
Y-1969D02*
Y31496D01*
X13583D01*
X-1969Y99803D02*
X13757D01*
X-1969D02*
Y380315D01*
X291732Y137205D02*
X382677D01*
Y-1969D02*
Y137205D01*
X-1969Y-1969D02*
X382677D01*
X-1969Y380315D02*
X291732D01*
Y137205D02*
Y380315D01*
X13583Y31496D02*
X13757Y31670D01*
Y99803D01*
X-1969Y-1969D02*
X-1575D01*
X5408Y32087D02*
Y99803D01*
X4921Y32087D02*
X5408D01*
X0Y31496D02*
Y99803D01*
X10827Y31890D02*
Y99803D01*
X11024D01*
X8071Y32087D02*
Y99606D01*
X8268D01*
X4921Y32087D02*
Y99803D01*
X5894D01*
X1772Y31693D02*
Y99803D01*
X1575D02*
X1772D01*
X-1969Y31496D02*
Y99803D01*
Y-1969D02*
Y31496D01*
X13583D01*
X-1969Y99803D02*
X13757D01*
X-1969D02*
Y380315D01*
X291732Y137205D02*
X382677D01*
Y-1969D02*
Y137205D01*
X-1969Y-1969D02*
X382677D01*
X-1969Y380315D02*
X291732D01*
Y137205D02*
Y380315D01*
X13583Y31496D02*
X13757Y31670D01*
Y99803D01*
X-1969Y-1969D02*
X-1575D01*
D23*
X291024Y126319D02*
Y136614D01*
Y103091D02*
Y114902D01*
Y79587D02*
Y91398D01*
Y56359D02*
Y68170D01*
Y33130D02*
Y44941D01*
Y-846D02*
Y21556D01*
X290984Y100217D02*
X291024Y100256D01*
X290984Y94233D02*
X291024Y94272D01*
X290945Y97343D02*
X290984Y97382D01*
X290945Y50611D02*
X290984Y50650D01*
Y47501D02*
X291024Y47540D01*
X290984Y53485D02*
X291024Y53524D01*
Y126319D02*
Y136614D01*
Y103091D02*
Y114902D01*
Y79587D02*
Y91398D01*
Y56359D02*
Y68170D01*
Y33130D02*
Y44941D01*
Y-846D02*
Y21556D01*
X290984Y100217D02*
X291024Y100256D01*
X290984Y94233D02*
X291024Y94272D01*
X290945Y97343D02*
X290984Y97382D01*
X290945Y50611D02*
X290984Y50650D01*
Y47501D02*
X291024Y47540D01*
X290984Y53485D02*
X291024Y53524D01*
M02*
