G04*
G04 #@! TF.GenerationSoftware,Altium Limited,Altium Designer,20.0.13 (296)*
G04*
G04 Layer_Physical_Order=4*
G04 Layer_Color=16711680*
%FSLAX25Y25*%
%MOIN*%
G70*
G01*
G75*
%ADD13C,0.00984*%
%ADD20C,0.01000*%
%ADD22C,0.03937*%
%ADD23C,0.02362*%
%ADD60C,0.08268*%
%ADD74R,0.04331X0.04921*%
%ADD75R,0.03800X0.03100*%
%ADD78R,0.02756X0.05118*%
%ADD79R,0.03100X0.03800*%
%ADD87R,0.05118X0.02756*%
%ADD108C,0.01200*%
%ADD110C,0.01100*%
%ADD111C,0.07000*%
%ADD112C,0.02000*%
%ADD113C,0.02500*%
%ADD114C,0.01473*%
%ADD115C,0.01500*%
%ADD117C,0.02756*%
%ADD118C,0.07874*%
%ADD119O,0.07087X0.14173*%
%ADD120O,0.15748X0.07874*%
%ADD121O,0.07874X0.15748*%
%ADD122O,0.06693X0.04724*%
%ADD123C,0.03937*%
%ADD124C,0.01181*%
%ADD125C,0.09843*%
%ADD126C,0.11811*%
%ADD127O,0.14173X0.07087*%
%ADD128C,0.02362*%
%ADD129C,0.01968*%
%ADD130C,0.01772*%
%ADD169R,0.03543X0.06299*%
%ADD170R,0.04331X0.02362*%
%ADD171R,0.04646X0.02284*%
%ADD172R,0.06299X0.03543*%
%ADD173C,0.05000*%
G36*
X231496Y264567D02*
Y262205D01*
X229921Y260630D01*
X227559Y260630D01*
X225984Y262205D01*
X225984Y264567D01*
X227559Y266142D01*
X229921Y266142D01*
X231496Y264567D01*
D02*
G37*
G36*
X22441Y286221D02*
X22441Y233465D01*
X26104Y229801D01*
X32613D01*
X57416Y204998D01*
X151904D01*
X189700Y242793D01*
X225077D01*
X228740Y246457D01*
X232404Y242793D01*
X279648D01*
X288386Y234055D01*
X288386Y9291D01*
X282244Y3150D01*
X125181Y3150D01*
X32087D01*
X28999Y6238D01*
X29032Y6550D01*
X29171Y6650D01*
Y9055D01*
Y11185D01*
X28740Y11445D01*
X28740Y13358D01*
X29171Y13618D01*
Y15748D01*
Y17878D01*
X28740Y18138D01*
Y20051D01*
X29171Y20311D01*
Y22441D01*
Y24571D01*
X28740Y24830D01*
Y28740D01*
X32283Y32283D01*
X32283Y39409D01*
X51575Y57254D01*
X51575Y64436D01*
X51575Y71260D01*
X55118Y74803D01*
X75197D01*
X78740Y71260D01*
X78740Y50787D01*
X84646Y44882D01*
X110630Y44882D01*
X113386Y47638D01*
Y103359D01*
X103085Y113659D01*
X76717D01*
X76376Y114171D01*
X75654Y114653D01*
X75553Y114673D01*
Y112598D01*
X74053D01*
Y114673D01*
X73952Y114653D01*
X73231Y114171D01*
X72889Y113659D01*
X61811D01*
X59055Y115748D01*
X58915D01*
Y128120D01*
X66316Y135521D01*
X170656D01*
X178782Y127395D01*
X179262Y127074D01*
X179827Y126962D01*
X197758D01*
X197800Y126900D01*
X198488Y126440D01*
X199300Y126278D01*
X200112Y126440D01*
X200800Y126900D01*
X201260Y127588D01*
X201422Y128400D01*
X201260Y129212D01*
X203247Y131199D01*
X205178D01*
X205192Y131177D01*
X205881Y130717D01*
X206693Y130555D01*
X207505Y130717D01*
X208193Y131177D01*
X208653Y131865D01*
X208815Y132677D01*
X208653Y133489D01*
X208193Y134178D01*
X207505Y134637D01*
X206693Y134799D01*
X205881Y134637D01*
X205192Y134178D01*
X205178Y134156D01*
X183683D01*
X176636Y141203D01*
X176156Y141523D01*
X175591Y141636D01*
X64567D01*
X64001Y141523D01*
X63521Y141203D01*
X51317Y128998D01*
X50996Y128518D01*
X50884Y127953D01*
Y115716D01*
X48827Y113659D01*
X47550Y113659D01*
X41459Y113659D01*
X39306Y115812D01*
X39306Y141218D01*
X31432Y149092D01*
X12117D01*
X6299Y154910D01*
X6299Y287402D01*
X9055Y290158D01*
X18504Y290158D01*
X22441Y286221D01*
D02*
G37*
G36*
X324441Y112621D02*
Y104441D01*
X323941Y104234D01*
X323339Y104835D01*
X323108Y104990D01*
X322835Y105044D01*
X313386D01*
X313113Y104990D01*
X312881Y104835D01*
X312094Y104048D01*
X311939Y103816D01*
X311885Y103543D01*
X311885Y85827D01*
X311939Y85554D01*
X312094Y85322D01*
X312516Y84900D01*
X312711Y84481D01*
Y83563D01*
X310124D01*
Y84481D01*
X305624D01*
Y79953D01*
X305124Y79746D01*
X304299Y80571D01*
Y84631D01*
X305059Y85390D01*
X305324Y85281D01*
Y85281D01*
X307124D01*
Y88181D01*
X307874D01*
Y88931D01*
X310424D01*
Y91081D01*
X309811D01*
Y103528D01*
X319086Y112803D01*
X324291D01*
X324441Y112621D01*
D02*
G37*
G36*
X323622Y103543D02*
X323622Y85827D01*
X322835Y85039D01*
X313386Y85039D01*
X312598Y85827D01*
X312598Y103543D01*
X313386Y104331D01*
X322835D01*
X323622Y103543D01*
D02*
G37*
G36*
X377559Y129134D02*
X377559Y6299D01*
X374409Y3150D01*
X295669Y3150D01*
X292520Y6299D01*
X292520Y31753D01*
X293020Y31905D01*
X293299Y31488D01*
X296924Y27862D01*
X296924Y26378D01*
X296978Y26105D01*
X297133Y25873D01*
X298066Y24940D01*
X298397Y24603D01*
X297133Y23339D01*
X297056Y23224D01*
X296978Y23108D01*
X296978Y23107D01*
X296978Y23107D01*
X296952Y22975D01*
X296924Y22834D01*
X296924Y20472D01*
X296978Y20199D01*
X297133Y19968D01*
X298344Y18757D01*
X298385Y18328D01*
X298346Y18135D01*
X298339Y18124D01*
X298264Y18066D01*
X297741Y17384D01*
X297412Y16591D01*
X297300Y15739D01*
X297412Y14888D01*
X297741Y14094D01*
X298264Y13413D01*
X298945Y12890D01*
X299739Y12561D01*
X300590Y12449D01*
X302559D01*
X303411Y12561D01*
X304204Y12890D01*
X304886Y13413D01*
X305409Y14094D01*
X305737Y14888D01*
X305849Y15739D01*
X305737Y16591D01*
X305409Y17384D01*
X304886Y18066D01*
X304811Y18124D01*
X304765Y18338D01*
X304806Y18757D01*
X306016Y19968D01*
X306171Y20199D01*
X306225Y20472D01*
Y22161D01*
X309341Y25275D01*
X315858D01*
Y25671D01*
X316648D01*
Y24163D01*
X321148D01*
Y25081D01*
X321766D01*
Y24163D01*
X326266D01*
Y29363D01*
X321766D01*
Y28446D01*
X321148D01*
Y29363D01*
X316648D01*
Y29036D01*
X315858D01*
Y29431D01*
X309339D01*
Y29036D01*
X309039D01*
X308396Y28908D01*
X307850Y28543D01*
X306687Y27381D01*
X306225Y27572D01*
X306225Y28740D01*
X306198Y28881D01*
X306171Y29013D01*
X306171Y29013D01*
X306171Y29013D01*
X306094Y29129D01*
X306017Y29245D01*
X304816Y30446D01*
X304756Y30725D01*
X304758Y30924D01*
X304810Y31071D01*
X304886Y31129D01*
X305409Y31811D01*
X305737Y32604D01*
X305849Y33456D01*
X305737Y34308D01*
X305409Y35101D01*
X304976Y35665D01*
X305146Y36165D01*
X305739D01*
X306895Y35009D01*
X306895Y33336D01*
X306950Y33063D01*
X307104Y32831D01*
X308944Y30991D01*
X309176Y30837D01*
X309449Y30782D01*
X312992Y30782D01*
X326378D01*
X326651Y30837D01*
X326883Y30991D01*
X331497Y35605D01*
X331512D01*
Y35621D01*
X332676Y36784D01*
X334237D01*
X334417Y36604D01*
Y23014D01*
X333715D01*
Y21214D01*
X336615D01*
Y19714D01*
X333715D01*
Y17914D01*
X335085D01*
Y16897D01*
X333839Y15651D01*
X333377Y15842D01*
Y17424D01*
X332194D01*
Y18214D01*
X332915D01*
Y22714D01*
X331997D01*
Y23307D01*
X332590D01*
Y31006D01*
X327646D01*
Y23307D01*
X328632D01*
Y22714D01*
X327715D01*
Y18214D01*
X328829D01*
Y17424D01*
X327646D01*
Y13983D01*
X327346D01*
Y12552D01*
X330511D01*
Y11052D01*
X327346D01*
Y9941D01*
X326266D01*
Y10859D01*
X321766D01*
Y5659D01*
X326266D01*
Y6576D01*
X327646D01*
Y6181D01*
X333377D01*
Y7114D01*
X335415D01*
X336000Y7230D01*
X336496Y7562D01*
X337420Y8486D01*
X337882Y8294D01*
Y6181D01*
X340465D01*
X340748Y6125D01*
X341030Y6181D01*
X343613D01*
Y6330D01*
X346456D01*
X346458Y6330D01*
X346963D01*
Y5667D01*
X351463D01*
Y6330D01*
X352388D01*
X353129Y6478D01*
X353758Y6898D01*
X357669Y10809D01*
X358089Y11437D01*
X358236Y12178D01*
Y22047D01*
X358089Y22789D01*
X357669Y23417D01*
X352560Y28526D01*
X351931Y28946D01*
X351190Y29094D01*
X344007D01*
Y31006D01*
X343473D01*
Y37598D01*
X343325Y38340D01*
X342905Y38968D01*
X335040Y46834D01*
X334412Y47254D01*
X334292Y47277D01*
X329358Y52520D01*
Y59355D01*
X329857Y59562D01*
X334226Y55194D01*
X334937Y54718D01*
X335776Y54552D01*
X339804D01*
Y49343D01*
X339971Y48504D01*
X340446Y47793D01*
X344513Y43725D01*
X345224Y43250D01*
X346063Y43084D01*
X357480D01*
X358319Y43250D01*
X359030Y43725D01*
X362676Y47371D01*
X363151Y48082D01*
X363318Y48921D01*
Y49419D01*
X364026D01*
Y51218D01*
X361126D01*
Y51968D01*
X360376D01*
Y54519D01*
X356730D01*
X356411Y54928D01*
X356444Y55115D01*
X356606Y55359D01*
X358305D01*
Y58259D01*
Y61159D01*
X356505D01*
Y61159D01*
X356487D01*
Y61159D01*
X354687D01*
Y58259D01*
X353187D01*
Y61159D01*
X351387D01*
Y59575D01*
X350887Y59423D01*
X350744Y59637D01*
X347268Y63113D01*
X346639Y63533D01*
X345898Y63681D01*
X339846D01*
X339125Y64402D01*
X339332Y64902D01*
X345019D01*
Y65061D01*
X347127D01*
X348819Y63369D01*
X348819Y63369D01*
X349365Y63004D01*
X350008Y62876D01*
X351687D01*
Y61959D01*
X356187D01*
Y62876D01*
X356805D01*
Y61959D01*
X361305D01*
Y62876D01*
X369677D01*
X370321Y63004D01*
X370866Y63369D01*
X374812Y67314D01*
X374812Y67314D01*
X375176Y67860D01*
X375304Y68504D01*
Y91732D01*
X375176Y92376D01*
X374812Y92922D01*
X351977Y115756D01*
X351431Y116121D01*
X350787Y116249D01*
X344273D01*
X344151Y116408D01*
X343552Y116868D01*
X342854Y117157D01*
X342106Y117255D01*
X341357Y117157D01*
X340659Y116868D01*
X340060Y116408D01*
X339600Y115809D01*
X339311Y115111D01*
X339212Y114362D01*
X339311Y113613D01*
X339600Y112916D01*
X340060Y112316D01*
X340659Y111857D01*
X341357Y111568D01*
X342106Y111469D01*
X342854Y111568D01*
X343552Y111857D01*
X344151Y112316D01*
X344587Y112885D01*
X350091D01*
X371940Y91035D01*
Y69201D01*
X370453Y67714D01*
X369991Y67906D01*
Y71861D01*
X362292D01*
Y71474D01*
X361305D01*
Y72670D01*
X356805D01*
Y71741D01*
X356187D01*
Y72670D01*
X351687D01*
Y71819D01*
X350999D01*
X349705Y73114D01*
X349077Y73533D01*
X348335Y73681D01*
X341996D01*
X341516Y73585D01*
X338973D01*
Y69902D01*
X341516D01*
X341996Y69806D01*
X347533D01*
X348547Y68792D01*
X348301Y68331D01*
X347823Y68426D01*
X345019D01*
Y68585D01*
X338973D01*
Y65261D01*
X338473Y65054D01*
X337370Y66157D01*
Y92752D01*
X341964Y97346D01*
X342106Y97327D01*
X342854Y97426D01*
X343552Y97715D01*
X344151Y98174D01*
X344611Y98773D01*
X344900Y99471D01*
X344999Y100220D01*
X344900Y100969D01*
X344611Y101667D01*
X344151Y102266D01*
X343552Y102726D01*
X342854Y103015D01*
X342106Y103113D01*
X341357Y103015D01*
X340659Y102726D01*
X340060Y102266D01*
X339600Y101667D01*
X339311Y100969D01*
X339212Y100220D01*
X339229Y100090D01*
X334063Y94924D01*
X333794Y94522D01*
X333295Y94674D01*
Y111611D01*
X333128Y112450D01*
X332652Y113162D01*
X330951Y114863D01*
X330865Y115515D01*
X330566Y116238D01*
X330090Y116858D01*
X329470Y117333D01*
X328748Y117633D01*
X328723Y117636D01*
Y114741D01*
X327223D01*
Y117636D01*
X327198Y117633D01*
X326476Y117333D01*
X325856Y116858D01*
X325718Y116678D01*
X318284D01*
X317543Y116530D01*
X316914Y116110D01*
X306504Y105701D01*
X306084Y105072D01*
X305937Y104331D01*
Y91081D01*
X305324D01*
Y90118D01*
X305110D01*
X304368Y89970D01*
X303740Y89551D01*
X300992Y86803D01*
X300572Y86174D01*
X300425Y85433D01*
Y79768D01*
X300572Y79027D01*
X300992Y78399D01*
X303998Y75393D01*
X304626Y74973D01*
X305368Y74826D01*
Y74213D01*
X305368D01*
Y74195D01*
X305368D01*
Y72395D01*
X311168D01*
Y74195D01*
X311168D01*
Y74213D01*
X311168D01*
Y76013D01*
X308268D01*
Y77513D01*
X311168D01*
Y79313D01*
X310124D01*
Y80198D01*
X312357D01*
X312711Y79845D01*
X312711Y79281D01*
X312321Y79013D01*
X311968D01*
Y74513D01*
X317168D01*
Y74789D01*
X317668Y74818D01*
X317728Y74806D01*
X321051D01*
X321531Y74902D01*
X324074D01*
Y78585D01*
X321531D01*
X321051Y78681D01*
X317806D01*
X317709Y78700D01*
X317637D01*
X317203Y79200D01*
X317211Y79281D01*
X317211Y79443D01*
X317336Y79943D01*
X318028D01*
Y79902D01*
X320571D01*
X321051Y79806D01*
X321531Y79902D01*
X324074D01*
Y83585D01*
X321783D01*
X321656Y83670D01*
X320914Y83818D01*
X317211D01*
Y84326D01*
X322835Y84326D01*
X323108Y84380D01*
X323339Y84535D01*
X323339Y84535D01*
X323356Y84552D01*
X324793D01*
X324973Y84371D01*
Y53863D01*
X303937Y53863D01*
X303664Y53809D01*
X303432Y53654D01*
X297527Y47749D01*
X297372Y47517D01*
X297318Y47244D01*
Y45401D01*
X297300Y45267D01*
X297318Y45133D01*
Y43701D01*
X297372Y43428D01*
X297527Y43196D01*
X298314Y42409D01*
X298336Y42122D01*
X298290Y41834D01*
X298193Y41759D01*
X298068Y41597D01*
X297527Y41056D01*
X297372Y40824D01*
X297318Y40551D01*
Y40246D01*
X297315Y40239D01*
X297298Y40111D01*
X298031D01*
Y40551D01*
X299395Y41914D01*
X304149D01*
X305118Y40945D01*
X329921D01*
X332874Y37992D01*
X326378Y31496D01*
X312992D01*
X309449Y31496D01*
X307609Y33336D01*
X307609Y35304D01*
X306034Y36879D01*
X299341Y36879D01*
X298031Y38189D01*
Y38611D01*
X297298D01*
X297315Y38484D01*
X297318Y38477D01*
Y38189D01*
X297372Y37916D01*
X297527Y37684D01*
X297527Y37684D01*
X298011Y37200D01*
X298193Y36963D01*
X298429Y36782D01*
X298566Y36645D01*
X298543Y35999D01*
X298537Y35992D01*
X298264Y35783D01*
X297741Y35101D01*
X297412Y34308D01*
X297300Y33456D01*
X297377Y32875D01*
X296903Y32641D01*
X296170Y33374D01*
Y47728D01*
X303503Y55061D01*
X318028D01*
Y54902D01*
X324074D01*
Y58585D01*
X318028D01*
Y58426D01*
X317235D01*
Y59735D01*
X320725D01*
X321369Y59863D01*
X321427Y59902D01*
X324074D01*
Y63585D01*
X318028D01*
Y63100D01*
X317235D01*
Y64184D01*
X311505D01*
Y58426D01*
X307393D01*
Y64184D01*
X307337D01*
X307325Y64679D01*
X307325D01*
Y69095D01*
X307518D01*
Y70895D01*
X305368D01*
Y69179D01*
X302125D01*
Y64679D01*
X302125D01*
X302112Y64184D01*
X301662D01*
Y61161D01*
X301162Y60954D01*
X300617Y61499D01*
Y64679D01*
X301025D01*
Y69179D01*
X295825D01*
Y64679D01*
X296233D01*
Y60591D01*
X296399Y59752D01*
X296875Y59041D01*
X298371Y57544D01*
X299082Y57069D01*
X299886Y56909D01*
X300069Y56625D01*
X300153Y56469D01*
X293299Y49615D01*
X293020Y49197D01*
X292520Y49349D01*
X292520Y129134D01*
X295669Y132283D01*
X374410D01*
X377559Y129134D01*
D02*
G37*
G36*
X347437Y57465D02*
Y54219D01*
X346612D01*
Y49718D01*
X351812D01*
Y52592D01*
X352267Y52740D01*
X352612Y52431D01*
Y49419D01*
X354762D01*
Y51968D01*
X356262D01*
Y49419D01*
X357870D01*
X358061Y48957D01*
X356572Y47468D01*
X346971D01*
X344188Y50251D01*
Y54602D01*
X345319D01*
Y55994D01*
X341996D01*
Y57494D01*
X345319D01*
Y58876D01*
X345679Y59222D01*
X347437Y57465D01*
D02*
G37*
G36*
X337419Y42913D02*
X298819Y42913D01*
X298031Y43701D01*
Y47244D01*
X303937Y53150D01*
X327785Y53150D01*
X337419Y42913D01*
D02*
G37*
G36*
X304248Y30004D02*
X305512Y28740D01*
X305512Y26378D01*
X304194Y25060D01*
X298955Y25060D01*
X297638Y26378D01*
X297638Y28740D01*
Y30004D01*
X298902Y30004D01*
X304248Y30004D01*
D02*
G37*
G36*
X305512Y24016D02*
Y20472D01*
X304194Y19155D01*
X298955Y19155D01*
X297638Y20472D01*
X297638Y22834D01*
X298901Y24098D01*
X305429Y24098D01*
X305512Y24016D01*
D02*
G37*
G36*
X354362Y21245D02*
Y12981D01*
X351963Y10582D01*
X351463Y10789D01*
Y10867D01*
X346963D01*
Y10204D01*
X346457D01*
X346455Y10204D01*
X342885D01*
X342766Y10181D01*
X340929D01*
X340187Y10033D01*
X340053Y9943D01*
X339531D01*
X339340Y10405D01*
X340264Y11329D01*
X340595Y11825D01*
X340712Y12411D01*
Y13661D01*
X343613D01*
Y15042D01*
X344075Y15233D01*
X344780Y14528D01*
X345326Y14163D01*
X345970Y14035D01*
X346663D01*
Y11667D01*
X348463D01*
Y14567D01*
Y17467D01*
X346663D01*
X346663Y17467D01*
Y17467D01*
X346303Y17764D01*
X342413Y21653D01*
X341867Y22018D01*
X341223Y22146D01*
X339515D01*
Y23014D01*
X339893Y23307D01*
X344007D01*
Y25219D01*
X350387D01*
X354362Y21245D01*
D02*
G37*
%LPC*%
G36*
X15317Y287943D02*
Y283812D01*
X19448D01*
X19377Y284351D01*
X18879Y285552D01*
X18088Y286583D01*
X17057Y287375D01*
X15856Y287872D01*
X15317Y287943D01*
D02*
G37*
G36*
X13817D02*
X13278Y287872D01*
X12077Y287375D01*
X11046Y286583D01*
X10255Y285552D01*
X9757Y284351D01*
X9686Y283812D01*
X13817D01*
Y287943D01*
D02*
G37*
G36*
X19448Y282312D02*
X15317D01*
Y278181D01*
X15856Y278252D01*
X17057Y278750D01*
X18088Y279541D01*
X18879Y280572D01*
X19377Y281773D01*
X19448Y282312D01*
D02*
G37*
G36*
X13817D02*
X9686D01*
X9757Y281773D01*
X10255Y280572D01*
X11046Y279541D01*
X12077Y278750D01*
X13278Y278252D01*
X13817Y278181D01*
Y282312D01*
D02*
G37*
G36*
X15317Y245423D02*
Y241293D01*
X19448D01*
X19377Y241831D01*
X18879Y243032D01*
X18088Y244064D01*
X17057Y244855D01*
X15856Y245352D01*
X15317Y245423D01*
D02*
G37*
G36*
X13817D02*
X13278Y245352D01*
X12077Y244855D01*
X11046Y244064D01*
X10255Y243032D01*
X9757Y241831D01*
X9686Y241293D01*
X13817D01*
Y245423D01*
D02*
G37*
G36*
X208230Y237901D02*
Y236577D01*
X209555D01*
X209535Y236678D01*
X209053Y237399D01*
X208331Y237881D01*
X208230Y237901D01*
D02*
G37*
G36*
X206730D02*
X206629Y237881D01*
X205908Y237399D01*
X205426Y236678D01*
X205406Y236577D01*
X206730D01*
Y237901D01*
D02*
G37*
G36*
X19448Y239792D02*
X15317D01*
Y235662D01*
X15856Y235733D01*
X17057Y236230D01*
X18088Y237021D01*
X18879Y238053D01*
X19377Y239254D01*
X19448Y239792D01*
D02*
G37*
G36*
X13817D02*
X9686D01*
X9757Y239254D01*
X10255Y238053D01*
X11046Y237021D01*
X12077Y236230D01*
X13278Y235733D01*
X13817Y235662D01*
Y239792D01*
D02*
G37*
G36*
X229490Y235933D02*
Y234608D01*
X230815D01*
X230795Y234709D01*
X230313Y235431D01*
X229591Y235913D01*
X229490Y235933D01*
D02*
G37*
G36*
X227990D02*
X227889Y235913D01*
X227168Y235431D01*
X226686Y234709D01*
X226665Y234608D01*
X227990D01*
Y235933D01*
D02*
G37*
G36*
X209555Y235077D02*
X208230D01*
Y233752D01*
X208331Y233772D01*
X209053Y234254D01*
X209535Y234976D01*
X209555Y235077D01*
D02*
G37*
G36*
X206730D02*
X205406D01*
X205426Y234976D01*
X205908Y234254D01*
X206629Y233772D01*
X206730Y233752D01*
Y235077D01*
D02*
G37*
G36*
X230815Y233108D02*
X229490D01*
Y231784D01*
X229591Y231804D01*
X230313Y232286D01*
X230795Y233007D01*
X230815Y233108D01*
D02*
G37*
G36*
X227990D02*
X226665D01*
X226686Y233007D01*
X227168Y232286D01*
X227889Y231804D01*
X227990Y231784D01*
Y233108D01*
D02*
G37*
G36*
X270829Y230421D02*
Y229097D01*
X272153D01*
X272133Y229198D01*
X271651Y229919D01*
X270930Y230401D01*
X270829Y230421D01*
D02*
G37*
G36*
X269329D02*
X269228Y230401D01*
X268506Y229919D01*
X268024Y229198D01*
X268004Y229097D01*
X269329D01*
Y230421D01*
D02*
G37*
G36*
X199175Y229240D02*
Y227915D01*
X200500D01*
X200480Y228016D01*
X199998Y228738D01*
X199276Y229220D01*
X199175Y229240D01*
D02*
G37*
G36*
X197675D02*
X197574Y229220D01*
X196853Y228738D01*
X196371Y228016D01*
X196351Y227915D01*
X197675D01*
Y229240D01*
D02*
G37*
G36*
X220435Y228846D02*
Y227522D01*
X221760D01*
X221740Y227623D01*
X221257Y228344D01*
X220536Y228826D01*
X220435Y228846D01*
D02*
G37*
G36*
X218935D02*
X218834Y228826D01*
X218113Y228344D01*
X217631Y227623D01*
X217610Y227522D01*
X218935D01*
Y228846D01*
D02*
G37*
G36*
X272153Y227596D02*
X270829D01*
Y226272D01*
X270930Y226292D01*
X271651Y226774D01*
X272133Y227495D01*
X272153Y227596D01*
D02*
G37*
G36*
X269329D02*
X268004D01*
X268024Y227495D01*
X268506Y226774D01*
X269228Y226292D01*
X269329Y226272D01*
Y227596D01*
D02*
G37*
G36*
X200500Y226415D02*
X199175D01*
Y225091D01*
X199276Y225111D01*
X199998Y225593D01*
X200480Y226314D01*
X200500Y226415D01*
D02*
G37*
G36*
X197675D02*
X196351D01*
X196371Y226314D01*
X196853Y225593D01*
X197574Y225111D01*
X197675Y225091D01*
Y226415D01*
D02*
G37*
G36*
X221760Y226022D02*
X220435D01*
Y224697D01*
X220536Y224717D01*
X221257Y225199D01*
X221740Y225921D01*
X221760Y226022D01*
D02*
G37*
G36*
X218935D02*
X217610D01*
X217631Y225921D01*
X218113Y225199D01*
X218834Y224717D01*
X218935Y224697D01*
Y226022D01*
D02*
G37*
G36*
X220647Y218610D02*
Y217285D01*
X221972D01*
X221952Y217387D01*
X221470Y218108D01*
X220748Y218590D01*
X220647Y218610D01*
D02*
G37*
G36*
X219147D02*
X219046Y218590D01*
X218325Y218108D01*
X217843Y217387D01*
X217823Y217285D01*
X219147D01*
Y218610D01*
D02*
G37*
G36*
X221972Y215785D02*
X220647D01*
Y214461D01*
X220748Y214481D01*
X221470Y214963D01*
X221952Y215684D01*
X221972Y215785D01*
D02*
G37*
G36*
X219147D02*
X217823D01*
X217843Y215684D01*
X218325Y214963D01*
X219046Y214481D01*
X219147Y214461D01*
Y215785D01*
D02*
G37*
G36*
X207443Y215460D02*
Y214136D01*
X208768D01*
X208748Y214237D01*
X208265Y214958D01*
X207544Y215440D01*
X207443Y215460D01*
D02*
G37*
G36*
X205943D02*
X205842Y215440D01*
X205120Y214958D01*
X204638Y214237D01*
X204618Y214136D01*
X205943D01*
Y215460D01*
D02*
G37*
G36*
X208768Y212636D02*
X207443D01*
Y211311D01*
X207544Y211331D01*
X208265Y211813D01*
X208748Y212535D01*
X208768Y212636D01*
D02*
G37*
G36*
X205943D02*
X204618D01*
X204638Y212535D01*
X205120Y211813D01*
X205842Y211331D01*
X205943Y211311D01*
Y212636D01*
D02*
G37*
G36*
X270829Y210342D02*
Y209018D01*
X272153D01*
X272133Y209119D01*
X271651Y209840D01*
X270930Y210322D01*
X270829Y210342D01*
D02*
G37*
G36*
X269329D02*
X269228Y210322D01*
X268506Y209840D01*
X268024Y209119D01*
X268004Y209018D01*
X269329D01*
Y210342D01*
D02*
G37*
G36*
X215317Y207587D02*
Y206262D01*
X216642D01*
X216621Y206363D01*
X216139Y207084D01*
X215418Y207566D01*
X215317Y207587D01*
D02*
G37*
G36*
X213817D02*
X213716Y207566D01*
X212994Y207084D01*
X212512Y206363D01*
X212492Y206262D01*
X213817D01*
Y207587D01*
D02*
G37*
G36*
X272153Y207518D02*
X270829D01*
Y206193D01*
X270930Y206213D01*
X271651Y206695D01*
X272133Y207417D01*
X272153Y207518D01*
D02*
G37*
G36*
X269329D02*
X268004D01*
X268024Y207417D01*
X268506Y206695D01*
X269228Y206213D01*
X269329Y206193D01*
Y207518D01*
D02*
G37*
G36*
X216642Y204762D02*
X215317D01*
Y203437D01*
X215418Y203457D01*
X216139Y203939D01*
X216621Y204661D01*
X216642Y204762D01*
D02*
G37*
G36*
X213817D02*
X212492D01*
X212512Y204661D01*
X212994Y203939D01*
X213716Y203457D01*
X213817Y203437D01*
Y204762D01*
D02*
G37*
G36*
X203900Y202075D02*
Y200750D01*
X205224D01*
X205204Y200851D01*
X204722Y201572D01*
X204001Y202055D01*
X203900Y202075D01*
D02*
G37*
G36*
X202400D02*
X202299Y202055D01*
X201577Y201572D01*
X201095Y200851D01*
X201075Y200750D01*
X202400D01*
Y202075D01*
D02*
G37*
G36*
X191695D02*
Y200750D01*
X193019D01*
X192999Y200851D01*
X192517Y201572D01*
X191796Y202055D01*
X191695Y202075D01*
D02*
G37*
G36*
X190195D02*
X190094Y202055D01*
X189372Y201572D01*
X188890Y200851D01*
X188870Y200750D01*
X190195D01*
Y202075D01*
D02*
G37*
G36*
X205224Y199250D02*
X203900D01*
Y197925D01*
X204001Y197945D01*
X204722Y198427D01*
X205204Y199149D01*
X205224Y199250D01*
D02*
G37*
G36*
X202400D02*
X201075D01*
X201095Y199149D01*
X201577Y198427D01*
X202299Y197945D01*
X202400Y197925D01*
Y199250D01*
D02*
G37*
G36*
X193019D02*
X191695D01*
Y197925D01*
X191796Y197945D01*
X192517Y198427D01*
X192999Y199149D01*
X193019Y199250D01*
D02*
G37*
G36*
X190195D02*
X188870D01*
X188890Y199149D01*
X189372Y198427D01*
X190094Y197945D01*
X190195Y197925D01*
Y199250D01*
D02*
G37*
G36*
X61811Y198972D02*
X60999Y198811D01*
X60311Y198351D01*
X59851Y197662D01*
X59689Y196850D01*
X59851Y196038D01*
X60311Y195350D01*
X60999Y194890D01*
X61811Y194729D01*
X62623Y194890D01*
X63311Y195350D01*
X63771Y196038D01*
X63933Y196850D01*
X63771Y197662D01*
X63311Y198351D01*
X62623Y198811D01*
X61811Y198972D01*
D02*
G37*
G36*
X57087D02*
X56275Y198811D01*
X55586Y198351D01*
X55126Y197662D01*
X54965Y196850D01*
X55126Y196038D01*
X55586Y195350D01*
X56275Y194890D01*
X57087Y194729D01*
X57899Y194890D01*
X58587Y195350D01*
X59047Y196038D01*
X59209Y196850D01*
X59047Y197662D01*
X58587Y198351D01*
X57899Y198811D01*
X57087Y198972D01*
D02*
G37*
G36*
X51968D02*
X51157Y198811D01*
X50468Y198351D01*
X50008Y197662D01*
X49847Y196850D01*
X50008Y196038D01*
X50468Y195350D01*
X51157Y194890D01*
X51968Y194729D01*
X52780Y194890D01*
X53469Y195350D01*
X53929Y196038D01*
X54090Y196850D01*
X53929Y197662D01*
X53469Y198351D01*
X52780Y198811D01*
X51968Y198972D01*
D02*
G37*
G36*
X263779Y190311D02*
X262967Y190149D01*
X262279Y189689D01*
X261819Y189001D01*
X261658Y188189D01*
X261819Y187377D01*
X262279Y186689D01*
X262967Y186229D01*
X263779Y186067D01*
X264592Y186229D01*
X265280Y186689D01*
X265740Y187377D01*
X265901Y188189D01*
X265740Y189001D01*
X265280Y189689D01*
X264592Y190149D01*
X263779Y190311D01*
D02*
G37*
G36*
X140120Y186720D02*
Y185396D01*
X141445D01*
X141425Y185497D01*
X140943Y186218D01*
X140221Y186700D01*
X140120Y186720D01*
D02*
G37*
G36*
X138620D02*
X138519Y186700D01*
X137798Y186218D01*
X137315Y185497D01*
X137295Y185396D01*
X138620D01*
Y186720D01*
D02*
G37*
G36*
X141445Y183896D02*
X140120D01*
Y182571D01*
X140221Y182591D01*
X140943Y183073D01*
X141425Y183795D01*
X141445Y183896D01*
D02*
G37*
G36*
X138620D02*
X137295D01*
X137315Y183795D01*
X137798Y183073D01*
X138519Y182591D01*
X138620Y182571D01*
Y183896D01*
D02*
G37*
G36*
X31951Y189920D02*
Y181852D01*
X36180D01*
Y185039D01*
X36011Y186328D01*
X35513Y187529D01*
X34722Y188560D01*
X33691Y189352D01*
X32490Y189849D01*
X31951Y189920D01*
D02*
G37*
G36*
X30451D02*
X29912Y189849D01*
X28711Y189352D01*
X27680Y188560D01*
X26888Y187529D01*
X26391Y186328D01*
X26221Y185039D01*
Y181852D01*
X30451D01*
Y189920D01*
D02*
G37*
G36*
X112561Y183177D02*
Y181852D01*
X113886D01*
X113866Y181953D01*
X113383Y182675D01*
X112662Y183157D01*
X112561Y183177D01*
D02*
G37*
G36*
X111061D02*
X110960Y183157D01*
X110239Y182675D01*
X109757Y181953D01*
X109736Y181852D01*
X111061D01*
Y183177D01*
D02*
G37*
G36*
X101537D02*
Y181852D01*
X102862D01*
X102842Y181953D01*
X102360Y182675D01*
X101638Y183157D01*
X101537Y183177D01*
D02*
G37*
G36*
X100037D02*
X99936Y183157D01*
X99215Y182675D01*
X98733Y181953D01*
X98713Y181852D01*
X100037D01*
Y183177D01*
D02*
G37*
G36*
X113886Y180352D02*
X112561D01*
Y179028D01*
X112662Y179048D01*
X113383Y179530D01*
X113866Y180251D01*
X113886Y180352D01*
D02*
G37*
G36*
X111061D02*
X109736D01*
X109757Y180251D01*
X110239Y179530D01*
X110960Y179048D01*
X111061Y179028D01*
Y180352D01*
D02*
G37*
G36*
X102862D02*
X101537D01*
Y179028D01*
X101638Y179048D01*
X102360Y179530D01*
X102842Y180251D01*
X102862Y180352D01*
D02*
G37*
G36*
X100037D02*
X98713D01*
X98733Y180251D01*
X99215Y179530D01*
X99936Y179048D01*
X100037Y179028D01*
Y180352D01*
D02*
G37*
G36*
X56004Y193458D02*
X54844Y193305D01*
X53763Y192858D01*
X52835Y192145D01*
X52123Y191217D01*
X51675Y190136D01*
X51522Y188976D01*
Y181890D01*
X51675Y180730D01*
X52123Y179649D01*
X52835Y178721D01*
X53763Y178008D01*
X54844Y177561D01*
X56004Y177408D01*
X57164Y177561D01*
X58245Y178008D01*
X59173Y178721D01*
X59885Y179649D01*
X60333Y180730D01*
X60486Y181890D01*
Y188976D01*
X60333Y190136D01*
X59885Y191217D01*
X59173Y192145D01*
X58245Y192858D01*
X57164Y193305D01*
X56004Y193458D01*
D02*
G37*
G36*
X201144Y178453D02*
Y177128D01*
X202468D01*
X202448Y177229D01*
X201966Y177950D01*
X201245Y178433D01*
X201144Y178453D01*
D02*
G37*
G36*
X199644D02*
X199543Y178433D01*
X198821Y177950D01*
X198339Y177229D01*
X198319Y177128D01*
X199644D01*
Y178453D01*
D02*
G37*
G36*
X193663D02*
Y177128D01*
X194988D01*
X194968Y177229D01*
X194486Y177950D01*
X193764Y178433D01*
X193663Y178453D01*
D02*
G37*
G36*
X192163D02*
X192062Y178433D01*
X191341Y177950D01*
X190859Y177229D01*
X190839Y177128D01*
X192163D01*
Y178453D01*
D02*
G37*
G36*
X168898Y180862D02*
X168086Y180701D01*
X167397Y180241D01*
X166937Y179552D01*
X166776Y178740D01*
X166937Y177928D01*
X167397Y177240D01*
X168086Y176780D01*
X168898Y176618D01*
X169710Y176780D01*
X170398Y177240D01*
X170858Y177928D01*
X171019Y178740D01*
X170858Y179552D01*
X170398Y180241D01*
X169710Y180701D01*
X168898Y180862D01*
D02*
G37*
G36*
X13484Y186180D02*
X12170Y186007D01*
X10946Y185499D01*
X9894Y184693D01*
X9087Y183641D01*
X8580Y182416D01*
X8407Y181102D01*
X8580Y179788D01*
X9087Y178564D01*
X9894Y177512D01*
X10946Y176705D01*
X12170Y176198D01*
X13484Y176025D01*
X14798Y176198D01*
X16023Y176705D01*
X17074Y177512D01*
X17881Y178564D01*
X18389Y179788D01*
X18562Y181102D01*
X18389Y182416D01*
X17881Y183641D01*
X17074Y184693D01*
X16023Y185499D01*
X14798Y186007D01*
X13484Y186180D01*
D02*
G37*
G36*
X202468Y175628D02*
X201144D01*
Y174303D01*
X201245Y174323D01*
X201966Y174805D01*
X202448Y175527D01*
X202468Y175628D01*
D02*
G37*
G36*
X199644D02*
X198319D01*
X198339Y175527D01*
X198821Y174805D01*
X199543Y174323D01*
X199644Y174303D01*
Y175628D01*
D02*
G37*
G36*
X194988D02*
X193663D01*
Y174303D01*
X193764Y174323D01*
X194486Y174805D01*
X194968Y175527D01*
X194988Y175628D01*
D02*
G37*
G36*
X192163D02*
X190839D01*
X190859Y175527D01*
X191341Y174805D01*
X192062Y174323D01*
X192163Y174303D01*
Y175628D01*
D02*
G37*
G36*
X241732Y177319D02*
X240920Y177157D01*
X240232Y176697D01*
X239772Y176009D01*
X239610Y175197D01*
X239772Y174385D01*
X240232Y173696D01*
X240920Y173237D01*
X241732Y173075D01*
X242544Y173237D01*
X243233Y173696D01*
X243693Y174385D01*
X243854Y175197D01*
X243693Y176009D01*
X243233Y176697D01*
X242544Y177157D01*
X241732Y177319D01*
D02*
G37*
G36*
X36180Y180352D02*
X31951D01*
Y172284D01*
X32490Y172355D01*
X33691Y172853D01*
X34722Y173644D01*
X35513Y174676D01*
X36011Y175876D01*
X36180Y177165D01*
Y180352D01*
D02*
G37*
G36*
X30451D02*
X26221D01*
Y177165D01*
X26391Y175876D01*
X26888Y174676D01*
X27680Y173644D01*
X28711Y172853D01*
X29912Y172355D01*
X30451Y172284D01*
Y180352D01*
D02*
G37*
G36*
X168898Y175350D02*
X168086Y175189D01*
X167397Y174729D01*
X166937Y174040D01*
X166776Y173228D01*
X166937Y172416D01*
X167397Y171728D01*
X168086Y171268D01*
X168898Y171107D01*
X169710Y171268D01*
X170398Y171728D01*
X170858Y172416D01*
X171019Y173228D01*
X170858Y174040D01*
X170398Y174729D01*
X169710Y175189D01*
X168898Y175350D01*
D02*
G37*
G36*
X254687Y171760D02*
Y170435D01*
X256012D01*
X255992Y170536D01*
X255509Y171257D01*
X254788Y171740D01*
X254687Y171760D01*
D02*
G37*
G36*
X253187D02*
X253086Y171740D01*
X252364Y171257D01*
X251883Y170536D01*
X251862Y170435D01*
X253187D01*
Y171760D01*
D02*
G37*
G36*
X179096Y170185D02*
Y168860D01*
X180421D01*
X180401Y168961D01*
X179919Y169683D01*
X179198Y170165D01*
X179096Y170185D01*
D02*
G37*
G36*
X177596D02*
X177495Y170165D01*
X176774Y169683D01*
X176292Y168961D01*
X176272Y168860D01*
X177596D01*
Y170185D01*
D02*
G37*
G36*
X256012Y168935D02*
X254687D01*
Y167610D01*
X254788Y167631D01*
X255509Y168113D01*
X255992Y168834D01*
X256012Y168935D01*
D02*
G37*
G36*
X253187D02*
X251862D01*
X251883Y168834D01*
X252364Y168113D01*
X253086Y167631D01*
X253187Y167610D01*
Y168935D01*
D02*
G37*
G36*
X223947Y189917D02*
X223135Y189756D01*
X222446Y189296D01*
X221987Y188607D01*
X221874Y188044D01*
X218640Y184809D01*
X218319Y184330D01*
X218207Y183764D01*
Y167637D01*
X218170Y167618D01*
X217707Y167423D01*
X217679Y167429D01*
Y165354D01*
Y163280D01*
X217707Y163285D01*
X218170Y163091D01*
X218207Y163072D01*
Y154076D01*
X217707Y153809D01*
X217387Y154023D01*
X217285Y154043D01*
Y151969D01*
Y149894D01*
X217387Y149914D01*
X217707Y150128D01*
X218207Y149861D01*
Y108880D01*
X212734Y103408D01*
X212414Y102928D01*
X212301Y102362D01*
Y87342D01*
X212279Y87327D01*
X211819Y86639D01*
X211658Y85827D01*
X211819Y85015D01*
X212279Y84326D01*
X212967Y83866D01*
X213779Y83705D01*
X214592Y83866D01*
X215280Y84326D01*
X215740Y85015D01*
X215901Y85827D01*
X215740Y86639D01*
X215280Y87327D01*
X215258Y87342D01*
Y90469D01*
X215756Y90527D01*
X216216Y89838D01*
X216904Y89378D01*
X217717Y89217D01*
X218529Y89378D01*
X219217Y89838D01*
X219677Y90527D01*
X219838Y91339D01*
X219677Y92151D01*
X219217Y92839D01*
X219195Y92854D01*
Y100569D01*
X225917Y107291D01*
X226238Y107771D01*
X226350Y108337D01*
Y150719D01*
X226851Y150871D01*
X227168Y150396D01*
X227889Y149914D01*
X227990Y149894D01*
Y151969D01*
Y154043D01*
X227889Y154023D01*
X227168Y153541D01*
X226851Y153066D01*
X226350Y153218D01*
Y164105D01*
X226851Y164257D01*
X227168Y163782D01*
X227889Y163300D01*
X227990Y163280D01*
Y165354D01*
Y167429D01*
X227889Y167409D01*
X227168Y166927D01*
X226851Y166452D01*
X226350Y166604D01*
Y182343D01*
X226372Y182358D01*
X226832Y183046D01*
X226994Y183858D01*
X226832Y184670D01*
X226372Y185359D01*
X225684Y185819D01*
X225593Y185837D01*
X225495Y186366D01*
X225907Y186983D01*
X226069Y187795D01*
X225907Y188607D01*
X225447Y189296D01*
X224759Y189756D01*
X223947Y189917D01*
D02*
G37*
G36*
X73622Y171413D02*
X72810Y171252D01*
X72122Y170792D01*
X71662Y170103D01*
X71500Y169291D01*
X71662Y168479D01*
X72122Y167791D01*
X72810Y167331D01*
X73622Y167169D01*
X74434Y167331D01*
X75122Y167791D01*
X75582Y168479D01*
X75744Y169291D01*
X75582Y170103D01*
X75122Y170792D01*
X74434Y171252D01*
X73622Y171413D01*
D02*
G37*
G36*
X66142D02*
X65330Y171252D01*
X64641Y170792D01*
X64181Y170103D01*
X64020Y169291D01*
X64181Y168479D01*
X64641Y167791D01*
X65330Y167331D01*
X66142Y167169D01*
X66954Y167331D01*
X67642Y167791D01*
X68102Y168479D01*
X68264Y169291D01*
X68102Y170103D01*
X67642Y170792D01*
X66954Y171252D01*
X66142Y171413D01*
D02*
G37*
G36*
X58661D02*
X57849Y171252D01*
X57161Y170792D01*
X56701Y170103D01*
X56539Y169291D01*
X56701Y168479D01*
X57161Y167791D01*
X57849Y167331D01*
X58661Y167169D01*
X59473Y167331D01*
X60162Y167791D01*
X60622Y168479D01*
X60783Y169291D01*
X60622Y170103D01*
X60162Y170792D01*
X59473Y171252D01*
X58661Y171413D01*
D02*
G37*
G36*
X152756Y167717D02*
Y166392D01*
X154080D01*
X154060Y166493D01*
X153578Y167214D01*
X152857Y167696D01*
X152756Y167717D01*
D02*
G37*
G36*
X151256D02*
X151155Y167696D01*
X150433Y167214D01*
X149951Y166493D01*
X149931Y166392D01*
X151256D01*
Y167717D01*
D02*
G37*
G36*
X165354Y170626D02*
X164542Y170464D01*
X163854Y170004D01*
X163394Y169316D01*
X163233Y168504D01*
X163394Y167692D01*
X163854Y167004D01*
X164542Y166544D01*
X165354Y166382D01*
X166166Y166544D01*
X166855Y167004D01*
X167315Y167692D01*
X167476Y168504D01*
X167315Y169316D01*
X166855Y170004D01*
X166166Y170464D01*
X165354Y170626D01*
D02*
G37*
G36*
X229490Y167429D02*
Y166104D01*
X230815D01*
X230795Y166205D01*
X230313Y166927D01*
X229591Y167409D01*
X229490Y167429D01*
D02*
G37*
G36*
X180421Y167360D02*
X179096D01*
Y166036D01*
X179198Y166056D01*
X179919Y166538D01*
X180401Y167259D01*
X180421Y167360D01*
D02*
G37*
G36*
X177596D02*
X176272D01*
X176292Y167259D01*
X176774Y166538D01*
X177495Y166056D01*
X177596Y166036D01*
Y167360D01*
D02*
G37*
G36*
X154080Y164892D02*
X152756D01*
Y163567D01*
X152857Y163587D01*
X153578Y164069D01*
X154060Y164791D01*
X154080Y164892D01*
D02*
G37*
G36*
X151256D02*
X149931D01*
X149951Y164791D01*
X150433Y164069D01*
X151155Y163587D01*
X151256Y163567D01*
Y164892D01*
D02*
G37*
G36*
X230815Y164604D02*
X229490D01*
Y163280D01*
X229591Y163300D01*
X230313Y163782D01*
X230795Y164503D01*
X230815Y164604D01*
D02*
G37*
G36*
X213779Y188929D02*
X213044Y188783D01*
X212421Y188366D01*
X212005Y187743D01*
X211858Y187008D01*
X212005Y186273D01*
X212301Y185829D01*
Y109668D01*
X206829Y104195D01*
X206508Y103715D01*
X206396Y103150D01*
Y83858D01*
X206508Y83293D01*
X206829Y82813D01*
X211507Y78135D01*
X211611Y77611D01*
X212027Y76988D01*
X212651Y76572D01*
X213386Y76425D01*
X214121Y76572D01*
X214518Y76837D01*
X214837Y76448D01*
X211965Y73577D01*
X198271D01*
X192221Y79627D01*
X192279Y79921D01*
X192118Y80733D01*
X191658Y81422D01*
X190970Y81882D01*
X190157Y82043D01*
X189346Y81882D01*
X188657Y81422D01*
X188197Y80733D01*
X188036Y79921D01*
X188180Y79195D01*
X187918Y78695D01*
X184134D01*
X183489Y79126D01*
X182677Y79287D01*
X181865Y79126D01*
X181177Y78666D01*
X180717Y77977D01*
X180555Y77165D01*
X180717Y76353D01*
X181177Y75665D01*
X181865Y75205D01*
X182677Y75043D01*
X183489Y75205D01*
X184134Y75636D01*
X188343D01*
X195769Y68210D01*
X196265Y67878D01*
X196851Y67762D01*
X211550D01*
X211867Y67375D01*
X211856Y67323D01*
Y51575D01*
X211973Y50990D01*
X212304Y50493D01*
X237826Y24971D01*
X238323Y24640D01*
X238908Y24523D01*
X258099D01*
X263270Y20798D01*
X263432Y20724D01*
X263579Y20626D01*
X263701Y20601D01*
X263813Y20550D01*
X263991Y20544D01*
X264164Y20509D01*
X274545D01*
X275866Y19188D01*
X275850Y19029D01*
X274673Y17852D01*
X274518Y17621D01*
X274464Y17347D01*
Y15075D01*
X274518Y14802D01*
X274673Y14571D01*
X278629Y10614D01*
X278861Y10459D01*
X279134Y10405D01*
X279407Y10459D01*
X279639Y10614D01*
X283595Y14571D01*
X283750Y14802D01*
X283804Y15075D01*
Y17347D01*
X283750Y17621D01*
X283595Y17852D01*
X282418Y19029D01*
X282402Y19188D01*
X283567Y20353D01*
X283721Y20584D01*
X283776Y20857D01*
X283776Y23237D01*
X283721Y23510D01*
X283567Y23742D01*
X283567Y23742D01*
X282309Y25000D01*
X283567Y26258D01*
X283721Y26490D01*
X283776Y26763D01*
X283776Y29143D01*
X283721Y29416D01*
X283567Y29647D01*
X283567Y29647D01*
X282309Y30906D01*
X283567Y32164D01*
X283721Y32395D01*
X283776Y32668D01*
X283776Y35048D01*
X283721Y35321D01*
X283567Y35553D01*
X283567Y35553D01*
X282446Y36673D01*
X282414Y37169D01*
X282459Y37314D01*
X282516Y37357D01*
X283055Y38059D01*
X283394Y38877D01*
X283411Y39005D01*
X279134D01*
X274857D01*
X274874Y38877D01*
X275213Y38059D01*
X275752Y37357D01*
X275809Y37314D01*
X275854Y37169D01*
X275821Y36673D01*
X274527Y35379D01*
X264164D01*
X263992Y35345D01*
X263816Y35339D01*
X263702Y35287D01*
X263579Y35263D01*
X263433Y35165D01*
X263273Y35092D01*
X258101Y31382D01*
X241647D01*
X218852Y54177D01*
Y65114D01*
X241633Y87895D01*
X241964Y88391D01*
X242081Y88976D01*
Y96611D01*
X248870Y103400D01*
X249631Y103551D01*
X250319Y104011D01*
X250779Y104700D01*
X250941Y105512D01*
X250779Y106324D01*
X250319Y107012D01*
X249631Y107472D01*
X248819Y107634D01*
X248007Y107472D01*
X247319Y107012D01*
X246859Y106324D01*
X246707Y105563D01*
X246124Y104980D01*
X245624Y105187D01*
Y114567D01*
X245508Y115152D01*
X245176Y115648D01*
X240899Y119925D01*
Y122559D01*
X241330Y123204D01*
X241492Y124016D01*
X241330Y124828D01*
X240870Y125516D01*
X240182Y125976D01*
X239370Y126138D01*
X238558Y125976D01*
X237870Y125516D01*
X237410Y124828D01*
X237248Y124016D01*
X237410Y123204D01*
X237841Y122559D01*
Y119291D01*
X237957Y118706D01*
X238289Y118210D01*
X239380Y117118D01*
X239134Y116657D01*
X238976Y116689D01*
X238164Y116527D01*
X237476Y116067D01*
X237016Y115379D01*
X236855Y114567D01*
X237016Y113755D01*
X237447Y113110D01*
Y107720D01*
X234343Y104616D01*
X233882Y104863D01*
X234012Y105512D01*
X233850Y106324D01*
X233390Y107012D01*
X232702Y107472D01*
X231890Y107634D01*
X231078Y107472D01*
X230389Y107012D01*
X229929Y106324D01*
X229768Y105512D01*
X229929Y104700D01*
X230360Y104055D01*
Y91972D01*
X215284Y76896D01*
X214896Y77214D01*
X215161Y77611D01*
X215307Y78347D01*
X215161Y79082D01*
X214744Y79705D01*
X214121Y80121D01*
X213598Y80225D01*
X209352Y84471D01*
Y102537D01*
X214825Y108010D01*
X215145Y108489D01*
X215258Y109055D01*
Y149686D01*
X215294Y149705D01*
X215758Y149899D01*
X215785Y149894D01*
Y151969D01*
Y154043D01*
X215758Y154038D01*
X215294Y154232D01*
X215258Y154251D01*
Y163246D01*
X215758Y163514D01*
X216078Y163300D01*
X216179Y163280D01*
Y165354D01*
Y167429D01*
X216078Y167409D01*
X215758Y167195D01*
X215258Y167462D01*
Y185829D01*
X215554Y186273D01*
X215701Y187008D01*
X215554Y187743D01*
X215138Y188366D01*
X214515Y188783D01*
X213779Y188929D01*
D02*
G37*
G36*
X47736Y167184D02*
X44549D01*
Y162955D01*
X52617D01*
X52546Y163494D01*
X52049Y164694D01*
X51257Y165726D01*
X50226Y166517D01*
X49025Y167015D01*
X47736Y167184D01*
D02*
G37*
G36*
X43049D02*
X39862D01*
X38573Y167015D01*
X37372Y166517D01*
X36341Y165726D01*
X35550Y164694D01*
X35052Y163494D01*
X34981Y162955D01*
X43049D01*
Y167184D01*
D02*
G37*
G36*
X161811Y165508D02*
X160999Y165346D01*
X160311Y164886D01*
X159851Y164198D01*
X159689Y163386D01*
X159851Y162574D01*
X160311Y161885D01*
X160999Y161425D01*
X161811Y161264D01*
X162623Y161425D01*
X163311Y161885D01*
X163771Y162574D01*
X163933Y163386D01*
X163771Y164198D01*
X163311Y164886D01*
X162623Y165346D01*
X161811Y165508D01*
D02*
G37*
G36*
X52617Y161455D02*
X44549D01*
Y157225D01*
X47736D01*
X49025Y157395D01*
X50226Y157892D01*
X51257Y158684D01*
X52049Y159715D01*
X52546Y160916D01*
X52617Y161455D01*
D02*
G37*
G36*
X43049D02*
X34981D01*
X35052Y160916D01*
X35550Y159715D01*
X36341Y158684D01*
X37372Y157892D01*
X38573Y157395D01*
X39862Y157225D01*
X43049D01*
Y161455D01*
D02*
G37*
G36*
X76341Y157193D02*
Y155868D01*
X77665D01*
X77645Y155969D01*
X77163Y156691D01*
X76442Y157173D01*
X76341Y157193D01*
D02*
G37*
G36*
X74840D02*
X74739Y157173D01*
X74018Y156691D01*
X73536Y155969D01*
X73516Y155868D01*
X74840D01*
Y157193D01*
D02*
G37*
G36*
X161811Y159602D02*
X160999Y159441D01*
X160311Y158981D01*
X159851Y158292D01*
X159689Y157480D01*
X159851Y156668D01*
X160311Y155980D01*
X160999Y155520D01*
X161811Y155358D01*
X162623Y155520D01*
X163311Y155980D01*
X163771Y156668D01*
X163933Y157480D01*
X163771Y158292D01*
X163311Y158981D01*
X162623Y159441D01*
X161811Y159602D01*
D02*
G37*
G36*
X92482Y155224D02*
Y153900D01*
X93807D01*
X93787Y154001D01*
X93305Y154722D01*
X92583Y155204D01*
X92482Y155224D01*
D02*
G37*
G36*
X90982D02*
X90881Y155204D01*
X90160Y154722D01*
X89678Y154001D01*
X89658Y153900D01*
X90982D01*
Y155224D01*
D02*
G37*
G36*
X84608D02*
Y153900D01*
X85933D01*
X85913Y154001D01*
X85431Y154722D01*
X84709Y155204D01*
X84608Y155224D01*
D02*
G37*
G36*
X83108D02*
X83007Y155204D01*
X82286Y154722D01*
X81804Y154001D01*
X81784Y153900D01*
X83108D01*
Y155224D01*
D02*
G37*
G36*
X51537D02*
Y153900D01*
X52862D01*
X52842Y154001D01*
X52360Y154722D01*
X51638Y155204D01*
X51537Y155224D01*
D02*
G37*
G36*
X50037D02*
X49936Y155204D01*
X49215Y154722D01*
X48733Y154001D01*
X48713Y153900D01*
X50037D01*
Y155224D01*
D02*
G37*
G36*
X77665Y154368D02*
X76341D01*
Y153043D01*
X76442Y153064D01*
X77163Y153546D01*
X77645Y154267D01*
X77665Y154368D01*
D02*
G37*
G36*
X74840D02*
X73516D01*
X73536Y154267D01*
X74018Y153546D01*
X74739Y153064D01*
X74840Y153043D01*
Y154368D01*
D02*
G37*
G36*
X229490Y154043D02*
Y152718D01*
X230815D01*
X230795Y152820D01*
X230313Y153541D01*
X229591Y154023D01*
X229490Y154043D01*
D02*
G37*
G36*
X93807Y152400D02*
X92482D01*
Y151075D01*
X92583Y151095D01*
X93305Y151577D01*
X93787Y152299D01*
X93807Y152400D01*
D02*
G37*
G36*
X90982D02*
X89658D01*
X89678Y152299D01*
X90160Y151577D01*
X90881Y151095D01*
X90982Y151075D01*
Y152400D01*
D02*
G37*
G36*
X85933D02*
X84608D01*
Y151075D01*
X84709Y151095D01*
X85431Y151577D01*
X85913Y152299D01*
X85933Y152400D01*
D02*
G37*
G36*
X83108D02*
X81784D01*
X81804Y152299D01*
X82286Y151577D01*
X83007Y151095D01*
X83108Y151075D01*
Y152400D01*
D02*
G37*
G36*
X52862D02*
X51537D01*
Y151075D01*
X51638Y151095D01*
X52360Y151577D01*
X52842Y152299D01*
X52862Y152400D01*
D02*
G37*
G36*
X50037D02*
X48713D01*
X48733Y152299D01*
X49215Y151577D01*
X49936Y151095D01*
X50037Y151075D01*
Y152400D01*
D02*
G37*
G36*
X230815Y151218D02*
X229490D01*
Y149894D01*
X229591Y149914D01*
X230313Y150396D01*
X230795Y151118D01*
X230815Y151218D01*
D02*
G37*
G36*
X248819Y194341D02*
X248819Y194341D01*
X105118D01*
X104572Y194232D01*
X104109Y193923D01*
X104109Y193923D01*
X45841Y135655D01*
X45532Y135192D01*
X45423Y134646D01*
X45423Y134646D01*
Y133045D01*
X45350Y132996D01*
X44890Y132308D01*
X44728Y131496D01*
X44890Y130684D01*
X45350Y129996D01*
X46038Y129536D01*
X46850Y129374D01*
X47662Y129536D01*
X48351Y129996D01*
X48811Y130684D01*
X48972Y131496D01*
X48811Y132308D01*
X48351Y132996D01*
X48278Y133045D01*
Y134054D01*
X105709Y191486D01*
X248228D01*
X262746Y176968D01*
Y151943D01*
X262673Y151894D01*
X262213Y151206D01*
X262051Y150394D01*
X262213Y149582D01*
X262673Y148893D01*
X263361Y148433D01*
X264173Y148272D01*
X264985Y148433D01*
X265674Y148893D01*
X266134Y149582D01*
X266295Y150394D01*
X266134Y151206D01*
X265674Y151894D01*
X265601Y151943D01*
Y177559D01*
X265601Y177559D01*
X265492Y178105D01*
X265183Y178568D01*
X265182Y178568D01*
X249828Y193923D01*
X249365Y194232D01*
X248819Y194341D01*
D02*
G37*
G36*
X152287Y146850D02*
Y145526D01*
X153612D01*
X153592Y145627D01*
X153110Y146348D01*
X152388Y146830D01*
X152287Y146850D01*
D02*
G37*
G36*
X150787D02*
X150686Y146830D01*
X149965Y146348D01*
X149483Y145627D01*
X149463Y145526D01*
X150787D01*
Y146850D01*
D02*
G37*
G36*
X190551Y147004D02*
X189739Y146842D01*
X189051Y146382D01*
X188591Y145694D01*
X188429Y144882D01*
X188591Y144070D01*
X189051Y143382D01*
X189739Y142921D01*
X190551Y142760D01*
X191363Y142921D01*
X192052Y143382D01*
X192511Y144070D01*
X192673Y144882D01*
X192511Y145694D01*
X192052Y146382D01*
X191363Y146842D01*
X190551Y147004D01*
D02*
G37*
G36*
X153612Y144026D02*
X152287D01*
Y142701D01*
X152388Y142721D01*
X153110Y143203D01*
X153592Y143925D01*
X153612Y144026D01*
D02*
G37*
G36*
X150787D02*
X149463D01*
X149483Y143925D01*
X149965Y143203D01*
X150686Y142721D01*
X150787Y142701D01*
Y144026D01*
D02*
G37*
G36*
X247244Y143460D02*
X246432Y143299D01*
X245744Y142839D01*
X245284Y142151D01*
X245122Y141339D01*
X245284Y140527D01*
X245744Y139838D01*
X246432Y139378D01*
X247244Y139217D01*
X248056Y139378D01*
X248745Y139838D01*
X249204Y140527D01*
X249366Y141339D01*
X249204Y142151D01*
X248745Y142839D01*
X248056Y143299D01*
X247244Y143460D01*
D02*
G37*
G36*
X192482Y139476D02*
Y138152D01*
X193807D01*
X193787Y138253D01*
X193305Y138974D01*
X192583Y139456D01*
X192482Y139476D01*
D02*
G37*
G36*
X190982D02*
X190881Y139456D01*
X190160Y138974D01*
X189678Y138253D01*
X189658Y138152D01*
X190982D01*
Y139476D01*
D02*
G37*
G36*
X254293Y136720D02*
Y135396D01*
X255618D01*
X255598Y135497D01*
X255116Y136218D01*
X254394Y136700D01*
X254293Y136720D01*
D02*
G37*
G36*
X252793D02*
X252692Y136700D01*
X251971Y136218D01*
X251489Y135497D01*
X251469Y135396D01*
X252793D01*
Y136720D01*
D02*
G37*
G36*
X193807Y136652D02*
X192482D01*
Y135327D01*
X192583Y135347D01*
X193305Y135829D01*
X193787Y136550D01*
X193807Y136652D01*
D02*
G37*
G36*
X190982D02*
X189658D01*
X189678Y136550D01*
X190160Y135829D01*
X190881Y135347D01*
X190982Y135327D01*
Y136652D01*
D02*
G37*
G36*
X91732Y133618D02*
X90920Y133456D01*
X90273Y133024D01*
X90114Y132965D01*
X89807D01*
X89649Y133024D01*
X89001Y133456D01*
X88189Y133618D01*
X87377Y133456D01*
X86689Y132996D01*
X86667Y132965D01*
X86167D01*
X86146Y132996D01*
X85458Y133456D01*
X84646Y133618D01*
X83834Y133456D01*
X83145Y132996D01*
X83124Y132965D01*
X82624D01*
X82603Y132996D01*
X81914Y133456D01*
X81102Y133618D01*
X80290Y133456D01*
X79602Y132996D01*
X79142Y132308D01*
X78980Y131496D01*
X79142Y130684D01*
X79602Y129996D01*
X80290Y129536D01*
X81102Y129374D01*
X81914Y129536D01*
X82603Y129996D01*
X82624Y130027D01*
X83124D01*
X83145Y129996D01*
X83834Y129536D01*
X84646Y129374D01*
X85458Y129536D01*
X86146Y129996D01*
X86167Y130027D01*
X86667D01*
X86689Y129996D01*
X87377Y129536D01*
X88189Y129374D01*
X89001Y129536D01*
X89649Y129969D01*
X89807Y130027D01*
X90114D01*
X90273Y129969D01*
X90920Y129536D01*
X91732Y129374D01*
X92544Y129536D01*
X93233Y129996D01*
X93693Y130684D01*
X93854Y131496D01*
X93693Y132308D01*
X93233Y132996D01*
X92544Y133456D01*
X91732Y133618D01*
D02*
G37*
G36*
X255618Y133896D02*
X254293D01*
Y132571D01*
X254394Y132591D01*
X255116Y133073D01*
X255598Y133795D01*
X255618Y133896D01*
D02*
G37*
G36*
X252793D02*
X251469D01*
X251489Y133795D01*
X251971Y133073D01*
X252692Y132591D01*
X252793Y132571D01*
Y133896D01*
D02*
G37*
G36*
X171616Y129240D02*
Y127915D01*
X172941D01*
X172921Y128016D01*
X172439Y128738D01*
X171717Y129220D01*
X171616Y129240D01*
D02*
G37*
G36*
X170116D02*
X170015Y129220D01*
X169294Y128738D01*
X168812Y128016D01*
X168791Y127915D01*
X170116D01*
Y129240D01*
D02*
G37*
G36*
X148388Y126878D02*
Y125553D01*
X149712D01*
X149692Y125654D01*
X149210Y126376D01*
X148489Y126858D01*
X148388Y126878D01*
D02*
G37*
G36*
X146888D02*
X146787Y126858D01*
X146065Y126376D01*
X145583Y125654D01*
X145563Y125553D01*
X146888D01*
Y126878D01*
D02*
G37*
G36*
X172941Y126415D02*
X171616D01*
Y125091D01*
X171717Y125111D01*
X172439Y125593D01*
X172921Y126314D01*
X172941Y126415D01*
D02*
G37*
G36*
X170116D02*
X168791D01*
X168812Y126314D01*
X169294Y125593D01*
X170015Y125111D01*
X170116Y125091D01*
Y126415D01*
D02*
G37*
G36*
X149712Y124053D02*
X148388D01*
Y122729D01*
X148489Y122749D01*
X149210Y123231D01*
X149692Y123952D01*
X149712Y124053D01*
D02*
G37*
G36*
X146888D02*
X145563D01*
X145583Y123952D01*
X146065Y123231D01*
X146787Y122749D01*
X146888Y122729D01*
Y124053D01*
D02*
G37*
G36*
X198388Y122153D02*
Y120829D01*
X199712D01*
X199692Y120930D01*
X199210Y121651D01*
X198489Y122133D01*
X198388Y122153D01*
D02*
G37*
G36*
X196888D02*
X196787Y122133D01*
X196065Y121651D01*
X195583Y120930D01*
X195563Y120829D01*
X196888D01*
Y122153D01*
D02*
G37*
G36*
X182640D02*
Y120829D01*
X183964D01*
X183944Y120930D01*
X183462Y121651D01*
X182741Y122133D01*
X182640Y122153D01*
D02*
G37*
G36*
X181140D02*
X181039Y122133D01*
X180317Y121651D01*
X179835Y120930D01*
X179815Y120829D01*
X181140D01*
Y122153D01*
D02*
G37*
G36*
X132677Y127092D02*
X114567D01*
X114294Y127037D01*
X114062Y126883D01*
X113275Y126095D01*
X113120Y125864D01*
X113066Y125591D01*
Y121063D01*
X113066Y120441D01*
X75999D01*
X72441Y124000D01*
X72433Y124040D01*
X71973Y124729D01*
X71284Y125189D01*
X70472Y125350D01*
X69660Y125189D01*
X68972Y124729D01*
X68512Y124040D01*
X68351Y123228D01*
X68512Y122416D01*
X68972Y121728D01*
X69660Y121268D01*
X69701Y121260D01*
X73827Y117134D01*
X74455Y116714D01*
X75197Y116567D01*
X113066D01*
X113066Y112205D01*
X113120Y111932D01*
X113275Y111700D01*
X114062Y110913D01*
X114294Y110758D01*
X114567Y110704D01*
X119114Y110704D01*
X119996Y109748D01*
Y76575D01*
X120113Y75687D01*
X120455Y74860D01*
X121000Y74150D01*
X140103Y55047D01*
X140814Y54502D01*
X141641Y54159D01*
X142528Y54042D01*
X151834D01*
X156382Y50611D01*
X156464Y50572D01*
X156539Y50522D01*
X156588Y50512D01*
X156633Y50490D01*
X156723Y50485D01*
X156812Y50467D01*
X169291D01*
X169564Y50522D01*
X169796Y50676D01*
X180183Y61063D01*
X191951D01*
X203977Y49038D01*
Y16535D01*
X204153Y15647D01*
X204657Y14893D01*
X213712Y5838D01*
X214465Y5334D01*
X215354Y5158D01*
X244094D01*
X244983Y5334D01*
X245737Y5838D01*
X252626Y12728D01*
X253130Y13481D01*
X253307Y14370D01*
Y18898D01*
X253130Y19786D01*
X252626Y20540D01*
X251873Y21043D01*
X250984Y21220D01*
X250095Y21043D01*
X249342Y20540D01*
X248838Y19786D01*
X248662Y18898D01*
Y15332D01*
X243132Y9803D01*
X216316D01*
X208622Y17497D01*
Y50000D01*
X208445Y50889D01*
X207942Y51642D01*
X194556Y65028D01*
X193802Y65532D01*
X192913Y65708D01*
X172441D01*
X171552Y65532D01*
X171462Y65471D01*
X155703Y65472D01*
X155429Y65417D01*
X155198Y65262D01*
X150836Y60901D01*
X143949D01*
X126855Y77995D01*
Y87771D01*
X127355Y87804D01*
X127473Y86900D01*
X127971Y85699D01*
X128302Y85268D01*
X131223Y88189D01*
X128302Y91110D01*
X127971Y90679D01*
X127473Y89478D01*
X127355Y88574D01*
X126855Y88607D01*
Y109651D01*
X127908Y110704D01*
X132283Y110704D01*
X132557Y110758D01*
X132788Y110913D01*
X133969Y112094D01*
X134124Y112325D01*
X134178Y112598D01*
Y125591D01*
X134124Y125864D01*
X133969Y126095D01*
X133182Y126883D01*
X132950Y127037D01*
X132677Y127092D01*
D02*
G37*
G36*
X46026Y121760D02*
Y120435D01*
X47350D01*
X47330Y120536D01*
X46848Y121257D01*
X46127Y121740D01*
X46026Y121760D01*
D02*
G37*
G36*
X44526D02*
X44425Y121740D01*
X43703Y121257D01*
X43221Y120536D01*
X43201Y120435D01*
X44526D01*
Y121760D01*
D02*
G37*
G36*
X199712Y119329D02*
X198388D01*
Y118004D01*
X198489Y118024D01*
X199210Y118506D01*
X199692Y119228D01*
X199712Y119329D01*
D02*
G37*
G36*
X196888D02*
X195563D01*
X195583Y119228D01*
X196065Y118506D01*
X196787Y118024D01*
X196888Y118004D01*
Y119329D01*
D02*
G37*
G36*
X183964D02*
X182640D01*
Y118004D01*
X182741Y118024D01*
X183462Y118506D01*
X183944Y119228D01*
X183964Y119329D01*
D02*
G37*
G36*
X181140D02*
X179815D01*
X179835Y119228D01*
X180317Y118506D01*
X181039Y118024D01*
X181140Y118004D01*
Y119329D01*
D02*
G37*
G36*
X47350Y118935D02*
X46026D01*
Y117610D01*
X46127Y117631D01*
X46848Y118113D01*
X47330Y118834D01*
X47350Y118935D01*
D02*
G37*
G36*
X44526D02*
X43201D01*
X43221Y118834D01*
X43703Y118113D01*
X44425Y117631D01*
X44526Y117610D01*
Y118935D01*
D02*
G37*
G36*
X183858Y108027D02*
X183046Y107866D01*
X182358Y107406D01*
X181898Y106718D01*
X181736Y105905D01*
X181898Y105094D01*
X182358Y104405D01*
X182390Y104384D01*
Y103884D01*
X182358Y103863D01*
X181898Y103174D01*
X181736Y102362D01*
X181898Y101550D01*
X182358Y100862D01*
X183046Y100402D01*
X183858Y100240D01*
X184670Y100402D01*
X185359Y100862D01*
X185819Y101550D01*
X185980Y102362D01*
X185819Y103174D01*
X185359Y103863D01*
X185327Y103884D01*
Y104384D01*
X185359Y104405D01*
X185819Y105094D01*
X185980Y105905D01*
X185819Y106718D01*
X185359Y107406D01*
X184670Y107866D01*
X183858Y108027D01*
D02*
G37*
G36*
X146203Y106987D02*
X144940Y106821D01*
X143763Y106333D01*
X142753Y105558D01*
X141978Y104548D01*
X141490Y103371D01*
X141324Y102108D01*
X141490Y100846D01*
X141978Y99669D01*
X142753Y98659D01*
X143763Y97883D01*
X144940Y97396D01*
X146203Y97230D01*
X147466Y97396D01*
X148642Y97883D01*
X149653Y98659D01*
X150428Y99669D01*
X150915Y100846D01*
X151082Y102108D01*
X150915Y103371D01*
X150428Y104548D01*
X149653Y105558D01*
X148642Y106333D01*
X147466Y106821D01*
X146203Y106987D01*
D02*
G37*
G36*
X201960Y99751D02*
X201148Y99589D01*
X200459Y99129D01*
X199999Y98441D01*
X199838Y97629D01*
X199999Y96817D01*
X200459Y96129D01*
X201148Y95669D01*
X201960Y95507D01*
X202772Y95669D01*
X203460Y96129D01*
X203920Y96817D01*
X204082Y97629D01*
X203920Y98441D01*
X203460Y99129D01*
X202772Y99589D01*
X201960Y99751D01*
D02*
G37*
G36*
X132283Y93169D02*
X130995Y92999D01*
X129794Y92501D01*
X129362Y92171D01*
X132283Y89250D01*
X135204Y92171D01*
X134773Y92501D01*
X133572Y92999D01*
X132283Y93169D01*
D02*
G37*
G36*
X281496Y92279D02*
X280684Y92118D01*
X279996Y91658D01*
X279536Y90970D01*
X279374Y90158D01*
X279536Y89346D01*
X279996Y88657D01*
X280684Y88197D01*
X281496Y88036D01*
X282308Y88197D01*
X282997Y88657D01*
X283456Y89346D01*
X283618Y90158D01*
X283456Y90970D01*
X282997Y91658D01*
X282308Y92118D01*
X281496Y92279D01*
D02*
G37*
G36*
X136265Y91110D02*
X133344Y88189D01*
X136265Y85268D01*
X136596Y85699D01*
X137093Y86900D01*
X137263Y88189D01*
X137093Y89478D01*
X136596Y90679D01*
X136265Y91110D01*
D02*
G37*
G36*
X132283Y87128D02*
X129362Y84207D01*
X129794Y83877D01*
X130995Y83379D01*
X132283Y83209D01*
X133572Y83379D01*
X134773Y83877D01*
X135204Y84207D01*
X132283Y87128D01*
D02*
G37*
G36*
X201960Y81640D02*
X201148Y81479D01*
X200459Y81019D01*
X199999Y80330D01*
X199838Y79518D01*
X199999Y78706D01*
X200459Y78018D01*
X201148Y77558D01*
X201960Y77397D01*
X202772Y77558D01*
X203460Y78018D01*
X203920Y78706D01*
X204082Y79518D01*
X203920Y80330D01*
X203460Y81019D01*
X202772Y81479D01*
X201960Y81640D01*
D02*
G37*
G36*
X236577Y74516D02*
Y73191D01*
X237901D01*
X237881Y73292D01*
X237399Y74013D01*
X236678Y74496D01*
X236577Y74516D01*
D02*
G37*
G36*
X235077D02*
X234976Y74496D01*
X234254Y74013D01*
X233772Y73292D01*
X233752Y73191D01*
X235077D01*
Y74516D01*
D02*
G37*
G36*
X118898Y74478D02*
Y73154D01*
X120222D01*
X120202Y73255D01*
X119720Y73976D01*
X118999Y74458D01*
X118898Y74478D01*
D02*
G37*
G36*
X117398D02*
X117297Y74458D01*
X116575Y73976D01*
X116093Y73255D01*
X116073Y73154D01*
X117398D01*
Y74478D01*
D02*
G37*
G36*
X277128Y73334D02*
Y72010D01*
X278453D01*
X278432Y72111D01*
X277950Y72832D01*
X277229Y73314D01*
X277128Y73334D01*
D02*
G37*
G36*
X275628D02*
X275527Y73314D01*
X274805Y72832D01*
X274323Y72111D01*
X274303Y72010D01*
X275628D01*
Y73334D01*
D02*
G37*
G36*
X237901Y71691D02*
X236577D01*
Y70366D01*
X236678Y70386D01*
X237399Y70868D01*
X237881Y71590D01*
X237901Y71691D01*
D02*
G37*
G36*
X235077D02*
X233752D01*
X233772Y71590D01*
X234254Y70868D01*
X234976Y70386D01*
X235077Y70366D01*
Y71691D01*
D02*
G37*
G36*
X120222Y71653D02*
X118898D01*
Y70329D01*
X118999Y70349D01*
X119720Y70831D01*
X120202Y71552D01*
X120222Y71653D01*
D02*
G37*
G36*
X117398D02*
X116073D01*
X116093Y71552D01*
X116575Y70831D01*
X117297Y70349D01*
X117398Y70329D01*
Y71653D01*
D02*
G37*
G36*
X278453Y70510D02*
X277128D01*
Y69185D01*
X277229Y69205D01*
X277950Y69687D01*
X278432Y70409D01*
X278453Y70510D01*
D02*
G37*
G36*
X275628D02*
X274303D01*
X274323Y70409D01*
X274805Y69687D01*
X275527Y69205D01*
X275628Y69185D01*
Y70510D01*
D02*
G37*
G36*
X71222Y66757D02*
Y66096D01*
X71884D01*
X71619Y66492D01*
X71222Y66757D01*
D02*
G37*
G36*
X65711D02*
Y66096D01*
X66372D01*
X66107Y66492D01*
X65711Y66757D01*
D02*
G37*
G36*
X69722D02*
X69326Y66492D01*
X69061Y66096D01*
X69722D01*
Y66757D01*
D02*
G37*
G36*
X64211D02*
X63814Y66492D01*
X63549Y66096D01*
X64211D01*
Y66757D01*
D02*
G37*
G36*
X270472Y164520D02*
X269737Y164373D01*
X269114Y163957D01*
X268698Y163334D01*
X268551Y162598D01*
X268698Y161863D01*
X269114Y161240D01*
Y161201D01*
X268698Y160578D01*
X268551Y159843D01*
X268698Y159107D01*
X269114Y158484D01*
X269737Y158068D01*
X270472Y157921D01*
X271208Y158068D01*
X271509Y158269D01*
X271659D01*
X271894Y158316D01*
X272553D01*
X276898Y153970D01*
Y151181D01*
Y148870D01*
X276514D01*
X276406Y148849D01*
X275764Y148764D01*
X275065Y148475D01*
X274465Y148014D01*
X274005Y147414D01*
X273715Y146715D01*
X273631Y146073D01*
X273609Y145965D01*
X273631Y145857D01*
X273715Y145215D01*
X274005Y144517D01*
X274465Y143916D01*
X275065Y143456D01*
X275764Y143166D01*
X276406Y143082D01*
X276514Y143060D01*
X276898D01*
Y142520D01*
Y104171D01*
X237104Y64377D01*
X223482D01*
X223176Y64582D01*
X222441Y64728D01*
X221706Y64582D01*
X221082Y64165D01*
X220666Y63542D01*
X220520Y62807D01*
X220666Y62072D01*
X221066Y61473D01*
X220666Y60874D01*
X220520Y60138D01*
X220666Y59403D01*
X221082Y58780D01*
X221706Y58363D01*
X222441Y58217D01*
X223176Y58363D01*
X223482Y58568D01*
X238820D01*
X239458Y58695D01*
X239999Y59057D01*
X282219Y101276D01*
X282581Y101817D01*
X282708Y102456D01*
Y155685D01*
X282581Y156324D01*
X282219Y156865D01*
X275448Y163637D01*
X274906Y163998D01*
X274268Y164125D01*
X271894D01*
X271659Y164172D01*
X271509D01*
X271208Y164373D01*
X270472Y164520D01*
D02*
G37*
G36*
X66372Y64596D02*
X65711D01*
Y63934D01*
X66107Y64199D01*
X66372Y64596D01*
D02*
G37*
G36*
X71884D02*
X71222D01*
Y63934D01*
X71619Y64199D01*
X71884Y64596D01*
D02*
G37*
G36*
X69722D02*
X69061D01*
X69326Y64199D01*
X69722Y63934D01*
Y64596D01*
D02*
G37*
G36*
X64211D02*
X63549D01*
X63814Y64199D01*
X64211Y63934D01*
Y64596D01*
D02*
G37*
G36*
X62994Y64002D02*
Y63340D01*
X63656D01*
X63391Y63736D01*
X62994Y64002D01*
D02*
G37*
G36*
X61494Y64002D02*
X61097Y63736D01*
X60832Y63340D01*
X61494D01*
Y64002D01*
D02*
G37*
G36*
X74018Y64002D02*
Y63340D01*
X74679D01*
X74414Y63736D01*
X74018Y64002D01*
D02*
G37*
G36*
X68506Y64002D02*
Y63340D01*
X69168D01*
X68903Y63736D01*
X68506Y64002D01*
D02*
G37*
G36*
X67006D02*
X66609Y63736D01*
X66344Y63340D01*
X67006D01*
Y64002D01*
D02*
G37*
G36*
X72518Y64002D02*
X72121Y63736D01*
X71856Y63340D01*
X72518D01*
Y64002D01*
D02*
G37*
G36*
X266498Y62705D02*
Y61380D01*
X267823D01*
X267803Y61481D01*
X267320Y62202D01*
X266599Y62685D01*
X266498Y62705D01*
D02*
G37*
G36*
X264998D02*
X264897Y62685D01*
X264176Y62202D01*
X263693Y61481D01*
X263673Y61380D01*
X264998D01*
Y62705D01*
D02*
G37*
G36*
X61494Y61840D02*
X60832D01*
X61097Y61443D01*
X61494Y61178D01*
Y61840D01*
D02*
G37*
G36*
X74679Y61840D02*
X74018D01*
Y61178D01*
X74414Y61443D01*
X74679Y61840D01*
D02*
G37*
G36*
X63656Y61840D02*
X62994D01*
Y61178D01*
X63391Y61443D01*
X63656Y61840D01*
D02*
G37*
G36*
X69168Y61840D02*
X68506D01*
Y61178D01*
X68903Y61443D01*
X69168Y61840D01*
D02*
G37*
G36*
X67006D02*
X66344D01*
X66609Y61443D01*
X67006Y61178D01*
Y61840D01*
D02*
G37*
G36*
X72518D02*
X71856D01*
X72121Y61443D01*
X72518Y61178D01*
Y61840D01*
D02*
G37*
G36*
X71222Y61246D02*
Y60584D01*
X71884D01*
X71619Y60980D01*
X71222Y61246D01*
D02*
G37*
G36*
X65711D02*
Y60584D01*
X66372D01*
X66107Y60980D01*
X65711Y61246D01*
D02*
G37*
G36*
X69722D02*
X69326Y60980D01*
X69061Y60584D01*
X69722D01*
Y61246D01*
D02*
G37*
G36*
X64211D02*
X63814Y60980D01*
X63549Y60584D01*
X64211D01*
Y61246D01*
D02*
G37*
G36*
X267823Y59880D02*
X266498D01*
Y58555D01*
X266599Y58575D01*
X267320Y59057D01*
X267803Y59779D01*
X267823Y59880D01*
D02*
G37*
G36*
X264998D02*
X263673D01*
X263693Y59779D01*
X264176Y59057D01*
X264897Y58575D01*
X264998Y58555D01*
Y59880D01*
D02*
G37*
G36*
X71884Y59084D02*
X71222D01*
Y58422D01*
X71619Y58687D01*
X71884Y59084D01*
D02*
G37*
G36*
X66372D02*
X65711D01*
Y58422D01*
X66107Y58687D01*
X66372Y59084D01*
D02*
G37*
G36*
X64211D02*
X63549D01*
X63814Y58687D01*
X64211Y58422D01*
Y59084D01*
D02*
G37*
G36*
X69722D02*
X69061D01*
X69326Y58687D01*
X69722Y58422D01*
Y59084D01*
D02*
G37*
G36*
X68506Y58490D02*
Y57828D01*
X69168D01*
X68903Y58225D01*
X68506Y58490D01*
D02*
G37*
G36*
X62994D02*
Y57828D01*
X63656D01*
X63391Y58225D01*
X62994Y58490D01*
D02*
G37*
G36*
X67006Y58490D02*
X66609Y58225D01*
X66344Y57828D01*
X67006D01*
Y58490D01*
D02*
G37*
G36*
X61494D02*
X61097Y58225D01*
X60832Y57828D01*
X61494D01*
Y58490D01*
D02*
G37*
G36*
X74018Y58490D02*
Y57828D01*
X74679D01*
X74414Y58225D01*
X74018Y58490D01*
D02*
G37*
G36*
X72518Y58490D02*
X72121Y58225D01*
X71856Y57828D01*
X72518D01*
Y58490D01*
D02*
G37*
G36*
X74679Y56328D02*
X74018D01*
Y55666D01*
X74414Y55931D01*
X74679Y56328D01*
D02*
G37*
G36*
X67006Y56328D02*
X66344D01*
X66609Y55931D01*
X67006Y55666D01*
Y56328D01*
D02*
G37*
G36*
X61494D02*
X60832D01*
X61097Y55931D01*
X61494Y55666D01*
Y56328D01*
D02*
G37*
G36*
X63656D02*
X62994D01*
Y55666D01*
X63391Y55931D01*
X63656Y56328D01*
D02*
G37*
G36*
X69168D02*
X68506D01*
Y55666D01*
X68903Y55931D01*
X69168Y56328D01*
D02*
G37*
G36*
X72518Y56328D02*
X71856D01*
X72121Y55931D01*
X72518Y55666D01*
Y56328D01*
D02*
G37*
G36*
X71222Y55734D02*
Y55072D01*
X71884D01*
X71619Y55469D01*
X71222Y55734D01*
D02*
G37*
G36*
X65711D02*
Y55072D01*
X66372D01*
X66107Y55469D01*
X65711Y55734D01*
D02*
G37*
G36*
X69722D02*
X69326Y55469D01*
X69061Y55072D01*
X69722D01*
Y55734D01*
D02*
G37*
G36*
X64211D02*
X63814Y55469D01*
X63549Y55072D01*
X64211D01*
Y55734D01*
D02*
G37*
G36*
X66372Y53572D02*
X65711D01*
Y52910D01*
X66107Y53175D01*
X66372Y53572D01*
D02*
G37*
G36*
X71884D02*
X71222D01*
Y52910D01*
X71619Y53175D01*
X71884Y53572D01*
D02*
G37*
G36*
X69722D02*
X69061D01*
X69326Y53175D01*
X69722Y52910D01*
Y53572D01*
D02*
G37*
G36*
X64211D02*
X63549D01*
X63814Y53175D01*
X64211Y52910D01*
Y53572D01*
D02*
G37*
G36*
X229884Y50980D02*
Y49963D01*
X230901D01*
X230493Y50572D01*
X229884Y50980D01*
D02*
G37*
G36*
X228384D02*
X227774Y50572D01*
X227367Y49963D01*
X228384D01*
Y50980D01*
D02*
G37*
G36*
X262598Y53303D02*
X261786Y53141D01*
X261098Y52681D01*
X260638Y51993D01*
X260477Y51181D01*
X260638Y50369D01*
X261098Y49681D01*
X261786Y49221D01*
X262598Y49059D01*
X263410Y49221D01*
X264099Y49681D01*
X264559Y50369D01*
X264720Y51181D01*
X264559Y51993D01*
X264099Y52681D01*
X263410Y53141D01*
X262598Y53303D01*
D02*
G37*
G36*
X255118D02*
X254306Y53141D01*
X253618Y52681D01*
X253158Y51993D01*
X252996Y51181D01*
X253158Y50369D01*
X253618Y49681D01*
X254306Y49221D01*
X255118Y49059D01*
X255930Y49221D01*
X256618Y49681D01*
X257079Y50369D01*
X257240Y51181D01*
X257079Y51993D01*
X256618Y52681D01*
X255930Y53141D01*
X255118Y53303D01*
D02*
G37*
G36*
X247244D02*
X246432Y53141D01*
X245744Y52681D01*
X245284Y51993D01*
X245122Y51181D01*
X245284Y50369D01*
X245744Y49681D01*
X246432Y49221D01*
X247244Y49059D01*
X248056Y49221D01*
X248745Y49681D01*
X249204Y50369D01*
X249366Y51181D01*
X249204Y51993D01*
X248745Y52681D01*
X248056Y53141D01*
X247244Y53303D01*
D02*
G37*
G36*
X240120Y49319D02*
Y47994D01*
X241445D01*
X241425Y48095D01*
X240943Y48817D01*
X240221Y49299D01*
X240120Y49319D01*
D02*
G37*
G36*
X238620D02*
X238519Y49299D01*
X237798Y48817D01*
X237316Y48095D01*
X237295Y47994D01*
X238620D01*
Y49319D01*
D02*
G37*
G36*
X230901Y48463D02*
X229884D01*
Y47446D01*
X230493Y47853D01*
X230901Y48463D01*
D02*
G37*
G36*
X228384D02*
X227367D01*
X227774Y47853D01*
X228384Y47446D01*
Y48463D01*
D02*
G37*
G36*
X186577Y54085D02*
Y46017D01*
X190806D01*
Y49204D01*
X190637Y50493D01*
X190139Y51694D01*
X189348Y52725D01*
X188317Y53516D01*
X187116Y54014D01*
X186577Y54085D01*
D02*
G37*
G36*
X185077D02*
X184538Y54014D01*
X183337Y53516D01*
X182306Y52725D01*
X181514Y51694D01*
X181017Y50493D01*
X180847Y49204D01*
Y46017D01*
X185077D01*
Y54085D01*
D02*
G37*
G36*
X241445Y46494D02*
X240120D01*
Y45169D01*
X240221Y45189D01*
X240943Y45672D01*
X241425Y46393D01*
X241445Y46494D01*
D02*
G37*
G36*
X238620D02*
X237295D01*
X237316Y46393D01*
X237798Y45672D01*
X238519Y45189D01*
X238620Y45169D01*
Y46494D01*
D02*
G37*
G36*
X279134Y51388D02*
X278861Y51334D01*
X278629Y51179D01*
X274673Y47223D01*
X274518Y46992D01*
X274464Y46718D01*
Y44446D01*
X274518Y44173D01*
X274673Y43941D01*
X275797Y42818D01*
X275842Y42667D01*
X275805Y42194D01*
X275752Y42153D01*
X275213Y41451D01*
X274874Y40633D01*
X274857Y40505D01*
X279134D01*
X283411D01*
X283394Y40633D01*
X283055Y41451D01*
X282516Y42153D01*
X282463Y42194D01*
X282425Y42667D01*
X282471Y42818D01*
X283595Y43941D01*
X283750Y44173D01*
X283804Y44446D01*
Y46718D01*
X283750Y46991D01*
X283595Y47223D01*
X279639Y51179D01*
X279407Y51334D01*
X279134Y51388D01*
D02*
G37*
G36*
X240120Y41445D02*
Y40120D01*
X241445D01*
X241425Y40221D01*
X240943Y40943D01*
X240221Y41425D01*
X240120Y41445D01*
D02*
G37*
G36*
X238620D02*
X238519Y41425D01*
X237798Y40943D01*
X237316Y40221D01*
X237295Y40120D01*
X238620D01*
Y41445D01*
D02*
G37*
G36*
X38152Y40264D02*
Y38939D01*
X39476D01*
X39456Y39040D01*
X38974Y39761D01*
X38253Y40244D01*
X38152Y40264D01*
D02*
G37*
G36*
X36652D02*
X36551Y40244D01*
X35829Y39761D01*
X35347Y39040D01*
X35327Y38939D01*
X36652D01*
Y40264D01*
D02*
G37*
G36*
X241445Y38620D02*
X240120D01*
Y37295D01*
X240221Y37315D01*
X240943Y37798D01*
X241425Y38519D01*
X241445Y38620D01*
D02*
G37*
G36*
X238620D02*
X237295D01*
X237316Y38519D01*
X237798Y37798D01*
X238519Y37315D01*
X238620Y37295D01*
Y38620D01*
D02*
G37*
G36*
X185077Y44517D02*
X180847D01*
Y41330D01*
X181017Y40041D01*
X181514Y38840D01*
X182306Y37809D01*
X183337Y37017D01*
X184538Y36520D01*
X185077Y36449D01*
Y44517D01*
D02*
G37*
G36*
X190806D02*
X186577D01*
Y36449D01*
X187116Y36520D01*
X188317Y37017D01*
X189348Y37809D01*
X190139Y38840D01*
X190637Y40041D01*
X190806Y41330D01*
Y44517D01*
D02*
G37*
G36*
X39476Y37439D02*
X38152D01*
Y36114D01*
X38253Y36134D01*
X38974Y36617D01*
X39456Y37338D01*
X39476Y37439D01*
D02*
G37*
G36*
X36652D02*
X35327D01*
X35347Y37338D01*
X35829Y36617D01*
X36551Y36134D01*
X36652Y36114D01*
Y37439D01*
D02*
G37*
G36*
X170866Y37648D02*
X167679D01*
Y33418D01*
X175747D01*
X175676Y33957D01*
X175179Y35158D01*
X174387Y36190D01*
X173356Y36981D01*
X172155Y37478D01*
X170866Y37648D01*
D02*
G37*
G36*
X166179D02*
X162992D01*
X161703Y37478D01*
X160502Y36981D01*
X159471Y36190D01*
X158680Y35158D01*
X158182Y33957D01*
X158111Y33418D01*
X166179D01*
Y37648D01*
D02*
G37*
G36*
X229134Y32136D02*
X228437Y31997D01*
X227846Y31602D01*
X227452Y31012D01*
X227313Y30315D01*
X227452Y29618D01*
X227846Y29027D01*
X228437Y28633D01*
X229134Y28494D01*
X229831Y28633D01*
X230421Y29027D01*
X230816Y29618D01*
X230955Y30315D01*
X230816Y31012D01*
X230421Y31602D01*
X229831Y31997D01*
X229134Y32136D01*
D02*
G37*
G36*
X175747Y31918D02*
X167679D01*
Y27689D01*
X170866D01*
X172155Y27858D01*
X173356Y28356D01*
X174387Y29147D01*
X175179Y30179D01*
X175676Y31380D01*
X175747Y31918D01*
D02*
G37*
G36*
X166179D02*
X158111D01*
X158182Y31380D01*
X158680Y30179D01*
X159471Y29147D01*
X160502Y28356D01*
X161703Y27858D01*
X162992Y27689D01*
X166179D01*
Y31918D01*
D02*
G37*
G36*
X77165Y48031D02*
X54099D01*
X40157Y35220D01*
X40157Y29134D01*
X43701Y25591D01*
X66070D01*
X66337Y25091D01*
X66056Y24670D01*
X66036Y24569D01*
X70185D01*
X70165Y24670D01*
X69884Y25091D01*
X70151Y25591D01*
X105905Y25591D01*
X113386Y33071D01*
Y38976D01*
X110630Y41732D01*
X83465D01*
X77165Y48031D01*
D02*
G37*
G36*
X30671Y24516D02*
Y23191D01*
X31996D01*
X31976Y23292D01*
X31494Y24013D01*
X30772Y24496D01*
X30671Y24516D01*
D02*
G37*
G36*
X70185Y23069D02*
X68860D01*
Y21744D01*
X68961Y21764D01*
X69683Y22246D01*
X70165Y22968D01*
X70185Y23069D01*
D02*
G37*
G36*
X67360D02*
X66036D01*
X66056Y22968D01*
X66538Y22246D01*
X67259Y21764D01*
X67360Y21744D01*
Y23069D01*
D02*
G37*
G36*
X31996Y21691D02*
X30671D01*
Y20366D01*
X30772Y20386D01*
X31494Y20868D01*
X31976Y21590D01*
X31996Y21691D01*
D02*
G37*
G36*
X266104Y18216D02*
Y16892D01*
X267429D01*
X267409Y16993D01*
X266927Y17714D01*
X266205Y18196D01*
X266104Y18216D01*
D02*
G37*
G36*
X264604D02*
X264503Y18196D01*
X263782Y17714D01*
X263300Y16993D01*
X263280Y16892D01*
X264604D01*
Y18216D01*
D02*
G37*
G36*
X30671Y17823D02*
Y16498D01*
X31996D01*
X31976Y16599D01*
X31494Y17321D01*
X30772Y17803D01*
X30671Y17823D01*
D02*
G37*
G36*
X267429Y15392D02*
X266104D01*
Y14067D01*
X266205Y14087D01*
X266927Y14569D01*
X267409Y15291D01*
X267429Y15392D01*
D02*
G37*
G36*
X264604D02*
X263280D01*
X263300Y15291D01*
X263782Y14569D01*
X264503Y14087D01*
X264604Y14067D01*
Y15392D01*
D02*
G37*
G36*
X31996Y14998D02*
X30671D01*
Y13673D01*
X30772Y13693D01*
X31494Y14175D01*
X31976Y14897D01*
X31996Y14998D01*
D02*
G37*
G36*
X256262Y11524D02*
Y10199D01*
X257587D01*
X257566Y10300D01*
X257084Y11021D01*
X256363Y11503D01*
X256262Y11524D01*
D02*
G37*
G36*
X254762D02*
X254661Y11503D01*
X253939Y11021D01*
X253457Y10300D01*
X253437Y10199D01*
X254762D01*
Y11524D01*
D02*
G37*
G36*
X166929Y20029D02*
X165615Y19856D01*
X164391Y19349D01*
X163339Y18542D01*
X162532Y17491D01*
X162025Y16266D01*
X161852Y14952D01*
X162025Y13638D01*
X162532Y12413D01*
X163339Y11362D01*
X164391Y10555D01*
X165615Y10048D01*
X166929Y9875D01*
X168243Y10048D01*
X169468Y10555D01*
X170519Y11362D01*
X171326Y12413D01*
X171833Y13638D01*
X172006Y14952D01*
X171833Y16266D01*
X171326Y17491D01*
X170519Y18542D01*
X169468Y19349D01*
X168243Y19856D01*
X166929Y20029D01*
D02*
G37*
G36*
X30671Y11130D02*
Y9805D01*
X31996D01*
X31976Y9906D01*
X31494Y10628D01*
X30772Y11110D01*
X30671Y11130D01*
D02*
G37*
G36*
X53150Y12358D02*
X52338Y12197D01*
X51649Y11737D01*
X51189Y11048D01*
X51028Y10236D01*
X51189Y9424D01*
X51649Y8736D01*
X52338Y8276D01*
X53150Y8114D01*
X53962Y8276D01*
X54650Y8736D01*
X55110Y9424D01*
X55272Y10236D01*
X55110Y11048D01*
X54650Y11737D01*
X53962Y12197D01*
X53150Y12358D01*
D02*
G37*
G36*
X257587Y8699D02*
X256262D01*
Y7374D01*
X256363Y7394D01*
X257084Y7876D01*
X257566Y8598D01*
X257587Y8699D01*
D02*
G37*
G36*
X254762D02*
X253437D01*
X253457Y8598D01*
X253939Y7876D01*
X254661Y7394D01*
X254762Y7374D01*
Y8699D01*
D02*
G37*
G36*
X46850Y15901D02*
X46038Y15740D01*
X45350Y15280D01*
X44890Y14592D01*
X44728Y13780D01*
X44890Y12968D01*
X45350Y12279D01*
X45930Y11892D01*
X45968Y11721D01*
Y11507D01*
X45930Y11336D01*
X45350Y10949D01*
X44890Y10261D01*
X44728Y9449D01*
X44890Y8637D01*
X45350Y7948D01*
X46038Y7489D01*
X46850Y7327D01*
X47662Y7489D01*
X48351Y7948D01*
X48811Y8637D01*
X48972Y9449D01*
X48811Y10261D01*
X48351Y10949D01*
X47771Y11336D01*
X47733Y11507D01*
Y11721D01*
X47771Y11892D01*
X48351Y12279D01*
X48811Y12968D01*
X48972Y13780D01*
X48811Y14592D01*
X48351Y15280D01*
X47662Y15740D01*
X46850Y15901D01*
D02*
G37*
G36*
X31996Y8305D02*
X30671D01*
Y6981D01*
X30772Y7001D01*
X31494Y7483D01*
X31976Y8204D01*
X31996Y8305D01*
D02*
G37*
G36*
X109724Y10116D02*
X109027Y10024D01*
X108377Y9755D01*
X107819Y9327D01*
X107391Y8769D01*
X107122Y8119D01*
X107030Y7421D01*
X107122Y6724D01*
X107391Y6074D01*
X107819Y5516D01*
X108377Y5088D01*
X109027Y4818D01*
X109724Y4727D01*
X110422Y4818D01*
X111072Y5088D01*
X111630Y5516D01*
X112058Y6074D01*
X112327Y6724D01*
X112419Y7421D01*
X112327Y8119D01*
X112058Y8769D01*
X111630Y9327D01*
X111072Y9755D01*
X110422Y10024D01*
X109724Y10116D01*
D02*
G37*
G36*
X97913D02*
X97216Y10024D01*
X96566Y9755D01*
X96008Y9327D01*
X95580Y8769D01*
X95310Y8119D01*
X95219Y7421D01*
X95310Y6724D01*
X95580Y6074D01*
X96008Y5516D01*
X96566Y5088D01*
X97216Y4818D01*
X97913Y4727D01*
X98611Y4818D01*
X99261Y5088D01*
X99819Y5516D01*
X100247Y6074D01*
X100516Y6724D01*
X100608Y7421D01*
X100516Y8119D01*
X100247Y8769D01*
X99819Y9327D01*
X99261Y9755D01*
X98611Y10024D01*
X97913Y10116D01*
D02*
G37*
%LPD*%
G36*
X283062Y35048D02*
X283062Y32668D01*
X281762Y31368D01*
X276506Y31368D01*
X274409Y33465D01*
X274410Y34252D01*
X276469Y36312D01*
X281798Y36312D01*
X283062Y35048D01*
D02*
G37*
G36*
Y29143D02*
X283062Y26763D01*
X281762Y25463D01*
X276506Y25463D01*
X274409Y27559D01*
X274410Y28346D01*
X276469Y30406D01*
X281798Y30406D01*
X283062Y29143D01*
D02*
G37*
G36*
Y23237D02*
X283062Y20857D01*
X281762Y19557D01*
X276506Y19557D01*
X274409Y21654D01*
X274410Y22441D01*
X276469Y24501D01*
X281798Y24501D01*
X283062Y23237D01*
D02*
G37*
G36*
X283090Y17347D02*
Y15075D01*
X279173Y11158D01*
X279134Y11119D01*
X279095Y11158D01*
X275178Y15075D01*
Y17347D01*
X276355Y18525D01*
X281913D01*
X283090Y17347D01*
D02*
G37*
G36*
X133465Y125591D02*
Y112598D01*
X132283Y111417D01*
X127612Y111417D01*
X123355Y107161D01*
X119426Y111417D01*
X114567Y111417D01*
X113779Y112205D01*
X113779Y116929D01*
X112205Y118504D01*
X113779Y120079D01*
X113779Y121063D01*
Y125591D01*
X114567Y126378D01*
X132677D01*
X133465Y125591D01*
D02*
G37*
G36*
X180315Y64758D02*
Y62205D01*
X169291Y51181D01*
X156812D01*
X151642Y55081D01*
X150394Y59449D01*
X155703Y64758D01*
X180315Y64758D01*
D02*
G37*
G36*
X279173Y50636D02*
X283090Y46718D01*
Y44446D01*
X281913Y43269D01*
X276355D01*
X275178Y44446D01*
Y46718D01*
X279095Y50636D01*
X279134Y50675D01*
X279173Y50636D01*
D02*
G37*
%LPC*%
G36*
X310424Y87431D02*
X308624D01*
Y85281D01*
X310424D01*
Y87431D01*
D02*
G37*
G36*
X369991Y90939D02*
X362292D01*
Y90405D01*
X361305D01*
Y90781D01*
X356805D01*
Y85581D01*
X361305D01*
Y86530D01*
X362292D01*
Y85996D01*
X369991D01*
Y90939D01*
D02*
G37*
G36*
X356187Y90781D02*
X351687D01*
Y90118D01*
X351069D01*
Y90781D01*
X346569D01*
Y90520D01*
X345016D01*
X344275Y90372D01*
X343646Y89952D01*
X342516Y88823D01*
X342138D01*
X341396Y88675D01*
X341262Y88585D01*
X338973D01*
Y84902D01*
X341516D01*
X341996Y84806D01*
X342476Y84902D01*
X345019D01*
Y85846D01*
X345819Y86646D01*
X346569D01*
Y85581D01*
X351069D01*
Y86244D01*
X351687D01*
Y85581D01*
X356187D01*
Y90781D01*
D02*
G37*
G36*
Y84481D02*
X351687D01*
Y83818D01*
X351069D01*
Y84481D01*
X346569D01*
Y83818D01*
X342133D01*
X341392Y83671D01*
X341264Y83585D01*
X338973D01*
Y79902D01*
X341516D01*
X341996Y79806D01*
X342476Y79902D01*
X345019D01*
Y79944D01*
X346569D01*
Y79281D01*
X351069D01*
Y79501D01*
X351569Y79708D01*
X351687Y79590D01*
X351687Y79034D01*
X351333Y78681D01*
X341996D01*
X341516Y78585D01*
X338973D01*
Y74902D01*
X341516D01*
X341996Y74806D01*
X351687D01*
Y73770D01*
X356187D01*
Y75066D01*
X356805D01*
Y73770D01*
X361305D01*
Y75171D01*
X362292D01*
Y74579D01*
X369991D01*
Y79522D01*
X362292D01*
Y79045D01*
X361707D01*
X361305Y79281D01*
X361305Y79545D01*
Y84481D01*
X356805D01*
Y84481D01*
X356305Y84184D01*
X356187Y84230D01*
Y84481D01*
D02*
G37*
G36*
X324074Y73585D02*
X318028D01*
Y69902D01*
X324074D01*
Y73585D01*
D02*
G37*
G36*
X311168Y70895D02*
X309018D01*
Y69095D01*
X311168D01*
Y70895D01*
D02*
G37*
G36*
X317168Y73895D02*
X311968D01*
Y69395D01*
X312885D01*
Y68897D01*
X313013Y68253D01*
X313378Y67707D01*
X315531Y65554D01*
X315531Y65554D01*
X316077Y65189D01*
X316721Y65061D01*
X318028D01*
Y64902D01*
X324074D01*
Y68585D01*
X318028D01*
Y68426D01*
X317418D01*
X316911Y68933D01*
X317102Y69395D01*
X317168D01*
Y73895D01*
D02*
G37*
G36*
X361605Y61159D02*
X359805D01*
Y59009D01*
X361605D01*
Y61159D01*
D02*
G37*
G36*
Y57509D02*
X359805D01*
Y55359D01*
X361605D01*
Y57509D01*
D02*
G37*
G36*
X364026Y54519D02*
X361876D01*
Y52719D01*
X364026D01*
Y54519D01*
D02*
G37*
G36*
X369991Y60443D02*
X362292D01*
Y55500D01*
X365488D01*
Y54219D01*
X364826D01*
Y49718D01*
X370026D01*
Y54219D01*
X369363D01*
Y55500D01*
X369991D01*
Y60443D01*
D02*
G37*
G36*
X326266Y23063D02*
X321766D01*
Y22146D01*
X321148D01*
Y23063D01*
X316648D01*
Y22275D01*
X316158Y22251D01*
X316148Y22251D01*
X313348D01*
Y19873D01*
X312598D01*
Y19123D01*
X309039D01*
Y17495D01*
X309236D01*
Y14718D01*
X311614D01*
X313992D01*
Y17495D01*
X316158D01*
Y17840D01*
X316648Y17863D01*
X316657Y17863D01*
X321148D01*
Y18781D01*
X321766D01*
Y17863D01*
X322333D01*
Y17159D01*
X321766D01*
Y16241D01*
X321172D01*
Y17227D01*
X317017D01*
Y10709D01*
X321172D01*
Y12876D01*
X321766D01*
Y11959D01*
X326266D01*
Y17159D01*
X325698D01*
Y17863D01*
X326266D01*
Y23063D01*
D02*
G37*
G36*
X311848Y22251D02*
X309039D01*
Y20623D01*
X311848D01*
Y22251D01*
D02*
G37*
G36*
X313992Y13218D02*
X311614D01*
X309236D01*
Y10409D01*
X309677D01*
Y8113D01*
X309560Y7938D01*
X309540Y7837D01*
X313689D01*
X313669Y7938D01*
X313551Y8113D01*
Y10409D01*
X313992D01*
Y13218D01*
D02*
G37*
G36*
X313689Y6337D02*
X312364D01*
Y5012D01*
X312465Y5032D01*
X313187Y5514D01*
X313669Y6236D01*
X313689Y6337D01*
D02*
G37*
G36*
X310864D02*
X309540D01*
X309560Y6236D01*
X310042Y5514D01*
X310763Y5032D01*
X310864Y5012D01*
Y6337D01*
D02*
G37*
G36*
X351763Y17467D02*
X349963D01*
Y15317D01*
X351763D01*
Y17467D01*
D02*
G37*
G36*
Y13817D02*
X349963D01*
Y11667D01*
X351763D01*
Y13817D01*
D02*
G37*
%LPD*%
D13*
X290335Y123603D02*
Y123996D01*
Y121437D02*
Y121831D01*
Y119469D02*
Y119863D01*
Y117500D02*
Y117894D01*
Y117500D02*
Y117894D01*
Y119469D02*
Y119863D01*
Y121437D02*
Y121831D01*
Y123603D02*
Y123996D01*
X291713Y117500D02*
Y117894D01*
Y119469D02*
Y119863D01*
Y121437D02*
Y121831D01*
Y123603D02*
Y123996D01*
X290335Y70493D02*
Y70886D01*
Y72658D02*
Y73052D01*
Y74626D02*
Y75020D01*
Y76595D02*
Y76989D01*
X291713Y70493D02*
Y70886D01*
Y72658D02*
Y73052D01*
Y74626D02*
Y75020D01*
Y76595D02*
Y76989D01*
Y76595D02*
Y76989D01*
Y74626D02*
Y75020D01*
Y72658D02*
Y73052D01*
Y70493D02*
Y70886D01*
Y24036D02*
Y24430D01*
Y26201D02*
Y26595D01*
Y28170D02*
Y28563D01*
Y30138D02*
Y30532D01*
Y30138D02*
Y30532D01*
Y28170D02*
Y28563D01*
Y26201D02*
Y26595D01*
Y24036D02*
Y24430D01*
X290335Y30138D02*
Y30532D01*
Y28170D02*
Y28563D01*
Y26201D02*
Y26595D01*
Y24036D02*
Y24430D01*
D20*
X248819Y192913D02*
X264173Y177559D01*
Y150394D02*
Y177559D01*
X105118Y192913D02*
X248819D01*
X46850Y131496D02*
Y134646D01*
X105118Y192913D01*
D22*
X5408Y32087D02*
Y99803D01*
X4921Y32087D02*
X5408D01*
X0Y31496D02*
Y99803D01*
X10827Y31890D02*
Y99803D01*
X11024D01*
X8071Y32087D02*
Y99606D01*
X8268D01*
X4921Y32087D02*
Y99803D01*
X5894D01*
X1772Y31693D02*
Y99803D01*
X1575D02*
X1772D01*
X-1969Y31496D02*
Y99803D01*
Y-1969D02*
Y31496D01*
X13583D01*
X-1969Y99803D02*
X13757D01*
X-1969D02*
Y380315D01*
X291732Y137205D02*
X382677D01*
Y-1969D02*
Y137205D01*
X-1969Y-1969D02*
X382677D01*
X-1969Y380315D02*
X291732D01*
Y137205D02*
Y380315D01*
X13583Y31496D02*
X13757Y31670D01*
Y99803D01*
X-1969Y-1969D02*
X-1575D01*
D23*
X291024Y126319D02*
Y136614D01*
Y103091D02*
Y114902D01*
Y79587D02*
Y91398D01*
Y56359D02*
Y68170D01*
Y33130D02*
Y44941D01*
Y-846D02*
Y21556D01*
X290984Y100217D02*
X291024Y100256D01*
X290984Y94233D02*
X291024Y94272D01*
X290945Y97343D02*
X290984Y97382D01*
X290945Y50611D02*
X290984Y50650D01*
Y47501D02*
X291024Y47540D01*
X290984Y53485D02*
X291024Y53524D01*
D60*
X13484Y181102D02*
D03*
X166929Y14952D02*
D03*
D74*
X314370Y61024D02*
D03*
X304528D02*
D03*
D75*
X330315Y20464D02*
D03*
X336615D02*
D03*
X298425Y66929D02*
D03*
X304725D02*
D03*
X308268Y71645D02*
D03*
X314568D02*
D03*
Y76763D02*
D03*
X308268D02*
D03*
X320866Y92511D02*
D03*
X327166D02*
D03*
X349212Y51968D02*
D03*
X355512D02*
D03*
X367426D02*
D03*
X361126D02*
D03*
D78*
X311614Y13968D02*
D03*
X319094D02*
D03*
X327756Y98417D02*
D03*
X320276D02*
D03*
D79*
X349213Y8267D02*
D03*
Y14567D02*
D03*
X324016Y14559D02*
D03*
Y8259D02*
D03*
X318898Y26763D02*
D03*
Y20463D02*
D03*
X324016Y26763D02*
D03*
Y20463D02*
D03*
X307874Y81881D02*
D03*
Y88181D02*
D03*
X314961D02*
D03*
Y81881D02*
D03*
X348819Y88181D02*
D03*
Y81881D02*
D03*
X353937Y88181D02*
D03*
Y81881D02*
D03*
X359055Y81881D02*
D03*
Y88181D02*
D03*
X353937Y76370D02*
D03*
Y70070D02*
D03*
X359055Y76370D02*
D03*
Y70070D02*
D03*
X353937Y64559D02*
D03*
Y58259D02*
D03*
X359055Y64559D02*
D03*
Y58259D02*
D03*
D87*
X312205Y37983D02*
D03*
Y45464D02*
D03*
X327953Y37983D02*
D03*
Y45464D02*
D03*
X320079Y37983D02*
D03*
Y45464D02*
D03*
X312598Y19873D02*
D03*
Y27354D02*
D03*
D108*
X217323Y53543D02*
X241013Y29853D01*
X258593D01*
X217323Y53543D02*
Y65748D01*
X215286Y52431D02*
X239764Y27953D01*
X279125D01*
X213386Y51575D02*
X238908Y26053D01*
X258593D02*
X264164Y22039D01*
X213386Y51575D02*
Y67323D01*
X215286Y52431D02*
Y66536D01*
X238908Y26053D02*
X258593D01*
X258593Y29853D02*
X264164Y33849D01*
X336615Y16264D02*
Y20464D01*
X332734Y12383D02*
X336615Y16264D01*
X331093Y12383D02*
X332734D01*
X330511Y11802D02*
X331093Y12383D01*
Y8643D02*
X335415D01*
X339182Y12411D02*
Y14961D01*
X335415Y8643D02*
X339182Y12411D01*
Y14961D02*
X339763Y15542D01*
X340748D01*
X330511Y8062D02*
X331093Y8643D01*
X264164Y33849D02*
X279134D01*
X264164Y22039D02*
X279134D01*
X279125Y27953D02*
X279134Y27944D01*
X215286Y66536D02*
X238651Y89901D01*
X212598Y72047D02*
X231890Y91339D01*
X197638Y72047D02*
X212598D01*
X190739Y78947D02*
X197638Y72047D01*
X213386Y67323D02*
X236751Y90688D01*
X188977Y77165D02*
X196851Y69291D01*
X212667D02*
X234851Y91475D01*
X196851Y69291D02*
X212667D01*
X217323Y65748D02*
X240551Y88976D01*
X190157Y79607D02*
Y79921D01*
Y79607D02*
X190739Y79026D01*
Y78947D02*
Y79026D01*
X182677Y77165D02*
X188977D01*
X240551Y88976D02*
Y97244D01*
X244094Y104724D02*
Y114567D01*
X239370Y119291D02*
X244094Y114567D01*
X239370Y119291D02*
Y124016D01*
X238651Y99281D02*
X244094Y104724D01*
X234851Y91475D02*
Y102961D01*
X240747Y105433D02*
X240826D01*
X234851Y102961D02*
X238976Y107087D01*
Y114567D01*
X236751Y101437D02*
X240747Y105433D01*
X238651Y89901D02*
Y99281D01*
X236751Y90688D02*
Y101437D01*
X240551Y97244D02*
X248819Y105512D01*
X231890Y91339D02*
Y105512D01*
D110*
X52362Y108819D02*
Y127953D01*
Y108819D02*
X52520Y108661D01*
X179827Y128440D02*
X199300D01*
X57436Y108745D02*
X57520Y108661D01*
X57436Y108745D02*
Y128732D01*
X171268Y137000D02*
X179827Y128440D01*
X65704Y137000D02*
X171268D01*
X57436Y128732D02*
X65704Y137000D01*
X64567Y140157D02*
X175591D01*
X52362Y127953D02*
X64567Y140157D01*
X175591D02*
X183071Y132677D01*
X206693D01*
X207874Y103150D02*
X213779Y109055D01*
X207874Y83858D02*
Y103150D01*
X213779Y109055D02*
Y187008D01*
X217717Y91339D02*
Y101181D01*
X224872Y108337D01*
Y183858D01*
X213779Y85827D02*
Y102362D01*
X219685Y108268D02*
Y183764D01*
X213779Y102362D02*
X219685Y108268D01*
X213386Y78347D02*
Y78347D01*
X207874Y83858D02*
X213386Y78347D01*
X219685Y183764D02*
X223716Y187795D01*
X223947D01*
D111*
X280391Y344329D02*
Y367159D01*
X269713Y333417D02*
Y333651D01*
X280391Y344329D01*
X246213Y356291D02*
X246532Y356609D01*
X276290Y371260D02*
X280391Y367159D01*
X250633Y371260D02*
X276290D01*
X246532Y367159D02*
X250633Y371260D01*
X246532Y356609D02*
Y367159D01*
X196063Y356609D02*
Y367159D01*
X220574Y333960D02*
X229921Y343307D01*
X196063Y367159D02*
X200164Y371260D01*
X225821D01*
X229921Y367159D01*
Y343307D02*
Y367159D01*
X219788Y333960D02*
X220574D01*
X219244Y333417D02*
X219788Y333960D01*
X195744Y356291D02*
X196063Y356609D01*
D112*
X346457Y8267D02*
X349213D01*
X333670Y45464D02*
X341535Y37598D01*
X349213Y8267D02*
X352388D01*
X356299Y12178D02*
Y22047D01*
X352388Y8267D02*
X356299Y12178D01*
X346456Y8267D02*
X346457Y8267D01*
X340748Y8062D02*
X340929Y8243D01*
X342861D01*
X342885Y8267D01*
X346456D01*
X351190Y27157D02*
X356299Y22047D01*
X341535Y27157D02*
X351190D01*
X335433Y93554D02*
X342146Y100267D01*
X349212Y53144D02*
X349374Y53306D01*
Y58267D01*
X366142Y57972D02*
X366654D01*
X367426Y57200D01*
Y51968D02*
Y57200D01*
X326378Y112621D02*
X327973Y114216D01*
X326378Y100976D02*
Y112621D01*
X327973Y114216D02*
Y114741D01*
X318284D02*
X327973D01*
X307874Y104331D02*
X318284Y114741D01*
X327378Y98794D02*
X327756Y98417D01*
X327378Y98794D02*
Y99976D01*
X326378Y100976D02*
X327378Y99976D01*
X341996Y61744D02*
X345898D01*
X339044D02*
X341996D01*
X335433Y65354D02*
Y93554D01*
X311614Y13968D02*
Y19495D01*
X311992Y19873D01*
X312598D01*
X327756Y93061D02*
Y98417D01*
X335433Y65354D02*
X339044Y61744D01*
X349212Y52756D02*
Y53144D01*
X345898Y61744D02*
X349374Y58267D01*
X353937Y70070D02*
X354203Y69803D01*
X358789D02*
X359055Y70070D01*
X354203Y69803D02*
X358789D01*
X348335Y71744D02*
X350197Y69882D01*
X353749D02*
X353937Y70070D01*
X350197Y69882D02*
X353749D01*
X359055Y70070D02*
X359588Y69537D01*
X365994D01*
X366142Y69389D01*
X366084Y77108D02*
X366142Y77050D01*
X359055Y76370D02*
Y76558D01*
X359605Y77108D01*
X366084D01*
X353937Y76370D02*
Y76453D01*
X354487Y77003D01*
X358505D01*
X359055Y76453D01*
Y76370D02*
Y76453D01*
X353563Y76744D02*
X353937Y76370D01*
X341996Y76744D02*
X353563D01*
X341996Y81744D02*
X342133Y81881D01*
X348819D01*
X359055Y88181D02*
X359342Y88468D01*
X366142D01*
X348819Y88181D02*
X353937D01*
X348417Y88583D02*
X348819Y88181D01*
X345016Y88583D02*
X348417D01*
X341996Y86744D02*
X342138Y86885D01*
X343319D01*
X345016Y88583D01*
X356487Y81881D02*
X359055D01*
X356487Y81881D02*
X356487Y81881D01*
X353937Y81881D02*
X356487D01*
X348819D02*
X353937D01*
X341996Y71744D02*
X348335D01*
X305110Y88181D02*
X307874D01*
X302362Y79768D02*
Y85433D01*
X305110Y88181D01*
X307874D02*
Y104331D01*
X302362Y79768D02*
X305368Y76763D01*
X308268D01*
Y71645D02*
Y76763D01*
X327206Y92511D02*
X327756Y93061D01*
X327166Y92511D02*
X327206D01*
X317728Y76744D02*
X321051D01*
X317709Y76763D02*
X317728Y76744D01*
X314568Y76763D02*
X317709D01*
X320914Y81881D02*
X321051Y81744D01*
X314961Y81881D02*
X320914D01*
X311614Y7087D02*
Y13968D01*
X327953Y45464D02*
X333670D01*
X341535Y27157D02*
Y37598D01*
X70472Y123228D02*
X75197Y118504D01*
X123622D01*
Y119291D02*
X130315D01*
D113*
X298425Y60591D02*
Y66929D01*
Y60591D02*
X299921Y59095D01*
X329046Y37983D02*
X330039Y38976D01*
X335145D01*
X327953Y37983D02*
X329046D01*
X335145Y38976D02*
X336609Y37512D01*
Y20764D02*
Y37512D01*
X336615Y20464D02*
Y20758D01*
X336609Y20764D02*
X336615Y20758D01*
X354862Y52268D02*
Y53295D01*
X355162Y51968D02*
X355512D01*
X353937Y54220D02*
X354862Y53295D01*
Y52268D02*
X355162Y51968D01*
X353937Y54220D02*
Y57609D01*
X353937Y58259D02*
X359055D01*
X361126Y48921D02*
Y51181D01*
X361037Y51880D02*
X361126Y51968D01*
X355601Y51880D02*
X361037D01*
X327973Y114741D02*
X331102Y111611D01*
Y61417D02*
Y111611D01*
X335776Y56744D02*
X341996D01*
X331102Y61417D02*
X335776Y56744D01*
X346063Y45276D02*
X357480D01*
X341996Y49343D02*
Y56744D01*
Y49343D02*
X346063Y45276D01*
X357480D02*
X361126Y48921D01*
X321051Y86744D02*
X325701D01*
X327165Y85279D01*
Y52362D02*
Y85279D01*
X325590Y50787D02*
X327165Y52362D01*
X228740Y233858D02*
Y263386D01*
D114*
X277094Y147202D02*
G03*
X278567Y148674I0J1473D01*
G01*
X276514Y147202D02*
G03*
X275277Y145965I0J-1236D01*
G01*
Y145965D02*
G03*
X276514Y144729I1236J0D01*
G01*
X278567Y143256D02*
G03*
X277094Y144729I-1473J0D01*
G01*
X278567Y148674D02*
Y151181D01*
X276514Y147202D02*
X277094D01*
X275277Y145965D02*
Y145965D01*
X276514Y144729D02*
X277094D01*
X278567Y142520D02*
Y143256D01*
Y151181D02*
Y154661D01*
Y103480D02*
Y142520D01*
X273244Y159984D02*
X278567Y154661D01*
X271706Y159984D02*
X273244D01*
X271659Y159937D02*
X271706Y159984D01*
X270567Y159937D02*
X271659D01*
X270472Y159843D02*
X270567Y159937D01*
X237795Y62709D02*
X278567Y103480D01*
X222889Y62709D02*
X237795D01*
X222792Y62807D02*
X222889Y62709D01*
X222441Y62807D02*
X222792D01*
X270567Y162504D02*
X271659D01*
X270472Y162598D02*
X270567Y162504D01*
X271706Y162457D02*
X274268D01*
X271659Y162504D02*
X271706Y162457D01*
X274268D02*
X281039Y155685D01*
Y102456D02*
Y155685D01*
X238820Y60236D02*
X281039Y102456D01*
X222539Y60236D02*
X238820D01*
X222441Y60138D02*
X222539Y60236D01*
D115*
X307874Y81881D02*
X314961D01*
X342106Y114567D02*
X350787D01*
X336615Y20464D02*
X341223D01*
X345970Y15717D01*
X348413D01*
X349213Y14567D02*
Y14917D01*
X348413Y15717D02*
X349213Y14917D01*
X350787Y114567D02*
X373622Y91732D01*
Y68504D02*
Y91732D01*
X369677Y64559D02*
X373622Y68504D01*
X359055Y64559D02*
X369677D01*
X353937D02*
X359055D01*
X341996Y66744D02*
X347823D01*
X350008Y64559D02*
X353937D01*
X347823Y66744D02*
X350008Y64559D01*
X304528Y66732D02*
X304725Y66929D01*
X304528Y61024D02*
Y66732D01*
X314370Y61417D02*
X320725D01*
X321051Y61744D01*
X316721Y66744D02*
X321051D01*
X314568Y68897D02*
Y71645D01*
Y68897D02*
X316721Y66744D01*
X330118Y27157D02*
X330315Y26960D01*
Y20464D02*
Y26960D01*
X324016Y14559D02*
Y20463D01*
X330315Y8259D02*
X330511Y8062D01*
X324016Y8259D02*
X330315D01*
X330315Y20464D02*
X330511Y20267D01*
Y15542D02*
Y20267D01*
X319685Y14559D02*
X324016D01*
X319094Y13968D02*
X319685Y14559D01*
X318898Y20463D02*
X324016D01*
X294488Y32677D02*
Y48425D01*
X299718Y27550D02*
X301575D01*
X294488Y32677D02*
X298341Y28824D01*
X298445D02*
X299718Y27550D01*
X298341Y28824D02*
X298445D01*
X294488Y48425D02*
X302807Y56744D01*
X321051D01*
X318898Y26763D02*
X324016D01*
X318307Y27354D02*
X318898Y26763D01*
X312598Y27354D02*
X318307D01*
X301575Y21645D02*
X303331D01*
X309039Y27354D01*
X312598D01*
D117*
X192913Y63386D02*
X206299Y50000D01*
X172441Y63386D02*
X192913D01*
X166527Y57472D02*
X172441Y63386D01*
X162598Y57472D02*
X166527D01*
X206299Y16535D02*
Y50000D01*
X215354Y7480D02*
X244094D01*
X206299Y16535D02*
X215354Y7480D01*
X250984Y14370D02*
Y18898D01*
X244094Y7480D02*
X250984Y14370D01*
D118*
X76378Y351969D02*
D03*
X174803D02*
D03*
X24016Y134646D02*
D03*
Y114961D02*
D03*
X95276Y235039D02*
D03*
X134646D02*
D03*
X75590Y313779D02*
D03*
X154331D02*
D03*
X34252Y283062D02*
D03*
X14567D02*
D03*
X34252Y240543D02*
D03*
X14567D02*
D03*
X146203Y102108D02*
D03*
X132283Y88189D02*
D03*
D119*
X56004Y185433D02*
D03*
D120*
X43799Y162205D02*
D03*
X166929Y32668D02*
D03*
D121*
X31201Y181102D02*
D03*
X185827Y45267D02*
D03*
D122*
X301575Y15739D02*
D03*
Y21645D02*
D03*
Y27550D02*
D03*
Y33456D02*
D03*
Y39361D02*
D03*
Y45267D02*
D03*
X279134Y45661D02*
D03*
Y39755D02*
D03*
Y33849D02*
D03*
Y27944D02*
D03*
Y22039D02*
D03*
Y16133D02*
D03*
D123*
X342106Y100220D02*
D03*
Y114362D02*
D03*
X327973Y114741D02*
D03*
D124*
X62244Y57078D02*
D03*
Y62590D02*
D03*
X64961Y59834D02*
D03*
X67756Y57078D02*
D03*
Y62590D02*
D03*
X73268Y57078D02*
D03*
Y62590D02*
D03*
X64961Y54322D02*
D03*
Y65346D02*
D03*
X70472Y54322D02*
D03*
Y59834D02*
D03*
Y65346D02*
D03*
D125*
X238139Y323416D02*
D03*
X268139Y333417D02*
D03*
Y303416D02*
D03*
X238139Y263417D02*
D03*
X268139D02*
D03*
X189244Y323416D02*
D03*
X219244Y333417D02*
D03*
Y303416D02*
D03*
X189244Y263417D02*
D03*
X219244D02*
D03*
D126*
X244639Y356291D02*
D03*
X264639D02*
D03*
X195744D02*
D03*
X215744D02*
D03*
X23622Y332520D02*
D03*
Y352520D02*
D03*
D127*
X162598Y57472D02*
D03*
D128*
X299921Y59095D02*
D03*
X281496Y90158D02*
D03*
X264173Y150394D02*
D03*
X253937Y169685D02*
D03*
X241732Y175197D02*
D03*
X235827Y72441D02*
D03*
X265748Y60630D02*
D03*
X276378Y71260D02*
D03*
X239370Y47244D02*
D03*
Y39370D02*
D03*
X255118Y51181D02*
D03*
X247244D02*
D03*
X265354Y16142D02*
D03*
X255512Y9449D02*
D03*
X318504Y34646D02*
D03*
X324803D02*
D03*
X311614Y7087D02*
D03*
X198425Y227165D02*
D03*
X207480Y235827D02*
D03*
X197638Y120079D02*
D03*
X152006Y165642D02*
D03*
X118148Y72404D02*
D03*
X50787Y153150D02*
D03*
X178347Y168110D02*
D03*
X147638Y124803D02*
D03*
X151537Y144776D02*
D03*
X139370Y184646D02*
D03*
X170866Y127165D02*
D03*
X111811Y181102D02*
D03*
X100787D02*
D03*
X75590Y155118D02*
D03*
X91732Y153150D02*
D03*
X83858D02*
D03*
X74803Y112598D02*
D03*
X45276Y119685D02*
D03*
X181890Y120079D02*
D03*
X200394Y176378D02*
D03*
X192913D02*
D03*
X228740Y151969D02*
D03*
X216535D02*
D03*
X228740Y165354D02*
D03*
X216929D02*
D03*
X191732Y137402D02*
D03*
X253543Y134646D02*
D03*
X270079Y208268D02*
D03*
Y228346D02*
D03*
X214567Y205512D02*
D03*
X203150Y200000D02*
D03*
X219897Y216535D02*
D03*
X190945Y200000D02*
D03*
X206693Y213386D02*
D03*
X219685Y226772D02*
D03*
X228740Y233858D02*
D03*
Y263386D02*
D03*
X165354Y168504D02*
D03*
X168898Y178740D02*
D03*
Y173228D02*
D03*
X161811Y163386D02*
D03*
Y157480D02*
D03*
X37402Y38189D02*
D03*
X29921Y22441D02*
D03*
Y15748D02*
D03*
Y9055D02*
D03*
X68110Y23819D02*
D03*
X46850Y131496D02*
D03*
X199300Y128400D02*
D03*
X206693Y132677D02*
D03*
X81102Y131496D02*
D03*
X84646D02*
D03*
X88189D02*
D03*
X91732D02*
D03*
X52520Y108661D02*
D03*
X57520D02*
D03*
X190157Y79921D02*
D03*
X201960Y79518D02*
D03*
Y97629D02*
D03*
X224872Y183858D02*
D03*
X70472Y123228D02*
D03*
X73622Y169291D02*
D03*
X66142D02*
D03*
X58661D02*
D03*
X190551Y144882D02*
D03*
X182677Y77165D02*
D03*
X240826Y105433D02*
D03*
X248819Y105512D02*
D03*
X238976Y114567D02*
D03*
X231890Y105512D02*
D03*
X247244Y141339D02*
D03*
X239370Y124016D02*
D03*
X53150Y10236D02*
D03*
X46850Y9449D02*
D03*
Y13780D02*
D03*
X223947Y187795D02*
D03*
X217717Y91339D02*
D03*
X213779Y85827D02*
D03*
X263779Y188189D02*
D03*
X262598Y51181D02*
D03*
X183858Y102362D02*
D03*
Y105905D02*
D03*
X250984Y18898D02*
D03*
X130315Y117323D02*
D03*
X124409Y121260D02*
D03*
X124803Y114961D02*
D03*
X51968Y196850D02*
D03*
X57087D02*
D03*
X61811D02*
D03*
D129*
X222441Y62807D02*
D03*
Y60138D02*
D03*
X270472Y162598D02*
D03*
Y159843D02*
D03*
X213779Y187008D02*
D03*
X213386Y78347D02*
D03*
D130*
X229134Y49213D02*
D03*
Y30315D02*
D03*
D169*
X330118Y27157D02*
D03*
X341535D02*
D03*
D170*
X340748Y15542D02*
D03*
Y8062D02*
D03*
X330511Y15542D02*
D03*
Y11802D02*
D03*
Y8062D02*
D03*
D171*
X321051Y56744D02*
D03*
Y61744D02*
D03*
Y66744D02*
D03*
Y71744D02*
D03*
Y76744D02*
D03*
Y81744D02*
D03*
Y86744D02*
D03*
X341996Y56744D02*
D03*
Y61744D02*
D03*
Y66744D02*
D03*
Y71744D02*
D03*
Y76744D02*
D03*
Y81744D02*
D03*
Y86744D02*
D03*
D172*
X366142Y69389D02*
D03*
Y57972D02*
D03*
Y88468D02*
D03*
Y77050D02*
D03*
D173*
X142528Y57472D02*
X162598D01*
X123425Y76575D02*
Y113583D01*
Y76575D02*
X142528Y57472D01*
X123622Y114961D02*
Y118504D01*
Y119291D01*
X124803Y114961D02*
Y114961D01*
X123425Y113583D02*
X124803Y114961D01*
M02*
