G04*
G04 #@! TF.GenerationSoftware,Altium Limited,Altium Designer,20.0.13 (296)*
G04*
G04 Layer_Color=65535*
%FSLAX25Y25*%
%MOIN*%
G70*
G01*
G75*
%ADD10C,0.00787*%
%ADD11C,0.01968*%
%ADD12C,0.01575*%
%ADD13C,0.00984*%
%ADD14C,0.00040*%
%ADD15C,0.00065*%
%ADD16C,0.00008*%
%ADD17C,0.00394*%
%ADD18C,0.01181*%
%ADD19C,0.00591*%
%ADD20C,0.01000*%
%ADD21C,0.00591*%
%ADD22C,0.03937*%
%ADD23C,0.02362*%
G36*
X283495Y337108D02*
X283810Y336982D01*
X284097Y336884D01*
X284419Y336747D01*
X284648Y336636D01*
X284950Y336432D01*
X285139Y336255D01*
X285560Y335885D01*
X285827Y335523D01*
X286004Y335189D01*
X286209Y334835D01*
X286378Y334469D01*
X286475Y334067D01*
X286564Y333503D01*
X286625Y333077D01*
X286664Y332565D01*
X286585Y332211D01*
X286507Y331896D01*
X286428Y331541D01*
X286310Y331345D01*
X286192Y331030D01*
X285955Y330557D01*
X285837Y330400D01*
X285719Y330242D01*
X285640Y330085D01*
X285522Y330006D01*
X285483Y329966D01*
X284532Y330918D01*
X284523Y331158D01*
X284650Y331374D01*
X284850Y331670D01*
X284997Y331898D01*
X285107Y332129D01*
X285243Y332625D01*
X285261Y333359D01*
X284828Y334332D01*
X284325Y334859D01*
X283817Y335278D01*
X283459Y335436D01*
X282991Y335538D01*
X282772Y335578D01*
X282543Y335597D01*
X282450Y335605D01*
X282357Y335597D01*
X282128Y335578D01*
X281909Y335538D01*
X281441Y335436D01*
X281083Y335278D01*
X280575Y334859D01*
X280072Y334332D01*
X279639Y333359D01*
X279658Y332625D01*
X279794Y332129D01*
X279904Y331898D01*
X280051Y331670D01*
X280250Y331374D01*
X280378Y331158D01*
X280368Y330918D01*
X279417Y329966D01*
X279378Y330006D01*
X279260Y330085D01*
X279181Y330242D01*
X279063Y330400D01*
X278945Y330557D01*
X278709Y331030D01*
X278590Y331345D01*
X278472Y331541D01*
X278394Y331896D01*
X278315Y332211D01*
X278236Y332565D01*
X278276Y333077D01*
X278336Y333503D01*
X278425Y334067D01*
X278522Y334469D01*
X278691Y334835D01*
X278896Y335189D01*
X279073Y335523D01*
X279340Y335885D01*
X279761Y336255D01*
X279950Y336432D01*
X280253Y336636D01*
X280481Y336747D01*
X280803Y336884D01*
X281090Y336982D01*
X281405Y337108D01*
X282454Y337165D01*
X283495Y337108D01*
D02*
G37*
G36*
X283060Y329704D02*
X281655D01*
X281617Y329703D01*
X281614Y333363D01*
X283062D01*
X283060Y329704D01*
D02*
G37*
G36*
X232637Y329581D02*
Y339283D01*
X241829D01*
X232637Y329581D01*
D02*
G37*
G36*
X183742D02*
Y339283D01*
X192935D01*
X183742Y329581D01*
D02*
G37*
G36*
X283068Y329028D02*
X282844Y328681D01*
X282471Y328476D01*
X282265Y328345D01*
X282034Y328196D01*
X281810Y328046D01*
X281537Y327927D01*
X281407Y327777D01*
X281631Y327688D01*
X282209Y327531D01*
X282545Y327408D01*
X282978Y327314D01*
X283314Y327221D01*
X283863Y326997D01*
X284610Y326803D01*
X285256Y326579D01*
X285853Y326392D01*
X286189Y326288D01*
X286794Y326093D01*
X287515Y325851D01*
X288157Y325645D01*
X288467Y325324D01*
X288590Y325082D01*
X288586Y324662D01*
X288369Y324325D01*
X288130Y324104D01*
X287817Y324003D01*
X287591Y323897D01*
X287387Y323786D01*
X286994Y323589D01*
X286763Y323483D01*
X286551Y323390D01*
X286245Y323279D01*
X286038Y323173D01*
X285821Y323093D01*
X285600Y322992D01*
X285362Y322880D01*
X284968Y322683D01*
X284693Y322565D01*
X284417Y322408D01*
X284063Y322250D01*
X283866Y322132D01*
X283630Y322014D01*
X283433Y321935D01*
X283236Y321817D01*
X283079Y321659D01*
Y319730D01*
X281604Y319730D01*
X281622Y322526D01*
X281730Y322729D01*
X281943Y322953D01*
X282055Y323056D01*
X282481Y323267D01*
X282682Y323370D01*
X283111Y323583D01*
X284670Y324310D01*
X284869Y324413D01*
X285603Y324727D01*
X284968Y324943D01*
X284360Y325167D01*
X283717Y325373D01*
X283120Y325567D01*
X282365Y325783D01*
X281757Y325989D01*
X281133Y326205D01*
X280685Y326306D01*
X280088Y326523D01*
X279752Y326624D01*
X279222Y326840D01*
X278912Y327139D01*
X278914Y327147D01*
X278909Y327146D01*
X278906Y327840D01*
X279063Y328077D01*
X279299Y328234D01*
X279614Y328431D01*
X279890Y328628D01*
X280244Y328864D01*
X280559Y329022D01*
X280835Y329219D01*
X281617Y329703D01*
X283060Y329704D01*
X283068Y329028D01*
D02*
G37*
G36*
X287858Y314413D02*
X287858Y314200D01*
X287859Y314012D01*
X287862D01*
Y310815D01*
X287864Y310785D01*
X285996Y310784D01*
X286002Y313978D01*
X284098Y313979D01*
Y310803D01*
X284100Y310773D01*
X282232Y310772D01*
X282239Y313980D01*
X280248Y313981D01*
Y310827D01*
X280250Y310797D01*
X278382Y310795D01*
X278388Y313982D01*
X278386D01*
X278388Y314409D01*
X279559Y316208D01*
X282488Y316207D01*
X283118Y314837D01*
X283874Y316218D01*
X286720D01*
X287858Y314413D01*
D02*
G37*
G36*
X280276Y306927D02*
Y306837D01*
X282232D01*
Y310045D01*
X284012D01*
X284016Y306821D01*
X285984D01*
Y310057D01*
X287866D01*
Y306596D01*
Y304754D01*
X278390D01*
X278382Y306596D01*
X278382Y310072D01*
X280277D01*
X280276Y306927D01*
D02*
G37*
G36*
X286799Y301927D02*
X287848Y300134D01*
X287853Y300134D01*
X287852Y300128D01*
X287854Y300124D01*
X287867Y296624D01*
X285962D01*
X285975Y299850D01*
X284111Y299861D01*
X284114Y296532D01*
X282238Y296532D01*
X282238Y299873D01*
X282232Y299873D01*
X282232Y300144D01*
X283303Y301931D01*
X286799Y301927D01*
D02*
G37*
G36*
X281421Y301928D02*
Y299856D01*
X280272D01*
Y296526D01*
X278362D01*
X278362Y300057D01*
X278398Y300144D01*
D01*
X279430Y301929D01*
X281420D01*
X281421Y301928D01*
D02*
G37*
G36*
X287872Y292675D02*
X287873Y292417D01*
X286693Y290486D01*
X284835D01*
X284835Y290487D01*
Y292678D01*
X284844Y292678D01*
X285984Y292677D01*
X285987Y295908D01*
X287872D01*
X287872Y292675D01*
D02*
G37*
G36*
X280264Y292565D02*
X282232D01*
Y295892D01*
X284122D01*
X284142Y292309D01*
X282961Y290498D01*
X279535D01*
X278394Y292309D01*
Y295911D01*
X280264D01*
Y292565D01*
D02*
G37*
G36*
X287862Y285596D02*
X281179Y285607D01*
X281268Y285518D01*
X284004Y282565D01*
X284004Y282368D01*
X281532D01*
X278378Y285808D01*
X278374Y287782D01*
X287842D01*
X287862Y285596D01*
D02*
G37*
G36*
X284007Y281469D02*
X281090Y278431D01*
X287862Y278411D01*
Y276305D01*
X278374D01*
X278354Y278254D01*
X281524Y281640D01*
X284007D01*
Y281469D01*
D02*
G37*
G36*
X103425Y122273D02*
Y111292D01*
X102448D01*
X102129Y111611D01*
Y122470D01*
X103425Y122273D01*
D02*
G37*
G36*
X338189Y79921D02*
X335827Y77559D01*
Y82284D01*
X338189Y79921D01*
D02*
G37*
D10*
X353080Y107405D02*
G03*
X353080Y107405I-18110J0D01*
G01*
X43701Y124803D02*
G03*
X43701Y124803I-19685J0D01*
G01*
X44882Y283062D02*
G03*
X44882Y283062I-20472J0D01*
G01*
Y240543D02*
G03*
X44882Y240543I-20472J0D01*
G01*
X159716Y95149D02*
G03*
X159716Y95149I-20472J0D01*
G01*
X179921Y332283D02*
Y371654D01*
X71260Y332283D02*
X179921D01*
X71260Y371654D02*
X179921D01*
X71260Y332283D02*
Y371654D01*
X42126Y149213D02*
X70866D01*
Y170079D01*
Y187008D02*
Y212598D01*
X42126D02*
X70866D01*
X332608Y86932D02*
X335364D01*
X332608D02*
Y89098D01*
X337332Y86932D02*
Y89098D01*
X335364Y86932D02*
X337332D01*
X331713Y59046D02*
Y62881D01*
X335650D01*
X331828Y49747D02*
Y53583D01*
Y49747D02*
X335765D01*
X242520Y28346D02*
X248819D01*
X242520Y34646D02*
X248819D01*
X248031Y28346D02*
Y34646D01*
X88071Y13721D02*
Y17783D01*
X119567D01*
Y13721D02*
Y17783D01*
X88071Y5847D02*
Y8996D01*
X119529Y5960D02*
Y9110D01*
X54547Y22835D02*
Y26670D01*
X58484D01*
X54663Y13536D02*
Y17371D01*
Y13536D02*
X58600D01*
X214079Y169283D02*
X233764D01*
X210142Y165346D02*
X214079Y169283D01*
X210142Y145661D02*
Y165346D01*
Y145661D02*
X233764D01*
Y169283D01*
X257480Y247479D02*
X263779D01*
X257480Y253778D02*
X263779D01*
X262992Y247479D02*
Y253778D01*
X247028Y240644D02*
Y244479D01*
X243091Y240644D02*
X247028D01*
X246912Y249943D02*
Y253778D01*
X242975D02*
X246912D01*
X241443Y181684D02*
X289370D01*
X241443D02*
Y184567D01*
Y231811D02*
Y234694D01*
X289370D01*
Y181684D02*
Y234694D01*
X210453Y249943D02*
Y253778D01*
X214390D01*
X210568Y240644D02*
Y244479D01*
Y240644D02*
X214506D01*
X192913Y253778D02*
X199213D01*
X192913Y247479D02*
X199213D01*
X193701D02*
Y253778D01*
X231016Y348023D02*
X277867D01*
X231016D02*
Y376763D01*
X277867D01*
Y348023D02*
Y376763D01*
X182122Y348023D02*
X228972D01*
X182122D02*
Y376763D01*
X228972D01*
Y348023D02*
Y376763D01*
X31890Y318898D02*
Y365748D01*
X3150Y318898D02*
X31890D01*
X3150D02*
Y365748D01*
X31890D01*
X35827Y275975D02*
X41339D01*
X38583Y273220D02*
Y278731D01*
X35827Y233456D02*
X41339D01*
X38583Y230700D02*
Y236212D01*
X208268Y22047D02*
X247638D01*
Y1181D02*
Y22047D01*
X208268Y1181D02*
X247638D01*
X208268D02*
Y22047D01*
X253091Y76810D02*
Y95708D01*
X239705Y76810D02*
X253091D01*
X239705D02*
Y95708D01*
X253091D01*
X105905Y131496D02*
X119291D01*
Y150394D01*
X105905D02*
X119291D01*
X105905Y131496D02*
Y150394D01*
X105905Y109440D02*
Y124401D01*
Y109440D02*
X120866D01*
Y124401D01*
X105905D02*
X120866D01*
X198819Y43594D02*
Y72334D01*
X177953D02*
X198819D01*
X135433D02*
X161024D01*
X135433Y43594D02*
Y72334D01*
X163124Y94836D02*
X168368D01*
Y102463D01*
X163124D02*
X168368D01*
X163124Y94836D02*
Y102463D01*
X178150Y103121D02*
X191535D01*
X178150Y84224D02*
Y103121D01*
Y84224D02*
X191535D01*
Y103121D01*
X152327Y98211D02*
X156225Y102108D01*
X152327D02*
X156225Y98211D01*
X47740Y115571D02*
X51575D01*
X47740D02*
Y119508D01*
X57039Y115687D02*
X60874D01*
Y119624D01*
X79364Y111292D02*
Y122273D01*
Y111292D02*
X103425D01*
Y122273D01*
X79364D02*
X103425D01*
X87402Y154724D02*
Y163386D01*
X116929Y160236D02*
Y162992D01*
X87402Y154331D02*
X109055D01*
X87402D02*
Y154724D01*
X117717Y154724D02*
Y158268D01*
X115945Y156496D02*
X119488D01*
X111024Y154331D02*
X116929Y160236D01*
X109055Y154331D02*
X111024D01*
X87402Y172835D02*
Y181496D01*
X116929Y173228D02*
Y175984D01*
X87402Y181890D02*
X109055D01*
X87402Y181496D02*
Y181890D01*
X111024D02*
X116929Y175984D01*
X109055Y181890D02*
X111024D01*
X94789Y212668D02*
X100694D01*
X94685Y206094D02*
X100591D01*
X87795Y192117D02*
Y198416D01*
X94095Y192117D02*
Y198416D01*
X87795Y192905D02*
X94095D01*
X158661Y118898D02*
Y125197D01*
X164961Y118898D02*
Y125197D01*
X158661Y119685D02*
X164961D01*
X138976Y173220D02*
X166142D01*
Y156684D02*
Y173220D01*
X138976Y156684D02*
X166142D01*
X138976D02*
Y173220D01*
X180442Y162348D02*
X184896Y166802D01*
X189907Y152883D02*
X194361Y157337D01*
X124016Y182668D02*
Y215739D01*
X150000D01*
Y182668D02*
Y215739D01*
X124016Y182668D02*
X150000D01*
X127559Y186605D02*
Y191330D01*
Y207078D02*
Y211802D01*
X125197Y209440D02*
X129921D01*
X20118Y42905D02*
X17494D01*
X16182Y44217D01*
X17494Y45529D01*
X20118D01*
X18150D01*
Y42905D01*
X20118Y46840D02*
X17494D01*
Y48808D01*
X18150Y49464D01*
X20118D01*
X16838Y51432D02*
X17494D01*
Y50776D01*
Y52088D01*
Y51432D01*
X19462D01*
X20118Y52088D01*
Y56024D02*
Y54712D01*
X19462Y54056D01*
X18150D01*
X17494Y54712D01*
Y56024D01*
X18150Y56680D01*
X18806D01*
Y54056D01*
X20118Y57992D02*
X17494D01*
Y59960D01*
X18150Y60615D01*
X20118D01*
Y61927D02*
X17494D01*
Y63895D01*
X18150Y64551D01*
X20118D01*
X17494Y66519D02*
Y67831D01*
X18150Y68487D01*
X20118D01*
Y66519D01*
X19462Y65863D01*
X18806Y66519D01*
Y68487D01*
X20118Y73735D02*
X17494D01*
X16182Y75046D01*
X17494Y76358D01*
X20118D01*
X18150D01*
Y73735D01*
X17494Y77670D02*
X20118D01*
X18806D01*
X18150Y78326D01*
X17494Y78982D01*
Y79638D01*
X20118Y83574D02*
Y82262D01*
X19462Y81606D01*
X18150D01*
X17494Y82262D01*
Y83574D01*
X18150Y84230D01*
X18806D01*
Y81606D01*
X17494Y86198D02*
Y87510D01*
X18150Y88166D01*
X20118D01*
Y86198D01*
X19462Y85542D01*
X18806Y86198D01*
Y88166D01*
D11*
X206992Y173220D02*
G03*
X206992Y173220I-787J0D01*
G01*
D12*
X238917Y97676D02*
G03*
X238917Y97676I-394J0D01*
G01*
X120866Y129528D02*
G03*
X120866Y129528I-394J0D01*
G01*
X177362Y105090D02*
G03*
X177362Y105090I-394J0D01*
G01*
X50394Y220079D02*
Y329921D01*
Y220079D02*
X179921D01*
Y329921D01*
X50787D02*
X179921D01*
D13*
X236419Y46639D02*
G03*
X236419Y46639I-394J0D01*
G01*
X29921Y134646D02*
X34252D01*
X32087Y132480D02*
Y136811D01*
X232312Y339322D02*
X273965D01*
Y257432D02*
Y339322D01*
X232312Y257432D02*
Y339322D01*
Y257432D02*
X273965D01*
X183417Y339322D02*
X225071D01*
Y257432D02*
Y339322D01*
X183417Y257432D02*
Y339322D01*
Y257432D02*
X225071D01*
X273228Y52065D02*
X287795D01*
X273228Y9700D02*
Y52065D01*
Y9700D02*
X287795D01*
Y52065D01*
X159251Y217518D02*
X157939D01*
X157283Y216862D01*
Y214239D01*
X157939Y213583D01*
X159251D01*
X159907Y214239D01*
Y216862D01*
X159251Y217518D01*
X161219D02*
Y214239D01*
X161875Y213583D01*
X163187D01*
X163843Y214239D01*
Y217518D01*
X165155D02*
X167779D01*
X166467D01*
Y213583D01*
X169091D02*
Y217518D01*
X171058D01*
X171714Y216862D01*
Y215550D01*
X171058Y214895D01*
X169091D01*
X173026Y217518D02*
Y214239D01*
X173682Y213583D01*
X174994D01*
X175650Y214239D01*
Y217518D01*
X176962D02*
X179586D01*
X178274D01*
Y213583D01*
X69488Y332088D02*
X68176D01*
X68832D01*
Y336024D01*
X69488D01*
X68176D01*
X66208D02*
Y332088D01*
X63585Y336024D01*
Y332088D01*
X62273Y336024D02*
Y332088D01*
X60305D01*
X59649Y332744D01*
Y334056D01*
X60305Y334712D01*
X62273D01*
X58337Y332088D02*
Y335368D01*
X57681Y336024D01*
X56369D01*
X55713Y335368D01*
Y332088D01*
X54401D02*
X51777D01*
X53089D01*
Y336024D01*
X290335Y123603D02*
Y123996D01*
Y121437D02*
Y121831D01*
Y119469D02*
Y119863D01*
Y117500D02*
Y117894D01*
Y117500D02*
Y117894D01*
Y119469D02*
Y119863D01*
Y121437D02*
Y121831D01*
Y123603D02*
Y123996D01*
X291713Y117500D02*
Y117894D01*
Y119469D02*
Y119863D01*
Y121437D02*
Y121831D01*
Y123603D02*
Y123996D01*
X290335Y70493D02*
Y70886D01*
Y72658D02*
Y73052D01*
Y74626D02*
Y75020D01*
Y76595D02*
Y76989D01*
X291713Y70493D02*
Y70886D01*
Y72658D02*
Y73052D01*
Y74626D02*
Y75020D01*
Y76595D02*
Y76989D01*
Y76595D02*
Y76989D01*
Y74626D02*
Y75020D01*
Y72658D02*
Y73052D01*
Y70493D02*
Y70886D01*
Y24036D02*
Y24430D01*
Y26201D02*
Y26595D01*
Y28170D02*
Y28563D01*
Y30138D02*
Y30532D01*
Y30138D02*
Y30532D01*
Y28170D02*
Y28563D01*
Y26201D02*
Y26595D01*
Y24036D02*
Y24430D01*
X290335Y30138D02*
Y30532D01*
Y28170D02*
Y28563D01*
Y26201D02*
Y26595D01*
Y24036D02*
Y24430D01*
D14*
X210587Y30853D02*
X211101D01*
X210310Y30892D02*
X211379D01*
X210151Y30932D02*
X211537D01*
X209993Y30972D02*
X211695D01*
X209874Y31011D02*
X211814D01*
X209795Y31051D02*
X211893D01*
X209676Y31090D02*
X212012D01*
X209597Y31130D02*
X212091D01*
X209518Y31169D02*
X212170D01*
X209478Y31209D02*
X212210D01*
X209399Y31249D02*
X212289D01*
X209320Y31288D02*
X212368D01*
X209281Y31328D02*
X212408D01*
X209201Y31367D02*
X212487D01*
X209162Y31407D02*
X212526D01*
X209122Y31446D02*
X212566D01*
X209043Y31486D02*
X212645D01*
X209003Y31526D02*
X212685D01*
X208964Y31565D02*
X212724D01*
X208924Y31605D02*
X212764D01*
X208885Y31644D02*
X212804D01*
X208845Y31684D02*
X212843D01*
X208806Y31724D02*
X212883D01*
X208766Y31763D02*
X212922D01*
X208726Y31803D02*
X212962D01*
X208687Y31842D02*
X213001D01*
X208687Y31882D02*
X213001D01*
X208647Y31921D02*
X213041D01*
X208608Y31961D02*
X213081D01*
X211062Y32001D02*
X213120D01*
X208568D02*
X210626D01*
X211260Y32040D02*
X213120D01*
X208568D02*
X210429D01*
X211418Y32080D02*
X213160D01*
X208528D02*
X210310D01*
X211497Y32119D02*
X213199D01*
X208489D02*
X210191D01*
X211576Y32159D02*
X213199D01*
X208489D02*
X210112D01*
X211656Y32199D02*
X213239D01*
X208449D02*
X210033D01*
X211735Y32238D02*
X213279D01*
X208410D02*
X209953D01*
X211774Y32278D02*
X213279D01*
X208410D02*
X209914D01*
X211854Y32317D02*
X213318D01*
X208370D02*
X209835D01*
X211893Y32357D02*
X213318D01*
X208370D02*
X209795D01*
X211933Y32397D02*
X213358D01*
X208331D02*
X209756D01*
X211972Y32436D02*
X213358D01*
X208331D02*
X209716D01*
X212012Y32476D02*
X213397D01*
X208291D02*
X209676D01*
X212051Y32515D02*
X213397D01*
X208291D02*
X209637D01*
X212091Y32555D02*
X213437D01*
X208251D02*
X209597D01*
X212131Y32594D02*
X213437D01*
X208251D02*
X209558D01*
X212170Y32634D02*
X213437D01*
X208251D02*
X209518D01*
X212210Y32674D02*
X213476D01*
X208212D02*
X209478D01*
X212210Y32713D02*
X213476D01*
X208212D02*
X209478D01*
X212249Y32753D02*
X213476D01*
X208212D02*
X209439D01*
X212289Y32792D02*
X213516D01*
X208172D02*
X209399D01*
X212289Y32832D02*
X213516D01*
X208172D02*
X209399D01*
X212329Y32871D02*
X213516D01*
X208172D02*
X209360D01*
X212329Y32911D02*
X213556D01*
X208133D02*
X209360D01*
X212368Y32951D02*
X213556D01*
X208133D02*
X209320D01*
X212368Y32990D02*
X213556D01*
X208133D02*
X209320D01*
X212408Y33030D02*
X213556D01*
X208133D02*
X209281D01*
X212408Y33069D02*
X213595D01*
X208093D02*
X209281D01*
X212408Y33109D02*
X213595D01*
X208093D02*
X209281D01*
X212447Y33149D02*
X213595D01*
X208093D02*
X209241D01*
X212447Y33188D02*
X213595D01*
X208093D02*
X209241D01*
X212447Y33228D02*
X213595D01*
X208093D02*
X209241D01*
X212487Y33267D02*
X213595D01*
X208093D02*
X209241D01*
X212487Y33307D02*
X213635D01*
X208053D02*
X209201D01*
X212487Y33347D02*
X213635D01*
X208053D02*
X209201D01*
X212487Y33386D02*
X213635D01*
X208053D02*
X209201D01*
X212487Y33426D02*
X213635D01*
X208053D02*
X209201D01*
X212487Y33465D02*
X213635D01*
X208053D02*
X209201D01*
X212487Y33505D02*
X213635D01*
X208053D02*
X209201D01*
X212526Y33544D02*
X213635D01*
X208053D02*
X209162D01*
X212526Y33584D02*
X213635D01*
X208053D02*
X209162D01*
X212526Y33624D02*
X213635D01*
X208053D02*
X209162D01*
X212526Y33663D02*
X213635D01*
X208053D02*
X209162D01*
X212526Y33703D02*
X213635D01*
X208053D02*
X209162D01*
X212526Y33742D02*
X213635D01*
X208053D02*
X209162D01*
X212526Y33782D02*
X213635D01*
X208053D02*
X209201D01*
X212487Y33821D02*
X213635D01*
X208053D02*
X209201D01*
X212487Y33861D02*
X213635D01*
X208053D02*
X209201D01*
X212487Y33901D02*
X213635D01*
X208053D02*
X209201D01*
X212487Y33940D02*
X213635D01*
X208053D02*
X209201D01*
X212487Y33980D02*
X213635D01*
X208053D02*
X209201D01*
X212487Y34019D02*
X213595D01*
X208093D02*
X209201D01*
X212447Y34059D02*
X213595D01*
X208093D02*
X209241D01*
X212447Y34099D02*
X213595D01*
X208093D02*
X209241D01*
X212447Y34138D02*
X213595D01*
X208093D02*
X209241D01*
X212447Y34178D02*
X213595D01*
X208093D02*
X209281D01*
X212408Y34217D02*
X213595D01*
X208133D02*
X209281D01*
X212408Y34257D02*
X213556D01*
X208133D02*
X209281D01*
X212368Y34297D02*
X213556D01*
X208133D02*
X209320D01*
X212368Y34336D02*
X213556D01*
X208133D02*
X209320D01*
X212368Y34376D02*
X213556D01*
X208133D02*
X209360D01*
X212329Y34415D02*
X213516D01*
X208172D02*
X209360D01*
X212289Y34455D02*
X213516D01*
X208172D02*
X209399D01*
X212289Y34494D02*
X213516D01*
X208172D02*
X209399D01*
X212249Y34534D02*
X213476D01*
X208212D02*
X209439D01*
X212249Y34574D02*
X213476D01*
X208212D02*
X209439D01*
X212210Y34613D02*
X213476D01*
X208212D02*
X209478D01*
X212170Y34653D02*
X213437D01*
X208251D02*
X209518D01*
X212131Y34692D02*
X213437D01*
X208251D02*
X209558D01*
X212131Y34732D02*
X213397D01*
X208291D02*
X209558D01*
X212091Y34771D02*
X213397D01*
X208291D02*
X209597D01*
X212051Y34811D02*
X213397D01*
X208331D02*
X209637D01*
X212012Y34851D02*
X213358D01*
X208331D02*
X209676D01*
X211972Y34890D02*
X213358D01*
X208331D02*
X209716D01*
X211933Y34930D02*
X213318D01*
X208370D02*
X209756D01*
X211854Y34969D02*
X213318D01*
X208410D02*
X209835D01*
X211814Y35009D02*
X213279D01*
X208410D02*
X209874D01*
X211774Y35049D02*
X213239D01*
X208449D02*
X209914D01*
X211695Y35088D02*
X213239D01*
X208449D02*
X209993D01*
X211616Y35128D02*
X213199D01*
X208489D02*
X210072D01*
X211537Y35167D02*
X213199D01*
X208528D02*
X210151D01*
X211458Y35207D02*
X213160D01*
X208528D02*
X210231D01*
X211339Y35247D02*
X213120D01*
X208568D02*
X210349D01*
X211181Y35286D02*
X213081D01*
X208608D02*
X210508D01*
X208608Y35326D02*
X213081D01*
X208647Y35365D02*
X213041D01*
X208687Y35405D02*
X213001D01*
X208726Y35444D02*
X212962D01*
X208766Y35484D02*
X212922D01*
X208806Y35524D02*
X212922D01*
X208806Y35563D02*
X212883D01*
X208845Y35603D02*
X212843D01*
X208885Y35642D02*
X212804D01*
X208924Y35682D02*
X212764D01*
X209003Y35721D02*
X212685D01*
X209043Y35761D02*
X212645D01*
X209083Y35801D02*
X212606D01*
X209122Y35840D02*
X212566D01*
X209201Y35880D02*
X212526D01*
X209241Y35919D02*
X212447D01*
X209281Y35959D02*
X212408D01*
X209360Y35999D02*
X212329D01*
X209439Y36038D02*
X212289D01*
X209478Y36078D02*
X212210D01*
X209558Y36117D02*
X212131D01*
X209637Y36157D02*
X212051D01*
X209716Y36197D02*
X211972D01*
X209835Y36236D02*
X211854D01*
X209914Y36276D02*
X211774D01*
X210072Y36315D02*
X211616D01*
X210191Y36355D02*
X211497D01*
X210270Y36394D02*
X211418D01*
X210270Y36434D02*
X211418D01*
X210270Y36474D02*
X211418D01*
X210270Y36513D02*
X211418D01*
X210270Y36553D02*
X211418D01*
X210270Y36592D02*
X211418D01*
X210270Y36632D02*
X211418D01*
X210270Y36672D02*
X211418D01*
X210270Y36711D02*
X211418D01*
X210270Y36751D02*
X211418D01*
X210270Y36790D02*
X211418D01*
X210270Y36830D02*
X211418D01*
X210270Y36869D02*
X211418D01*
X210270Y36909D02*
X211418D01*
X210270Y36949D02*
X211418D01*
X210270Y36988D02*
X211418D01*
X210270Y37028D02*
X211418D01*
X210270Y37067D02*
X211418D01*
X210270Y37107D02*
X211418D01*
X210270Y37146D02*
X211418D01*
X210270Y37186D02*
X211418D01*
X210270Y37226D02*
X211418D01*
X210270Y37265D02*
X211418D01*
X210270Y37305D02*
X211418D01*
X210270Y37344D02*
X211418D01*
X210191Y37384D02*
X211418D01*
X210072Y37424D02*
X211418D01*
X209993Y37463D02*
X211418D01*
X209874Y37503D02*
X211418D01*
X209795Y37542D02*
X211418D01*
X209676Y37582D02*
X211418D01*
X209597Y37622D02*
X211418D01*
X209478Y37661D02*
X211418D01*
X209399Y37701D02*
X211418D01*
X209281Y37740D02*
X211418D01*
X209162Y37780D02*
X211418D01*
X209083Y37819D02*
X211418D01*
X208964Y37859D02*
X211418D01*
X208885Y37899D02*
X211418D01*
X208766Y37938D02*
X211418D01*
X208687Y37978D02*
X211418D01*
X208568Y38017D02*
X211418D01*
X208489Y38057D02*
X211418D01*
X208370Y38096D02*
X211418D01*
X208251Y38136D02*
X211418D01*
X208172Y38176D02*
X211418D01*
X208053Y38215D02*
X211418D01*
X207974Y38255D02*
X211418D01*
X207856Y38294D02*
X211418D01*
X207776Y38334D02*
X211418D01*
X207658Y38374D02*
X211418D01*
X207578Y38413D02*
X211418D01*
X207460Y38453D02*
X211418D01*
X207341Y38492D02*
X211418D01*
X207262Y38532D02*
X211418D01*
X207143Y38572D02*
X211418D01*
X210270Y38611D02*
X211418D01*
X207064D02*
X210151D01*
X210270Y38651D02*
X211418D01*
X206945D02*
X210072D01*
X210270Y38690D02*
X211418D01*
X206866D02*
X209953D01*
X210270Y38730D02*
X211418D01*
X206747D02*
X209874D01*
X210270Y38769D02*
X211418D01*
X206668D02*
X209756D01*
X210270Y38809D02*
X211418D01*
X206628D02*
X209676D01*
X210270Y38849D02*
X211418D01*
X206628D02*
X209558D01*
X210270Y38888D02*
X211418D01*
X206628D02*
X209439D01*
X210270Y38928D02*
X211418D01*
X206628D02*
X209360D01*
X210270Y38967D02*
X211418D01*
X206628D02*
X209241D01*
X210270Y39007D02*
X211537D01*
X206628D02*
X209162D01*
X210270Y39046D02*
X211656D01*
X206628D02*
X209043D01*
X210270Y39086D02*
X211735D01*
X206628D02*
X208924D01*
X210270Y39126D02*
X211854D01*
X206628D02*
X208845D01*
X210270Y39165D02*
X211933D01*
X206628D02*
X208726D01*
X210270Y39205D02*
X212051D01*
X206628D02*
X208647D01*
X210270Y39244D02*
X212131D01*
X206628D02*
X208528D01*
X210270Y39284D02*
X212249D01*
X206628D02*
X208449D01*
X210270Y39324D02*
X212368D01*
X206628D02*
X208331D01*
X210270Y39363D02*
X212447D01*
X206628D02*
X208212D01*
X210270Y39403D02*
X212566D01*
X206628D02*
X208133D01*
X210270Y39442D02*
X212645D01*
X206628D02*
X208014D01*
X210270Y39482D02*
X212764D01*
X206628D02*
X207935D01*
X210270Y39522D02*
X212843D01*
X206628D02*
X207816D01*
X210270Y39561D02*
X212962D01*
X206628D02*
X207776D01*
X210270Y39601D02*
X213081D01*
X206628D02*
X207776D01*
X210270Y39640D02*
X213160D01*
X206628D02*
X207776D01*
X210270Y39680D02*
X213279D01*
X206628D02*
X207776D01*
X210270Y39719D02*
X213358D01*
X206628D02*
X207776D01*
X210270Y39759D02*
X213476D01*
X206628D02*
X207776D01*
X210270Y39799D02*
X213595D01*
X206628D02*
X207776D01*
X210270Y39838D02*
X213674D01*
X206628D02*
X207776D01*
X210270Y39878D02*
X213793D01*
X206628D02*
X207776D01*
X210270Y39917D02*
X213872D01*
X206628D02*
X207776D01*
X210270Y39957D02*
X213991D01*
X206628D02*
X207776D01*
X210270Y39996D02*
X214070D01*
X206628D02*
X207776D01*
X210270Y40036D02*
X214189D01*
X206628D02*
X207776D01*
X210270Y40076D02*
X214308D01*
X206628D02*
X207776D01*
X210270Y40115D02*
X214387D01*
X206628D02*
X207776D01*
X210270Y40155D02*
X214506D01*
X206628D02*
X207776D01*
X211497Y40194D02*
X214585D01*
X210270D02*
X211418D01*
X206628D02*
X207776D01*
X211616Y40234D02*
X214703D01*
X210270D02*
X211418D01*
X206628D02*
X207776D01*
X211695Y40274D02*
X214822D01*
X210270D02*
X211418D01*
X206628D02*
X207776D01*
X211814Y40313D02*
X214901D01*
X210270D02*
X211418D01*
X206628D02*
X207776D01*
X211893Y40353D02*
X215020D01*
X210270D02*
X211418D01*
X206628D02*
X207776D01*
X212012Y40392D02*
X215060D01*
X210270D02*
X211418D01*
X206628D02*
X207776D01*
X212091Y40432D02*
X215099D01*
X210270D02*
X211418D01*
X206628D02*
X207776D01*
X212210Y40472D02*
X215099D01*
X210270D02*
X211418D01*
X206628D02*
X207776D01*
X212289Y40511D02*
X215099D01*
X210270D02*
X211418D01*
X206628D02*
X207776D01*
X212408Y40551D02*
X215099D01*
X210270D02*
X211418D01*
X206589D02*
X207776D01*
X212487Y40590D02*
X215099D01*
X210270D02*
X211418D01*
X206510D02*
X207816D01*
X212606Y40630D02*
X215099D01*
X210270D02*
X211418D01*
X206431D02*
X207895D01*
X212685Y40669D02*
X215099D01*
X210270D02*
X211418D01*
X206351D02*
X207974D01*
X212804Y40709D02*
X215099D01*
X210270D02*
X211418D01*
X206312D02*
X208014D01*
X212883Y40749D02*
X215099D01*
X210270D02*
X211418D01*
X206272D02*
X208093D01*
X213001Y40788D02*
X215099D01*
X210270D02*
X211418D01*
X206193D02*
X208133D01*
X213081Y40828D02*
X215099D01*
X210270D02*
X211418D01*
X206153D02*
X208172D01*
X213199Y40867D02*
X215099D01*
X210270D02*
X211418D01*
X206114D02*
X208212D01*
X213279Y40907D02*
X215099D01*
X210270D02*
X211418D01*
X206074D02*
X208251D01*
X213397Y40946D02*
X215099D01*
X210270D02*
X211418D01*
X206035D02*
X208291D01*
X213476Y40986D02*
X215099D01*
X210270D02*
X211418D01*
X205995D02*
X208331D01*
X213595Y41026D02*
X215099D01*
X210270D02*
X211418D01*
X205956D02*
X208370D01*
X213674Y41065D02*
X215099D01*
X210270D02*
X211418D01*
X205956D02*
X208370D01*
X213793Y41105D02*
X215099D01*
X210270D02*
X211418D01*
X205916D02*
X208410D01*
X213912Y41144D02*
X215099D01*
X210270D02*
X211418D01*
X205876D02*
X208449D01*
X213951Y41184D02*
X215099D01*
X210270D02*
X211418D01*
X205876D02*
X208449D01*
X213951Y41224D02*
X215099D01*
X210270D02*
X211418D01*
X205837D02*
X208489D01*
X213951Y41263D02*
X215099D01*
X210270D02*
X211418D01*
X205837D02*
X208528D01*
X213951Y41303D02*
X215099D01*
X210270D02*
X211418D01*
X205797D02*
X208528D01*
X213951Y41342D02*
X215099D01*
X210270D02*
X211418D01*
X205797D02*
X208568D01*
X213951Y41382D02*
X215099D01*
X210270D02*
X211418D01*
X205758D02*
X208568D01*
X213951Y41421D02*
X215099D01*
X210270D02*
X211418D01*
X205758D02*
X208568D01*
X213951Y41461D02*
X215099D01*
X210270D02*
X211418D01*
X205718D02*
X208608D01*
X213951Y41501D02*
X215099D01*
X210270D02*
X211418D01*
X205718D02*
X208608D01*
X213951Y41540D02*
X215099D01*
X210270D02*
X211418D01*
X205718D02*
X208608D01*
X213951Y41580D02*
X215099D01*
X210270D02*
X211418D01*
X205718D02*
X208647D01*
X213951Y41619D02*
X215099D01*
X210270D02*
X211418D01*
X207341D02*
X208647D01*
X205679D02*
X207024D01*
X213951Y41659D02*
X215099D01*
X210270D02*
X211418D01*
X207420D02*
X208647D01*
X205679D02*
X206945D01*
X213951Y41699D02*
X215099D01*
X210270D02*
X211418D01*
X207460D02*
X208647D01*
X205679D02*
X206906D01*
X213951Y41738D02*
X215099D01*
X210270D02*
X211418D01*
X207499D02*
X208687D01*
X205679D02*
X206866D01*
X213951Y41778D02*
X215099D01*
X210270D02*
X211418D01*
X207499D02*
X208687D01*
X205679D02*
X206826D01*
X213951Y41817D02*
X215099D01*
X210270D02*
X211418D01*
X207539D02*
X208687D01*
X205679D02*
X206826D01*
X213951Y41857D02*
X215099D01*
X210270D02*
X211418D01*
X207539D02*
X208687D01*
X205639D02*
X206787D01*
X213951Y41897D02*
X215099D01*
X210270D02*
X211418D01*
X207539D02*
X208687D01*
X205639D02*
X206787D01*
X213951Y41936D02*
X215099D01*
X210270D02*
X211418D01*
X207578D02*
X208687D01*
X205639D02*
X206787D01*
X213951Y41976D02*
X215099D01*
X210270D02*
X211418D01*
X207578D02*
X208687D01*
X205639D02*
X206787D01*
X213951Y42015D02*
X215099D01*
X210270D02*
X211418D01*
X207578D02*
X208687D01*
X205639D02*
X206787D01*
X213951Y42055D02*
X215099D01*
X210270D02*
X211418D01*
X207539D02*
X208687D01*
X205639D02*
X206787D01*
X213041Y42094D02*
X216089D01*
X210270D02*
X211418D01*
X207539D02*
X208687D01*
X205639D02*
X206787D01*
X213041Y42134D02*
X216089D01*
X210270D02*
X211418D01*
X207539D02*
X208687D01*
X205679D02*
X206826D01*
X213041Y42174D02*
X216089D01*
X210270D02*
X211418D01*
X207499D02*
X208687D01*
X205679D02*
X206826D01*
X213041Y42213D02*
X216089D01*
X210270D02*
X211418D01*
X207499D02*
X208687D01*
X205679D02*
X206866D01*
X213041Y42253D02*
X216089D01*
X210270D02*
X211418D01*
X207460D02*
X208647D01*
X205679D02*
X206906D01*
X213041Y42292D02*
X216089D01*
X210270D02*
X211418D01*
X207420D02*
X208647D01*
X205679D02*
X206945D01*
X213041Y42332D02*
X216089D01*
X210270D02*
X211418D01*
X207341D02*
X208647D01*
X205718D02*
X206985D01*
X213041Y42371D02*
X216089D01*
X210270D02*
X211418D01*
X205718D02*
X208647D01*
X213041Y42411D02*
X216089D01*
X210270D02*
X211418D01*
X205718D02*
X208608D01*
X213041Y42451D02*
X216089D01*
X210270D02*
X211418D01*
X205718D02*
X208608D01*
X213041Y42490D02*
X216089D01*
X210270D02*
X211418D01*
X205758D02*
X208608D01*
X213041Y42530D02*
X216089D01*
X210270D02*
X211418D01*
X205758D02*
X208568D01*
X213041Y42569D02*
X216089D01*
X210270D02*
X211418D01*
X205797D02*
X208568D01*
X213041Y42609D02*
X216089D01*
X210270D02*
X211418D01*
X205797D02*
X208528D01*
X213041Y42649D02*
X216089D01*
X210270D02*
X211418D01*
X205837D02*
X208528D01*
X213041Y42688D02*
X216089D01*
X210270D02*
X211418D01*
X205837D02*
X208489D01*
X213041Y42728D02*
X216089D01*
X210270D02*
X211418D01*
X205876D02*
X208489D01*
X213041Y42767D02*
X216089D01*
X210270D02*
X211418D01*
X205876D02*
X208449D01*
X213041Y42807D02*
X216089D01*
X210270D02*
X211418D01*
X205916D02*
X208449D01*
X213041Y42847D02*
X216089D01*
X210270D02*
X211418D01*
X205956D02*
X208410D01*
X213041Y42886D02*
X216089D01*
X210270D02*
X211418D01*
X205956D02*
X208370D01*
X213041Y42926D02*
X216089D01*
X210270D02*
X211418D01*
X205995D02*
X208331D01*
X213041Y42965D02*
X216089D01*
X210270D02*
X211418D01*
X206035D02*
X208291D01*
X213041Y43005D02*
X216089D01*
X210270D02*
X211418D01*
X206074D02*
X208251D01*
X213041Y43044D02*
X216089D01*
X210270D02*
X211418D01*
X206114D02*
X208212D01*
X213041Y43084D02*
X216089D01*
X210270D02*
X211418D01*
X206153D02*
X208172D01*
X213041Y43124D02*
X216089D01*
X210270D02*
X211418D01*
X206193D02*
X208133D01*
X213041Y43163D02*
X216089D01*
X210270D02*
X211418D01*
X206233D02*
X208093D01*
X214981Y43203D02*
X216089D01*
X213041D02*
X214149D01*
X210270D02*
X211418D01*
X206312D02*
X208053D01*
X214981Y43242D02*
X216089D01*
X213041D02*
X214149D01*
X210270D02*
X211418D01*
X206351D02*
X207974D01*
X214981Y43282D02*
X216089D01*
X213041D02*
X214149D01*
X210270D02*
X211418D01*
X206431D02*
X207895D01*
X214981Y43321D02*
X216089D01*
X213041D02*
X214149D01*
X210270D02*
X211418D01*
X206510D02*
X207856D01*
X214981Y43361D02*
X216089D01*
X213041D02*
X214149D01*
X210270D02*
X211418D01*
X206589D02*
X207737D01*
X214981Y43401D02*
X216089D01*
X213041D02*
X214149D01*
X210270D02*
X211418D01*
X206708D02*
X207658D01*
X214981Y43440D02*
X216089D01*
X213041D02*
X214149D01*
X210270D02*
X211418D01*
X206826D02*
X207499D01*
X214981Y43480D02*
X216089D01*
X213041D02*
X214149D01*
X210270D02*
X211418D01*
X214981Y43519D02*
X216089D01*
X213041D02*
X214149D01*
X210270D02*
X211418D01*
X214981Y43559D02*
X216089D01*
X213041D02*
X214149D01*
X210270D02*
X211418D01*
X214981Y43599D02*
X216089D01*
X213041D02*
X214149D01*
X210270D02*
X211418D01*
X214981Y43638D02*
X216089D01*
X213041D02*
X214149D01*
X210270D02*
X211418D01*
X214981Y43678D02*
X216089D01*
X213041D02*
X214149D01*
X210270D02*
X211418D01*
X214981Y43717D02*
X216089D01*
X213041D02*
X214149D01*
X210270D02*
X211418D01*
X214981Y43757D02*
X216089D01*
X213041D02*
X214149D01*
X210270D02*
X211418D01*
X214981Y43797D02*
X216089D01*
X213041D02*
X214149D01*
X210270D02*
X211418D01*
X214981Y43836D02*
X216089D01*
X213041D02*
X214149D01*
X210270D02*
X211418D01*
X214981Y43876D02*
X216089D01*
X213041D02*
X214149D01*
X210270D02*
X211418D01*
X214981Y43915D02*
X216089D01*
X213041D02*
X214149D01*
X210270D02*
X211418D01*
X214981Y43955D02*
X216089D01*
X213041D02*
X214149D01*
X210270D02*
X211418D01*
X213041Y43994D02*
X216089D01*
X210270D02*
X211418D01*
X213041Y44034D02*
X216089D01*
X210270D02*
X211418D01*
X213041Y44074D02*
X216089D01*
X210270D02*
X211418D01*
X213041Y44113D02*
X216089D01*
X210270D02*
X211418D01*
X213041Y44153D02*
X216089D01*
X210270D02*
X211418D01*
X213041Y44192D02*
X216089D01*
X210270D02*
X211418D01*
X213041Y44232D02*
X216089D01*
X210270D02*
X211418D01*
X213041Y44271D02*
X216089D01*
X210270D02*
X211418D01*
X213041Y44311D02*
X216089D01*
X210270D02*
X211418D01*
X213041Y44351D02*
X216089D01*
X210270D02*
X211418D01*
X213041Y44390D02*
X216089D01*
X210270D02*
X211418D01*
X213041Y44430D02*
X216089D01*
X210270D02*
X211418D01*
X213041Y44469D02*
X216089D01*
X210270D02*
X211418D01*
X213041Y44509D02*
X216089D01*
X210270D02*
X211418D01*
X213041Y44549D02*
X216089D01*
X210270D02*
X211418D01*
X213041Y44588D02*
X216089D01*
X210270D02*
X211418D01*
X213041Y44628D02*
X216089D01*
X210270D02*
X211418D01*
X213041Y44667D02*
X216089D01*
X210270D02*
X211418D01*
X213041Y44707D02*
X216089D01*
X210270D02*
X211418D01*
X213041Y44747D02*
X216089D01*
X210270D02*
X211418D01*
X213041Y44786D02*
X216089D01*
X210270D02*
X211418D01*
X213041Y44826D02*
X216089D01*
X210270D02*
X211418D01*
X213041Y44865D02*
X216089D01*
X210270D02*
X211418D01*
X213041Y44905D02*
X216089D01*
X210270D02*
X211418D01*
X213041Y44944D02*
X216089D01*
X210270D02*
X211418D01*
X213041Y44984D02*
X216089D01*
X210270D02*
X211418D01*
X213041Y45024D02*
X216089D01*
X210270D02*
X211418D01*
X213041Y45063D02*
X216089D01*
X210270D02*
X211418D01*
X213041Y45103D02*
X216089D01*
X210270D02*
X211418D01*
X210270Y45142D02*
X211418D01*
X210270Y45182D02*
X211418D01*
X210270Y45221D02*
X211418D01*
X210270Y45261D02*
X211418D01*
X210270Y45301D02*
X211418D01*
X210270Y45340D02*
X211418D01*
X210270Y45380D02*
X211418D01*
X210270Y45419D02*
X211418D01*
X210270Y45459D02*
X211418D01*
X210270Y45499D02*
X211418D01*
X210270Y45538D02*
X211418D01*
X210270Y45578D02*
X211418D01*
X210270Y45617D02*
X211418D01*
X212764Y45657D02*
X212804D01*
X210270D02*
X211418D01*
X208885D02*
X208964D01*
X212685Y45696D02*
X212843D01*
X210270D02*
X211418D01*
X208845D02*
X209003D01*
X212645Y45736D02*
X212883D01*
X210270D02*
X211418D01*
X208806D02*
X209043D01*
X212606Y45776D02*
X212922D01*
X210270D02*
X211418D01*
X208766D02*
X209083D01*
X212566Y45815D02*
X212922D01*
X210270D02*
X211418D01*
X208726D02*
X209162D01*
X212526Y45855D02*
X212962D01*
X210270D02*
X211418D01*
X208687D02*
X209201D01*
X212487Y45894D02*
X213001D01*
X210270D02*
X211418D01*
X208647D02*
X209241D01*
X212447Y45934D02*
X213041D01*
X210270D02*
X211418D01*
X208647D02*
X209281D01*
X212408Y45974D02*
X213081D01*
X210270D02*
X211418D01*
X208608D02*
X209320D01*
X212329Y46013D02*
X213120D01*
X210270D02*
X211418D01*
X208568D02*
X209360D01*
X212289Y46053D02*
X213160D01*
X210270D02*
X211418D01*
X208528D02*
X209399D01*
X212249Y46092D02*
X213199D01*
X210270D02*
X211418D01*
X208489D02*
X209439D01*
X212210Y46132D02*
X213239D01*
X210270D02*
X211418D01*
X208449D02*
X209518D01*
X212170Y46172D02*
X213239D01*
X210270D02*
X211418D01*
X208410D02*
X209558D01*
X212131Y46211D02*
X213279D01*
X210270D02*
X211418D01*
X208370D02*
X209597D01*
X212091Y46251D02*
X213318D01*
X210270D02*
X211418D01*
X208331D02*
X209637D01*
X212051Y46290D02*
X213358D01*
X210270D02*
X211418D01*
X208331D02*
X209676D01*
X212012Y46330D02*
X213397D01*
X210270D02*
X211418D01*
X208291D02*
X209716D01*
X211933Y46369D02*
X213437D01*
X210270D02*
X211418D01*
X208251D02*
X209756D01*
X211893Y46409D02*
X213476D01*
X210270D02*
X211418D01*
X208212D02*
X209795D01*
X211854Y46449D02*
X213516D01*
X210270D02*
X211418D01*
X208172D02*
X209835D01*
X211814Y46488D02*
X213516D01*
X210270D02*
X211418D01*
X208212D02*
X209914D01*
X211774Y46528D02*
X213476D01*
X210270D02*
X211418D01*
X208251D02*
X209953D01*
X211735Y46567D02*
X213437D01*
X210270D02*
X211418D01*
X208291D02*
X209993D01*
X211695Y46607D02*
X213397D01*
X210270D02*
X211418D01*
X208331D02*
X210033D01*
X211656Y46646D02*
X213318D01*
X210270D02*
X211418D01*
X208370D02*
X210072D01*
X211576Y46686D02*
X213279D01*
X210270D02*
X211418D01*
X208410D02*
X210112D01*
X211537Y46726D02*
X213239D01*
X210270D02*
X211418D01*
X208449D02*
X210151D01*
X211497Y46765D02*
X213199D01*
X210270D02*
X211418D01*
X208489D02*
X210231D01*
X211458Y46805D02*
X213160D01*
X208568D02*
X211418D01*
X208608Y46844D02*
X213120D01*
X208647Y46884D02*
X213081D01*
X208687Y46924D02*
X213041D01*
X208726Y46963D02*
X213001D01*
X208766Y47003D02*
X212922D01*
X208806Y47042D02*
X212883D01*
X208845Y47082D02*
X212843D01*
X208885Y47122D02*
X212804D01*
X208964Y47161D02*
X212764D01*
X209003Y47201D02*
X212724D01*
X209043Y47240D02*
X212685D01*
X209083Y47280D02*
X212645D01*
X209122Y47319D02*
X212566D01*
X209162Y47359D02*
X212526D01*
X209201Y47399D02*
X212487D01*
X209241Y47438D02*
X212447D01*
X209281Y47478D02*
X212408D01*
X209360Y47517D02*
X212368D01*
X209399Y47557D02*
X212329D01*
X209439Y47596D02*
X212289D01*
X209478Y47636D02*
X212249D01*
X209518Y47676D02*
X212170D01*
X209558Y47715D02*
X212131D01*
X209597Y47755D02*
X212091D01*
X209637Y47794D02*
X212051D01*
X209676Y47834D02*
X212012D01*
X209756Y47874D02*
X211972D01*
X209795Y47913D02*
X211933D01*
X209835Y47953D02*
X211893D01*
X209874Y47992D02*
X211814D01*
X209914Y48032D02*
X211774D01*
X209953Y48072D02*
X211735D01*
X209993Y48111D02*
X211695D01*
X210033Y48151D02*
X211656D01*
X210072Y48190D02*
X211616D01*
X210112Y48230D02*
X211576D01*
X210191Y48269D02*
X211537D01*
X210231Y48309D02*
X211497D01*
X210270Y48349D02*
X211418D01*
X210310Y48388D02*
X211379D01*
X210349Y48428D02*
X211339D01*
X210389Y48467D02*
X211299D01*
X210429Y48507D02*
X211260D01*
X210468Y48546D02*
X211220D01*
X210508Y48586D02*
X211181D01*
X210587Y48626D02*
X211141D01*
X210626Y48665D02*
X211101D01*
X210666Y48705D02*
X211022D01*
X210706Y48744D02*
X210983D01*
X210745Y48784D02*
X210943D01*
X210785Y48824D02*
X210904D01*
X210824Y48863D02*
X210864D01*
D15*
X296877Y126886D02*
X306686D01*
X296748Y126821D02*
X306815D01*
X296683Y126757D02*
X306879D01*
X296619Y126692D02*
X306944D01*
X296619Y126628D02*
X306944D01*
X296554Y126563D02*
X307009D01*
X296554Y126499D02*
X307009D01*
X296554Y126434D02*
X307009D01*
X296554Y126370D02*
X307009D01*
X296554Y126305D02*
X307009D01*
X296554Y126241D02*
X307009D01*
X296554Y126176D02*
X307009D01*
X296554Y126112D02*
X307009D01*
X296554Y126047D02*
X307009D01*
X296554Y125982D02*
X307009D01*
X296554Y125918D02*
X307009D01*
X296554Y125853D02*
X307009D01*
X296554Y125789D02*
X307009D01*
X296554Y125724D02*
X307009D01*
X296554Y125660D02*
X307009D01*
X296554Y125595D02*
X307009D01*
X296554Y125531D02*
X307009D01*
X296554Y125466D02*
X307009D01*
X296554Y125402D02*
X307009D01*
X296554Y125337D02*
X307009D01*
X296554Y125273D02*
X307009D01*
X296554Y125208D02*
X307009D01*
X296554Y125144D02*
X307009D01*
X296554Y125079D02*
X307009D01*
X296554Y125014D02*
X307009D01*
X296554Y124950D02*
X307009D01*
X296554Y124885D02*
X307009D01*
X296554Y124821D02*
X307009D01*
X296554Y124756D02*
X307009D01*
X296554Y124692D02*
X307009D01*
X296554Y124627D02*
X307009D01*
X296554Y124563D02*
X307009D01*
X296554Y124498D02*
X307009D01*
X296554Y124434D02*
X307009D01*
X296619Y124369D02*
X306944D01*
X296683Y124305D02*
X306879D01*
X296683Y124240D02*
X306815D01*
X296812Y124176D02*
X306750D01*
X296941Y124111D02*
X306621D01*
X300813Y124047D02*
X302749D01*
X300813Y123982D02*
X302749D01*
X300813Y123917D02*
X302749D01*
X300813Y123853D02*
X302749D01*
X300813Y123788D02*
X302749D01*
X300813Y123724D02*
X302749D01*
X300878Y123659D02*
X302685D01*
X300878Y123595D02*
X302685D01*
X300942Y123530D02*
X302620D01*
X300942Y123466D02*
X302620D01*
X301007Y123401D02*
X302556D01*
X301072Y123337D02*
X302491D01*
X301136Y123272D02*
X302427D01*
X301201Y123208D02*
X302362D01*
X301330Y123143D02*
X302233D01*
X301459Y123079D02*
X302104D01*
X299781Y122885D02*
X300168D01*
X303395D02*
X303782D01*
X299652Y122820D02*
X300362D01*
X303201D02*
X303911D01*
X299523Y122756D02*
X300426D01*
X303136D02*
X304040D01*
X299458Y122691D02*
X300491D01*
X303072D02*
X304104D01*
X299458Y122627D02*
X300555D01*
X303008D02*
X304104D01*
X299394Y122562D02*
X300684D01*
X302878D02*
X304169D01*
X299394Y122498D02*
X300749D01*
X302814D02*
X304169D01*
X299329Y122433D02*
X300878D01*
X302685D02*
X304234D01*
X299329Y122369D02*
X301007D01*
X302556D02*
X304234D01*
X299329Y122304D02*
X301136D01*
X302427D02*
X304234D01*
X299329Y122240D02*
X301330D01*
X302233D02*
X304234D01*
X299329Y122175D02*
X304234D01*
X299329Y122110D02*
X304234D01*
X299394Y122046D02*
X304169D01*
X299394Y121981D02*
X304169D01*
X299394Y121917D02*
X304169D01*
X299458Y121852D02*
X304104D01*
X299523Y121788D02*
X304040D01*
X299587Y121723D02*
X303976D01*
X299652Y121659D02*
X303911D01*
X299716Y121594D02*
X303846D01*
X299781Y121530D02*
X303717D01*
X299910Y121465D02*
X303653D01*
X299974Y121401D02*
X303588D01*
X298232Y121336D02*
X298684D01*
X300103D02*
X303459D01*
X304814D02*
X305395D01*
X298103Y121272D02*
X298813D01*
X300168D02*
X303330D01*
X304685D02*
X305460D01*
X297974Y121207D02*
X298877D01*
X300297D02*
X303266D01*
X304621D02*
X305589D01*
X297974Y121142D02*
X298942D01*
X300426D02*
X303072D01*
X304556D02*
X305589D01*
X297909Y121078D02*
X299006D01*
X300620D02*
X302943D01*
X304492D02*
X305653D01*
X297845Y121013D02*
X299071D01*
X300813D02*
X302749D01*
X304427D02*
X305718D01*
X297845Y120949D02*
X299200D01*
X301007D02*
X302556D01*
X304363D02*
X305718D01*
X297845Y120884D02*
X299265D01*
X301394D02*
X302168D01*
X304298D02*
X305718D01*
X297845Y120820D02*
X299329D01*
X304169D02*
X305718D01*
X297780Y120755D02*
X299458D01*
X304104D02*
X305782D01*
X297780Y120691D02*
X299523D01*
X303976D02*
X305782D01*
X297845Y120626D02*
X299587D01*
X303911D02*
X305718D01*
X297845Y120562D02*
X299716D01*
X303782D02*
X305718D01*
X297845Y120497D02*
X299845D01*
X303653D02*
X305718D01*
X297845Y120433D02*
X299974D01*
X303524D02*
X305718D01*
X297909Y120368D02*
X300103D01*
X303395D02*
X305653D01*
X297974Y120304D02*
X300233D01*
X303266D02*
X305589D01*
X298038Y120239D02*
X300426D01*
X303072D02*
X305524D01*
X298103Y120175D02*
X300620D01*
X302878D02*
X305460D01*
X298167Y120110D02*
X300878D01*
X302620D02*
X305395D01*
X298232Y120045D02*
X301265D01*
X302298D02*
X305331D01*
X298296Y119981D02*
X305266D01*
X298361Y119916D02*
X305202D01*
X298426Y119852D02*
X305137D01*
X296683Y119787D02*
X297135D01*
X298490D02*
X305008D01*
X306428D02*
X306879D01*
X296554Y119723D02*
X297264D01*
X298619D02*
X304943D01*
X306299D02*
X307009D01*
X296425Y119658D02*
X297328D01*
X298684D02*
X304879D01*
X306234D02*
X307138D01*
X296425Y119594D02*
X297458D01*
X298813D02*
X304750D01*
X306105D02*
X307138D01*
X296360Y119529D02*
X297522D01*
X298877D02*
X304685D01*
X306041D02*
X307202D01*
X296296Y119465D02*
X297587D01*
X299006D02*
X304556D01*
X305976D02*
X307267D01*
X296296Y119400D02*
X297651D01*
X299071D02*
X304492D01*
X305911D02*
X307267D01*
X296296Y119336D02*
X297716D01*
X299200D02*
X304363D01*
X305847D02*
X307267D01*
X296232Y119271D02*
X297780D01*
X299329D02*
X304234D01*
X305782D02*
X307331D01*
X296232Y119207D02*
X297845D01*
X299458D02*
X304104D01*
X305718D02*
X307331D01*
X296232Y119142D02*
X297974D01*
X299587D02*
X303976D01*
X305589D02*
X307331D01*
X296232Y119077D02*
X298038D01*
X299781D02*
X303782D01*
X305524D02*
X307331D01*
X296232Y119013D02*
X298103D01*
X299910D02*
X303653D01*
X305460D02*
X307331D01*
X296296Y118948D02*
X298232D01*
X300103D02*
X303459D01*
X305331D02*
X307267D01*
X296296Y118884D02*
X298296D01*
X300362D02*
X303201D01*
X305266D02*
X307267D01*
X296360Y118819D02*
X298361D01*
X300620D02*
X302943D01*
X305202D02*
X307202D01*
X296360Y118755D02*
X298490D01*
X300942D02*
X302620D01*
X305072D02*
X307202D01*
X296425Y118690D02*
X298619D01*
X304943D02*
X307138D01*
X296490Y118626D02*
X298684D01*
X304879D02*
X307073D01*
X296554Y118561D02*
X298813D01*
X304750D02*
X307009D01*
X296619Y118497D02*
X298942D01*
X304621D02*
X306944D01*
X296683Y118432D02*
X299071D01*
X304492D02*
X306879D01*
X296812Y118368D02*
X299200D01*
X304363D02*
X306750D01*
X296877Y118303D02*
X299329D01*
X304234D02*
X306686D01*
X296941Y118238D02*
X299523D01*
X304040D02*
X306621D01*
X297006Y118174D02*
X299716D01*
X303911D02*
X306557D01*
X297070Y118109D02*
X299845D01*
X303717D02*
X306492D01*
X297200Y118045D02*
X300103D01*
X303459D02*
X306363D01*
X297264Y117980D02*
X300362D01*
X303201D02*
X306299D01*
X297328Y117916D02*
X300620D01*
X302943D02*
X306234D01*
X297458Y117851D02*
X301072D01*
X302491D02*
X306105D01*
X297522Y117787D02*
X306041D01*
X297651Y117722D02*
X305911D01*
X297716Y117658D02*
X305847D01*
X297845Y117593D02*
X305718D01*
X297974Y117529D02*
X305653D01*
X298038Y117464D02*
X305524D01*
X298167Y117400D02*
X305395D01*
X298296Y117335D02*
X305266D01*
X298426Y117271D02*
X305137D01*
X298555Y117206D02*
X305008D01*
X298684Y117141D02*
X304879D01*
X298813Y117077D02*
X304750D01*
X299006Y117012D02*
X304556D01*
X299200Y116948D02*
X304363D01*
X299394Y116883D02*
X304234D01*
X299587Y116819D02*
X304040D01*
X299781Y116754D02*
X303782D01*
X300039Y116690D02*
X303524D01*
X300362Y116625D02*
X303201D01*
X300749Y116561D02*
X302814D01*
X301652Y116496D02*
X301910D01*
X301523Y115076D02*
X302427D01*
X301265Y115012D02*
X302620D01*
X301136Y114947D02*
X302749D01*
X301007Y114883D02*
X302878D01*
X300878Y114818D02*
X303008D01*
X300813Y114754D02*
X303072D01*
X300749Y114689D02*
X303136D01*
X300684Y114625D02*
X303266D01*
X300620Y114560D02*
X303330D01*
X300555Y114496D02*
X303330D01*
X300491Y114431D02*
X303395D01*
X300426Y114366D02*
X303459D01*
X300362Y114302D02*
X303524D01*
X300362Y114237D02*
X303524D01*
X300297Y114173D02*
X303588D01*
X300297Y114108D02*
X303588D01*
X300233Y114044D02*
X303653D01*
X300233Y113979D02*
X303653D01*
X300168Y113915D02*
X303717D01*
X300168Y113850D02*
X303717D01*
X300168Y113786D02*
X303717D01*
X300168Y113721D02*
X303782D01*
X300103Y113657D02*
X303782D01*
X300103Y113592D02*
X303782D01*
X300103Y113528D02*
X303782D01*
X300103Y113463D02*
X303782D01*
X300103Y113399D02*
X303782D01*
X300103Y113334D02*
X303782D01*
X300103Y113269D02*
X303846D01*
X300103Y113205D02*
X303782D01*
X300103Y113140D02*
X303782D01*
X300103Y113076D02*
X303782D01*
X300103Y113011D02*
X303782D01*
X300103Y112947D02*
X303782D01*
X300103Y112882D02*
X303782D01*
X300103Y112818D02*
X303782D01*
X300168Y112753D02*
X303717D01*
X300168Y112689D02*
X303717D01*
X300168Y112624D02*
X303717D01*
X300233Y112560D02*
X303653D01*
X300233Y112495D02*
X303653D01*
X300297Y112431D02*
X303653D01*
X300297Y112366D02*
X303588D01*
X300362Y112301D02*
X303588D01*
X300362Y112237D02*
X303524D01*
X300426Y112172D02*
X303459D01*
X300491Y112108D02*
X303395D01*
X300555Y112043D02*
X303395D01*
X300555Y111979D02*
X303330D01*
X300620Y111914D02*
X303266D01*
X300684Y111850D02*
X303201D01*
X300813Y111785D02*
X303136D01*
X300878Y111721D02*
X303008D01*
X301007Y111656D02*
X302943D01*
X301072Y111592D02*
X302814D01*
X301265Y111527D02*
X302685D01*
X301459Y111462D02*
X302491D01*
X301910Y111398D02*
X301975D01*
X300684Y111075D02*
X301136D01*
X300491Y111011D02*
X302104D01*
X300297Y110946D02*
X302620D01*
X300168Y110882D02*
X302749D01*
X300039Y110817D02*
X302878D01*
X299910Y110753D02*
X302943D01*
X299781Y110688D02*
X303008D01*
X299652Y110624D02*
X303072D01*
X299523Y110559D02*
X303136D01*
X299394Y110494D02*
X303201D01*
X299329Y110430D02*
X303266D01*
X299200Y110365D02*
X303330D01*
X299071Y110301D02*
X303395D01*
X298942Y110236D02*
X303459D01*
X298877Y110172D02*
X303459D01*
X298748Y110107D02*
X303524D01*
X298619Y110043D02*
X303588D01*
X298490Y109978D02*
X303653D01*
X298426Y109914D02*
X303717D01*
X298296Y109849D02*
X303717D01*
X298232Y109785D02*
X303782D01*
X298103Y109720D02*
X303846D01*
X298038Y109656D02*
X303911D01*
X297974Y109591D02*
X303911D01*
X297909Y109527D02*
X303976D01*
X297845Y109462D02*
X304040D01*
X297780Y109397D02*
X304040D01*
X297716Y109333D02*
X304104D01*
X297651Y109268D02*
X304169D01*
X297651Y109204D02*
X304234D01*
X297587Y109139D02*
X304234D01*
X297522Y109075D02*
X304298D01*
X297522Y109010D02*
X304363D01*
X297458Y108946D02*
X304363D01*
X297458Y108881D02*
X304427D01*
X297393Y108817D02*
X304492D01*
X297328Y108752D02*
X304556D01*
X297328Y108688D02*
X304621D01*
X297264Y108623D02*
X305008D01*
X297264Y108558D02*
X305460D01*
X297200Y108494D02*
X305911D01*
X297200Y108429D02*
X299329D01*
X299394D02*
X306363D01*
X297135Y108365D02*
X299265D01*
X299394D02*
X306557D01*
X297135Y108300D02*
X299135D01*
X299394D02*
X306686D01*
X297070Y108236D02*
X299071D01*
X299394D02*
X306815D01*
X297070Y108171D02*
X299006D01*
X299394D02*
X306879D01*
X297006Y108107D02*
X299006D01*
X299329D02*
X306879D01*
X297006Y108042D02*
X298942D01*
X299329D02*
X306944D01*
X296941Y107978D02*
X298942D01*
X299329D02*
X302878D01*
X302943D02*
X307009D01*
X296877Y107913D02*
X298877D01*
X299329D02*
X302878D01*
X303008D02*
X307009D01*
X296877Y107849D02*
X298813D01*
X299265D02*
X302814D01*
X303008D02*
X307009D01*
X296812Y107784D02*
X298813D01*
X299265D02*
X302814D01*
X303072D02*
X307073D01*
X296812Y107720D02*
X298748D01*
X299265D02*
X302814D01*
X303136D02*
X307073D01*
X296748Y107655D02*
X298748D01*
X299265D02*
X302749D01*
X303201D02*
X307073D01*
X296748Y107590D02*
X298684D01*
X299265D02*
X302749D01*
X303266D02*
X307073D01*
X296683Y107526D02*
X298684D01*
X299200D02*
X302749D01*
X303330D02*
X307073D01*
X296683Y107461D02*
X298619D01*
X299200D02*
X302685D01*
X303395D02*
X307009D01*
X296619Y107397D02*
X298619D01*
X299200D02*
X302685D01*
X303459D02*
X307009D01*
X296619Y107332D02*
X298555D01*
X299200D02*
X302685D01*
X303524D02*
X307009D01*
X296554Y107268D02*
X298555D01*
X299135D02*
X302620D01*
X303653D02*
X307009D01*
X296554Y107203D02*
X298490D01*
X299135D02*
X302620D01*
X303782D02*
X306944D01*
X296490Y107139D02*
X298490D01*
X299135D02*
X302620D01*
X303911D02*
X306944D01*
X296490Y107074D02*
X298426D01*
X299135D02*
X302556D01*
X304040D02*
X306879D01*
X296425Y107010D02*
X298361D01*
X299135D02*
X302556D01*
X304298D02*
X306815D01*
X296425Y106945D02*
X298361D01*
X299071D02*
X302556D01*
X304685D02*
X306750D01*
X296425Y106881D02*
X298296D01*
X299071D02*
X302491D01*
X305137D02*
X306686D01*
X296425Y106816D02*
X298296D01*
X299071D02*
X302491D01*
X305524D02*
X306557D01*
X296425Y106752D02*
X298232D01*
X299071D02*
X302491D01*
X305976D02*
X306363D01*
X296425Y106687D02*
X298232D01*
X299006D02*
X302491D01*
X296425Y106623D02*
X298167D01*
X299006D02*
X302427D01*
X296425Y106558D02*
X298167D01*
X299006D02*
X302427D01*
X296490Y106493D02*
X298103D01*
X299006D02*
X302427D01*
X296490Y106429D02*
X298103D01*
X298942D02*
X302362D01*
X296554Y106364D02*
X298038D01*
X298942D02*
X302362D01*
X296554Y106300D02*
X297974D01*
X298942D02*
X302362D01*
X296619Y106235D02*
X297974D01*
X298942D02*
X302298D01*
X296683Y106171D02*
X297909D01*
X298942D02*
X302298D01*
X296748Y106106D02*
X297780D01*
X298877D02*
X302298D01*
X296877Y106042D02*
X297716D01*
X298877D02*
X302233D01*
X297006Y105977D02*
X297522D01*
X298877D02*
X302233D01*
X298877Y105913D02*
X302233D01*
X298877Y105848D02*
X302168D01*
X298813Y105784D02*
X302168D01*
X298813Y105719D02*
X302168D01*
X298813Y105655D02*
X302104D01*
X298813Y105590D02*
X302104D01*
X298813Y105526D02*
X302104D01*
X298877Y105461D02*
X302104D01*
X298877Y105396D02*
X302040D01*
X298877Y105332D02*
X302040D01*
X298877Y105267D02*
X302040D01*
X298877Y105203D02*
X301975D01*
X298942Y105138D02*
X301975D01*
X298942Y105074D02*
X301975D01*
X298942Y105009D02*
X301910D01*
X299006Y104945D02*
X301910D01*
X299006Y104880D02*
X301910D01*
X299071Y104816D02*
X301846D01*
X299135Y104751D02*
X301846D01*
X299135Y104686D02*
X301910D01*
X299200Y104622D02*
X301975D01*
X299265Y104557D02*
X302040D01*
X299329Y104493D02*
X302104D01*
X299394Y104428D02*
X302168D01*
X299458Y104364D02*
X302233D01*
X299523Y104299D02*
X302298D01*
X299587Y104235D02*
X302362D01*
X299652Y104170D02*
X302427D01*
X299716Y104106D02*
X302491D01*
X299781Y104041D02*
X302556D01*
X299845Y103977D02*
X302620D01*
X299910Y103912D02*
X302685D01*
X299974Y103848D02*
X302749D01*
X300039Y103783D02*
X302814D01*
X300103Y103718D02*
X302878D01*
X300168Y103654D02*
X302943D01*
X300233Y103589D02*
X303008D01*
X300297Y103525D02*
X303072D01*
X300362Y103460D02*
X303136D01*
X299265Y103396D02*
X299394D01*
X300426D02*
X303201D01*
X299265Y103331D02*
X299458D01*
X300491D02*
X303266D01*
X299265Y103267D02*
X299523D01*
X300555D02*
X303330D01*
X299200Y103202D02*
X299587D01*
X300620D02*
X303330D01*
X299200Y103138D02*
X299652D01*
X300684D02*
X303395D01*
X299200Y103073D02*
X299716D01*
X300749D02*
X303459D01*
X299135Y103009D02*
X299781D01*
X300813D02*
X303524D01*
X299135Y102944D02*
X299845D01*
X300878D02*
X303588D01*
X299071Y102880D02*
X299910D01*
X300942D02*
X303588D01*
X299071Y102815D02*
X299974D01*
X301007D02*
X303653D01*
X299071Y102751D02*
X300039D01*
X301072D02*
X303653D01*
X299006Y102686D02*
X300103D01*
X301136D02*
X303717D01*
X299006Y102621D02*
X300168D01*
X301201D02*
X303717D01*
X299006Y102557D02*
X300233D01*
X301265D02*
X303782D01*
X298942Y102492D02*
X300297D01*
X301330D02*
X303782D01*
X298942Y102428D02*
X300362D01*
X301394D02*
X303782D01*
X298877Y102363D02*
X300426D01*
X301459D02*
X303846D01*
X298877Y102299D02*
X300491D01*
X301523D02*
X303846D01*
X298877Y102234D02*
X300555D01*
X301588D02*
X303846D01*
X298813Y102170D02*
X300620D01*
X301652D02*
X303911D01*
X298813Y102105D02*
X300620D01*
X301717D02*
X303911D01*
X298813Y102041D02*
X300684D01*
X301781D02*
X303911D01*
X298748Y101976D02*
X300749D01*
X301846D02*
X303976D01*
X298748Y101912D02*
X300813D01*
X301846D02*
X303976D01*
X298684Y101847D02*
X300813D01*
X301910D02*
X304040D01*
X298684Y101783D02*
X300749D01*
X301975D02*
X304040D01*
X298684Y101718D02*
X300749D01*
X301975D02*
X304040D01*
X298619Y101653D02*
X300749D01*
X302040D02*
X304104D01*
X298619Y101589D02*
X300684D01*
X302040D02*
X304104D01*
X298619Y101524D02*
X300684D01*
X302040D02*
X304104D01*
X298555Y101460D02*
X300620D01*
X302104D02*
X304169D01*
X298555Y101395D02*
X300620D01*
X302104D02*
X304169D01*
X298490Y101331D02*
X300620D01*
X302104D02*
X304169D01*
X298490Y101266D02*
X300555D01*
X302168D02*
X304234D01*
X298490Y101202D02*
X300555D01*
X302168D02*
X304234D01*
X298426Y101137D02*
X300555D01*
X302168D02*
X304234D01*
X298426Y101073D02*
X300491D01*
X302233D02*
X304298D01*
X298426Y101008D02*
X300491D01*
X302233D02*
X304298D01*
X298361Y100944D02*
X300491D01*
X302233D02*
X304298D01*
X298361Y100879D02*
X300426D01*
X302298D02*
X304363D01*
X298296Y100814D02*
X300426D01*
X302298D02*
X304363D01*
X298296Y100750D02*
X300362D01*
X302298D02*
X304363D01*
X298296Y100686D02*
X300362D01*
X302362D02*
X304427D01*
X298232Y100621D02*
X300362D01*
X302362D02*
X304427D01*
X298232Y100556D02*
X300297D01*
X302362D02*
X304427D01*
X298232Y100492D02*
X300297D01*
X302427D02*
X304492D01*
X298167Y100427D02*
X300297D01*
X302427D02*
X304492D01*
X298167Y100363D02*
X300233D01*
X302427D02*
X304492D01*
X298103Y100298D02*
X300233D01*
X302491D02*
X304556D01*
X298103Y100234D02*
X300168D01*
X302491D02*
X304556D01*
X298103Y100169D02*
X300168D01*
X302491D02*
X304556D01*
X298038Y100105D02*
X300168D01*
X302556D02*
X304621D01*
X298038Y100040D02*
X300103D01*
X302556D02*
X304621D01*
X298038Y99976D02*
X300103D01*
X302556D02*
X304621D01*
X297974Y99911D02*
X300103D01*
X302620D02*
X304685D01*
X297974Y99847D02*
X300039D01*
X302620D02*
X304685D01*
X297909Y99782D02*
X300039D01*
X302620D02*
X304685D01*
X297909Y99717D02*
X300039D01*
X302685D02*
X304750D01*
X297909Y99653D02*
X299974D01*
X302685D02*
X304750D01*
X297845Y99588D02*
X299974D01*
X302685D02*
X304750D01*
X297845Y99524D02*
X299910D01*
X302749D02*
X304814D01*
X297845Y99459D02*
X299910D01*
X302749D02*
X304814D01*
X297780Y99395D02*
X299910D01*
X302749D02*
X304814D01*
X297780Y99330D02*
X299845D01*
X302814D02*
X304879D01*
X297716Y99266D02*
X299845D01*
X302814D02*
X304879D01*
X297716Y99201D02*
X299845D01*
X302814D02*
X304879D01*
X297716Y99137D02*
X299781D01*
X302878D02*
X304943D01*
X297716Y99072D02*
X299781D01*
X302878D02*
X304943D01*
X297651Y99008D02*
X299781D01*
X302878D02*
X304943D01*
X297651Y98943D02*
X299716D01*
X302943D02*
X305008D01*
X297651Y98879D02*
X299716D01*
X302943D02*
X305008D01*
X297651Y98814D02*
X299652D01*
X303008D02*
X305008D01*
X297651Y98749D02*
X299652D01*
X303008D02*
X305008D01*
X297651Y98685D02*
X299652D01*
X303008D02*
X305008D01*
X297651Y98620D02*
X299587D01*
X303072D02*
X304943D01*
X297716Y98556D02*
X299587D01*
X303072D02*
X304943D01*
X297716Y98491D02*
X299587D01*
X303072D02*
X304943D01*
X297716Y98427D02*
X299523D01*
X303136D02*
X304943D01*
X297780Y98362D02*
X299523D01*
X303136D02*
X304879D01*
X297780Y98298D02*
X299458D01*
X303136D02*
X304879D01*
X297845Y98233D02*
X299458D01*
X303201D02*
X304814D01*
X297909Y98169D02*
X299394D01*
X303266D02*
X304750D01*
X297974Y98104D02*
X299329D01*
X303330D02*
X304685D01*
X298038Y98040D02*
X299265D01*
X303395D02*
X304621D01*
X298167Y97975D02*
X299135D01*
X303459D02*
X304556D01*
X298296Y97910D02*
X299006D01*
X303588D02*
X304427D01*
X303782Y97846D02*
X304234D01*
D16*
X9628Y20010D02*
Y21664D01*
X12189Y17267D02*
Y19104D01*
X17008Y11263D02*
Y14921D01*
X10217Y7899D02*
Y18300D01*
X11449Y6753D02*
Y10046D01*
X9087Y19374D02*
Y21974D01*
X7704Y16980D02*
Y21124D01*
X7553Y5258D02*
Y9616D01*
X15266Y10181D02*
Y11112D01*
X19799Y11374D02*
Y14809D01*
X6694Y6419D02*
Y19780D01*
X7791Y17187D02*
Y21227D01*
X9875Y20273D02*
Y21418D01*
X7513Y5306D02*
Y9728D01*
X12483Y11461D02*
Y14738D01*
X5326Y9274D02*
Y16925D01*
X18797Y10881D02*
Y15302D01*
X11338Y15939D02*
Y19438D01*
X11728Y6753D02*
Y9569D01*
X12865Y10658D02*
Y15541D01*
X8515Y12058D02*
Y14149D01*
X10113Y20527D02*
Y21163D01*
X7155Y15167D02*
Y20440D01*
X9636Y20026D02*
Y21656D01*
X6280Y7103D02*
Y19096D01*
X12809Y7724D02*
Y8280D01*
X20300Y11978D02*
Y14205D01*
X16555Y11708D02*
Y14483D01*
X9358Y19708D02*
Y21919D01*
X8785Y18968D02*
Y21974D01*
X9246Y19573D02*
Y21974D01*
X7990Y4758D02*
Y8591D01*
X10789Y14261D02*
Y18968D01*
X6972Y6014D02*
Y12416D01*
X8292Y4439D02*
Y8018D01*
X7386Y16090D02*
Y20742D01*
X12133Y7040D02*
Y9004D01*
X14980Y14754D02*
Y16312D01*
X12324Y17426D02*
Y18976D01*
X10749Y14006D02*
Y18921D01*
X17501Y10992D02*
Y15191D01*
X20372Y12113D02*
Y14078D01*
X13477Y9839D02*
Y16368D01*
X14606Y14078D02*
Y16670D01*
X12841Y17951D02*
Y18436D01*
X8165Y4575D02*
Y8249D01*
X9310Y9370D02*
Y16829D01*
X12141Y7048D02*
Y8996D01*
X20054Y11628D02*
Y14555D01*
X14702Y9616D02*
Y11907D01*
X8491Y12273D02*
Y13935D01*
X9811Y8479D02*
Y17728D01*
X6893Y6125D02*
Y20074D01*
X12714Y7620D02*
Y8384D01*
X7759Y17108D02*
Y21187D01*
X16960Y11302D02*
Y14889D01*
X17413Y11024D02*
Y15159D01*
X9970Y8233D02*
Y17966D01*
X12165Y17235D02*
Y19128D01*
X18439Y10833D02*
Y15342D01*
X13517Y9791D02*
Y16408D01*
X18877Y10897D02*
Y15286D01*
X11171Y15565D02*
Y19350D01*
X7298Y15779D02*
Y20630D01*
X15386Y10308D02*
Y11000D01*
X7044Y14515D02*
Y20289D01*
X13159Y10213D02*
Y15986D01*
X11966Y16980D02*
Y19318D01*
X17596Y10952D02*
Y15231D01*
X8905Y10340D02*
Y15859D01*
X13262Y10078D02*
Y16122D01*
X8602Y18698D02*
Y21974D01*
X8793Y4121D02*
Y7223D01*
X5000Y10475D02*
Y15724D01*
X5843Y7962D02*
Y18237D01*
X6177Y7294D02*
Y18905D01*
X10988Y15056D02*
Y19175D01*
X7441Y5394D02*
Y9942D01*
X12730Y17839D02*
Y18563D01*
X10400Y7676D02*
Y18523D01*
X5016Y10404D02*
Y15795D01*
X10097Y8058D02*
Y18141D01*
X12897Y10603D02*
Y15597D01*
X11616Y6746D02*
Y9752D01*
X9024Y10022D02*
Y16185D01*
X13962Y9418D02*
Y16774D01*
X18121Y10841D02*
Y15334D01*
X10789Y7239D02*
Y11938D01*
X12769Y7684D02*
Y8328D01*
X7147Y5775D02*
Y11072D01*
X17310Y11080D02*
Y15112D01*
X19195Y11000D02*
Y15183D01*
X8849Y4113D02*
Y7143D01*
X9230Y19557D02*
Y21974D01*
X18002Y10857D02*
Y15326D01*
X10900Y7119D02*
Y11445D01*
X14392Y9402D02*
Y16797D01*
X11107Y15406D02*
Y19286D01*
X7473Y5354D02*
Y9847D01*
X14837Y14547D02*
Y16455D01*
X12038Y17076D02*
Y19255D01*
X15457Y10388D02*
Y10921D01*
X13763Y9545D02*
Y16654D01*
X9731Y20121D02*
Y21561D01*
X15179Y15000D02*
Y16114D01*
X7425Y16217D02*
Y20789D01*
X15489Y15318D02*
Y15772D01*
X9453Y19819D02*
Y21831D01*
X8252Y4479D02*
Y8089D01*
X9533Y8940D02*
Y17259D01*
X20268Y11923D02*
Y14261D01*
X12761Y7676D02*
Y8336D01*
X13103Y10292D02*
Y15915D01*
X14423Y9410D02*
Y16790D01*
X5024Y10372D02*
Y15835D01*
X6105Y7429D02*
Y18770D01*
X13827Y9489D02*
Y16710D01*
X9127Y19430D02*
Y21974D01*
X11052Y6968D02*
Y10952D01*
X14646Y14173D02*
Y16630D01*
X11934Y16941D02*
Y19350D01*
X9962Y20368D02*
Y21330D01*
X11060Y6960D02*
Y10928D01*
X8181Y17982D02*
Y21648D01*
X10232Y20734D02*
Y20972D01*
X13787Y9521D02*
Y16678D01*
X12722Y7628D02*
Y8376D01*
X17151Y11167D02*
Y15016D01*
X7433Y16241D02*
Y20798D01*
X10034Y20440D02*
Y21251D01*
X19354Y11072D02*
Y15112D01*
X10940Y7080D02*
Y11302D01*
X11958Y16972D02*
Y19326D01*
X11775Y6753D02*
Y9497D01*
X17803Y10897D02*
Y15286D01*
X15497Y10435D02*
Y10873D01*
X7720Y17020D02*
Y21139D01*
X6980Y13974D02*
Y20201D01*
X11282Y6777D02*
Y10380D01*
X7242Y5648D02*
Y10634D01*
X15298Y15120D02*
Y15986D01*
X19235Y11016D02*
Y15167D01*
X8038Y4710D02*
Y8495D01*
X7537Y5274D02*
Y9664D01*
X10431Y7636D02*
Y18563D01*
X13819Y9497D02*
Y16702D01*
X6956Y6038D02*
Y12758D01*
X19418Y11112D02*
Y15072D01*
X15060Y9966D02*
Y11342D01*
X9930Y8296D02*
Y17911D01*
X9596Y19978D02*
Y21696D01*
X11314Y6769D02*
Y10316D01*
X7401Y16137D02*
Y20758D01*
X18766Y10873D02*
Y15310D01*
X16443Y11859D02*
Y14324D01*
X9270Y9457D02*
Y16750D01*
X6996Y5982D02*
Y12090D01*
X11386Y6753D02*
Y10165D01*
X11648Y16503D02*
Y19454D01*
X7378Y5473D02*
Y10149D01*
X8690Y18825D02*
Y21974D01*
X16467Y11827D02*
Y14364D01*
X4801Y11660D02*
Y14547D01*
X12054Y6968D02*
Y9099D01*
X14360Y9402D02*
Y16797D01*
X17771Y10905D02*
Y15279D01*
X13429Y9887D02*
Y16312D01*
X8968Y10165D02*
Y16034D01*
X9708Y8638D02*
Y17561D01*
X13008Y10428D02*
Y15772D01*
X13636Y9672D02*
Y16535D01*
X12284Y7191D02*
Y8821D01*
X11473Y16201D02*
Y19446D01*
X15354Y15175D02*
Y15931D01*
X8133Y4606D02*
Y8312D01*
X19871Y11445D02*
Y14746D01*
X9199Y9608D02*
Y16599D01*
X17382Y11040D02*
Y15143D01*
X19473Y11143D02*
Y15048D01*
X12610Y11151D02*
Y15048D01*
X5087Y10102D02*
Y16098D01*
X8197Y18014D02*
Y21664D01*
X16483Y11803D02*
Y14388D01*
X19911Y11477D02*
Y14706D01*
X7600Y5195D02*
Y9489D01*
X8674Y4129D02*
Y7398D01*
X4920Y10873D02*
Y15326D01*
X18710Y10865D02*
Y15318D01*
X16205Y12344D02*
Y13855D01*
X8411Y18388D02*
Y21879D01*
X11163Y6865D02*
Y10658D01*
X9230Y9537D02*
Y16670D01*
X10225Y5195D02*
Y5497D01*
X11465Y16185D02*
Y19446D01*
X15084Y14889D02*
Y16209D01*
X7887Y4869D02*
Y8805D01*
X7274Y5600D02*
Y10515D01*
X10916Y7103D02*
Y11382D01*
X6821Y6229D02*
Y19970D01*
X14972Y9879D02*
Y11453D01*
X9596Y8829D02*
Y17370D01*
X9135Y9752D02*
Y16455D01*
X17827Y10889D02*
Y15294D01*
X17294Y11088D02*
Y15104D01*
X6463Y6793D02*
Y19414D01*
X10010Y8177D02*
Y18022D01*
X18853Y10889D02*
Y15286D01*
X7839Y4924D02*
Y8909D01*
X20443Y12280D02*
Y13911D01*
X8491Y4248D02*
Y7684D01*
X6423Y6857D02*
Y19342D01*
X8388Y4344D02*
Y7851D01*
X10869Y7151D02*
Y11565D01*
X11179Y15581D02*
Y19350D01*
X15378Y15199D02*
Y15907D01*
X9549Y19923D02*
Y21744D01*
X14702Y14300D02*
Y16583D01*
X9628Y4535D02*
Y6189D01*
X10447Y7620D02*
Y18587D01*
X12849Y7771D02*
Y8241D01*
X12284Y17378D02*
Y19016D01*
X13453Y9863D02*
Y16344D01*
X6225Y7207D02*
Y18992D01*
X14495Y9433D02*
Y12503D01*
X18622Y10849D02*
Y15334D01*
X19728Y11318D02*
Y14873D01*
X5922Y7795D02*
Y18412D01*
X11203Y6825D02*
Y10563D01*
X17398Y11032D02*
Y15151D01*
X8905Y19135D02*
Y21974D01*
X17676Y10928D02*
Y15255D01*
X4793Y11724D02*
Y14483D01*
X8714Y18865D02*
Y21974D01*
X17342Y11064D02*
Y15127D01*
X18956Y10921D02*
Y15263D01*
X14901Y14642D02*
Y16392D01*
X7648Y16845D02*
Y21060D01*
X11656Y16519D02*
Y19454D01*
X8348Y18284D02*
Y21815D01*
X8014Y4734D02*
Y8543D01*
X16928Y11326D02*
Y14865D01*
X13286Y10054D02*
Y16145D01*
X20436Y12257D02*
Y13927D01*
X11115Y15422D02*
Y19295D01*
X14368Y9402D02*
Y16797D01*
X8881Y4113D02*
Y7103D01*
X20579Y12813D02*
Y13354D01*
X15274Y15096D02*
Y16018D01*
X7743Y17076D02*
Y21171D01*
X5517Y8742D02*
Y17465D01*
X17938Y10865D02*
Y15318D01*
X7346Y15955D02*
Y20686D01*
X5453Y8909D02*
Y17290D01*
X9421Y19780D02*
Y21863D01*
X12785Y10801D02*
Y15406D01*
X14630Y14141D02*
Y16646D01*
X15091Y14897D02*
Y16201D01*
X15306Y15127D02*
Y15978D01*
X10177Y20607D02*
Y21092D01*
X8276Y18157D02*
Y21744D01*
X5398Y9068D02*
Y17139D01*
X5819Y8018D02*
Y18189D01*
X7226Y5664D02*
Y10706D01*
X19099Y10960D02*
Y15215D01*
X8841Y4121D02*
Y7151D01*
X13525Y9783D02*
Y16416D01*
X6193Y7262D02*
Y18937D01*
X18368Y10833D02*
Y15350D01*
X12340Y7247D02*
Y8758D01*
X8077Y4662D02*
Y8416D01*
X9883Y20281D02*
Y21410D01*
X9318Y4241D02*
Y6539D01*
X18654Y10857D02*
Y15326D01*
X10479Y7581D02*
Y18619D01*
X16722Y11517D02*
Y14674D01*
X13191Y10173D02*
Y16026D01*
X12038Y6952D02*
Y9123D01*
X16491Y11795D02*
Y14396D01*
X7887Y17394D02*
Y21330D01*
X8920Y10300D02*
Y15899D01*
X12054Y17100D02*
Y19239D01*
X18408Y10833D02*
Y15350D01*
X9906Y4813D02*
Y5895D01*
X12849Y10682D02*
Y15517D01*
X17589Y10960D02*
Y15223D01*
X9724Y4630D02*
Y6086D01*
X12236Y17322D02*
Y19056D01*
X17477Y11000D02*
Y15183D01*
X9016Y19286D02*
Y21974D01*
X10201Y20646D02*
Y21060D01*
X15036Y14833D02*
Y16257D01*
X14940Y9847D02*
Y11493D01*
X16690Y11549D02*
Y14642D01*
X9151Y19462D02*
Y21974D01*
X16714Y11525D02*
Y14666D01*
X7696Y5083D02*
Y9243D01*
X9254Y4193D02*
Y6618D01*
X11712Y6753D02*
Y9593D01*
X15195Y10109D02*
Y11183D01*
X11219Y15676D02*
Y19382D01*
X18805Y10881D02*
Y15302D01*
X9501Y9004D02*
Y17203D01*
X9978Y8225D02*
Y17974D01*
X11863Y6793D02*
Y9362D01*
X7974Y17577D02*
Y21426D01*
X9899Y20297D02*
Y21394D01*
X11529Y16304D02*
Y19454D01*
X10964Y14984D02*
Y19151D01*
X10948Y14929D02*
Y19135D01*
X14328Y9402D02*
Y16797D01*
X9079Y19366D02*
Y21974D01*
X4841Y11366D02*
Y14833D01*
X10781Y14213D02*
Y18960D01*
X13302Y10030D02*
Y16169D01*
X8658Y4137D02*
Y7422D01*
X15187Y15008D02*
Y16106D01*
X11545Y6746D02*
Y9871D01*
X6535Y6674D02*
Y19525D01*
X9366Y9258D02*
Y16941D01*
X12411Y17521D02*
Y18889D01*
X17127Y11183D02*
Y15008D01*
X12594Y11183D02*
Y15016D01*
X12833Y7756D02*
Y8257D01*
X7004Y5966D02*
Y12002D01*
X14010Y9410D02*
Y16781D01*
X7322Y15867D02*
Y20662D01*
X12634Y11096D02*
Y15104D01*
X20491Y12408D02*
Y13768D01*
X12443Y11573D02*
Y14626D01*
X8674Y18801D02*
Y21974D01*
X14511Y9449D02*
Y12432D01*
X10384Y7692D02*
Y18507D01*
X7330Y5529D02*
Y10308D01*
X8467Y4272D02*
Y7724D01*
X15441Y10372D02*
Y10944D01*
X14741Y9656D02*
Y11827D01*
X8030Y17696D02*
Y21489D01*
X8817Y4121D02*
Y7191D01*
X9692Y20082D02*
Y21601D01*
X16793Y11445D02*
Y14746D01*
X7441Y16265D02*
Y20813D01*
X6066Y7509D02*
Y18698D01*
X10765Y7262D02*
Y12082D01*
X15052Y14849D02*
Y16241D01*
X7600Y16718D02*
Y21004D01*
X9740Y20137D02*
Y21553D01*
X18757Y10873D02*
Y15310D01*
X11099Y6921D02*
Y10817D01*
X7107Y14921D02*
Y20376D01*
X12563Y11263D02*
Y14944D01*
X9167Y4129D02*
Y6722D01*
X12491Y7390D02*
Y8598D01*
X18567Y10841D02*
Y15334D01*
X12117Y17179D02*
Y19175D01*
X20547Y12622D02*
Y13553D01*
X5119Y9982D02*
Y16225D01*
X15521Y10475D02*
Y10825D01*
X9040Y9982D02*
Y16225D01*
X16181Y12416D02*
Y13791D01*
X9167Y19477D02*
Y21974D01*
X7879Y4877D02*
Y8821D01*
X8316Y18229D02*
Y21784D01*
X7608Y16742D02*
Y21012D01*
X19592Y11215D02*
Y14968D01*
X20276Y11938D02*
Y14245D01*
X9922Y20320D02*
Y21370D01*
X10670Y7366D02*
Y18833D01*
X9835Y8439D02*
Y17760D01*
X10996Y15088D02*
Y19183D01*
X13199Y10165D02*
Y16042D01*
X13382Y9942D02*
Y16265D01*
X11775Y16710D02*
Y19446D01*
X9525Y8956D02*
Y17243D01*
X9803Y20201D02*
Y21489D01*
X13954Y9418D02*
Y16774D01*
X14869Y9775D02*
Y11604D01*
X10559Y7493D02*
Y18714D01*
X14074Y9402D02*
Y16790D01*
X15195Y15016D02*
Y16098D01*
X11298Y6777D02*
Y10348D01*
X13851Y9465D02*
Y16726D01*
X6964Y13783D02*
Y20177D01*
X5055Y10237D02*
Y15970D01*
X11895Y16885D02*
Y19382D01*
X11354Y15970D02*
Y19438D01*
X9334Y9322D02*
Y16877D01*
X5390Y9084D02*
Y17116D01*
X10407Y7668D02*
Y18539D01*
X17072Y11215D02*
Y14968D01*
X6368Y6952D02*
Y19247D01*
X6479Y6762D02*
Y19438D01*
X5533Y8694D02*
Y17505D01*
X14089Y9402D02*
Y16790D01*
X16435Y11875D02*
Y14316D01*
X11394Y6753D02*
Y10149D01*
X8626Y11374D02*
Y14833D01*
X9374Y4296D02*
Y6475D01*
X15529Y10499D02*
Y10801D01*
X6559Y6634D02*
Y19565D01*
X14924Y9831D02*
Y11517D01*
X5708Y8264D02*
Y17935D01*
X12189Y7096D02*
Y8933D01*
X14066Y9402D02*
Y16790D01*
X8992Y10102D02*
Y16098D01*
X8817Y10618D02*
Y15581D01*
X10821Y7199D02*
Y11772D01*
X8356Y18293D02*
Y21823D01*
X15417Y15239D02*
Y15859D01*
X9851Y20249D02*
Y21442D01*
X11759Y6753D02*
Y9521D01*
X9684Y4591D02*
Y6125D01*
X9755Y8567D02*
Y17640D01*
X9477Y4392D02*
Y6356D01*
X9684Y20074D02*
Y21609D01*
X10201Y7923D02*
Y18284D01*
X19163Y10984D02*
Y15191D01*
X5032Y10332D02*
Y15867D01*
X17787Y10897D02*
Y15286D01*
X9127Y4121D02*
Y6777D01*
X18392Y10833D02*
Y15350D01*
X17962Y10865D02*
Y15318D01*
X6352Y6976D02*
Y19223D01*
X14917Y9823D02*
Y11533D01*
X10010Y20416D02*
Y21275D01*
X14924Y14682D02*
Y16368D01*
X18145Y10841D02*
Y15342D01*
X8260Y18125D02*
Y21728D01*
X12650Y11064D02*
Y15135D01*
X5827Y7994D02*
Y18205D01*
X9239Y4177D02*
Y6634D01*
X6837Y6205D02*
Y19994D01*
X12523Y17632D02*
Y18778D01*
X8563Y18634D02*
Y21974D01*
X9700Y8654D02*
Y17545D01*
X11195Y15620D02*
Y19366D01*
X7028Y5934D02*
Y11795D01*
X8435Y4304D02*
Y7771D01*
X8896Y4113D02*
Y7080D01*
X11863Y16837D02*
Y19406D01*
X11322Y6769D02*
Y10292D01*
X16594Y11660D02*
Y14531D01*
X17557Y10968D02*
Y15215D01*
X8594Y4161D02*
Y7517D01*
X16618Y11628D02*
Y14563D01*
X19123Y10976D02*
Y15207D01*
X14821Y9736D02*
Y11676D01*
X11855Y16829D02*
Y19414D01*
X9644Y8750D02*
Y17449D01*
X10988Y7024D02*
Y11143D01*
X13580Y9728D02*
Y16479D01*
X14050Y9410D02*
Y16790D01*
X11306Y15875D02*
Y19430D01*
X5525Y8718D02*
Y17489D01*
X15513Y15358D02*
Y15740D01*
X8658Y18778D02*
Y21974D01*
X8586Y4169D02*
Y7533D01*
X12300Y17394D02*
Y19000D01*
X9286Y4217D02*
Y6579D01*
X6996Y14133D02*
Y20225D01*
X12738Y17839D02*
Y18547D01*
X20467Y12336D02*
Y13839D01*
X8714Y4129D02*
Y7334D01*
X9779Y8527D02*
Y17672D01*
X18583Y10849D02*
Y15334D01*
X14551Y9481D02*
Y12288D01*
X14614Y9537D02*
Y12105D01*
X16284Y12153D02*
Y14046D01*
X7688Y5099D02*
Y9267D01*
X7195Y5704D02*
Y10841D01*
X10543Y7509D02*
Y18690D01*
X12865Y17982D02*
Y18404D01*
X8769Y18945D02*
Y21974D01*
X15107Y10014D02*
Y11286D01*
X11131Y6889D02*
Y10738D01*
X6129Y7382D02*
Y18817D01*
X8833Y19032D02*
Y21974D01*
X17907Y10873D02*
Y15310D01*
X7680Y5107D02*
Y9282D01*
X16133Y12575D02*
Y13609D01*
X20316Y12010D02*
Y14181D01*
X11433Y16129D02*
Y19446D01*
X11791Y16734D02*
Y19446D01*
X16674Y11565D02*
Y14626D01*
X11433Y6753D02*
Y10070D01*
X13437Y9879D02*
Y16320D01*
X11330Y6769D02*
Y10277D01*
X19600Y11223D02*
Y14960D01*
X17843Y10889D02*
Y15294D01*
X10081Y4996D02*
Y5704D01*
X14654Y9577D02*
Y12010D01*
X10089Y20503D02*
Y21195D01*
X8085Y17799D02*
Y21545D01*
X9986Y4893D02*
Y5807D01*
X12626Y17736D02*
Y18666D01*
X8507Y12121D02*
Y14086D01*
X17318Y11072D02*
Y15112D01*
X8738Y10897D02*
Y15302D01*
X14813Y9728D02*
Y11692D01*
X14002Y9410D02*
Y16781D01*
X7131Y5791D02*
Y11143D01*
X18559Y10841D02*
Y15334D01*
X12157Y17227D02*
Y19135D01*
X8324Y4408D02*
Y7962D01*
X11640Y6746D02*
Y9712D01*
X8411Y4320D02*
Y7811D01*
X8372Y18324D02*
Y21839D01*
X8928Y10277D02*
Y15923D01*
X10455Y7612D02*
Y18595D01*
X11235Y15716D02*
Y19398D01*
X20125Y11724D02*
Y14467D01*
X7481Y5346D02*
Y9823D01*
X10105Y5028D02*
Y5680D01*
X12340Y11915D02*
Y14285D01*
X17191Y11143D02*
Y15040D01*
X14145Y9402D02*
Y16797D01*
X12022Y17060D02*
Y19263D01*
X15386Y15207D02*
Y15899D01*
X12889Y7827D02*
Y8169D01*
X5580Y8575D02*
Y17625D01*
X14678Y9593D02*
Y11954D01*
X12515Y17625D02*
Y18786D01*
X19744Y11326D02*
Y14857D01*
X12857Y17974D02*
Y18420D01*
X8173Y4567D02*
Y8233D01*
X10964Y7048D02*
Y11223D01*
X11553Y16344D02*
Y19454D01*
X13413Y9903D02*
Y16296D01*
X11386Y16034D02*
Y19446D01*
X7918Y17465D02*
Y21362D01*
X18503Y10841D02*
Y15342D01*
X10726Y7302D02*
Y12400D01*
X7735Y5044D02*
Y9147D01*
X9795Y8503D02*
Y17704D01*
X8873Y4113D02*
Y7111D01*
X9763Y8551D02*
Y17648D01*
X11688Y16575D02*
Y19454D01*
X7330Y15899D02*
Y20670D01*
X11934Y6857D02*
Y9267D01*
X10829Y14467D02*
Y19008D01*
X16117Y12646D02*
Y13521D01*
X13922Y9426D02*
Y16766D01*
X10773Y7254D02*
Y12034D01*
X11306Y6769D02*
Y10332D01*
X7449Y5378D02*
Y9919D01*
X10344Y7740D02*
Y18460D01*
X9485Y4400D02*
Y6348D01*
X11576Y6746D02*
Y9815D01*
X8467Y18483D02*
Y21927D01*
X11696Y6753D02*
Y9616D01*
X19171Y10992D02*
Y15191D01*
X16316Y12082D02*
Y14109D01*
X12571Y7477D02*
Y8519D01*
X11067Y15294D02*
Y19255D01*
X16213Y12320D02*
Y13879D01*
X14964Y9871D02*
Y11461D01*
X8650Y11263D02*
Y14944D01*
X12602Y7509D02*
Y8487D01*
X10312Y7779D02*
Y18420D01*
X4912Y10921D02*
Y15286D01*
X20451Y12296D02*
Y13887D01*
X9771Y20169D02*
Y21521D01*
X8427Y4304D02*
Y7787D01*
X12380Y17489D02*
Y18921D01*
X20348Y12066D02*
Y14118D01*
X19187Y11000D02*
Y15183D01*
X5063Y10205D02*
Y16002D01*
X10177Y5107D02*
Y5593D01*
X8833Y4121D02*
Y7167D01*
X15115Y10022D02*
Y11270D01*
X12388Y11748D02*
Y14459D01*
X11036Y15207D02*
Y19223D01*
X15147Y14960D02*
Y16145D01*
X12658Y11048D02*
Y15151D01*
X11354Y6762D02*
Y10229D01*
X9262Y19597D02*
Y21974D01*
X9493Y19867D02*
Y21800D01*
X10885Y14698D02*
Y19064D01*
X17358Y11056D02*
Y15135D01*
X9716Y20106D02*
Y21577D01*
X18646Y10857D02*
Y15326D01*
X14853Y9759D02*
Y11628D01*
X7314Y15835D02*
Y20646D01*
X11274Y15803D02*
Y19422D01*
X9700Y20090D02*
Y21593D01*
X10089Y5004D02*
Y5696D01*
X13080Y10324D02*
Y15875D01*
X8555Y4193D02*
Y7581D01*
X5875Y7891D02*
Y18308D01*
X7608Y5187D02*
Y9465D01*
X9334Y19684D02*
Y21943D01*
X14527Y13831D02*
Y16734D01*
X10105Y20519D02*
Y21171D01*
X10853Y14571D02*
Y19032D01*
X12308Y7215D02*
Y8797D01*
X10058Y8113D02*
Y18094D01*
X11910Y16909D02*
Y19366D01*
X12920Y10563D02*
Y15636D01*
X20308Y11994D02*
Y14197D01*
X17565Y10968D02*
Y15215D01*
X10248Y7859D02*
Y18340D01*
X15115Y14929D02*
Y16177D01*
X17573Y10960D02*
Y15223D01*
X9660Y8726D02*
Y17481D01*
X9565Y4471D02*
Y6261D01*
X12547Y11302D02*
Y14905D01*
X19736Y11326D02*
Y14865D01*
X8570Y4177D02*
Y7557D01*
X7751Y5020D02*
Y9115D01*
X8976Y4113D02*
Y6968D01*
X19282Y11040D02*
Y15143D01*
X16221Y12296D02*
Y13895D01*
X16984Y11278D02*
Y14905D01*
X11767Y6753D02*
Y9505D01*
X11569Y16376D02*
Y19454D01*
X14853Y14571D02*
Y16440D01*
X9922Y8304D02*
Y17895D01*
X15012Y9919D02*
Y11398D01*
X7903Y17434D02*
Y21346D01*
X6407Y6889D02*
Y19318D01*
X17024Y11255D02*
Y14936D01*
X15402Y15215D02*
Y15875D01*
X17930Y10865D02*
Y15310D01*
X15155Y14976D02*
Y16137D01*
X16252Y12225D02*
Y13974D01*
X17080Y11215D02*
Y14976D01*
X17087Y11207D02*
Y14976D01*
X7497Y5322D02*
Y9775D01*
X15346Y10261D02*
Y11032D01*
X9429Y4344D02*
Y6412D01*
X17239Y11112D02*
Y15072D01*
X17167Y11159D02*
Y15032D01*
X10002Y20408D02*
Y21291D01*
X18129Y10841D02*
Y15342D01*
X6487Y6753D02*
Y19454D01*
X16189Y12392D02*
Y13815D01*
X7767Y17131D02*
Y21195D01*
X13986Y9410D02*
Y16781D01*
X11139Y15485D02*
Y19318D01*
X11680Y16559D02*
Y19454D01*
X19425Y11112D02*
Y15072D01*
X14217Y9402D02*
Y16797D01*
X14503Y9442D02*
Y12463D01*
X16738Y11493D02*
Y14690D01*
X8475Y4264D02*
Y7708D01*
X13573Y9736D02*
Y16471D01*
X7171Y15247D02*
Y20463D01*
X14527Y9457D02*
Y12376D01*
X8873Y19088D02*
Y21974D01*
X9962Y4869D02*
Y5839D01*
X12912Y18149D02*
Y18261D01*
X8785Y10722D02*
Y15477D01*
X12793Y7708D02*
Y8304D01*
X12809Y17919D02*
Y18475D01*
X12419Y7318D02*
Y8670D01*
X11401Y16066D02*
Y19446D01*
X15068Y14873D02*
Y16225D01*
X16396Y11938D02*
Y14245D01*
X16157Y12487D02*
Y13704D01*
X7735Y17052D02*
Y21163D01*
X14845Y14563D02*
Y16447D01*
X16730Y11509D02*
Y14682D01*
X18090Y10849D02*
Y15334D01*
X9819Y8463D02*
Y17736D01*
X11195Y6833D02*
Y10579D01*
X7020Y14340D02*
Y20257D01*
X12555Y17664D02*
Y18746D01*
X17859Y10881D02*
Y15302D01*
X9199Y19517D02*
Y21974D01*
X18257Y10833D02*
Y15350D01*
X14741Y14380D02*
Y16543D01*
X9374Y9243D02*
Y16957D01*
X11401Y6753D02*
Y10133D01*
X14940Y14706D02*
Y16352D01*
X19672Y11270D02*
Y14913D01*
X9223Y19549D02*
Y21974D01*
X9413Y4328D02*
Y6427D01*
X18861Y10897D02*
Y15286D01*
X13270Y10070D02*
Y16129D01*
X15235Y10149D02*
Y11143D01*
X5469Y8861D02*
Y17338D01*
X17302Y11080D02*
Y15104D01*
X9525Y4439D02*
Y6300D01*
X11282Y15819D02*
Y19422D01*
X17199Y11135D02*
Y15048D01*
X19259Y11032D02*
Y15151D01*
X19990Y11565D02*
Y14626D01*
X8912Y4113D02*
Y7056D01*
X7926Y17481D02*
Y21370D01*
X14352Y9402D02*
Y16797D01*
X14439Y13338D02*
Y16790D01*
X5628Y8455D02*
Y17744D01*
X12658Y7565D02*
Y8432D01*
X7115Y5815D02*
Y11231D01*
X9668Y20058D02*
Y21624D01*
X10018Y20424D02*
Y21267D01*
X11060Y15271D02*
Y19247D01*
X11004Y7008D02*
Y11096D01*
X5867Y7907D02*
Y18293D01*
X11704Y16599D02*
Y19454D01*
X15425Y10348D02*
Y10960D01*
X9318Y19660D02*
Y21959D01*
X12117Y7024D02*
Y9020D01*
X17581Y10960D02*
Y15223D01*
X9803Y8487D02*
Y17712D01*
X20197Y11819D02*
Y14372D01*
X17954Y10865D02*
Y15318D01*
X14487Y9433D02*
Y12543D01*
X10797Y7223D02*
Y11891D01*
X12276Y12193D02*
Y14014D01*
X12388Y17497D02*
Y18913D01*
X11075Y6944D02*
Y10881D01*
X17056Y11231D02*
Y14960D01*
X7624Y16781D02*
Y21028D01*
X12968Y10491D02*
Y15716D01*
X12014Y17044D02*
Y19271D01*
X16531Y11740D02*
Y14451D01*
X11235Y6801D02*
Y10491D01*
X7235Y5656D02*
Y10674D01*
X11083Y6936D02*
Y10865D01*
X9859Y4765D02*
Y5942D01*
X7871Y17362D02*
Y21314D01*
X10296Y7803D02*
Y18404D01*
X8292Y18181D02*
Y21760D01*
X8419Y18404D02*
Y21887D01*
X19370Y11080D02*
Y15104D01*
X9612Y4519D02*
Y6205D01*
X11497Y16249D02*
Y19454D01*
X8459Y4280D02*
Y7732D01*
X14861Y14587D02*
Y16432D01*
X10034Y4948D02*
Y5759D01*
X9278Y9433D02*
Y16766D01*
X6312Y7048D02*
Y19151D01*
X9883Y4789D02*
Y5918D01*
X19680Y11278D02*
Y14905D01*
X7632Y5163D02*
Y9410D01*
X13143Y10237D02*
Y15962D01*
X8777Y4121D02*
Y7247D01*
X11902Y16893D02*
Y19374D01*
X16889Y11358D02*
Y14833D01*
X12459Y7358D02*
Y8630D01*
X5588Y8559D02*
Y17648D01*
X11425Y16114D02*
Y19446D01*
X10511Y7541D02*
Y18658D01*
X11783Y16718D02*
Y19446D01*
X15489Y10428D02*
Y10881D01*
X14917Y14666D02*
Y16376D01*
X8745Y18913D02*
Y21974D01*
X10050Y4964D02*
Y5744D01*
X8006Y4742D02*
Y8559D01*
X11083Y15342D02*
Y19271D01*
X5803Y8050D02*
Y18149D01*
X11211Y15660D02*
Y19382D01*
X19584Y11215D02*
Y14976D01*
X7083Y5855D02*
Y11414D01*
X9636Y8766D02*
Y17442D01*
X5358Y9179D02*
Y17020D01*
X18177Y10841D02*
Y15342D01*
X12459Y11525D02*
Y14674D01*
X5175Y9775D02*
Y16424D01*
X7712Y16996D02*
Y21132D01*
X9048Y4113D02*
Y6873D01*
X5238Y9553D02*
Y16646D01*
X6495Y6738D02*
Y19462D01*
X15537Y15430D02*
Y15668D01*
X7068Y14674D02*
Y20320D01*
X9286Y19621D02*
Y21974D01*
X13596Y9712D02*
Y16495D01*
X19974Y11541D02*
Y14642D01*
X9175Y4129D02*
Y6714D01*
X11314Y15891D02*
Y19430D01*
X9095Y9847D02*
Y16360D01*
X9469Y9060D02*
Y17139D01*
X19131Y10976D02*
Y15207D01*
X20499Y12439D02*
Y13744D01*
X17469Y11000D02*
Y15183D01*
X9191Y4137D02*
Y6698D01*
X11608Y16440D02*
Y19454D01*
X10423Y7644D02*
Y18555D01*
X9525Y19899D02*
Y21768D01*
X13588Y9720D02*
Y16487D01*
X12213Y17298D02*
Y19080D01*
X15370Y10292D02*
Y11016D01*
X19449Y11127D02*
Y15056D01*
X10050Y20456D02*
Y21235D01*
X16658Y11581D02*
Y14603D01*
X19084Y10960D02*
Y15223D01*
X7640Y5155D02*
Y9386D01*
X19497Y11151D02*
Y15032D01*
X10861Y14603D02*
Y19040D01*
X9517Y8972D02*
Y17227D01*
X7879Y17378D02*
Y21322D01*
X14948Y9855D02*
Y11485D01*
X9835Y4742D02*
Y5966D01*
X15211Y15032D02*
Y16082D01*
X6288Y7096D02*
Y19112D01*
X5143Y9887D02*
Y16312D01*
X10042Y8137D02*
Y18070D01*
X11879Y16861D02*
Y19398D01*
X12292Y7199D02*
Y8813D01*
X7640Y16821D02*
Y21052D01*
X9604Y8813D02*
Y17386D01*
X13930Y9426D02*
Y16766D01*
X9819Y4726D02*
Y5982D01*
X18193Y10833D02*
Y15342D01*
X19783Y11366D02*
Y14825D01*
X16356Y12010D02*
Y14181D01*
X8610Y11453D02*
Y14754D01*
X9286Y9418D02*
Y16781D01*
X8586Y18674D02*
Y21974D01*
X20340Y12050D02*
Y14133D01*
X10336Y7756D02*
Y18451D01*
X14582Y9505D02*
Y12193D01*
X9700Y4606D02*
Y6109D01*
X5978Y7676D02*
Y18523D01*
X9875Y4781D02*
Y5926D01*
X10074Y8089D02*
Y18110D01*
X14567Y13958D02*
Y16702D01*
X8547Y4201D02*
Y7588D01*
X18972Y10921D02*
Y15263D01*
X5151Y9863D02*
Y16344D01*
X9064Y4113D02*
Y6857D01*
X13421Y9895D02*
Y16304D01*
X9533Y4447D02*
Y6292D01*
X17994Y10857D02*
Y15326D01*
X9405Y19764D02*
Y21879D01*
X11012Y7000D02*
Y11072D01*
X19346D02*
Y15112D01*
X8427Y18420D02*
Y21895D01*
X8912Y10316D02*
Y15883D01*
X5485Y8821D02*
Y17378D01*
X14948Y14714D02*
Y16344D01*
X8666Y18793D02*
Y21974D01*
X9294Y9402D02*
Y16797D01*
X14455Y9418D02*
Y12726D01*
X17493Y10992D02*
Y15191D01*
X19433Y11119D02*
Y15064D01*
X18447Y10833D02*
Y15342D01*
X12682Y11000D02*
Y15207D01*
X12380Y7278D02*
Y8718D01*
X12777Y7692D02*
Y8320D01*
X18320Y10833D02*
Y15350D01*
X6336Y7008D02*
Y19191D01*
X18352Y10833D02*
Y15350D01*
X19760Y11342D02*
Y14841D01*
X18201Y10833D02*
Y15342D01*
X12229Y12495D02*
Y13712D01*
X19632Y11247D02*
Y14944D01*
X12284Y12153D02*
Y14046D01*
X18535Y10841D02*
Y15342D01*
X11242Y6801D02*
Y10467D01*
X14901Y9807D02*
Y11557D01*
X11147Y6873D02*
Y10698D01*
X17270Y11096D02*
Y15088D01*
X12849Y17966D02*
Y18428D01*
X14511Y13768D02*
Y16750D01*
X18280Y10833D02*
Y15350D01*
X12904Y10594D02*
Y15612D01*
X7743Y5036D02*
Y9131D01*
X10956Y7064D02*
Y11247D01*
X11179Y6849D02*
Y10618D01*
X12610Y7517D02*
Y8479D01*
X13318Y10014D02*
Y16185D01*
X12698Y10968D02*
Y15239D01*
X5700Y8280D02*
Y17919D01*
X10980Y15032D02*
Y19167D01*
X15131Y14944D02*
Y16161D01*
X8467Y12583D02*
Y13632D01*
X8364Y18308D02*
Y21831D01*
X19394Y11096D02*
Y15088D01*
X6113Y7414D02*
Y18786D01*
X9883Y8368D02*
Y17831D01*
X9914Y8320D02*
Y17887D01*
X12427Y17537D02*
Y18873D01*
X8682Y4129D02*
Y7382D01*
X8038Y17704D02*
Y21497D01*
X14113Y9402D02*
Y16797D01*
X12197Y17275D02*
Y19096D01*
X10606Y7437D02*
Y18762D01*
X12236Y7143D02*
Y8877D01*
X12435Y11597D02*
Y14611D01*
X10909Y7111D02*
Y11414D01*
X11871Y6801D02*
Y9354D01*
X14734Y14364D02*
Y16551D01*
X16165Y12463D02*
Y13736D01*
X5716Y8249D02*
Y17958D01*
X11028Y15183D02*
Y19215D01*
X14233Y9402D02*
Y16797D01*
X10225Y20702D02*
Y21004D01*
X18598Y10849D02*
Y15334D01*
X13358Y9966D02*
Y16233D01*
X13278Y10062D02*
Y16137D01*
X4944Y10746D02*
Y15453D01*
X5954Y7724D02*
Y18475D01*
X9978Y4885D02*
Y5815D01*
X12706Y7612D02*
Y8392D01*
X14241Y9402D02*
Y16797D01*
X9708Y4614D02*
Y6101D01*
X8491Y18523D02*
Y21951D01*
X19561Y11199D02*
Y14992D01*
X8340Y18269D02*
Y21807D01*
X15091Y9998D02*
Y11302D01*
X8523Y11994D02*
Y14213D01*
X19664Y11270D02*
Y14921D01*
X6137Y7366D02*
Y18833D01*
X13398Y9927D02*
Y16281D01*
X14988Y9895D02*
Y11429D01*
X8976Y19231D02*
Y21974D01*
X9899Y4805D02*
Y5903D01*
X9382Y4304D02*
Y6467D01*
X19139Y10976D02*
Y15207D01*
X16841Y11398D02*
Y14785D01*
X7942Y17513D02*
Y21394D01*
X16777Y11461D02*
Y14730D01*
X9159Y19469D02*
Y21974D01*
X15314Y10229D02*
Y11064D01*
X15282Y10197D02*
Y11096D01*
X9453Y4368D02*
Y6380D01*
X11099Y15382D02*
Y19279D01*
X16125Y12607D02*
Y13569D01*
X9127Y9768D02*
Y16432D01*
X12308Y17410D02*
Y18992D01*
X8944Y10229D02*
Y15970D01*
X18948Y10913D02*
Y15263D01*
X8952Y19199D02*
Y21974D01*
X12912Y7946D02*
Y8050D01*
X15537Y10531D02*
Y10769D01*
X8666Y11191D02*
Y15016D01*
X7004Y14205D02*
Y20233D01*
X12300Y12082D02*
Y14125D01*
X16411Y11915D02*
Y14277D01*
X19076Y10952D02*
Y15223D01*
X8594Y18682D02*
Y21974D01*
X6073Y7493D02*
Y18714D01*
X11839Y16805D02*
Y19430D01*
X11728Y16630D02*
Y19454D01*
X14773Y9688D02*
Y11763D01*
X13604Y9704D02*
Y16503D01*
X14567Y9497D02*
Y12241D01*
X7903Y4853D02*
Y8773D01*
X15449Y10380D02*
Y10928D01*
X9644Y4551D02*
Y6173D01*
X7537Y16543D02*
Y20925D01*
X11584Y16400D02*
Y19454D01*
X12722Y10921D02*
Y15286D01*
X16340Y12042D02*
Y14149D01*
X19115Y10968D02*
Y15215D01*
X19918Y11485D02*
Y14698D01*
X18845Y10889D02*
Y15294D01*
X19950Y11517D02*
Y14666D01*
X11624Y6746D02*
Y9736D01*
X14082Y9402D02*
Y16790D01*
X8308Y4423D02*
Y7986D01*
X11664Y6746D02*
Y9672D01*
X8372Y4360D02*
Y7883D01*
X11942Y16949D02*
Y19342D01*
X16992Y11278D02*
Y14913D01*
X17946Y10865D02*
Y15318D01*
X8515Y18555D02*
Y21974D01*
X18026Y10849D02*
Y15326D01*
X18925Y10913D02*
Y15271D01*
X10392Y7684D02*
Y18515D01*
X11831Y6769D02*
Y9410D01*
X15394Y15215D02*
Y15883D01*
X11807Y16758D02*
Y19438D01*
X14559Y13942D02*
Y16710D01*
X7457Y5370D02*
Y9895D01*
X9159Y4129D02*
Y6738D01*
X8093Y4646D02*
Y8384D01*
X9676Y8694D02*
Y17505D01*
X10638Y7398D02*
Y18801D01*
X20260Y11915D02*
Y14277D01*
X16857Y11382D02*
Y14801D01*
X9851Y4758D02*
Y5950D01*
X9731Y8606D02*
Y17601D01*
X11258Y6793D02*
Y10435D01*
X11044Y15231D02*
Y19231D01*
X17795Y10897D02*
Y15286D01*
X9398Y4320D02*
Y6443D01*
X8984Y4113D02*
Y6960D01*
X6829Y6221D02*
Y19986D01*
X10026Y8153D02*
Y18046D01*
X20078Y11660D02*
Y14531D01*
X10193Y20630D02*
Y21068D01*
X14248Y9402D02*
Y16797D01*
X12825Y17935D02*
Y18451D01*
X10566Y7477D02*
Y18722D01*
X14956Y14722D02*
Y16336D01*
X17231Y11119D02*
Y15064D01*
X13628Y9680D02*
Y16527D01*
X8602Y11493D02*
Y14706D01*
X13231Y10125D02*
Y16082D01*
X11457Y6753D02*
Y10030D01*
X9294Y4225D02*
Y6571D01*
X17366Y11048D02*
Y15135D01*
X5620Y8471D02*
Y17728D01*
X5374Y9131D02*
Y17068D01*
X12650Y17760D02*
Y18642D01*
X13183Y10181D02*
Y16018D01*
X17819Y10889D02*
Y15294D01*
X14121Y9402D02*
Y16797D01*
X7497Y16432D02*
Y20877D01*
X6710Y6396D02*
Y19803D01*
X12077Y17131D02*
Y19215D01*
X13048Y10372D02*
Y15835D01*
X8054Y4694D02*
Y8463D01*
X10845Y7175D02*
Y11668D01*
X7052Y14571D02*
Y20297D01*
X8634Y11334D02*
Y14873D01*
X12714Y10937D02*
Y15271D01*
X15171Y10078D02*
Y11215D01*
X16897Y11350D02*
Y14833D01*
X17533Y10976D02*
Y15207D01*
X8459Y12734D02*
Y13481D01*
X8276Y4455D02*
Y8050D01*
X20284Y11954D02*
Y14237D01*
X5652Y8400D02*
Y17807D01*
X5127Y9950D02*
Y16257D01*
X5413Y9020D02*
Y17179D01*
X7958Y17545D02*
Y21410D01*
X8030Y4718D02*
Y8511D01*
X8531Y4217D02*
Y7620D01*
X10813Y7207D02*
Y11819D01*
X16578Y11676D02*
Y14515D01*
X12801Y17911D02*
Y18483D01*
X8730Y10928D02*
Y15271D01*
X18288Y10833D02*
Y15350D01*
X18042Y10849D02*
Y15326D01*
X5811Y8034D02*
Y18173D01*
X9167Y9680D02*
Y16527D01*
X7394Y5449D02*
Y10093D01*
X13811Y9505D02*
Y16694D01*
X15258Y10173D02*
Y11119D01*
X14662Y9585D02*
Y11994D01*
X10718Y7310D02*
Y12495D01*
X12491Y17601D02*
Y18809D01*
X9143Y4121D02*
Y6753D01*
X12316Y12010D02*
Y14189D01*
X12260Y12280D02*
Y13927D01*
X9398Y19756D02*
Y21887D01*
X12563Y17672D02*
Y18730D01*
X7099Y14873D02*
Y20368D01*
X5445Y8933D02*
Y17275D01*
X9119Y4121D02*
Y6785D01*
X15290Y10205D02*
Y11088D01*
X9660Y4567D02*
Y6157D01*
X10972Y7040D02*
Y11191D01*
X11958Y6881D02*
Y9235D01*
X12658Y17768D02*
Y18634D01*
X8968Y4113D02*
Y6984D01*
X18416Y10833D02*
Y15350D01*
X8539Y18595D02*
Y21974D01*
X11298Y15851D02*
Y19430D01*
X7068Y5879D02*
Y11509D01*
X11855Y6785D02*
Y9378D01*
X10121Y20543D02*
Y21155D01*
X13207Y10149D02*
Y16050D01*
X12507Y7406D02*
Y8583D01*
X8093Y17815D02*
Y21553D01*
X8046Y4702D02*
Y8479D01*
X9724Y8614D02*
Y17585D01*
X9580Y19963D02*
Y21712D01*
X14877Y14611D02*
Y16416D01*
X15449Y15271D02*
Y15827D01*
X13350Y9974D02*
Y16225D01*
X12181Y7087D02*
Y8940D01*
X12865Y7787D02*
Y8217D01*
X8753Y18921D02*
Y21974D01*
X18789Y10881D02*
Y15302D01*
X10575Y7469D02*
Y18730D01*
X5898Y7843D02*
Y18356D01*
X14750Y14396D02*
Y16535D01*
X8563Y11716D02*
Y14483D01*
X13175Y10189D02*
Y16010D01*
X18471Y10841D02*
Y15342D01*
X16093Y12805D02*
Y13314D01*
X11751Y6753D02*
Y9529D01*
X16507Y11772D02*
Y14420D01*
X19068Y10952D02*
Y15231D01*
X12634Y7541D02*
Y8455D01*
X17708Y10921D02*
Y15263D01*
X9413Y9163D02*
Y17036D01*
X20221Y11851D02*
Y14332D01*
X12070Y6984D02*
Y9084D01*
X17604Y10952D02*
Y15231D01*
X14757Y14412D02*
Y16527D01*
X11648Y6746D02*
Y9696D01*
X9040Y19318D02*
Y21974D01*
X5731Y8209D02*
Y17990D01*
X14686Y14269D02*
Y16599D01*
X9095Y19390D02*
Y21974D01*
X12435Y17545D02*
Y18865D01*
X20555Y12662D02*
Y13513D01*
X13859Y9465D02*
Y16734D01*
X15243Y10157D02*
Y11135D01*
X12356Y11859D02*
Y14348D01*
X18241Y10833D02*
Y15350D01*
X9302Y9386D02*
Y16813D01*
X4960Y10666D02*
Y15533D01*
X14479Y13624D02*
Y16774D01*
X7624Y5171D02*
Y9426D01*
X9111Y4121D02*
Y6793D01*
X7187Y15318D02*
Y20479D01*
X5294Y9378D02*
Y16829D01*
X5692Y8304D02*
Y17903D01*
X10439Y7628D02*
Y18571D01*
X10781Y7247D02*
Y11986D01*
X9755Y4662D02*
Y6054D01*
X8666Y4137D02*
Y7406D01*
X7306Y15811D02*
Y20638D01*
X12889Y18030D02*
Y18372D01*
X19243Y11024D02*
Y15159D01*
X13485Y9823D02*
Y16376D01*
X9994Y4909D02*
Y5799D01*
X17740Y10913D02*
Y15271D01*
X12388Y7286D02*
Y8710D01*
X13970Y9418D02*
Y16774D01*
X12268Y12233D02*
Y13966D01*
X13883Y9449D02*
Y16750D01*
X15227Y10141D02*
Y11151D01*
X18614Y10849D02*
Y15334D01*
X8881Y19104D02*
Y21974D01*
X8992Y19255D02*
Y21974D01*
X13620Y9688D02*
Y16519D01*
X18781Y10873D02*
Y15302D01*
X5159Y9831D02*
Y16368D01*
X19028Y10937D02*
Y15239D01*
X5509Y8758D02*
Y17442D01*
X5962Y7708D02*
Y18491D01*
X7449Y16288D02*
Y20821D01*
X7465Y5362D02*
Y9871D01*
X7139Y5783D02*
Y11112D01*
X7012Y5958D02*
Y11923D01*
X11672Y16543D02*
Y19454D01*
X19847Y11422D02*
Y14770D01*
X8896Y10364D02*
Y15835D01*
X14058Y9410D02*
Y16790D01*
X18988Y10928D02*
Y15255D01*
X10630Y7406D02*
Y18793D01*
X19052Y10944D02*
Y15231D01*
X9572Y8877D02*
Y17330D01*
X13644Y9664D02*
Y16543D01*
X12451Y7350D02*
Y8638D01*
X9469Y4384D02*
Y6364D01*
X19362Y11080D02*
Y15104D01*
X12952Y10515D02*
Y15684D01*
X11425Y6753D02*
Y10086D01*
X10240Y7867D02*
Y18332D01*
X12419Y11644D02*
Y14563D01*
X11720Y16623D02*
Y19454D01*
X8777Y10754D02*
Y15446D01*
X9230Y4169D02*
Y6642D01*
X13000Y10443D02*
Y15764D01*
X9302Y19644D02*
Y21974D01*
X8968Y19223D02*
Y21974D01*
X12101Y17155D02*
Y19191D01*
X8515Y4225D02*
Y7644D01*
X8698Y18841D02*
Y21974D01*
X11513Y16273D02*
Y19454D01*
X9342Y9306D02*
Y16893D01*
X4873Y11159D02*
Y15048D01*
X9509Y19883D02*
Y21784D01*
X12006Y6921D02*
Y9163D01*
X14734Y9648D02*
Y11835D01*
X9207Y9593D02*
Y16614D01*
X9684Y8678D02*
Y17521D01*
X12745Y7660D02*
Y8352D01*
X15235Y15056D02*
Y16058D01*
X16173Y12439D02*
Y13768D01*
X11052Y15247D02*
Y19239D01*
X12125Y17187D02*
Y19167D01*
X18964Y10921D02*
Y15263D01*
X12276Y17370D02*
Y19024D01*
X18917Y10905D02*
Y15279D01*
X8984Y19239D02*
Y21974D01*
X15163Y10070D02*
Y11223D01*
X15473Y10404D02*
Y10905D01*
X15227Y15048D02*
Y16066D01*
X17390Y11040D02*
Y15143D01*
X9119Y19422D02*
Y21974D01*
X12610Y17720D02*
Y18682D01*
X18074Y10849D02*
Y15334D01*
X6702Y6412D02*
Y19795D01*
X8149Y17927D02*
Y21609D01*
X5382Y9107D02*
Y17092D01*
X11346Y15955D02*
Y19438D01*
X12236Y12424D02*
Y13776D01*
X8730Y4121D02*
Y7310D01*
X17183Y11151D02*
Y15040D01*
X7219Y5680D02*
Y10738D01*
X19298Y11048D02*
Y15135D01*
X6789Y6276D02*
Y19923D01*
X9533Y19907D02*
Y21760D01*
X6916Y6094D02*
Y20114D01*
X7656Y5131D02*
Y9346D01*
X12030Y6944D02*
Y9131D01*
X7060Y5887D02*
Y11565D01*
X12300Y7207D02*
Y8805D01*
X15465Y10396D02*
Y10913D01*
X10153Y5076D02*
Y5624D01*
X12197Y7103D02*
Y8924D01*
X15052Y9958D02*
Y11350D01*
X12777Y17887D02*
Y18507D01*
X9851Y8416D02*
Y17784D01*
X9954Y8257D02*
Y17943D01*
X15107Y14921D02*
Y16185D01*
X16268Y12185D02*
Y14014D01*
X7966Y17561D02*
Y21418D01*
X19696Y11294D02*
Y14897D01*
X9867Y8392D02*
Y17807D01*
X15370Y15191D02*
Y15915D01*
X16817Y11422D02*
Y14770D01*
X13692Y9616D02*
Y16591D01*
X6622Y6531D02*
Y19668D01*
X4777Y11859D02*
Y14340D01*
X7521Y16503D02*
Y20909D01*
X7648Y5139D02*
Y9362D01*
X9135Y4121D02*
Y6762D01*
X12316Y7223D02*
Y8789D01*
X8745Y4121D02*
Y7294D01*
X8602Y4161D02*
Y7509D01*
X14431Y13211D02*
Y16790D01*
X11879Y6809D02*
Y9338D01*
X17692Y10921D02*
Y15255D01*
X10368Y7716D02*
Y18491D01*
X9485Y9028D02*
Y17171D01*
X10065Y4980D02*
Y5728D01*
X16308Y12098D02*
Y14094D01*
X12022Y6936D02*
Y9147D01*
X18161Y10841D02*
Y15342D01*
X19060Y10952D02*
Y15231D01*
X9207Y4153D02*
Y6674D01*
X9779Y20177D02*
Y21513D01*
X17159Y11159D02*
Y15024D01*
X9008Y10062D02*
Y16137D01*
X11012Y15135D02*
Y19199D01*
X12738Y10889D02*
Y15310D01*
X7131Y15048D02*
Y20408D01*
X8570Y11676D02*
Y14531D01*
X19330Y11064D02*
Y15120D01*
X9421Y9147D02*
Y17052D01*
X8578Y11628D02*
Y14579D01*
X12451Y11549D02*
Y14650D01*
X7433Y5402D02*
Y9966D01*
X10097Y20511D02*
Y21187D01*
X17978Y10857D02*
Y15318D01*
X9477Y9044D02*
Y17155D01*
X12642Y17752D02*
Y18650D01*
X17970Y10865D02*
Y15318D01*
X12483Y17593D02*
Y18817D01*
X7632Y16797D02*
Y21044D01*
X12753Y10857D02*
Y15342D01*
X15402Y10324D02*
Y10984D01*
X14026Y9410D02*
Y16781D01*
X9970Y20376D02*
Y21322D01*
X7569Y16630D02*
Y20965D01*
X12292Y12121D02*
Y14086D01*
X8682Y18817D02*
Y21974D01*
X12205Y17282D02*
Y19088D01*
X15163Y14984D02*
Y16129D01*
X7235Y15533D02*
Y20543D01*
X12555Y7461D02*
Y8535D01*
X9859Y20257D02*
Y21434D01*
X11576Y16384D02*
Y19454D01*
X10837Y7183D02*
Y11700D01*
X11744Y16662D02*
Y19446D01*
X7847Y4916D02*
Y8893D01*
X9111Y9807D02*
Y16400D01*
X10002Y4916D02*
Y5791D01*
X12245Y12376D02*
Y13831D01*
X12030Y17068D02*
Y19255D01*
X10352Y7732D02*
Y18467D01*
X17541Y10976D02*
Y15207D01*
X16427Y11891D02*
Y14300D01*
X8928Y19167D02*
Y21974D01*
X12419Y17529D02*
Y18881D01*
X13541Y9768D02*
Y16432D01*
X13803Y9505D02*
Y16694D01*
X18678Y10857D02*
Y15326D01*
X5207Y9664D02*
Y16543D01*
X7704Y5076D02*
Y9227D01*
X17660Y10937D02*
Y15247D01*
X9572Y19954D02*
Y21720D01*
X5334Y9251D02*
Y16949D01*
X14201Y9402D02*
Y16797D01*
X4904Y10968D02*
Y15239D01*
X8380Y4352D02*
Y7867D01*
X20006Y11581D02*
Y14611D01*
X11449Y16161D02*
Y19446D01*
X7338Y15923D02*
Y20678D01*
X11155Y6865D02*
Y10674D01*
X14185Y9402D02*
Y16797D01*
X15139Y14953D02*
Y16153D01*
X19306Y11048D02*
Y15135D01*
X8364Y4368D02*
Y7891D01*
X13294Y10046D02*
Y16161D01*
X18225Y10833D02*
Y15342D01*
X5501Y8781D02*
Y17426D01*
X7799Y4972D02*
Y9004D01*
X10018Y4932D02*
Y5775D01*
X12841Y10698D02*
Y15501D01*
X17246Y11112D02*
Y15072D01*
X11537Y6746D02*
Y9887D01*
X9199Y4145D02*
Y6682D01*
X17223Y11127D02*
Y15064D01*
X16563Y11692D02*
Y14491D01*
X6161Y7326D02*
Y18881D01*
X9254Y19589D02*
Y21974D01*
X7179Y15286D02*
Y20471D01*
X8865Y4113D02*
Y7119D01*
X6805Y6252D02*
Y19947D01*
X8793Y18976D02*
Y21974D01*
X8809Y10642D02*
Y15557D01*
X6638Y6507D02*
Y19692D01*
X15099Y10006D02*
Y11294D01*
X11807Y6762D02*
Y9449D01*
X14726Y14348D02*
Y16559D01*
X9724Y20114D02*
Y21569D01*
X8324Y18237D02*
Y21791D01*
X10845Y14539D02*
Y19024D01*
X20205Y11827D02*
Y14356D01*
X11378Y16018D02*
Y19446D01*
X11767Y16694D02*
Y19446D01*
X11799Y6762D02*
Y9457D01*
X7958Y4797D02*
Y8654D01*
X16459Y11835D02*
Y14348D01*
X6384Y6928D02*
Y19279D01*
X12396Y11716D02*
Y14483D01*
X8300Y4431D02*
Y8002D01*
X11489Y16233D02*
Y19454D01*
X15139Y10046D02*
Y11247D01*
X20109Y11700D02*
Y14491D01*
X7775Y17147D02*
Y21203D01*
X12682Y7588D02*
Y8408D01*
X14646Y9569D02*
Y12026D01*
X16968Y11294D02*
Y14897D01*
X16276Y12169D02*
Y14030D01*
X9740Y8591D02*
Y17609D01*
X9390Y9211D02*
Y16988D01*
X17064Y11223D02*
Y14960D01*
X8841Y19048D02*
Y21974D01*
X12730Y10905D02*
Y15302D01*
X15171Y14992D02*
Y16122D01*
X12928Y10555D02*
Y15652D01*
X7219Y15461D02*
Y20527D01*
X19290Y11040D02*
Y15143D01*
X16571Y11684D02*
Y14499D01*
X14996Y9903D02*
Y11422D01*
X14177Y9402D02*
Y16797D01*
X5079Y10133D02*
Y16066D01*
X15322Y10237D02*
Y11056D01*
X12499Y11422D02*
Y14785D01*
X4825Y11485D02*
Y14722D01*
X12586Y7493D02*
Y8503D01*
Y17696D02*
Y18706D01*
X14535Y13855D02*
Y16734D01*
X6471Y6777D02*
Y19422D01*
X9572Y4479D02*
Y6252D01*
X10097Y5012D02*
Y5688D01*
X8738Y4121D02*
Y7302D01*
X12260Y7167D02*
Y8853D01*
X12936Y10539D02*
Y15660D01*
X18996Y10928D02*
Y15255D01*
X8761Y4121D02*
Y7270D01*
X7481Y16384D02*
Y20861D01*
X9048Y9958D02*
Y16241D01*
X11521Y6753D02*
Y9911D01*
X8109Y4630D02*
Y8352D01*
X10590Y7453D02*
Y18746D01*
X18400Y10833D02*
Y15350D01*
X19020Y10937D02*
Y15247D01*
X11720Y6753D02*
Y9577D01*
X8905Y4113D02*
Y7064D01*
X8340Y4392D02*
Y7931D01*
X12372Y11795D02*
Y14404D01*
X5310Y9322D02*
Y16877D01*
X9843Y8423D02*
Y17776D01*
X7950Y17529D02*
Y21402D01*
X13899Y9442D02*
Y16758D01*
X19553Y11191D02*
Y14992D01*
X17255Y11103D02*
Y15080D01*
X20571Y12758D02*
Y13418D01*
X9103Y9823D02*
Y16376D01*
X7378Y16058D02*
Y20726D01*
X9215Y9569D02*
Y16630D01*
X9676Y4583D02*
Y6133D01*
X6797Y6268D02*
Y19939D01*
X9501Y19875D02*
Y21791D01*
X14869Y14595D02*
Y16424D01*
X11624Y16463D02*
Y19454D01*
X9660Y20050D02*
Y21632D01*
X17135Y11175D02*
Y15008D01*
X14559Y9489D02*
Y12264D01*
X6765Y6316D02*
Y19891D01*
X10463Y7597D02*
Y18603D01*
X16642Y11597D02*
Y14587D01*
X10026Y20432D02*
Y21259D01*
X12221Y17306D02*
Y19072D01*
X16706Y11533D02*
Y14658D01*
X19767Y11350D02*
Y14841D01*
X8205Y18030D02*
Y21672D01*
X5859Y7931D02*
Y18277D01*
X6058Y7517D02*
Y18682D01*
X4817Y11541D02*
Y14666D01*
X9716Y4622D02*
Y6094D01*
X12149Y7056D02*
Y8980D01*
X8857Y4113D02*
Y7135D01*
X7250Y15597D02*
Y20567D01*
X9676Y20066D02*
Y21617D01*
X20189Y11803D02*
Y14380D01*
X9239Y19565D02*
Y21974D01*
X12093Y7000D02*
Y9052D01*
X17445Y11016D02*
Y15167D01*
X12396Y17505D02*
Y18905D01*
X16650Y11589D02*
Y14595D01*
X7306Y5561D02*
Y10396D01*
X12101Y7008D02*
Y9044D01*
X8618Y18722D02*
Y21974D01*
X8061Y17752D02*
Y21521D01*
X10185Y5115D02*
Y5584D01*
X19720Y11310D02*
Y14873D01*
X9437Y9123D02*
Y17084D01*
X9787Y8511D02*
Y17688D01*
X11274Y6785D02*
Y10396D01*
X7576Y16654D02*
Y20972D01*
X9000Y4113D02*
Y6936D01*
X9358Y9274D02*
Y16925D01*
X6948Y6046D02*
Y20153D01*
X17628Y10944D02*
Y15239D01*
X15497Y15326D02*
Y15764D01*
X5930Y7779D02*
Y18428D01*
X11322Y15907D02*
Y19430D01*
X10519Y7533D02*
Y18666D01*
X10710Y13609D02*
Y18881D01*
X5421Y8996D02*
Y17203D01*
X7123Y5807D02*
Y11183D01*
X10145Y5068D02*
Y5632D01*
X7831Y17275D02*
Y21267D01*
X12817Y10738D02*
Y15461D01*
X13326Y10006D02*
Y16193D01*
X18527Y10841D02*
Y15342D01*
X18940Y10913D02*
Y15271D01*
X5755Y8153D02*
Y18046D01*
X10129Y5052D02*
Y5656D01*
X15243Y15064D02*
Y16050D01*
X9795Y4702D02*
Y6006D01*
X12873Y7803D02*
Y8201D01*
X6391Y6913D02*
Y19286D01*
X15457Y15279D02*
Y15811D01*
X12229Y7135D02*
Y8885D01*
X12571Y11239D02*
Y14960D01*
X20507Y12463D02*
Y13720D01*
X16944Y11310D02*
Y14873D01*
X12276Y7183D02*
Y8829D01*
X20157Y11763D02*
Y14428D01*
X11823Y6762D02*
Y9426D01*
X11815Y16766D02*
Y19438D01*
X11847Y6777D02*
Y9386D01*
X9382Y19740D02*
Y21903D01*
X12515Y7422D02*
Y8575D01*
X17612Y10952D02*
Y15231D01*
X14384Y9402D02*
Y16797D01*
X10288Y7811D02*
Y18388D01*
X17040Y11239D02*
Y14944D01*
X7417Y5426D02*
Y10014D01*
X10034Y8145D02*
Y18054D01*
X5278Y9426D02*
Y16774D01*
X5111Y10014D02*
Y16193D01*
X8499Y18531D02*
Y21959D01*
X14861Y9768D02*
Y11613D01*
X8205Y4535D02*
Y8177D01*
X9652Y4559D02*
Y6165D01*
X7203Y5696D02*
Y10809D01*
X6646Y6499D02*
Y19708D01*
X5223Y9608D02*
Y16591D01*
X11592Y16416D02*
Y19454D01*
X13732Y9577D02*
Y16623D01*
X9819Y20217D02*
Y21473D01*
X14694Y9608D02*
Y11923D01*
X19004Y10937D02*
Y15247D01*
X6400Y6897D02*
Y19302D01*
X19895Y11461D02*
Y14722D01*
X14662Y14213D02*
Y16614D01*
X8404Y18372D02*
Y21871D01*
X9604Y19986D02*
Y21688D01*
X11075Y15318D02*
Y19263D01*
X11791Y6753D02*
Y9473D01*
X18018Y10857D02*
Y15326D01*
X12348Y11883D02*
Y14316D01*
X5771Y8121D02*
Y18086D01*
X14312Y9402D02*
Y16797D01*
X10328Y7763D02*
Y18444D01*
X8769Y4121D02*
Y7254D01*
X9755Y20153D02*
Y21537D01*
X17891Y10873D02*
Y15302D01*
X18376Y10833D02*
Y15350D01*
X9262Y9473D02*
Y16734D01*
X8260Y4471D02*
Y8074D01*
X9938Y8280D02*
Y17919D01*
X15147Y10054D02*
Y11239D01*
X9024Y19295D02*
Y21974D01*
X12650Y7557D02*
Y8439D01*
X5596Y8535D02*
Y17664D01*
X7998Y4750D02*
Y8575D01*
X14726Y9640D02*
Y11851D01*
X15076Y14881D02*
Y16217D01*
X8801Y4121D02*
Y7215D01*
X9636Y4543D02*
Y6181D01*
X5048Y10268D02*
Y15939D01*
X9437Y19803D02*
Y21847D01*
X7505Y16455D02*
Y20885D01*
X11067Y6952D02*
Y10905D01*
X14893Y9799D02*
Y11565D01*
X10773Y14173D02*
Y18952D01*
X12260Y17354D02*
Y19040D01*
X17143Y11175D02*
Y15016D01*
X18511Y10841D02*
Y15342D01*
X12364Y11827D02*
Y14372D01*
X13445Y9871D02*
Y16336D01*
X12459Y17569D02*
Y18841D01*
X7545Y16567D02*
Y20933D01*
X9350Y4272D02*
Y6499D01*
X8213Y18038D02*
Y21680D01*
X10877Y7143D02*
Y11533D01*
X20412Y12201D02*
Y13990D01*
X7569Y5235D02*
Y9577D01*
X14535Y9465D02*
Y12344D01*
X8722Y10960D02*
Y15247D01*
X12571Y17680D02*
Y18722D01*
X6185Y7278D02*
Y18921D01*
X8563Y4185D02*
Y7565D01*
X8531Y11930D02*
Y14277D01*
X9048Y19326D02*
Y21974D01*
X11330Y15923D02*
Y19438D01*
X8356Y4376D02*
Y7907D01*
X10010Y4924D02*
Y5783D01*
X11759Y16686D02*
Y19446D01*
X4745Y12288D02*
Y13911D01*
X14034Y9410D02*
Y16790D01*
X8753Y10841D02*
Y15366D01*
X8801Y10674D02*
Y15533D01*
X8181Y4559D02*
Y8217D01*
X6010Y7612D02*
Y18587D01*
X8920Y19159D02*
Y21974D01*
X19823Y11398D02*
Y14793D01*
X12817Y17927D02*
Y18460D01*
X14503Y13736D02*
Y16758D01*
X12793Y10785D02*
Y15422D01*
X7847Y17306D02*
Y21283D01*
X12332Y17434D02*
Y18968D01*
X9024Y4113D02*
Y6905D01*
X4849Y11310D02*
Y14889D01*
X10121Y8026D02*
Y18173D01*
X12435Y7334D02*
Y8654D01*
X20253Y11899D02*
Y14285D01*
X5541Y8678D02*
Y17529D01*
X10853Y7167D02*
Y11628D01*
X5342Y9227D02*
Y16972D01*
X11982Y17004D02*
Y19302D01*
X12404Y11692D02*
Y14507D01*
X4968Y10626D02*
Y15573D01*
X20062Y11644D02*
Y14547D01*
X11266Y15788D02*
Y19414D01*
X13095Y10300D02*
Y15899D01*
X6566Y6618D02*
Y19581D01*
X7036Y14459D02*
Y20281D01*
X20388Y12145D02*
Y14038D01*
X14654Y14197D02*
Y16623D01*
X4992Y10515D02*
Y15684D01*
X11910Y6833D02*
Y9298D01*
X7934Y17497D02*
Y21378D01*
X7362Y5489D02*
Y10197D01*
X18901Y10905D02*
Y15279D01*
X20046Y11620D02*
Y14563D01*
X10169Y5099D02*
Y5600D01*
X8101Y17831D02*
Y21561D01*
X17000Y11270D02*
Y14921D01*
X8507Y4233D02*
Y7652D01*
X5071Y10165D02*
Y16034D01*
X9461Y19827D02*
Y21823D01*
X10598Y7445D02*
Y18754D01*
X11441Y16145D02*
Y19446D01*
X6964Y6022D02*
Y12567D01*
X20292Y11970D02*
Y14221D01*
X7489Y16408D02*
Y20869D01*
X8252Y18117D02*
Y21720D01*
X14885Y14618D02*
Y16408D01*
X20165Y11772D02*
Y14412D01*
X12411Y7310D02*
Y8678D01*
X8332Y18253D02*
Y21800D01*
X8523Y4217D02*
Y7628D01*
X9549Y4463D02*
Y6276D01*
X12586Y11207D02*
Y15000D01*
X9215Y4161D02*
Y6666D01*
X15330Y15151D02*
Y15955D01*
X18272Y10833D02*
Y15350D01*
X18734Y10865D02*
Y15310D01*
X11966Y6881D02*
Y9219D01*
X8730Y18889D02*
Y21974D01*
X15394Y10316D02*
Y10992D01*
X8618Y4153D02*
Y7477D01*
X11362Y15986D02*
Y19438D01*
X8825Y4121D02*
Y7175D01*
X11584Y6746D02*
Y9799D01*
X14272Y9402D02*
Y16797D01*
X14909Y14658D02*
Y16384D01*
X5040Y10300D02*
Y15899D01*
X10209Y20654D02*
Y21044D01*
X6869Y6157D02*
Y20042D01*
X19092Y10960D02*
Y15223D01*
X19569Y11199D02*
Y14984D01*
X15473Y15294D02*
Y15795D01*
X8825Y10587D02*
Y15612D01*
X9008Y4113D02*
Y6928D01*
X10837Y14499D02*
Y19016D01*
X17652Y10937D02*
Y15247D01*
X14805Y14491D02*
Y16479D01*
X6654Y6483D02*
Y19716D01*
X9143Y9736D02*
Y16471D01*
X19998Y11573D02*
Y14618D01*
X15433Y10356D02*
Y10952D01*
X16539Y11724D02*
Y14459D01*
X7688Y16941D02*
Y21108D01*
X7871Y4893D02*
Y8845D01*
X7036Y5926D02*
Y11732D01*
X9811Y20209D02*
Y21481D01*
X11227Y15700D02*
Y19390D01*
X8698Y11056D02*
Y15151D01*
X4896Y11008D02*
Y15191D01*
X15044Y14841D02*
Y16249D01*
X7767Y5004D02*
Y9076D01*
X6328Y7024D02*
Y19183D01*
X7282Y15724D02*
Y20607D01*
X14909Y9815D02*
Y11541D01*
X7155Y5759D02*
Y11032D01*
X19839Y11414D02*
Y14777D01*
X11712Y16607D02*
Y19454D01*
X8268Y18141D02*
Y21736D01*
X12690Y10984D02*
Y15223D01*
X12006Y17036D02*
Y19279D01*
X16634Y11604D02*
Y14579D01*
X8117Y17863D02*
Y21577D01*
X19489Y11151D02*
Y15032D01*
X20404Y12185D02*
Y14006D01*
X9079Y9879D02*
Y16320D01*
X8221Y4519D02*
Y8145D01*
X12221Y12567D02*
Y13640D01*
X6217Y7223D02*
Y18984D01*
X12642Y11080D02*
Y15120D01*
X12857Y10674D02*
Y15533D01*
X10805Y14348D02*
Y18984D01*
X14519Y13799D02*
Y16742D01*
X14932Y9839D02*
Y11509D01*
X11799Y16742D02*
Y19446D01*
X12785Y17895D02*
Y18499D01*
X15481Y15310D02*
Y15788D01*
X11529Y6746D02*
Y9895D01*
X11561Y6746D02*
Y9839D01*
X15250Y10165D02*
Y11127D01*
X18773Y10873D02*
Y15310D01*
X4737Y12583D02*
Y13616D01*
X17525Y10984D02*
Y15199D01*
X8785Y4121D02*
Y7231D01*
X14829Y9744D02*
Y11668D01*
X6988Y14054D02*
Y20209D01*
X7394Y16114D02*
Y20750D01*
X8332Y4400D02*
Y7946D01*
X15099Y14905D02*
Y16193D01*
X13533Y9775D02*
Y16424D01*
X15378Y10300D02*
Y11008D01*
X16626Y11620D02*
Y14571D01*
X15076Y9982D02*
Y11318D01*
X14757Y9672D02*
Y11795D01*
X17032Y11247D02*
Y14936D01*
X11831Y16790D02*
Y19430D01*
X8061Y4678D02*
Y8447D01*
X8157Y4583D02*
Y8264D01*
X9557Y8901D02*
Y17298D01*
X11990Y6905D02*
Y9187D01*
X5970Y7692D02*
Y18507D01*
X10646Y7390D02*
Y18809D01*
X8889Y4113D02*
Y7087D01*
X11974Y6889D02*
Y9211D01*
X16976Y11286D02*
Y14897D01*
X18113Y10841D02*
Y15334D01*
X19616Y11231D02*
Y14953D01*
X9835Y20233D02*
Y21457D01*
X11887Y6817D02*
Y9330D01*
X11632Y6746D02*
Y9720D01*
X15258Y15080D02*
Y16034D01*
X11362Y6762D02*
Y10213D01*
X12618Y7525D02*
Y8471D01*
X8634Y4145D02*
Y7453D01*
X9596Y4503D02*
Y6221D01*
X7370Y16034D02*
Y20718D01*
X11242Y15732D02*
Y19398D01*
X18058Y10849D02*
Y15334D01*
X10058Y4972D02*
Y5736D01*
X19815Y11390D02*
Y14793D01*
X10503Y7557D02*
Y18650D01*
X10209Y7907D02*
Y18293D01*
X15346Y15167D02*
Y15939D01*
X14400Y9402D02*
Y16797D01*
X9143Y19446D02*
Y21974D01*
X8849Y10515D02*
Y15684D01*
X9946Y4853D02*
Y5855D01*
X18455Y10833D02*
Y15342D01*
X9000Y19263D02*
Y21974D01*
X14105Y9402D02*
Y16790D01*
X16920Y11334D02*
Y14857D01*
X15282Y15104D02*
Y16002D01*
X11004Y15112D02*
Y19191D01*
X13875Y9449D02*
Y16742D01*
X7242Y15565D02*
Y20559D01*
X12674Y11016D02*
Y15183D01*
X10232Y5227D02*
Y5465D01*
X19266Y11032D02*
Y15151D01*
X4936Y10793D02*
Y15414D01*
X17763Y10905D02*
Y15279D01*
X9071Y4113D02*
Y6841D01*
X9771Y8535D02*
Y17664D01*
X19322Y11056D02*
Y15127D01*
X20014Y11589D02*
Y14603D01*
X11028Y6984D02*
Y11024D01*
X12539Y11318D02*
Y14881D01*
X19012Y10937D02*
Y15247D01*
X9421Y4336D02*
Y6419D01*
X12070Y17116D02*
Y19223D01*
X9509Y4423D02*
Y6316D01*
X15362Y10284D02*
Y11016D01*
X11410Y16082D02*
Y19446D01*
X7052Y5903D02*
Y11613D01*
X15004Y9911D02*
Y11406D01*
X7712Y5068D02*
Y9211D01*
X9246Y4185D02*
Y6626D01*
X14622Y14118D02*
Y16654D01*
X15505Y15342D02*
Y15756D01*
X11481Y16217D02*
Y19446D01*
X14622Y9545D02*
Y12090D01*
X8380Y18332D02*
Y21847D01*
X9159Y9696D02*
Y16511D01*
X11394Y16050D02*
Y19446D01*
X7147Y15127D02*
Y20432D01*
X13135Y10245D02*
Y15955D01*
X6845Y6197D02*
Y20010D01*
X6050Y7533D02*
Y18666D01*
X7139Y15088D02*
Y20416D01*
X15481Y10420D02*
Y10897D01*
X9493Y4408D02*
Y6340D01*
X16101Y12734D02*
Y13402D01*
X9326Y9338D02*
Y16861D01*
X16865Y11382D02*
Y14809D01*
X17811Y10889D02*
Y15286D01*
X9398Y9195D02*
Y17004D01*
X15028Y9934D02*
Y11382D01*
X4833Y11429D02*
Y14777D01*
X14694Y14285D02*
Y16591D01*
X9135Y19438D02*
Y21974D01*
X17724Y10913D02*
Y15271D01*
X9620Y8789D02*
Y17410D01*
X9366Y4288D02*
Y6483D01*
X13509Y9799D02*
Y16400D01*
X11505Y6753D02*
Y9942D01*
X15505Y10443D02*
Y10857D01*
X12046Y17092D02*
Y19247D01*
X7020Y5942D02*
Y11859D01*
X9087Y9863D02*
Y16344D01*
X9827Y8447D02*
Y17752D01*
X8570Y18650D02*
Y21974D01*
X15036Y9942D02*
Y11366D01*
X8960Y19207D02*
Y21974D01*
X7584Y16678D02*
Y20980D01*
X5350Y9203D02*
Y16996D01*
X7783Y4988D02*
Y9036D01*
X8952Y10213D02*
Y15994D01*
X7950Y4805D02*
Y8670D01*
X7966Y4781D02*
Y8638D01*
X8944Y4113D02*
Y7016D01*
X11370Y16002D02*
Y19446D01*
X8960Y10189D02*
Y16010D01*
X8912Y19143D02*
Y21974D01*
X10415Y7660D02*
Y18547D01*
X6813Y6245D02*
Y19963D01*
X9270Y19605D02*
Y21974D01*
X19155Y10984D02*
Y15199D01*
X12761Y10841D02*
Y15358D01*
X18209Y10833D02*
Y15342D01*
X18312Y10833D02*
Y15350D01*
X14789Y9704D02*
Y11732D01*
X10471Y7588D02*
Y18611D01*
X11537Y16320D02*
Y19454D01*
X6209Y7239D02*
Y18968D01*
X8857Y10491D02*
Y15708D01*
X20396Y12161D02*
Y14022D01*
X10050Y8121D02*
Y18078D01*
X18185Y10841D02*
Y15342D01*
X5914Y7811D02*
Y18388D01*
X16746Y11485D02*
Y14698D01*
X10694Y13179D02*
Y18865D01*
X14169Y9402D02*
Y16797D01*
X12364Y7262D02*
Y8734D01*
X11489Y6753D02*
Y9966D01*
X10956Y14960D02*
Y19143D01*
X15028Y14817D02*
Y16265D01*
X18169Y10841D02*
Y15342D01*
X18479Y10841D02*
Y15342D01*
X19704Y11302D02*
Y14889D01*
X19624Y11239D02*
Y14944D01*
X10654Y7382D02*
Y18817D01*
X12976Y10475D02*
Y15724D01*
X7664Y16885D02*
Y21076D01*
X5779Y8106D02*
Y18102D01*
X9986Y8209D02*
Y17990D01*
X19203Y11008D02*
Y15175D01*
X13565Y9744D02*
Y16463D01*
X17485Y11000D02*
Y15191D01*
X12252Y17338D02*
Y19048D01*
X7807Y17219D02*
Y21243D01*
X9787Y20185D02*
Y21505D01*
X13151Y10221D02*
Y15978D01*
X5684Y8320D02*
Y17879D01*
X10924Y7096D02*
Y11358D01*
X9843Y20241D02*
Y21450D01*
X19505Y11159D02*
Y15024D01*
X14773Y14436D02*
Y16511D01*
X13994Y9410D02*
Y16781D01*
X7553Y16591D02*
Y20949D01*
X9827Y20225D02*
Y21465D01*
X9891Y8352D02*
Y17847D01*
X16515Y11756D02*
Y14428D01*
X13668Y9640D02*
Y16567D01*
X13501Y9807D02*
Y16392D01*
X13223Y10133D02*
Y16074D01*
X14463Y9418D02*
Y12670D01*
X9310Y4241D02*
Y6547D01*
X18742Y10873D02*
Y15310D01*
X15354Y10277D02*
Y11024D01*
X11346Y6762D02*
Y10245D01*
X19608Y11231D02*
Y14960D01*
X11744Y6753D02*
Y9545D01*
X8165Y17951D02*
Y21632D01*
X13127Y10261D02*
Y15947D01*
X9071Y19358D02*
Y21974D01*
X7282Y5593D02*
Y10483D01*
X20587Y12885D02*
Y13274D01*
X12165Y7072D02*
Y8964D01*
X12897Y7851D02*
Y8145D01*
X12666Y17776D02*
Y18627D01*
X20427Y12241D02*
Y13950D01*
X8006Y17640D02*
Y21457D01*
X10527Y7525D02*
Y18674D01*
X14471Y9426D02*
Y12622D01*
X8244Y18102D02*
Y21712D01*
X13111Y10277D02*
Y15923D01*
X14829Y14531D02*
Y16463D01*
X15545Y15477D02*
Y15612D01*
X10121Y5044D02*
Y5664D01*
X6447Y6817D02*
Y19382D01*
X9429Y9139D02*
Y17068D01*
X9509Y8988D02*
Y17211D01*
X19831Y11406D02*
Y14785D01*
X7346Y5513D02*
Y10253D01*
X12698Y7604D02*
Y8400D01*
X7855Y17330D02*
Y21291D01*
X12881Y18014D02*
Y18388D01*
X15020Y14809D02*
Y16273D01*
X7091Y14825D02*
Y20352D01*
X12594Y7501D02*
Y8495D01*
X13891Y9442D02*
Y16758D01*
X9032Y4113D02*
Y6897D01*
X12769Y10825D02*
Y15374D01*
X12881Y10626D02*
Y15573D01*
X18980Y10928D02*
Y15255D01*
X11258Y15772D02*
Y19414D01*
X11751Y16670D02*
Y19446D01*
X12077Y6992D02*
Y9076D01*
X7401Y5441D02*
Y10070D01*
X5246Y9529D02*
Y16670D01*
X15425Y15247D02*
Y15851D01*
X14606Y9529D02*
Y12129D01*
X13239Y10109D02*
Y16090D01*
X10686Y7350D02*
Y18857D01*
X15338Y15159D02*
Y15947D01*
X13708Y9601D02*
Y16607D01*
X18519Y10841D02*
Y15342D01*
X18463Y10833D02*
Y15342D01*
X20595Y13052D02*
Y13107D01*
X9294Y19636D02*
Y21974D01*
X7521Y5298D02*
Y9704D01*
X6304Y7064D02*
Y19135D01*
X12380Y11772D02*
Y14428D01*
X17922Y10873D02*
Y15310D01*
X8841Y10539D02*
Y15660D01*
X6527Y6690D02*
Y19517D01*
X7560Y16614D02*
Y20956D01*
X9111Y19406D02*
Y21974D01*
X5199Y9688D02*
Y16511D01*
X10885Y7135D02*
Y11501D01*
X20022Y11597D02*
Y14595D01*
X7592Y16694D02*
Y20996D01*
X14129Y9402D02*
Y16797D01*
X15219Y10133D02*
Y11159D01*
X4753Y12137D02*
Y14062D01*
X6757Y6324D02*
Y19875D01*
X9922Y4829D02*
Y5879D01*
X8936Y4113D02*
Y7024D01*
X10757Y7270D02*
Y12137D01*
X10726Y13799D02*
Y18897D01*
X12769Y17871D02*
Y18515D01*
X16420Y11899D02*
Y14285D01*
X6932Y6070D02*
Y20130D01*
X14344Y9402D02*
Y16797D01*
X15465Y15286D02*
Y15803D01*
X15338Y10253D02*
Y11040D01*
X18726Y10865D02*
Y15318D01*
X13040Y10380D02*
Y15819D01*
X8244Y4487D02*
Y8106D01*
X14988Y14770D02*
Y16304D01*
X4881Y11103D02*
Y15096D01*
X5095Y10070D02*
Y16129D01*
X8833Y10563D02*
Y15636D01*
X11561Y16360D02*
Y19454D01*
X18384Y10833D02*
Y15350D01*
X15409Y10332D02*
Y10976D01*
X5946Y7748D02*
Y18460D01*
X8650Y18770D02*
Y21974D01*
X12785Y7700D02*
Y8312D01*
X17175Y11151D02*
Y15032D01*
X20070Y11652D02*
Y14539D01*
X9747Y4654D02*
Y6062D01*
X12292Y17386D02*
Y19008D01*
X12372Y7270D02*
Y8726D01*
X12642Y7549D02*
Y8447D01*
X5612Y8495D02*
Y17704D01*
X17103Y11199D02*
Y14992D01*
X8149Y4591D02*
Y8280D01*
X14543Y9473D02*
Y12320D01*
X18575Y10849D02*
Y15334D01*
X9628Y8773D02*
Y17426D01*
X20483Y12384D02*
Y13799D01*
X17779Y10897D02*
Y15279D01*
X9763Y4670D02*
Y6046D01*
X11139Y6881D02*
Y10714D01*
X12252Y7159D02*
Y8861D01*
X6670Y6459D02*
Y19740D01*
X8435Y18428D02*
Y21903D01*
X16809Y11429D02*
Y14762D01*
X19211Y11008D02*
Y15175D01*
X7895Y17410D02*
Y21338D01*
X5994Y7644D02*
Y18555D01*
X9771Y4678D02*
Y6038D01*
X19044Y10944D02*
Y15239D01*
X9517Y4431D02*
Y6308D01*
X18909Y10905D02*
Y15279D01*
X11020Y15159D02*
Y19207D01*
X17755Y10905D02*
Y15279D01*
X6940Y6054D02*
Y20145D01*
X11640Y16495D02*
Y19454D01*
X11290Y6777D02*
Y10364D01*
X17748Y10905D02*
Y15271D01*
X12984Y10467D02*
Y15740D01*
X10582Y7461D02*
Y18738D01*
X15330Y10245D02*
Y11048D01*
X7473Y16360D02*
Y20845D01*
X11735Y6753D02*
Y9553D01*
X12396Y7294D02*
Y8702D01*
X19513Y11167D02*
Y15016D01*
X9954Y4861D02*
Y5847D01*
X7576Y5227D02*
Y9553D01*
X7457Y16312D02*
Y20829D01*
X6256Y7151D02*
Y19056D01*
X9541Y8933D02*
Y17275D01*
X12753Y17855D02*
Y18531D01*
X7831Y4932D02*
Y8933D01*
X4928Y10833D02*
Y15374D01*
X10996Y7016D02*
Y11119D01*
X13906Y9433D02*
Y16766D01*
X11926Y6849D02*
Y9274D01*
X11481Y6753D02*
Y9982D01*
X16936Y11318D02*
Y14865D01*
X8443Y4296D02*
Y7756D01*
X7012Y14269D02*
Y20241D01*
X8173Y17966D02*
Y21640D01*
X17286Y11088D02*
Y15096D01*
X5167Y9807D02*
Y16400D01*
X9477Y19843D02*
Y21807D01*
X7942Y4813D02*
Y8686D01*
X19958Y11525D02*
Y14658D01*
X13167Y10205D02*
Y16002D01*
X8101Y4638D02*
Y8368D01*
X8801Y18992D02*
Y21974D01*
X17509Y10984D02*
Y15199D01*
X6519Y6698D02*
Y19501D01*
X10829Y7191D02*
Y11740D01*
X6773Y6300D02*
Y19899D01*
X7123Y15000D02*
Y20400D01*
X15020Y9927D02*
Y11390D01*
X7505Y5314D02*
Y9752D01*
X12539Y7445D02*
Y8551D01*
X8284Y4447D02*
Y8034D01*
X8300Y18197D02*
Y21768D01*
X11457Y16169D02*
Y19446D01*
X16754Y11477D02*
Y14706D01*
X12539Y17648D02*
Y18762D01*
X12857Y7779D02*
Y8225D01*
X8753Y4121D02*
Y7278D01*
X8889Y10388D02*
Y15803D01*
X5763Y8137D02*
Y18062D01*
X9580Y4487D02*
Y6237D01*
X9056Y9942D02*
Y16265D01*
X17095Y11199D02*
Y14984D01*
X6956Y13624D02*
Y20169D01*
X10256Y7851D02*
Y18348D01*
X17422Y11024D02*
Y15159D01*
X9954Y20360D02*
Y21338D01*
X7839Y17290D02*
Y21275D01*
X6885Y6141D02*
Y20066D01*
X18933Y10913D02*
Y15271D01*
X9310Y19652D02*
Y21967D01*
X9151Y9712D02*
Y16487D01*
X8451Y18460D02*
Y21919D01*
X6972Y13887D02*
Y20185D01*
X9119Y9783D02*
Y16416D01*
X11044Y6976D02*
Y10976D01*
X11441Y6753D02*
Y10062D01*
X10893Y7127D02*
Y11469D01*
X14463Y13537D02*
Y16781D01*
X5135Y9919D02*
Y16281D01*
X8451Y4288D02*
Y7748D01*
X18551Y10841D02*
Y15342D01*
X12340Y17442D02*
Y18960D01*
X12507Y11398D02*
Y14801D01*
X14980Y9887D02*
Y11445D01*
X15266Y15088D02*
Y16026D01*
X5318Y9298D02*
Y16901D01*
X16451Y11851D02*
Y14340D01*
X12666Y7573D02*
Y8423D01*
X18487Y10841D02*
Y15342D01*
X6543Y6658D02*
Y19541D01*
X12157Y7064D02*
Y8972D01*
X9899Y8344D02*
Y17863D01*
X14630Y9553D02*
Y12066D01*
X16475Y11819D02*
Y14372D01*
X10535Y7517D02*
Y18682D01*
X12531Y11334D02*
Y14865D01*
X5437Y8956D02*
Y17251D01*
X7751Y17092D02*
Y21179D01*
X8022Y17672D02*
Y21473D01*
X13700Y9608D02*
Y16599D01*
X15123Y10030D02*
Y11263D01*
X17914Y10873D02*
Y15310D01*
X15322Y15143D02*
Y15962D01*
X9079Y4121D02*
Y6833D01*
X10702Y13465D02*
Y18873D01*
X6439Y6833D02*
Y19374D01*
X12372Y17473D02*
Y18929D01*
X7266Y5616D02*
Y10539D01*
X9763Y20161D02*
Y21529D01*
X8483Y12368D02*
Y13847D01*
X9906Y20304D02*
Y21386D01*
X9970Y4877D02*
Y5831D01*
X12467Y7366D02*
Y8622D01*
X15314Y15135D02*
Y15970D01*
X8109Y17847D02*
Y21569D01*
X16833Y11406D02*
Y14777D01*
X13867Y9457D02*
Y16742D01*
X15068Y9974D02*
Y11326D01*
X8539Y4209D02*
Y7604D01*
X17326Y11072D02*
Y15120D01*
X9612Y8805D02*
Y17402D01*
X7728Y17036D02*
Y21147D01*
X11219Y6817D02*
Y10523D01*
X9087Y4121D02*
Y6825D01*
X12578Y7485D02*
Y8511D01*
X15131Y10038D02*
Y11255D01*
X7211Y15430D02*
Y20511D01*
X7290Y5584D02*
Y10451D01*
X13938Y9426D02*
Y16774D01*
X16952Y11302D02*
Y14881D01*
X19314Y11056D02*
Y15127D01*
X8642Y18754D02*
Y21974D01*
X12085Y17139D02*
Y19207D01*
X16849Y11390D02*
Y14793D01*
X7910Y17449D02*
Y21354D01*
X13016Y10412D02*
Y15788D01*
X11735Y16646D02*
Y19446D01*
X12499Y7398D02*
Y8591D01*
X16237Y12264D02*
Y13935D01*
X14845Y9752D02*
Y11644D01*
X8125Y4614D02*
Y8320D01*
X11815Y6762D02*
Y9433D01*
X14837Y9744D02*
Y11652D01*
X10065Y20479D02*
Y21219D01*
X10280Y7819D02*
Y18380D01*
X6861Y6173D02*
Y20026D01*
X12173Y7080D02*
Y8956D01*
X14797Y9712D02*
Y11724D01*
X6415Y6873D02*
Y19334D01*
X7107Y5823D02*
Y11278D01*
X11147Y15509D02*
Y19326D01*
X8316Y4416D02*
Y7978D01*
X11696Y16583D02*
Y19454D01*
X19251Y11024D02*
Y15159D01*
X9962Y8249D02*
Y17951D01*
X8157Y17935D02*
Y21617D01*
X8022Y4726D02*
Y8527D01*
X16761Y11469D02*
Y14714D01*
X8650Y4137D02*
Y7429D01*
X12602Y11167D02*
Y15032D01*
X8706Y11024D02*
Y15183D01*
X7370Y5481D02*
Y10173D01*
X9891Y20289D02*
Y21402D01*
X8865Y19080D02*
Y21974D01*
X12348Y17449D02*
Y18952D01*
X13652Y9656D02*
Y16551D01*
X8388Y18348D02*
Y21855D01*
X12221Y7127D02*
Y8893D01*
X13739Y9569D02*
Y16630D01*
X9445Y9107D02*
Y17100D01*
X18328Y10833D02*
Y15350D01*
X18837Y10889D02*
Y15294D01*
X8117Y4622D02*
Y8336D01*
X8793Y10698D02*
Y15501D01*
X10081Y20495D02*
Y21203D01*
X9390Y19748D02*
Y21895D01*
X15545Y10579D02*
Y10722D01*
X9946Y8273D02*
Y17935D01*
X11632Y16479D02*
Y19454D01*
X14336Y9402D02*
Y16797D01*
X8586Y11581D02*
Y14626D01*
X12761Y17863D02*
Y18523D01*
X19982Y11549D02*
Y14634D01*
X9485Y19859D02*
Y21807D01*
X10662Y7374D02*
Y18825D01*
X10702Y7326D02*
Y12734D01*
X9930Y20336D02*
Y21362D01*
X13032Y10396D02*
Y15811D01*
X9644Y20034D02*
Y21648D01*
X6590Y6587D02*
Y19621D01*
X14415Y9410D02*
Y16797D01*
X6980Y5998D02*
Y12288D01*
X8952Y4113D02*
Y7000D01*
X9859Y8400D02*
Y17799D01*
X8308Y18213D02*
Y21776D01*
X16785Y11453D02*
Y14738D01*
X20245Y11891D02*
Y14300D01*
X10185Y20622D02*
Y21084D01*
X9787Y4694D02*
Y6014D01*
X9064Y9919D02*
Y16281D01*
X9978Y20384D02*
Y21314D01*
X16873Y11374D02*
Y14817D01*
X7982Y17593D02*
Y21434D01*
X11465Y6753D02*
Y10014D01*
X9350Y9290D02*
Y16909D01*
X9906Y8328D02*
Y17871D01*
X18686Y10857D02*
Y15318D01*
X19887Y11453D02*
Y14730D01*
X10026Y4940D02*
Y5767D01*
X12745Y10873D02*
Y15326D01*
X9620Y4527D02*
Y6197D01*
X10042Y4956D02*
Y5751D01*
X12467Y17577D02*
Y18833D01*
X5565Y8614D02*
Y17585D01*
X15521Y15374D02*
Y15724D01*
X8229Y18070D02*
Y21696D01*
X14996Y14777D02*
Y16296D01*
X9183Y19493D02*
Y21974D01*
X13469Y9847D02*
Y16360D01*
X12109Y17171D02*
Y19183D01*
X12904Y7883D02*
Y8113D01*
X5906Y7827D02*
Y18372D01*
X7616Y16758D02*
Y21020D01*
X9429Y19787D02*
Y21855D01*
X10376Y7700D02*
Y18499D01*
X19410Y11103D02*
Y15080D01*
X12245Y17330D02*
Y19048D01*
X12944Y10523D02*
Y15676D01*
X10161Y20591D02*
Y21108D01*
X8992Y4113D02*
Y6952D01*
X18543Y10841D02*
Y15342D01*
X18050Y10849D02*
Y15334D01*
X8547Y11827D02*
Y14380D01*
X8578Y18658D02*
Y21974D01*
X9557Y4463D02*
Y6268D01*
X15179Y10086D02*
Y11199D01*
X10193Y5123D02*
Y5569D01*
X12348Y7247D02*
Y8750D01*
X11942Y6865D02*
Y9251D01*
X7187Y5720D02*
Y10873D01*
X8125Y17879D02*
Y21585D01*
X19807Y11382D02*
Y14801D01*
X16197Y12368D02*
Y13839D01*
X19338Y11064D02*
Y15120D01*
X6145Y7350D02*
Y18849D01*
X19648Y11255D02*
Y14929D01*
X12618Y11135D02*
Y15072D01*
X4809Y11597D02*
Y14603D01*
X12093Y17147D02*
Y19199D01*
X19903Y11469D02*
Y14714D01*
X8960Y4113D02*
Y6992D01*
X19688Y11286D02*
Y14897D01*
X15203Y10117D02*
Y11175D01*
X14543Y13887D02*
Y16726D01*
X19107Y10968D02*
Y15215D01*
X8881Y10412D02*
Y15788D01*
X11656Y6746D02*
Y9680D01*
X12475Y7374D02*
Y8614D01*
X20237Y11875D02*
Y14308D01*
X9493Y9020D02*
Y17187D01*
X6042Y7549D02*
Y18650D01*
X11410Y6753D02*
Y10117D01*
X14551Y13911D02*
Y16718D01*
X8873Y10435D02*
Y15764D01*
X5660Y8376D02*
Y17823D01*
X16332Y12058D02*
Y14133D01*
X19036Y10944D02*
Y15239D01*
X7465Y16336D02*
Y20837D01*
X14718Y14332D02*
Y16567D01*
X15441Y15263D02*
Y15835D01*
X14805Y9720D02*
Y11708D01*
X11266Y6785D02*
Y10420D01*
X16404Y11923D02*
Y14261D01*
X13684Y9624D02*
Y16583D01*
X7258Y5624D02*
Y10579D01*
X8722Y4121D02*
Y7326D01*
X12730Y7636D02*
Y8368D01*
X14495Y13704D02*
Y16766D01*
X7616Y5179D02*
Y9449D01*
X14614Y14094D02*
Y16662D01*
X12085Y7000D02*
Y9060D01*
X16547Y11716D02*
Y14475D01*
X8896Y19128D02*
Y21974D01*
X7314Y5553D02*
Y10364D01*
X6002Y7628D02*
Y18571D01*
X19879Y11445D02*
Y14738D01*
X11600Y6746D02*
Y9775D01*
X11902Y6825D02*
Y9306D01*
X12523Y11358D02*
Y14841D01*
X7028Y14396D02*
Y20265D01*
X8610Y18706D02*
Y21974D01*
X16372Y11978D02*
Y14205D01*
X9731Y4638D02*
Y6078D01*
X17461Y11008D02*
Y15175D01*
X10304Y7787D02*
Y18412D01*
X17549Y10968D02*
Y15215D01*
X8690Y4129D02*
Y7374D01*
X10749Y7278D02*
Y12193D01*
X17207Y11135D02*
Y15056D01*
X10217Y20678D02*
Y21028D01*
X6153Y7334D02*
Y18865D01*
X8236Y18086D02*
Y21704D01*
X10217Y5171D02*
Y5521D01*
X16292Y12137D02*
Y14062D01*
X13557Y9752D02*
Y16455D01*
X5747Y8177D02*
Y18030D01*
X9278Y19613D02*
Y21974D01*
X9994Y20400D02*
Y21298D01*
X16149Y12519D02*
Y13680D01*
X5405Y9044D02*
Y17163D01*
X7075Y5871D02*
Y11461D01*
X10153Y7978D02*
Y18221D01*
X6598Y6571D02*
Y19628D01*
X10797Y14308D02*
Y18976D01*
X15306Y10221D02*
Y11072D01*
X8682Y11119D02*
Y15080D01*
X17684Y10928D02*
Y15255D01*
X14097Y9402D02*
Y16790D01*
X9175Y19485D02*
Y21974D01*
X11250Y15748D02*
Y19406D01*
X13946Y9426D02*
Y16774D01*
X12578Y11223D02*
Y14976D01*
X16666Y11573D02*
Y14618D01*
X14209Y9402D02*
Y16797D01*
X15004Y14793D02*
Y16288D01*
X6097Y7445D02*
Y18754D01*
X11036Y6984D02*
Y11000D01*
X16244Y12241D02*
Y13958D01*
X19529Y11175D02*
Y15008D01*
X5835Y7978D02*
Y18221D01*
X7060Y14626D02*
Y20312D01*
X8857Y19072D02*
Y21974D01*
X12467Y11501D02*
Y14698D01*
X8578Y4177D02*
Y7541D01*
X12324Y11978D02*
Y14221D01*
X19855Y11429D02*
Y14762D01*
X5183Y9744D02*
Y16455D01*
X12793Y17903D02*
Y18491D01*
X20364Y12098D02*
Y14094D01*
X6511Y6714D02*
Y19485D01*
X7982Y4765D02*
Y8606D01*
X10018Y8169D02*
Y18038D01*
X14193Y9402D02*
Y16797D01*
X10240Y20782D02*
Y20925D01*
X12062Y6976D02*
Y9092D01*
X10320Y7771D02*
Y18428D01*
X9239Y9521D02*
Y16686D01*
X20149Y11748D02*
Y14436D01*
X20380Y12129D02*
Y14054D01*
X10940Y14905D02*
Y19128D01*
X10710Y7318D02*
Y12591D01*
X11982Y6897D02*
Y9195D01*
X16109Y12686D02*
Y13473D01*
X5604Y8511D02*
Y17688D01*
X14956Y9863D02*
Y11477D01*
X19863Y11438D02*
Y14754D01*
X13779Y9529D02*
Y16670D01*
X6034Y7565D02*
Y18634D01*
X11131Y15469D02*
Y19310D01*
X9557Y19939D02*
Y21736D01*
X7918Y4837D02*
Y8742D01*
X9405Y9179D02*
Y17020D01*
X12690Y17799D02*
Y18603D01*
X11680Y6746D02*
Y9640D01*
X9652Y8734D02*
Y17465D01*
X9302Y4233D02*
Y6563D01*
X8738Y18897D02*
Y21974D01*
X6320Y7040D02*
Y19167D01*
X12555Y11278D02*
Y14921D01*
X9103Y4121D02*
Y6801D01*
X10932Y14873D02*
Y19119D01*
X14455Y13481D02*
Y16790D01*
X8483Y4256D02*
Y7692D01*
X9747Y8575D02*
Y17625D01*
X19274Y11032D02*
Y15143D01*
X7425Y5410D02*
Y9990D01*
X6924Y6078D02*
Y20121D01*
X10813Y14388D02*
Y18992D01*
X7863Y4901D02*
Y8861D01*
X19386Y11088D02*
Y15096D01*
X9620Y20002D02*
Y21672D01*
X19656Y11263D02*
Y14921D01*
X10145Y7994D02*
Y18205D01*
X8809Y19000D02*
Y21974D01*
X18304Y10833D02*
Y15350D01*
X10177Y7954D02*
Y18253D01*
X9867Y20265D02*
Y21426D01*
X5739Y8193D02*
Y18006D01*
X14781Y14451D02*
Y16503D01*
X15044Y9950D02*
Y11358D01*
X4952Y10706D02*
Y15493D01*
X15084Y9990D02*
Y11310D01*
X12626Y7533D02*
Y8463D01*
X14320Y9402D02*
Y16797D01*
X16881Y11366D02*
Y14825D01*
X17716Y10921D02*
Y15263D01*
X16587Y11668D02*
Y14523D01*
X12181Y17259D02*
Y19112D01*
X12753Y7668D02*
Y8344D01*
X20030Y11604D02*
Y14587D01*
X20356Y12082D02*
Y14102D01*
X11688Y6746D02*
Y9632D01*
X4761Y12026D02*
Y14173D01*
X19791Y11374D02*
Y14817D01*
X8085Y4654D02*
Y8400D01*
X6574Y6610D02*
Y19597D01*
X12356Y7254D02*
Y8742D01*
X6749Y6340D02*
Y19867D01*
X9000Y10078D02*
Y16122D01*
X8944Y19191D02*
Y21974D01*
X12427Y7326D02*
Y8662D01*
X18495Y10841D02*
Y15342D01*
X7226Y15493D02*
Y20535D01*
X13461Y9855D02*
Y16352D01*
X5103Y10038D02*
Y16161D01*
X12904Y18086D02*
Y18316D01*
X6614Y6547D02*
Y19652D01*
X5429Y8972D02*
Y17227D01*
X17119Y11191D02*
Y15000D01*
X7672Y5115D02*
Y9306D01*
X19219Y11008D02*
Y15175D01*
X8706Y4129D02*
Y7350D01*
X7258Y15628D02*
Y20575D01*
X18749Y10873D02*
Y15310D01*
X9747Y20145D02*
Y21545D01*
X14670Y9585D02*
Y11970D01*
X18670Y10857D02*
Y15326D01*
X10225Y7891D02*
Y18308D01*
X7998Y17625D02*
Y21450D01*
X12483Y7382D02*
Y8606D01*
X8483Y18507D02*
Y21943D01*
X11203Y15644D02*
Y19374D01*
X12801Y10769D02*
Y15430D01*
X13119Y10268D02*
Y15931D01*
X9811Y4718D02*
Y5990D01*
X9604Y4511D02*
Y6213D01*
X7926Y4829D02*
Y8726D01*
X14574Y13982D02*
Y16694D01*
X11417Y16098D02*
Y19446D01*
X9278Y4209D02*
Y6587D01*
X11950Y16957D02*
Y19334D01*
X20515Y12495D02*
Y13688D01*
X17700Y10921D02*
Y15263D01*
X17111Y11191D02*
Y14992D01*
X5891Y7859D02*
Y18340D01*
X11600Y16424D02*
Y19454D01*
X8642Y11294D02*
Y14905D01*
X17867Y10881D02*
Y15302D01*
X8141Y4598D02*
Y8296D01*
X8976Y10141D02*
Y16058D01*
X4785Y11787D02*
Y14412D01*
X19465Y11135D02*
Y15048D01*
X12356Y17458D02*
Y18945D01*
X8809Y4121D02*
Y7199D01*
X5723Y8233D02*
Y17974D01*
X5231Y9585D02*
Y16623D01*
X12618Y17728D02*
Y18674D01*
X16324Y12074D02*
Y14125D01*
X10129Y20551D02*
Y21147D01*
X10105Y8050D02*
Y18157D01*
X14288Y9402D02*
Y16797D01*
X18233Y10833D02*
Y15342D01*
X8865Y10459D02*
Y15732D01*
X12801Y7716D02*
Y8296D01*
X14598Y9521D02*
Y12145D01*
X20531Y12551D02*
Y13624D01*
X9175Y9656D02*
Y16543D01*
X18034Y10849D02*
Y15326D01*
X14750Y9664D02*
Y11811D01*
X10821Y14428D02*
Y19000D01*
X17875Y10881D02*
Y15302D01*
X10272Y7827D02*
Y18372D01*
X10734Y7294D02*
Y12328D01*
X8817Y19016D02*
Y21974D01*
X16229Y12280D02*
Y13919D01*
X12706Y10952D02*
Y15247D01*
X12404Y7302D02*
Y8686D01*
X17668Y10928D02*
Y15255D01*
X10240Y5274D02*
Y5418D01*
X14590Y14030D02*
Y16686D01*
X6781Y6292D02*
Y19915D01*
X8825Y19024D02*
Y21974D01*
X7274Y15692D02*
Y20599D01*
X13755Y9553D02*
Y16646D01*
X7807Y4964D02*
Y8988D01*
X5572Y8598D02*
Y17609D01*
X14479Y9426D02*
Y12575D01*
X8014Y17656D02*
Y21465D01*
X11473Y6753D02*
Y9998D01*
X9827Y4734D02*
Y5974D01*
X17334Y11064D02*
Y15120D01*
X9501Y4416D02*
Y6332D01*
X14376Y9402D02*
Y16797D01*
X10495Y7565D02*
Y18634D01*
X9549Y8917D02*
Y17282D01*
X19942Y11509D02*
Y14674D01*
X11115Y6905D02*
Y10778D01*
X15513Y10459D02*
Y10841D01*
X12690Y7597D02*
Y8408D01*
X13334Y9998D02*
Y16209D01*
X8443Y18444D02*
Y21911D01*
X7584Y5219D02*
Y9529D01*
X11704Y6753D02*
Y9608D01*
X17620Y10944D02*
Y15239D01*
X14431Y9410D02*
Y12988D01*
X9867Y4773D02*
Y5934D01*
X10113Y5036D02*
Y5672D01*
X18249Y10833D02*
Y15350D01*
X12062Y17108D02*
Y19231D01*
X10161Y5083D02*
Y5616D01*
X12499Y17609D02*
Y18801D01*
X10551Y7501D02*
Y18706D01*
X13087Y10308D02*
Y15891D01*
X13247Y10102D02*
Y16098D01*
X14447Y9418D02*
Y12789D01*
X12523Y7429D02*
Y8567D01*
X14670Y14229D02*
Y16607D01*
X17374Y11048D02*
Y15135D01*
X10948Y7072D02*
Y11270D01*
X12205Y7111D02*
Y8917D01*
X9032Y9998D02*
Y16201D01*
X14964Y14738D02*
Y16328D01*
X11895Y6817D02*
Y9322D01*
X12634Y17744D02*
Y18658D01*
X14765Y9680D02*
Y11779D01*
X8499Y4241D02*
Y7668D01*
X14789Y14467D02*
Y16495D01*
X6248Y7159D02*
Y19040D01*
X12316Y17418D02*
Y18984D01*
X9453Y9092D02*
Y17108D01*
X9223Y4161D02*
Y6658D01*
X11290Y15835D02*
Y19422D01*
X8197Y4543D02*
Y8193D01*
X12841Y7763D02*
Y8249D01*
X13071Y10332D02*
Y15867D01*
X7409Y16161D02*
Y20774D01*
X12777Y10817D02*
Y15390D01*
X17263Y11103D02*
Y15080D01*
X11918Y16917D02*
Y19358D01*
X12268Y7175D02*
Y8837D01*
X9334Y4256D02*
Y6523D01*
X20213Y11843D02*
Y14348D01*
X12364Y17465D02*
Y18937D01*
X12229Y17314D02*
Y19064D01*
X6018Y7597D02*
Y18603D01*
X9565Y19947D02*
Y21728D01*
X14638Y9561D02*
Y12050D01*
X6431Y6841D02*
Y19358D01*
X19378Y11088D02*
Y15096D01*
X10193Y7931D02*
Y18269D01*
X9064Y19350D02*
Y21974D01*
X6630Y6523D02*
Y19684D01*
X5636Y8439D02*
Y17768D01*
X11553Y6746D02*
Y9855D01*
X11107Y6913D02*
Y10801D01*
X12745Y17847D02*
Y18539D01*
X20563Y12702D02*
Y13465D01*
X14225Y9402D02*
Y16797D01*
X14821Y14523D02*
Y16471D01*
X8499Y12193D02*
Y14006D01*
X17016Y11255D02*
Y14929D01*
X8054Y17736D02*
Y21513D01*
X7099Y5839D02*
Y11318D01*
X11378Y6762D02*
Y10181D01*
X16348Y12026D02*
Y14165D01*
X9875Y8376D02*
Y17823D01*
X8745Y10873D02*
Y15334D01*
X17644Y10937D02*
Y15247D01*
X12141Y17211D02*
Y19151D01*
X17350Y11056D02*
Y15127D01*
X7386Y5465D02*
Y10117D01*
X6853Y6181D02*
Y20018D01*
X18606Y10849D02*
Y15334D01*
X7362Y16010D02*
Y20710D01*
X6908Y6101D02*
Y20098D01*
X10360Y7724D02*
Y18475D01*
X10805Y7215D02*
Y11859D01*
X7338Y5521D02*
Y10284D01*
X7823Y4940D02*
Y8948D01*
X9254Y9489D02*
Y16718D01*
X10487Y7573D02*
Y18627D01*
X12245Y7151D02*
Y8869D01*
X6551Y6650D02*
Y19557D01*
X7823Y17259D02*
Y21259D01*
X8610Y4153D02*
Y7493D01*
X9565Y8885D02*
Y17314D01*
X9246Y9505D02*
Y16702D01*
X9541Y19915D02*
Y21752D01*
X16913Y11334D02*
Y14849D01*
X8348Y4384D02*
Y7923D01*
X7775Y4996D02*
Y9060D01*
X6678Y6443D02*
Y19756D01*
X8221Y18054D02*
Y21688D01*
X17835Y10889D02*
Y15294D01*
X18694Y10865D02*
Y15318D01*
X17215Y11127D02*
Y15056D01*
X5262Y9473D02*
Y16726D01*
X11545Y16328D02*
Y19454D01*
X12992Y10451D02*
Y15748D01*
X11664Y16535D02*
Y19454D01*
X20141Y11740D02*
Y14444D01*
X19966Y11533D02*
Y14650D01*
X5366Y9155D02*
Y17044D01*
X6662Y6475D02*
Y19732D01*
X7783Y17163D02*
Y21211D01*
X9461Y9076D02*
Y17123D01*
X16261Y12201D02*
Y13990D01*
X20038Y11613D02*
Y14571D01*
X8268Y4463D02*
Y8058D01*
X20523Y12519D02*
Y13656D01*
X8928Y4113D02*
Y7032D01*
X20086Y11668D02*
Y14515D01*
X7195Y15358D02*
Y20495D01*
X9191Y19509D02*
Y21974D01*
X12626Y11119D02*
Y15088D01*
X16523Y11748D02*
Y14436D01*
X8229Y4503D02*
Y8129D01*
X9612Y19994D02*
Y21680D01*
X5668Y8360D02*
Y17839D01*
X5549Y8654D02*
Y17545D01*
X5938Y7763D02*
Y18444D01*
X9095Y4121D02*
Y6817D01*
X8777Y18952D02*
Y21974D01*
X12714Y17823D02*
Y18579D01*
X18360Y10833D02*
Y15350D01*
X19441Y11119D02*
Y15064D01*
X13747Y9561D02*
Y16638D01*
X6121Y7398D02*
Y18801D01*
X11608Y6746D02*
Y9759D01*
X10209Y5147D02*
Y5545D01*
X12674Y7581D02*
Y8416D01*
X7179Y5728D02*
Y10913D01*
X14797Y14483D02*
Y16487D01*
X17986Y10857D02*
Y15318D01*
X7091Y5847D02*
Y11366D01*
X14574Y9505D02*
Y12217D01*
X12149Y17219D02*
Y19143D01*
X8547Y18611D02*
Y21974D01*
X8523Y18571D02*
Y21974D01*
X12722Y17831D02*
Y18571D01*
X8936Y10253D02*
Y15947D01*
X5008Y10443D02*
Y15764D01*
X20420Y12217D02*
Y13966D01*
X7720Y5060D02*
Y9187D01*
X13716Y9593D02*
Y16614D01*
X5270Y9449D02*
Y16750D01*
X11091Y6928D02*
Y10841D01*
X14471Y13577D02*
Y16781D01*
X7728Y5052D02*
Y9171D01*
X11847Y16813D02*
Y19422D01*
X20332Y12034D02*
Y14149D01*
X12825Y10730D02*
Y15477D01*
X12873Y10642D02*
Y15557D01*
X18869Y10897D02*
Y15286D01*
X11513Y6753D02*
Y9927D01*
X9588Y8845D02*
Y17354D01*
X12682Y17792D02*
Y18611D01*
X10678Y7358D02*
Y18841D01*
X18010Y10857D02*
Y15326D01*
X15433Y15255D02*
Y15843D01*
X16388Y11954D02*
Y14237D01*
X8761Y18937D02*
Y21974D01*
X18296Y10833D02*
Y15350D01*
X8070Y17768D02*
Y21529D01*
X9326Y4248D02*
Y6531D01*
X10002Y8193D02*
Y18014D01*
X17406Y11032D02*
Y15151D01*
X10932Y7087D02*
Y11326D01*
X16610Y11636D02*
Y14547D01*
X9326Y19668D02*
Y21951D01*
X20475Y12360D02*
Y13823D01*
X7211Y5688D02*
Y10769D01*
X10169Y20599D02*
Y21100D01*
X10081Y8082D02*
Y18125D01*
X11250Y6793D02*
Y10451D01*
X14638Y14157D02*
Y16638D01*
X8555Y18619D02*
Y21974D01*
X13612Y9696D02*
Y16511D01*
X18097Y10841D02*
Y15334D01*
X11887Y16869D02*
Y19390D01*
X12594Y17704D02*
Y18698D01*
X7545Y5266D02*
Y9640D01*
X8404Y4328D02*
Y7827D01*
X9517Y19891D02*
Y21776D01*
X9413Y19772D02*
Y21871D01*
X12475Y11485D02*
Y14722D01*
X8642Y4145D02*
Y7445D01*
X11091Y15358D02*
Y19271D01*
X20181Y11795D02*
Y14396D01*
X13374Y9950D02*
Y16249D01*
X8213Y4527D02*
Y8161D01*
X6686Y6435D02*
Y19764D01*
X8920Y4113D02*
Y7048D01*
X7560Y5243D02*
Y9593D01*
X6741Y6348D02*
Y19851D01*
X15012Y14801D02*
Y16281D01*
X9994Y8201D02*
Y17998D01*
X16300Y12113D02*
Y14078D01*
X9016Y4113D02*
Y6921D01*
X9207Y19525D02*
Y21974D01*
X8141Y17911D02*
Y21601D01*
X9938Y20344D02*
Y21354D01*
X14042Y9410D02*
Y16790D01*
X12404Y17513D02*
Y18897D01*
X12698Y17807D02*
Y18595D01*
X9843Y4750D02*
Y5958D01*
X13835Y9481D02*
Y16718D01*
X12046Y6960D02*
Y9115D01*
X10622Y7422D02*
Y18786D01*
X7791Y4980D02*
Y9020D01*
X12881Y7811D02*
Y8193D01*
X9405Y4328D02*
Y6435D01*
X12213Y7119D02*
Y8909D01*
X7855Y4909D02*
Y8877D01*
X6376Y6936D02*
Y19263D01*
X6606Y6563D02*
Y19644D01*
X8714Y10992D02*
Y15215D01*
X10137Y20559D02*
Y21139D01*
X7115Y14960D02*
Y20384D01*
X12738Y7644D02*
Y8360D01*
X8475Y18491D02*
Y21935D01*
X9795Y20193D02*
Y21497D01*
X20173Y11779D02*
Y14404D01*
X9191Y9624D02*
Y16583D01*
X14408Y9402D02*
Y16797D01*
X12252Y12320D02*
Y13879D01*
X11211Y6825D02*
Y10539D01*
X8507Y18547D02*
Y21967D01*
X14710Y9624D02*
Y11891D01*
X13660Y9648D02*
Y16559D01*
X15409Y15223D02*
Y15867D01*
X11871Y16845D02*
Y19398D01*
X6201Y7247D02*
Y18952D01*
X9930Y4837D02*
Y5871D01*
X8419Y4312D02*
Y7795D01*
X14765Y14428D02*
Y16519D01*
X14813Y14507D02*
Y16479D01*
X16602Y11644D02*
Y14539D01*
X12173Y17251D02*
Y19119D01*
X6081Y7477D02*
Y18730D01*
X12666Y11032D02*
Y15175D01*
X5461Y8885D02*
Y17314D01*
X9914Y20312D02*
Y21378D01*
X15155Y10062D02*
Y11231D01*
X17851Y10881D02*
Y15294D01*
X5254Y9505D02*
Y16702D01*
X14519Y9457D02*
Y12408D01*
X9580Y8861D02*
Y17346D01*
X14885Y9791D02*
Y11581D01*
X10877Y14666D02*
Y19056D01*
X8475Y12455D02*
Y13752D01*
X13064Y10348D02*
Y15859D01*
X19545Y11183D02*
Y15000D01*
X12547Y17656D02*
Y18754D01*
X10734Y13879D02*
Y18905D01*
X20101Y11692D02*
Y14499D01*
X13215Y10141D02*
Y16058D01*
X7083Y14777D02*
Y20344D01*
X9445Y19811D02*
Y21839D01*
X9032Y19302D02*
Y21974D01*
X9469Y19835D02*
Y21815D01*
X18137Y10841D02*
Y15342D01*
X6734Y6364D02*
Y19843D01*
X19179Y10992D02*
Y15191D01*
X8395Y4336D02*
Y7843D01*
X11338Y6762D02*
Y10261D01*
X12125Y7032D02*
Y9012D01*
X7696Y16957D02*
Y21116D01*
X11783Y6753D02*
Y9481D01*
X18424Y10833D02*
Y15350D01*
X18893Y10905D02*
Y15279D01*
X14877Y9783D02*
Y11589D01*
X5787Y8082D02*
Y18117D01*
X7250Y5632D02*
Y10610D01*
X10137Y5060D02*
Y5640D01*
X16380Y11970D02*
Y14221D01*
X11592Y6746D02*
Y9791D01*
X12602Y17712D02*
Y18690D01*
X7354Y15978D02*
Y20702D01*
X10201Y5139D02*
Y5561D01*
X10924Y14849D02*
Y19112D01*
X14893Y14634D02*
Y16400D01*
X9779Y4686D02*
Y6030D01*
X10741Y13942D02*
Y18913D01*
X17453Y11008D02*
Y15175D01*
X12674Y17784D02*
Y18619D01*
X11569Y6746D02*
Y9831D01*
X20539Y12583D02*
Y13593D01*
X18066Y10849D02*
Y15334D01*
X13771Y9537D02*
Y16662D01*
X12411Y11668D02*
Y14539D01*
X19402Y11103D02*
Y15088D01*
X8046Y17728D02*
Y21505D01*
X12213Y12654D02*
Y13545D01*
X19457Y11135D02*
Y15056D01*
X6296Y7080D02*
Y19128D01*
X18153Y10841D02*
Y15342D01*
X12491Y11438D02*
Y14762D01*
X13915Y9433D02*
Y16766D01*
X5851Y7946D02*
Y18261D01*
X15187Y10093D02*
Y11191D01*
X16801Y11438D02*
Y14754D01*
X8706Y18849D02*
Y21974D01*
X10113Y8034D02*
Y18165D01*
X13056Y10356D02*
Y15843D01*
X14153Y9402D02*
Y16797D01*
X14718Y9632D02*
Y11867D01*
X7815Y17235D02*
Y21251D01*
X10264Y7843D02*
Y18364D01*
X11497Y6753D02*
Y9958D01*
X19640Y11255D02*
Y14936D01*
X14686Y9601D02*
Y11938D01*
X8698Y4129D02*
Y7358D01*
X9461Y4376D02*
Y6372D01*
X13310Y10022D02*
Y16177D01*
X8658Y11223D02*
Y14976D01*
X18264Y10833D02*
Y15350D01*
X7529Y16519D02*
Y20917D01*
X9342Y4264D02*
Y6515D01*
X12308Y12042D02*
Y14157D01*
X9588Y4495D02*
Y6229D01*
X19481Y11143D02*
Y15040D01*
X11123Y15446D02*
Y19302D01*
X9071Y9903D02*
Y16304D01*
X12706Y17815D02*
Y18587D01*
X12817Y7732D02*
Y8273D01*
X7680Y16917D02*
Y21092D01*
X6026Y7581D02*
Y18619D01*
X11839Y6777D02*
Y9402D01*
X6272Y7119D02*
Y19080D01*
X10169Y7962D02*
Y18237D01*
X8626Y4145D02*
Y7469D01*
X8984Y10125D02*
Y16082D01*
X10869Y14634D02*
Y19048D01*
X8284Y18173D02*
Y21752D01*
X7354Y5505D02*
Y10229D01*
X7799Y17203D02*
Y21235D01*
X9541Y4455D02*
Y6284D01*
X10972Y15008D02*
Y19159D01*
X9040Y4113D02*
Y6889D01*
X10694Y7342D02*
Y13020D01*
X10757Y14062D02*
Y18929D01*
X13406Y9911D02*
Y16288D01*
X9668Y8710D02*
Y17489D01*
X20133Y11732D02*
Y14459D01*
X5477Y8845D02*
Y17362D01*
X19577Y11207D02*
Y14976D01*
X14264Y9402D02*
Y16797D01*
X4984Y10555D02*
Y15652D01*
X13366Y9958D02*
Y16241D01*
X18638Y10857D02*
Y15326D01*
X12825Y7740D02*
Y8264D01*
X6233Y7191D02*
Y19008D01*
X7895Y4861D02*
Y8789D01*
X9151Y4121D02*
Y6746D01*
X15274Y10189D02*
Y11103D01*
X14932Y14690D02*
Y16360D01*
X9183Y4137D02*
Y6706D01*
X10129Y8018D02*
Y18189D01*
X7322Y5545D02*
Y10340D01*
X16682Y11557D02*
Y14634D01*
X9708Y20098D02*
Y21585D01*
X17732Y10913D02*
Y15271D01*
X12443Y17553D02*
Y18857D01*
X7409Y5433D02*
Y10046D01*
X14487Y13664D02*
Y16766D01*
X7592Y5211D02*
Y9513D01*
X9016Y10038D02*
Y16161D01*
X8849Y19056D02*
Y21974D01*
X13024Y10404D02*
Y15795D01*
X14710Y14316D02*
Y16575D01*
X11417Y6753D02*
Y10102D01*
X8936Y19175D02*
Y21974D01*
X9366Y19716D02*
Y21919D01*
X10042Y20448D02*
Y21243D01*
X8077Y17784D02*
Y21537D01*
X12547Y7453D02*
Y8543D01*
X9652Y20042D02*
Y21640D01*
X12451Y17561D02*
Y18849D01*
X14296Y9402D02*
Y16797D01*
X20094Y11676D02*
Y14507D01*
X7759Y5012D02*
Y9092D01*
X6718Y6388D02*
Y19819D01*
X8594Y11533D02*
Y14666D01*
X18590Y10849D02*
Y15334D01*
X5215Y9632D02*
Y16567D01*
X6169Y7310D02*
Y18897D01*
X9215Y19533D02*
Y21974D01*
X9716Y8630D02*
Y17569D01*
X9183Y9640D02*
Y16559D01*
X7815Y4948D02*
Y8964D01*
X16698Y11541D02*
Y14650D01*
X12332Y11947D02*
Y14261D01*
X7163Y5751D02*
Y10984D01*
X9938Y4845D02*
Y5863D01*
X15123Y14936D02*
Y16169D01*
X12531Y17640D02*
Y18770D01*
X12873Y17998D02*
Y18396D01*
X8189Y4551D02*
Y8201D01*
X6582Y6594D02*
Y19605D01*
X11521Y16288D02*
Y19454D01*
X15417Y10340D02*
Y10968D01*
X11672Y6746D02*
Y9656D01*
X18344Y10833D02*
Y15350D01*
X14439Y9410D02*
Y12869D01*
X6455Y6801D02*
Y19398D01*
X9668Y4575D02*
Y6141D01*
X12515Y11374D02*
Y14825D01*
X9914Y4821D02*
Y5887D01*
X19227Y11016D02*
Y15167D01*
X9350Y19700D02*
Y21927D01*
X9262Y4193D02*
Y6610D01*
X11926Y16925D02*
Y19350D01*
X7934Y4821D02*
Y8710D01*
X11155Y15525D02*
Y19334D01*
X7863Y17346D02*
Y21306D01*
X7656Y16861D02*
Y21068D01*
X8618Y11414D02*
Y14793D01*
X5191Y9720D02*
Y16487D01*
X4857Y11263D02*
Y14944D01*
X6900Y6117D02*
Y20090D01*
X7513Y16479D02*
Y20893D01*
X10900Y14762D02*
Y19088D01*
X17429Y11024D02*
Y15167D01*
X10074Y20487D02*
Y21211D01*
X13843Y9473D02*
Y16726D01*
X18829Y10889D02*
Y15294D01*
X10893Y14730D02*
Y19072D01*
X4976Y10587D02*
Y15612D01*
X7672Y16901D02*
Y21084D01*
X19927Y11493D02*
Y14690D01*
X5644Y8416D02*
Y17784D01*
X8626Y18730D02*
Y21974D01*
X11505Y16265D02*
Y19454D01*
X8133Y17895D02*
Y21593D01*
X19934Y11501D02*
Y14682D01*
X8531Y18587D02*
Y21974D01*
X13254Y10093D02*
Y16114D01*
X18336Y10833D02*
Y15350D01*
X15219Y15040D02*
Y16074D01*
X11998Y6913D02*
Y9179D01*
X5883Y7875D02*
Y18324D01*
X6264Y7135D02*
Y19064D01*
X7044Y5911D02*
Y11676D01*
X6503Y6722D02*
Y19477D01*
X7171Y5736D02*
Y10944D01*
X11616Y16455D02*
Y19454D01*
X12109Y7016D02*
Y9036D01*
X11950Y6873D02*
Y9243D01*
X10074Y4988D02*
Y5720D01*
X12912Y10579D02*
Y15620D01*
X19752Y11334D02*
Y14849D01*
X20324Y12026D02*
Y14165D01*
X15250Y15072D02*
Y16042D01*
X19775Y11358D02*
Y14833D01*
X9946Y20352D02*
Y21346D01*
X10145Y20567D02*
Y21132D01*
X14256Y9402D02*
Y16797D01*
X6240Y7175D02*
Y19024D01*
X9740Y4646D02*
Y6070D01*
X18217Y10833D02*
Y15342D01*
X19712Y11302D02*
Y14881D01*
X10718Y13712D02*
Y18889D01*
X12563Y7469D02*
Y8527D01*
X13676Y9632D02*
Y16575D01*
X7075Y14730D02*
Y20336D01*
X10161Y7970D02*
Y18229D01*
X8189Y17998D02*
Y21656D01*
X4888Y11056D02*
Y15143D01*
X11123Y6897D02*
Y10754D01*
X17883Y10881D02*
Y15302D01*
X9270Y4201D02*
Y6594D01*
X14280Y9402D02*
Y16797D01*
X12014Y6928D02*
Y9155D01*
X10089Y8066D02*
Y18133D01*
X7489Y5330D02*
Y9799D01*
X12427Y11620D02*
Y14587D01*
X9374Y19724D02*
Y21911D01*
X15529Y15398D02*
Y15700D01*
X13795Y9513D02*
Y16686D01*
X12578Y17688D02*
Y18714D01*
X16141Y12551D02*
Y13648D01*
X9318Y9354D02*
Y16845D01*
X10153Y20575D02*
Y21124D01*
X7203Y15390D02*
Y20503D01*
X10980Y7032D02*
Y11167D01*
X12897Y18054D02*
Y18348D01*
X14137Y9402D02*
Y16797D01*
X6089Y7461D02*
Y18746D01*
X7298Y5569D02*
Y10420D01*
X7163Y15207D02*
Y20448D01*
X9588Y19970D02*
Y21704D01*
X19521Y11167D02*
Y15016D01*
X17517Y10984D02*
Y15199D01*
X9358Y4280D02*
Y6491D01*
X5676Y8344D02*
Y17863D01*
X9390Y4312D02*
Y6459D01*
X9008Y19271D02*
Y21974D01*
X18718Y10865D02*
Y15318D01*
X7290Y15748D02*
Y20622D01*
X10058Y20471D02*
Y21227D01*
X12443Y7342D02*
Y8646D01*
X18702Y10865D02*
Y15318D01*
X11998Y17028D02*
Y19286D01*
X9223Y9553D02*
Y16646D01*
X8690Y11088D02*
Y15120D01*
X17636Y10944D02*
Y15239D01*
X9445Y4360D02*
Y6388D01*
X16364Y11994D02*
Y14197D01*
X20229Y11867D02*
Y14324D01*
X5286Y9402D02*
Y16805D01*
X9692Y8670D02*
Y17537D01*
X15362Y15183D02*
Y15923D01*
X8555Y11772D02*
Y14436D01*
X14781Y9696D02*
Y11748D01*
X10765Y14118D02*
Y18945D01*
X6877Y6149D02*
Y20050D01*
X14447Y13418D02*
Y16790D01*
X12833Y10714D02*
Y15485D01*
X15060Y14857D02*
Y16233D01*
X11823Y16781D02*
Y19438D01*
X13390Y9934D02*
Y16273D01*
X18662Y10857D02*
Y15326D01*
X18431Y10833D02*
Y15350D01*
X8459Y18467D02*
Y21927D01*
X9342Y19692D02*
Y21935D01*
X6360Y6968D02*
Y19239D01*
X5986Y7660D02*
Y18539D01*
X11187Y6841D02*
Y10603D01*
X5493Y8805D02*
Y17402D01*
X13978Y9418D02*
Y16781D01*
X8761Y10809D02*
Y15390D01*
X9382Y9227D02*
Y16972D01*
X12531Y7437D02*
Y8559D01*
X8395Y18364D02*
Y21863D01*
X5795Y8066D02*
Y18133D01*
X11171Y6857D02*
Y10634D01*
X9692Y4598D02*
Y6117D01*
X9803Y4710D02*
Y5998D01*
X12960Y10499D02*
Y15700D01*
X7974Y4773D02*
Y8622D01*
X8769Y10778D02*
Y15422D01*
X10614Y7429D02*
Y18778D01*
X8070Y4670D02*
Y8432D01*
X10741Y7286D02*
Y12257D01*
X8634Y18746D02*
Y21974D01*
X10185Y7938D02*
Y18261D01*
X9986Y20392D02*
Y21306D01*
X14598Y14054D02*
Y16678D01*
X12324Y7231D02*
Y8781D01*
X15298Y10213D02*
Y11080D01*
X20117Y11708D02*
Y14475D01*
X14972Y14746D02*
Y16320D01*
X11187Y15605D02*
Y19358D01*
X7910Y4845D02*
Y8758D01*
X9056Y4113D02*
Y6865D01*
X14590Y9513D02*
Y12169D01*
X6344Y6992D02*
Y19207D01*
X11020Y6992D02*
Y11048D01*
X18821Y10889D02*
Y15294D01*
X19147Y10984D02*
Y15199D01*
X14678Y14245D02*
Y16607D01*
X11990Y17012D02*
Y19295D01*
X9891Y4797D02*
Y5911D01*
X10232Y7883D02*
Y18324D01*
X13549Y9759D02*
Y16447D01*
X18081Y10849D02*
Y15334D01*
X4865Y11207D02*
Y14992D01*
X12475Y17585D02*
Y18825D01*
X8674Y11151D02*
Y15048D01*
X5556Y8638D02*
Y17569D01*
X9103Y19398D02*
Y21974D01*
X12332Y7239D02*
Y8766D01*
X14582Y14006D02*
Y16686D01*
X15203Y15024D02*
Y16090D01*
X13342Y9990D02*
Y16217D01*
X14161Y9402D02*
Y16797D01*
X8722Y18873D02*
Y21974D01*
X10065Y8098D02*
Y18102D01*
X12809Y10754D02*
Y15446D01*
X10909Y14793D02*
Y19096D01*
X7417Y16193D02*
Y20782D01*
X9437Y4352D02*
Y6404D01*
X10861Y7159D02*
Y11597D01*
X16825Y11414D02*
Y14777D01*
X11918Y6841D02*
Y9282D01*
X19537Y11183D02*
Y15008D01*
X11370Y6762D02*
Y10197D01*
X11163Y15549D02*
Y19342D01*
X7664Y5123D02*
Y9322D01*
X11974Y16996D02*
Y19310D01*
X8889Y19112D02*
Y21974D01*
X14018Y9410D02*
Y16781D01*
X10916Y14817D02*
Y19104D01*
X8236Y4495D02*
Y8113D01*
X17899Y10873D02*
Y15310D01*
X5302Y9354D02*
Y16853D01*
X9056Y19334D02*
Y21974D01*
X6725Y6372D02*
Y19827D01*
X14304Y9402D02*
Y16797D01*
X12833Y17943D02*
Y18444D01*
X8539Y11875D02*
Y14332D01*
X12133Y17195D02*
Y19159D01*
X15290Y15112D02*
Y15994D01*
X17278Y11096D02*
Y15096D01*
X7990Y17609D02*
Y21442D01*
X12205Y12821D02*
Y13386D01*
X15211Y10125D02*
Y11167D01*
X18885Y10897D02*
Y15286D01*
X17048Y11239D02*
Y14953D01*
X7266Y15660D02*
Y20591D01*
X12507Y17616D02*
Y18793D01*
X16905Y11342D02*
Y14841D01*
X7529Y5282D02*
Y9680D01*
X13493Y9815D02*
Y16384D01*
X6988Y5990D02*
Y12185D01*
X11227Y6809D02*
Y10507D01*
X10137Y8002D02*
Y18197D01*
X17437Y11016D02*
Y15167D01*
X16769Y11461D02*
Y14722D01*
X16499Y11779D02*
Y14404D01*
X18630Y10849D02*
Y15326D01*
X20459Y12320D02*
Y13863D01*
X18105Y10841D02*
Y15334D01*
X12268Y17362D02*
Y19032D01*
X13724Y9585D02*
Y16623D01*
X4769Y11938D02*
Y14261D01*
X18813Y10881D02*
Y15302D01*
X12889Y10618D02*
Y15581D01*
D17*
X338189Y77953D02*
Y81890D01*
X329528Y65354D02*
Y69291D01*
Y65354D02*
X340551D01*
Y69291D01*
X329528D02*
X340551D01*
X329528Y44873D02*
Y48810D01*
Y44873D02*
X340551D01*
Y48810D01*
X329528D02*
X340551D01*
X253516Y22889D02*
Y27613D01*
X255906Y22835D02*
Y27559D01*
X194488Y139764D02*
X198425D01*
Y150787D01*
X194488D02*
X198425D01*
X194488Y139764D02*
Y150787D01*
X87756Y19941D02*
Y23878D01*
X76732D02*
X87756D01*
X76732Y19941D02*
Y23878D01*
Y19941D02*
X87756D01*
X75590Y14370D02*
Y18307D01*
X64567D02*
X75590D01*
X64567Y14370D02*
Y18307D01*
Y14370D02*
X75590D01*
X45276Y15346D02*
X49213D01*
Y26370D01*
X45276D02*
X49213D01*
X45276Y15346D02*
Y26370D01*
X40185Y6630D02*
Y11354D01*
X37795Y6684D02*
Y11409D01*
X40185Y13323D02*
Y18047D01*
X37795Y13377D02*
Y18101D01*
X40185Y20016D02*
Y24740D01*
X37795Y20070D02*
Y24794D01*
X247638Y132677D02*
Y136614D01*
X236614D02*
X247638D01*
X236614Y132677D02*
Y136614D01*
Y132677D02*
X247638D01*
X247638Y148425D02*
Y152362D01*
Y148425D02*
X258661D01*
Y152362D01*
X247638D02*
X258661D01*
X251181Y160377D02*
X262205D01*
Y156440D02*
Y160377D01*
X251181Y156440D02*
X262205D01*
X251181D02*
Y160377D01*
Y166377D02*
X262205D01*
Y162440D02*
Y166377D01*
X251181Y162440D02*
X262205D01*
X251181D02*
Y166377D01*
X256299Y173228D02*
Y177165D01*
X245276D02*
X256299D01*
X245276Y173228D02*
Y177165D01*
Y173228D02*
X256299D01*
X198031Y180709D02*
Y184646D01*
Y180709D02*
X209055D01*
Y184646D01*
X198031D02*
X209055D01*
X190605Y187617D02*
X195330D01*
X190551Y185228D02*
X195276D01*
X182684Y187515D02*
X187408D01*
X182630Y185125D02*
X187354D01*
X231890Y242952D02*
X235827D01*
Y253975D01*
X231890D02*
X235827D01*
X231890Y242952D02*
Y253975D01*
Y235818D02*
Y239755D01*
Y235818D02*
X242913D01*
Y239755D01*
X231890D02*
X242913D01*
X221260Y253975D02*
X225197D01*
X221260Y242952D02*
Y253975D01*
Y242952D02*
X225197D01*
Y253975D01*
Y235818D02*
Y239755D01*
X214173D02*
X225197D01*
X214173Y235818D02*
Y239755D01*
Y235818D02*
X225197D01*
X174803Y134646D02*
Y138583D01*
Y134646D02*
X185826D01*
Y138583D01*
X174803D02*
X185826D01*
X174803Y129912D02*
Y133850D01*
Y129912D02*
X185826D01*
Y133850D01*
X174803D02*
X185826D01*
X193253Y108231D02*
X197977D01*
X193307Y110621D02*
X198031D01*
X186560Y108231D02*
X191284D01*
X186614Y110621D02*
X191339D01*
X224803Y127550D02*
X228740D01*
X224803Y116527D02*
Y127550D01*
Y116527D02*
X228740D01*
Y127550D01*
X219685Y116527D02*
X223622D01*
Y127550D01*
X219685D02*
X223622D01*
X219685Y116527D02*
Y127550D01*
X214567Y116527D02*
X218504D01*
Y127550D01*
X214567D02*
X218504D01*
X214567Y116527D02*
Y127550D01*
X205512Y88967D02*
X209449D01*
Y99991D01*
X205512D02*
X209449D01*
X205512Y88967D02*
Y99991D01*
Y88180D02*
X209449D01*
X205512Y77157D02*
Y88180D01*
Y77157D02*
X209449D01*
Y88180D01*
X209449Y116527D02*
X213386D01*
Y127550D01*
X209449D02*
X213386D01*
X209449Y116527D02*
Y127550D01*
X269739Y91161D02*
X274464D01*
X269685Y88771D02*
X274409D01*
X263046Y91161D02*
X267771D01*
X262992Y88771D02*
X267717D01*
X262598Y76790D02*
Y80727D01*
Y76790D02*
X273622D01*
Y80727D01*
X262598D02*
X273622D01*
X260684Y43129D02*
X265408D01*
X260630Y40739D02*
X265354D01*
X252810Y43129D02*
X257535D01*
X252756Y40739D02*
X257480D01*
X244936Y43129D02*
X249660D01*
X244882Y40739D02*
X249606D01*
X223327Y34050D02*
X223854D01*
X223327Y45477D02*
X223854D01*
X223327Y34051D02*
Y45477D01*
X234611D02*
X235138D01*
X234611Y34050D02*
X235138D01*
Y45476D01*
X118110Y125976D02*
Y129912D01*
X107087D02*
X118110D01*
X107087Y125976D02*
Y129912D01*
Y125976D02*
X118110D01*
X120866Y43307D02*
X124803D01*
X120866Y32283D02*
Y43307D01*
Y32283D02*
X124803D01*
Y43307D01*
X49606Y126772D02*
Y130709D01*
Y126772D02*
X60630D01*
Y130709D01*
X49606D02*
X60630D01*
X44434Y139736D02*
X49158D01*
X44488Y142126D02*
X49213D01*
X88922Y141114D02*
X93647D01*
X88976Y143504D02*
X93701D01*
X82229Y141114D02*
X86954D01*
X82284Y143504D02*
X87008D01*
X159280Y135370D02*
Y140095D01*
X156890Y135424D02*
Y140149D01*
X176378Y173228D02*
Y177165D01*
Y173228D02*
X187402D01*
Y177165D01*
X176378D02*
X187402D01*
X167771Y163413D02*
X172495D01*
X167717Y161024D02*
X172441D01*
X168504Y145276D02*
Y149213D01*
Y145276D02*
X179528D01*
Y149213D01*
X168504D02*
X179528D01*
X134252Y179921D02*
X138189D01*
X134252Y168898D02*
Y179921D01*
Y168898D02*
X138189D01*
Y179921D01*
X126717Y172807D02*
X131442D01*
X126772Y175197D02*
X131496D01*
X217032Y199213D02*
X220969D01*
X217032Y188189D02*
Y199213D01*
Y188189D02*
X220969D01*
Y199213D01*
X370999Y63386D02*
X374935D01*
X373623Y64698D01*
X374935Y66010D01*
X370999D01*
X374935Y67322D02*
Y68634D01*
Y67977D01*
X372311D01*
Y67322D01*
X370999Y73225D02*
Y70601D01*
X372967D01*
Y71913D01*
Y70601D01*
X374935D01*
Y74537D02*
Y75849D01*
Y75193D01*
X372311D01*
Y74537D01*
X375590Y77817D02*
Y80441D01*
X374935Y81753D02*
Y83720D01*
X374279Y84376D01*
X373623Y83720D01*
Y82409D01*
X372967Y81753D01*
X372311Y82409D01*
Y84376D01*
X374935Y87656D02*
Y86344D01*
X374279Y85688D01*
X372967D01*
X372311Y86344D01*
Y87656D01*
X372967Y88312D01*
X373623D01*
Y85688D01*
X372311Y92248D02*
Y90280D01*
X372967Y89624D01*
X374279D01*
X374935Y90280D01*
Y92248D01*
Y93560D02*
X374279D01*
Y94216D01*
X374935D01*
Y93560D01*
X375590Y96840D02*
Y99463D01*
X370999Y103399D02*
X374935D01*
Y101431D01*
X374279Y100775D01*
X372967D01*
X372311Y101431D01*
Y103399D01*
X374935Y106679D02*
Y105367D01*
X374279Y104711D01*
X372967D01*
X372311Y105367D01*
Y106679D01*
X372967Y107335D01*
X373623D01*
Y104711D01*
X371655Y109303D02*
X372311D01*
Y108647D01*
Y109959D01*
Y109303D01*
X374279D01*
X374935Y109959D01*
Y111927D02*
X374279D01*
Y112583D01*
X374935D01*
Y111927D01*
X375590Y115206D02*
Y117830D01*
X372311Y119142D02*
X374935Y120454D01*
X372311Y121766D01*
X371655Y123078D02*
X370999Y123734D01*
Y125046D01*
X371655Y125702D01*
X374279D01*
X374935Y125046D01*
Y123734D01*
X374279Y123078D01*
X371655D01*
X374935Y127014D02*
Y128325D01*
Y127670D01*
X370999D01*
X371655Y127014D01*
X282023Y105905D02*
X285958D01*
X284646Y107217D01*
X285958Y108529D01*
X282023D01*
X285958Y109841D02*
Y111153D01*
Y110497D01*
X283334D01*
Y109841D01*
X282023Y115745D02*
Y113121D01*
X283990D01*
Y114433D01*
Y113121D01*
X285958D01*
Y117057D02*
Y118369D01*
Y117713D01*
X283334D01*
Y117057D01*
X286614Y120337D02*
Y122960D01*
X285958Y124272D02*
Y126240D01*
X285302Y126896D01*
X284646Y126240D01*
Y124928D01*
X283990Y124272D01*
X283334Y124928D01*
Y126896D01*
X285958Y130176D02*
Y128864D01*
X285302Y128208D01*
X283990D01*
X283334Y128864D01*
Y130176D01*
X283990Y130832D01*
X284646D01*
Y128208D01*
X283334Y134768D02*
Y132800D01*
X283990Y132144D01*
X285302D01*
X285958Y132800D01*
Y134768D01*
Y136080D02*
X285302D01*
Y136735D01*
X285958D01*
Y136080D01*
X286614Y139359D02*
Y141983D01*
X282023Y145919D02*
X285958D01*
Y143951D01*
X285302Y143295D01*
X283990D01*
X283334Y143951D01*
Y145919D01*
X285958Y149199D02*
Y147887D01*
X285302Y147231D01*
X283990D01*
X283334Y147887D01*
Y149199D01*
X283990Y149855D01*
X284646D01*
Y147231D01*
X282678Y151822D02*
X283334D01*
Y151166D01*
Y152478D01*
Y151822D01*
X285302D01*
X285958Y152478D01*
Y154446D02*
X285302D01*
Y155102D01*
X285958D01*
Y154446D01*
X286614Y157726D02*
Y160350D01*
X283334Y161662D02*
X285958Y162974D01*
X283334Y164286D01*
X282678Y165598D02*
X282023Y166253D01*
Y167565D01*
X282678Y168221D01*
X285302D01*
X285958Y167565D01*
Y166253D01*
X285302Y165598D01*
X282678D01*
X285958Y169533D02*
Y170845D01*
Y170189D01*
X282023D01*
X282678Y169533D01*
D18*
X30945Y30377D02*
Y101102D01*
X7520Y30377D02*
Y30405D01*
X105839Y30377D02*
X108307D01*
X7520Y30377D02*
X33461D01*
X108307Y30377D02*
Y39704D01*
X7520Y30377D02*
Y101102D01*
X33461D01*
X105839Y101102D02*
X108307D01*
Y91775D02*
Y101102D01*
X31929Y30377D02*
Y101102D01*
D19*
X362756Y8772D02*
Y6476D01*
X363215Y6017D01*
X364133D01*
X364593Y6476D01*
Y8772D01*
X367348D02*
Y6017D01*
X365970D01*
X365511Y6476D01*
Y7394D01*
X365970Y7853D01*
X367348D01*
X369643Y6017D02*
X368725D01*
X368266Y6476D01*
Y7394D01*
X368725Y7853D01*
X369643D01*
X370103Y7394D01*
Y6935D01*
X368266D01*
X371021Y6017D02*
Y7853D01*
X371480D01*
X371939Y7394D01*
Y6017D01*
Y7394D01*
X372398Y7853D01*
X372858Y7394D01*
Y6017D01*
X373776Y7853D02*
Y6476D01*
X374235Y6017D01*
X375613D01*
Y5558D01*
X375153Y5098D01*
X374694D01*
X375613Y6017D02*
Y7853D01*
X285303Y58136D02*
X284843Y57677D01*
Y56758D01*
X285303Y56299D01*
X285762D01*
X286221Y56758D01*
Y57677D01*
X286680Y58136D01*
X287139D01*
X287598Y57677D01*
Y56758D01*
X287139Y56299D01*
X284843Y60891D02*
Y59054D01*
X287598D01*
Y60891D01*
X286221Y59054D02*
Y59973D01*
X287598Y61809D02*
X284843D01*
X287598Y63646D01*
X284843D01*
X285303Y66401D02*
X284843Y65942D01*
Y65023D01*
X285303Y64564D01*
X285762D01*
X286221Y65023D01*
Y65942D01*
X286680Y66401D01*
X287139D01*
X287598Y65942D01*
Y65023D01*
X287139Y64564D01*
X284843Y68697D02*
Y67778D01*
X285303Y67319D01*
X287139D01*
X287598Y67778D01*
Y68697D01*
X287139Y69156D01*
X285303D01*
X284843Y68697D01*
X287598Y70074D02*
X284843D01*
Y71452D01*
X285303Y71911D01*
X286221D01*
X286680Y71452D01*
Y70074D01*
Y70993D02*
X287598Y71911D01*
Y53928D02*
Y54847D01*
Y54387D01*
X284843D01*
X285303Y53928D01*
X189240Y138057D02*
X188715Y138582D01*
X187665D01*
X187141Y138057D01*
Y135958D01*
X187665Y135434D01*
X188715D01*
X189240Y135958D01*
X192388Y135434D02*
X190289D01*
X192388Y137533D01*
Y138057D01*
X191863Y138582D01*
X190814D01*
X190289Y138057D01*
X193438D02*
X193962Y138582D01*
X195012D01*
X195537Y138057D01*
Y137533D01*
X195012Y137008D01*
X194487D01*
X195012D01*
X195537Y136483D01*
Y135958D01*
X195012Y135434D01*
X193962D01*
X193438Y135958D01*
X264305Y163177D02*
Y166325D01*
X265879D01*
X266404Y165801D01*
Y164751D01*
X265879Y164226D01*
X264305D01*
X265354D02*
X266404Y163177D01*
X267454Y166325D02*
X269553D01*
Y165801D01*
X267454Y163702D01*
Y163177D01*
X264305Y156901D02*
Y160050D01*
X265879D01*
X266404Y159525D01*
Y158475D01*
X265879Y157951D01*
X264305D01*
X265354D02*
X266404Y156901D01*
X269553Y160050D02*
X268503Y159525D01*
X267454Y158475D01*
Y157426D01*
X267978Y156901D01*
X269028D01*
X269553Y157426D01*
Y157951D01*
X269028Y158475D01*
X267454D01*
X123255Y128838D02*
Y126214D01*
X123780Y125689D01*
X124830D01*
X125354Y126214D01*
Y128838D01*
X126404Y125689D02*
X127453D01*
X126929D01*
Y128838D01*
X126404Y128313D01*
X83071Y193176D02*
X86220D01*
Y194751D01*
X85695Y195276D01*
X83596D01*
X83071Y194751D01*
Y193176D01*
X86220Y196325D02*
Y197375D01*
Y196850D01*
X83071D01*
X83596Y196325D01*
X115224Y184251D02*
Y181103D01*
X116799D01*
X117323Y181628D01*
Y182152D01*
X116799Y182677D01*
X115224D01*
X116799D01*
X117323Y183202D01*
Y183727D01*
X116799Y184251D01*
X115224D01*
X118373Y181103D02*
Y184251D01*
X119947D01*
X120472Y183727D01*
Y182677D01*
X119947Y182152D01*
X118373D01*
X119422D02*
X120472Y181103D01*
X121521D02*
X122571D01*
X122046D01*
Y184251D01*
X121521Y183727D01*
X163518Y107873D02*
X165617Y104725D01*
Y107873D02*
X163518Y104725D01*
X168766D02*
X166666D01*
X168766Y106824D01*
Y107349D01*
X168241Y107873D01*
X167191D01*
X166666Y107349D01*
X176143Y166952D02*
X179853Y166210D01*
X177627Y168436D02*
X178369Y164725D01*
X180596Y166952D02*
X181338Y167694D01*
X180967Y167323D01*
X178740Y169549D01*
X178740Y168807D01*
X208473Y27075D02*
Y24451D01*
X208998Y23927D01*
X210047D01*
X210572Y24451D01*
Y27075D01*
X213720Y26550D02*
X213196Y27075D01*
X212146D01*
X211621Y26550D01*
Y26026D01*
X212146Y25501D01*
X213196D01*
X213720Y24976D01*
Y24451D01*
X213196Y23927D01*
X212146D01*
X211621Y24451D01*
X214770Y27075D02*
Y23927D01*
X216344D01*
X216869Y24451D01*
Y24976D01*
X216344Y25501D01*
X214770D01*
X216344D01*
X216869Y26026D01*
Y26550D01*
X216344Y27075D01*
X214770D01*
X217919Y23927D02*
X218968D01*
X218443D01*
Y27075D01*
X217919Y26550D01*
X175880Y110531D02*
Y107907D01*
X176405Y107382D01*
X177454D01*
X177979Y107907D01*
Y110531D01*
X179029D02*
X181128D01*
Y110006D01*
X179029Y107907D01*
Y107382D01*
X6825Y106692D02*
Y104069D01*
X7350Y103544D01*
X8399D01*
X8924Y104069D01*
Y106692D01*
X12073D02*
X11023Y106168D01*
X9974Y105118D01*
Y104069D01*
X10498Y103544D01*
X11548D01*
X12073Y104069D01*
Y104593D01*
X11548Y105118D01*
X9974D01*
X235093Y52336D02*
Y49712D01*
X235617Y49187D01*
X236667D01*
X237192Y49712D01*
Y52336D01*
X240340D02*
X238241D01*
Y50762D01*
X239291Y51287D01*
X239816D01*
X240340Y50762D01*
Y49712D01*
X239816Y49187D01*
X238766D01*
X238241Y49712D01*
X237652Y103228D02*
Y100604D01*
X238176Y100079D01*
X239226D01*
X239751Y100604D01*
Y103228D01*
X242375Y100079D02*
Y103228D01*
X240800Y101654D01*
X242899D01*
X197376Y174803D02*
Y172179D01*
X197901Y171654D01*
X198951D01*
X199475Y172179D01*
Y174803D01*
X200525Y174278D02*
X201049Y174803D01*
X202099D01*
X202624Y174278D01*
Y173753D01*
X202099Y173228D01*
X201574D01*
X202099D01*
X202624Y172704D01*
Y172179D01*
X202099Y171654D01*
X201049D01*
X200525Y172179D01*
X139502Y177952D02*
Y175328D01*
X140027Y174804D01*
X141077D01*
X141601Y175328D01*
Y177952D01*
X144750Y174804D02*
X142651D01*
X144750Y176903D01*
Y177427D01*
X144225Y177952D01*
X143175D01*
X142651Y177427D01*
X42389Y329929D02*
X44488D01*
X43439D01*
Y326781D01*
X45538D02*
X46587D01*
X46062D01*
Y329929D01*
X45538Y329405D01*
X125552Y12712D02*
X125027Y13237D01*
X123977D01*
X123453Y12712D01*
Y12187D01*
X123977Y11662D01*
X125027D01*
X125552Y11137D01*
Y10613D01*
X125027Y10088D01*
X123977D01*
X123453Y10613D01*
X126601Y13237D02*
Y10088D01*
X127651Y11137D01*
X128700Y10088D01*
Y13237D01*
X129750Y10088D02*
X130799D01*
X130275D01*
Y13237D01*
X129750Y12712D01*
X353543Y123893D02*
X353019Y124418D01*
X351969D01*
X351444Y123893D01*
Y123368D01*
X351969Y122843D01*
X353019D01*
X353543Y122319D01*
Y121794D01*
X353019Y121269D01*
X351969D01*
X351444Y121794D01*
X354593Y121269D02*
X355642D01*
X355118D01*
Y124418D01*
X354593Y123893D01*
X232941Y341733D02*
Y344881D01*
X234515D01*
X235040Y344357D01*
Y343307D01*
X234515Y342782D01*
X232941D01*
X233990D02*
X235040Y341733D01*
X236089Y344881D02*
Y341733D01*
X238189D01*
X239238D02*
X240287D01*
X239763D01*
Y344881D01*
X239238Y344357D01*
X183597Y341733D02*
Y344881D01*
X185171D01*
X185696Y344357D01*
Y343307D01*
X185171Y342782D01*
X183597D01*
X184647D02*
X185696Y341733D01*
X186746Y344881D02*
Y341733D01*
X188845D01*
X191993D02*
X189894D01*
X191993Y343832D01*
Y344357D01*
X191469Y344881D01*
X190419D01*
X189894Y344357D01*
X342652Y45276D02*
Y48425D01*
X344227D01*
X344751Y47900D01*
Y46850D01*
X344227Y46326D01*
X342652D01*
X343702D02*
X344751Y45276D01*
X347900D02*
X345801D01*
X347900Y47375D01*
Y47900D01*
X347375Y48425D01*
X346326D01*
X345801Y47900D01*
X348949D02*
X349474Y48425D01*
X350524D01*
X351048Y47900D01*
Y47375D01*
X350524Y46850D01*
X351048Y46326D01*
Y45801D01*
X350524Y45276D01*
X349474D01*
X348949Y45801D01*
Y46326D01*
X349474Y46850D01*
X348949Y47375D01*
Y47900D01*
X349474Y46850D02*
X350524D01*
X342652Y65749D02*
Y68897D01*
X344227D01*
X344751Y68372D01*
Y67323D01*
X344227Y66798D01*
X342652D01*
X343702D02*
X344751Y65749D01*
X347900D02*
X345801D01*
X347900Y67848D01*
Y68372D01*
X347375Y68897D01*
X346326D01*
X345801Y68372D01*
X348949D02*
X349474Y68897D01*
X350524D01*
X351048Y68372D01*
Y67848D01*
X350524Y67323D01*
X349999D01*
X350524D01*
X351048Y66798D01*
Y66273D01*
X350524Y65749D01*
X349474D01*
X348949Y66273D01*
X65881Y10237D02*
Y13385D01*
X67455D01*
X67980Y12861D01*
Y11811D01*
X67455Y11286D01*
X65881D01*
X66930D02*
X67980Y10237D01*
X71128D02*
X69029D01*
X71128Y12336D01*
Y12861D01*
X70604Y13385D01*
X69554D01*
X69029Y12861D01*
X74277Y10237D02*
X72178D01*
X74277Y12336D01*
Y12861D01*
X73752Y13385D01*
X72703D01*
X72178Y12861D01*
X53020Y131890D02*
Y135039D01*
X54594D01*
X55119Y134514D01*
Y133465D01*
X54594Y132940D01*
X53020D01*
X54069D02*
X55119Y131890D01*
X58267D02*
X56168D01*
X58267Y133989D01*
Y134514D01*
X57742Y135039D01*
X56693D01*
X56168Y134514D01*
X59317Y131890D02*
X60366D01*
X59842D01*
Y135039D01*
X59317Y134514D01*
X48818Y5644D02*
X45670D01*
Y7219D01*
X46194Y7744D01*
X47244D01*
X47769Y7219D01*
Y5644D01*
Y6694D02*
X48818Y7744D01*
Y10892D02*
Y8793D01*
X46719Y10892D01*
X46194D01*
X45670Y10367D01*
Y9318D01*
X46194Y8793D01*
Y11942D02*
X45670Y12466D01*
Y13516D01*
X46194Y14041D01*
X48294D01*
X48818Y13516D01*
Y12466D01*
X48294Y11942D01*
X46194D01*
X214173Y77560D02*
X211024D01*
Y79135D01*
X211549Y79659D01*
X212598D01*
X213123Y79135D01*
Y77560D01*
Y78610D02*
X214173Y79659D01*
Y80709D02*
Y81758D01*
Y81234D01*
X211024D01*
X211549Y80709D01*
X213648Y83333D02*
X214173Y83858D01*
Y84907D01*
X213648Y85432D01*
X211549D01*
X211024Y84907D01*
Y83858D01*
X211549Y83333D01*
X212074D01*
X212598Y83858D01*
Y85432D01*
X262993Y72048D02*
Y75196D01*
X264568D01*
X265092Y74672D01*
Y73622D01*
X264568Y73097D01*
X262993D01*
X264043D02*
X265092Y72048D01*
X266142D02*
X267192D01*
X266667D01*
Y75196D01*
X266142Y74672D01*
X268766D02*
X269291Y75196D01*
X270340D01*
X270865Y74672D01*
Y74147D01*
X270340Y73622D01*
X270865Y73097D01*
Y72572D01*
X270340Y72048D01*
X269291D01*
X268766Y72572D01*
Y73097D01*
X269291Y73622D01*
X268766Y74147D01*
Y74672D01*
X269291Y73622D02*
X270340D01*
X212598Y107088D02*
X209449D01*
Y108662D01*
X209974Y109187D01*
X211024D01*
X211548Y108662D01*
Y107088D01*
Y108137D02*
X212598Y109187D01*
Y110237D02*
Y111286D01*
Y110761D01*
X209449D01*
X209974Y110237D01*
X209449Y112860D02*
Y114959D01*
X209974D01*
X212073Y112860D01*
X212598D01*
X214173Y90159D02*
X211024D01*
Y91733D01*
X211549Y92258D01*
X212598D01*
X213123Y91733D01*
Y90159D01*
Y91208D02*
X214173Y92258D01*
Y93307D02*
Y94357D01*
Y93832D01*
X211024D01*
X211549Y93307D01*
X211024Y98030D02*
X211549Y96981D01*
X212598Y95931D01*
X213648D01*
X214173Y96456D01*
Y97505D01*
X213648Y98030D01*
X213123D01*
X212598Y97505D01*
Y95931D01*
X223228Y107088D02*
X220079D01*
Y108662D01*
X220604Y109187D01*
X221654D01*
X222178Y108662D01*
Y107088D01*
Y108137D02*
X223228Y109187D01*
Y110237D02*
Y111286D01*
Y110761D01*
X220079D01*
X220604Y110237D01*
X220079Y114959D02*
Y112860D01*
X221654D01*
X221129Y113910D01*
Y114435D01*
X221654Y114959D01*
X222703D01*
X223228Y114435D01*
Y113385D01*
X222703Y112860D01*
X218110Y107088D02*
X214961D01*
Y108662D01*
X215486Y109187D01*
X216535D01*
X217060Y108662D01*
Y107088D01*
Y108137D02*
X218110Y109187D01*
Y110237D02*
Y111286D01*
Y110761D01*
X214961D01*
X215486Y110237D01*
X218110Y114435D02*
X214961D01*
X216535Y112860D01*
Y114959D01*
X129921Y33860D02*
X126772D01*
Y35434D01*
X127297Y35959D01*
X128347D01*
X128871Y35434D01*
Y33860D01*
Y34909D02*
X129921Y35959D01*
Y37008D02*
Y38058D01*
Y37533D01*
X126772D01*
X127297Y37008D01*
Y39632D02*
X126772Y40157D01*
Y41206D01*
X127297Y41731D01*
X127822D01*
X128347Y41206D01*
Y40681D01*
Y41206D01*
X128871Y41731D01*
X129396D01*
X129921Y41206D01*
Y40157D01*
X129396Y39632D01*
X249214Y144095D02*
Y147244D01*
X250788D01*
X251313Y146719D01*
Y145669D01*
X250788Y145144D01*
X249214D01*
X250263D02*
X251313Y144095D01*
X252362D02*
X253412D01*
X252887D01*
Y147244D01*
X252362Y146719D01*
X257085Y144095D02*
X254986D01*
X257085Y146194D01*
Y146719D01*
X256561Y147244D01*
X255511D01*
X254986Y146719D01*
X76136Y15788D02*
Y18936D01*
X77711D01*
X78235Y18412D01*
Y17362D01*
X77711Y16837D01*
X76136D01*
X77186D02*
X78235Y15788D01*
X79285D02*
X80334D01*
X79810D01*
Y18936D01*
X79285Y18412D01*
X81909Y15788D02*
X82958D01*
X82433D01*
Y18936D01*
X81909Y18412D01*
X225590Y190946D02*
X222441D01*
Y192520D01*
X222966Y193045D01*
X224016D01*
X224540Y192520D01*
Y190946D01*
Y191996D02*
X225590Y193045D01*
Y194095D02*
Y195144D01*
Y194620D01*
X222441D01*
X222966Y194095D01*
Y196719D02*
X222441Y197243D01*
Y198293D01*
X222966Y198818D01*
X225065D01*
X225590Y198293D01*
Y197243D01*
X225065Y196719D01*
X222966D01*
X187534Y130315D02*
Y133464D01*
X189108D01*
X189633Y132939D01*
Y131890D01*
X189108Y131365D01*
X187534D01*
X188583D02*
X189633Y130315D01*
X190682Y130840D02*
X191207Y130315D01*
X192256D01*
X192781Y130840D01*
Y132939D01*
X192256Y133464D01*
X191207D01*
X190682Y132939D01*
Y132414D01*
X191207Y131890D01*
X192781D01*
X228346Y109712D02*
X225197D01*
Y111286D01*
X225722Y111811D01*
X226772D01*
X227296Y111286D01*
Y109712D01*
Y110761D02*
X228346Y111811D01*
X225722Y112860D02*
X225197Y113385D01*
Y114435D01*
X225722Y114959D01*
X226247D01*
X226772Y114435D01*
X227296Y114959D01*
X227821D01*
X228346Y114435D01*
Y113385D01*
X227821Y112860D01*
X227296D01*
X226772Y113385D01*
X226247Y112860D01*
X225722D01*
X226772Y113385D02*
Y114435D01*
X209055Y237927D02*
X205906D01*
Y239502D01*
X206431Y240026D01*
X207480D01*
X208005Y239502D01*
Y237927D01*
Y238977D02*
X209055Y240026D01*
X205906Y243175D02*
Y241076D01*
X207480D01*
X206956Y242126D01*
Y242650D01*
X207480Y243175D01*
X208530D01*
X209055Y242650D01*
Y241601D01*
X208530Y241076D01*
X251968Y237927D02*
X248819D01*
Y239502D01*
X249344Y240026D01*
X250394D01*
X250919Y239502D01*
Y237927D01*
Y238977D02*
X251968Y240026D01*
Y242650D02*
X248819D01*
X250394Y241076D01*
Y243175D01*
X219817Y231497D02*
Y234645D01*
X221391D01*
X221916Y234120D01*
Y233071D01*
X221391Y232546D01*
X219817D01*
X220867D02*
X221916Y231497D01*
X222966Y234120D02*
X223491Y234645D01*
X224540D01*
X225065Y234120D01*
Y233596D01*
X224540Y233071D01*
X224015D01*
X224540D01*
X225065Y232546D01*
Y232021D01*
X224540Y231497D01*
X223491D01*
X222966Y232021D01*
X232022Y231497D02*
Y234645D01*
X233596D01*
X234121Y234120D01*
Y233071D01*
X233596Y232546D01*
X232022D01*
X233071D02*
X234121Y231497D01*
X237269D02*
X235170D01*
X237269Y233596D01*
Y234120D01*
X236745Y234645D01*
X235695D01*
X235170Y234120D01*
X65224Y372835D02*
Y375984D01*
X66798D01*
X67323Y375459D01*
Y374410D01*
X66798Y373885D01*
X65224D01*
X66273D02*
X67323Y372835D01*
X68372D02*
X69422D01*
X68897D01*
Y375984D01*
X68372Y375459D01*
X327034Y52231D02*
X324935D01*
X324410Y51706D01*
Y50657D01*
X324935Y50132D01*
X327034D01*
X327558Y50657D01*
Y51706D01*
X326509Y51182D02*
X327558Y52231D01*
Y51706D02*
X327034Y52231D01*
X324410Y55380D02*
Y53281D01*
X325984D01*
X325460Y54330D01*
Y54855D01*
X325984Y55380D01*
X327034D01*
X327558Y54855D01*
Y53805D01*
X327034Y53281D01*
X57349Y7743D02*
X55250D01*
X54725Y7218D01*
Y6169D01*
X55250Y5644D01*
X57349D01*
X57873Y6169D01*
Y7218D01*
X56824Y6693D02*
X57873Y7743D01*
Y7218D02*
X57349Y7743D01*
X57873Y10367D02*
X54725D01*
X56299Y8793D01*
Y10892D01*
X64042Y111943D02*
Y114042D01*
X63517Y114566D01*
X62468D01*
X61943Y114042D01*
Y111943D01*
X62468Y111418D01*
X63517D01*
X62993Y112467D02*
X64042Y111418D01*
X63517D02*
X64042Y111943D01*
X65092Y114042D02*
X65617Y114566D01*
X66666D01*
X67191Y114042D01*
Y113517D01*
X66666Y112992D01*
X66141D01*
X66666D01*
X67191Y112467D01*
Y111943D01*
X66666Y111418D01*
X65617D01*
X65092Y111943D01*
X203805Y240026D02*
X201706D01*
X201182Y239502D01*
Y238452D01*
X201706Y237927D01*
X203805D01*
X204330Y238452D01*
Y239502D01*
X203281Y238977D02*
X204330Y240026D01*
Y239502D02*
X203805Y240026D01*
X204330Y243175D02*
Y241076D01*
X202231Y243175D01*
X201706D01*
X201182Y242650D01*
Y241601D01*
X201706Y241076D01*
X256168Y240026D02*
X254069D01*
X253544Y239502D01*
Y238452D01*
X254069Y237927D01*
X256168D01*
X256692Y238452D01*
Y239502D01*
X255643Y238977D02*
X256692Y240026D01*
Y239502D02*
X256168Y240026D01*
X256692Y241076D02*
Y242126D01*
Y241601D01*
X253544D01*
X254069Y241076D01*
X331760Y75984D02*
Y72835D01*
X333859D01*
X337008Y75984D02*
X334909D01*
Y72835D01*
X337008D01*
X334909Y74410D02*
X335958D01*
X338057Y75984D02*
Y72835D01*
X339632D01*
X340157Y73360D01*
Y75459D01*
X339632Y75984D01*
X338057D01*
X341206Y72835D02*
X342255D01*
X341731D01*
Y75984D01*
X341206Y75459D01*
X110893Y107480D02*
Y104331D01*
X112992D01*
X114042D02*
X115091D01*
X114566D01*
Y107480D01*
X114042Y106955D01*
X267717Y11680D02*
Y10630D01*
Y11155D01*
X270341D01*
X270866Y10630D01*
Y10106D01*
X270341Y9581D01*
X267717Y12730D02*
Y14829D01*
X268242D01*
X270341Y12730D01*
X270866D01*
X284515Y240078D02*
X283465D01*
X283990D01*
Y237454D01*
X283465Y236930D01*
X282940D01*
X282416Y237454D01*
X287663Y240078D02*
X286614Y239553D01*
X285564Y238504D01*
Y237454D01*
X286089Y236930D01*
X287138D01*
X287663Y237454D01*
Y237979D01*
X287138Y238504D01*
X285564D01*
X175853Y376377D02*
X174804D01*
X175328D01*
Y373754D01*
X174804Y373229D01*
X174279D01*
X173754Y373754D01*
X179002Y376377D02*
X176903D01*
Y374803D01*
X177952Y375328D01*
X178477D01*
X179002Y374803D01*
Y373754D01*
X178477Y373229D01*
X177427D01*
X176903Y373754D01*
X193609Y11653D02*
X192560D01*
X193084D01*
Y9029D01*
X192560Y8504D01*
X192035D01*
X191510Y9029D01*
X196233Y8504D02*
Y11653D01*
X194659Y10079D01*
X196758D01*
X8924Y218110D02*
X7875D01*
X8399D01*
Y215486D01*
X7875Y214961D01*
X7350D01*
X6825Y215486D01*
X9974Y217585D02*
X10498Y218110D01*
X11548D01*
X12073Y217585D01*
Y217060D01*
X11548Y216535D01*
X11023D01*
X11548D01*
X12073Y216011D01*
Y215486D01*
X11548Y214961D01*
X10498D01*
X9974Y215486D01*
X282546Y376377D02*
X281497D01*
X282021D01*
Y373754D01*
X281497Y373229D01*
X280972D01*
X280447Y373754D01*
X285695Y373229D02*
X283596D01*
X285695Y375328D01*
Y375853D01*
X285170Y376377D01*
X284120D01*
X283596Y375853D01*
X5906Y371662D02*
X4856D01*
X5381D01*
Y369038D01*
X4856Y368513D01*
X4331D01*
X3807Y369038D01*
X6955Y368513D02*
X8005D01*
X7480D01*
Y371662D01*
X6955Y371137D01*
X97638Y204330D02*
X95539D01*
Y202756D01*
X96588D01*
X95539D01*
Y201182D01*
X98687D02*
X99737D01*
X99212D01*
Y204330D01*
X98687Y203805D01*
X153937Y120211D02*
X157086D01*
Y121785D01*
X156561Y122310D01*
X154462D01*
X153937Y121785D01*
Y120211D01*
Y125459D02*
X154462Y124409D01*
X155512Y123359D01*
X156561D01*
X157086Y123884D01*
Y124934D01*
X156561Y125459D01*
X156037D01*
X155512Y124934D01*
Y123359D01*
X79266Y126771D02*
Y123623D01*
X80840D01*
X81365Y124147D01*
Y126246D01*
X80840Y126771D01*
X79266D01*
X84514D02*
X82415D01*
Y125197D01*
X83464Y125722D01*
X83989D01*
X84514Y125197D01*
Y124147D01*
X83989Y123623D01*
X82939D01*
X82415Y124147D01*
X256825Y33070D02*
Y29922D01*
X258399D01*
X258924Y30446D01*
Y32546D01*
X258399Y33070D01*
X256825D01*
X261548Y29922D02*
Y33070D01*
X259974Y31496D01*
X262073D01*
X193045Y246062D02*
Y242914D01*
X194620D01*
X195144Y243439D01*
Y245538D01*
X194620Y246062D01*
X193045D01*
X196194Y245538D02*
X196719Y246062D01*
X197768D01*
X198293Y245538D01*
Y245013D01*
X197768Y244488D01*
X197244D01*
X197768D01*
X198293Y243963D01*
Y243439D01*
X197768Y242914D01*
X196719D01*
X196194Y243439D01*
X258400Y246062D02*
Y242914D01*
X259974D01*
X260499Y243439D01*
Y245538D01*
X259974Y246062D01*
X258400D01*
X263647Y242914D02*
X261548D01*
X263647Y245013D01*
Y245538D01*
X263123Y246062D01*
X262073D01*
X261548Y245538D01*
X187927Y118767D02*
X187402Y118242D01*
Y117193D01*
X187927Y116668D01*
X190026D01*
X190551Y117193D01*
Y118242D01*
X190026Y118767D01*
X187927Y119817D02*
X187402Y120341D01*
Y121391D01*
X187927Y121916D01*
X188452D01*
X188976Y121391D01*
Y120866D01*
Y121391D01*
X189501Y121916D01*
X190026D01*
X190551Y121391D01*
Y120341D01*
X190026Y119817D01*
X190551Y125064D02*
Y122965D01*
X188452Y125064D01*
X187927D01*
X187402Y124539D01*
Y123490D01*
X187927Y122965D01*
X195013Y118767D02*
X194489Y118242D01*
Y117193D01*
X195013Y116668D01*
X197113D01*
X197637Y117193D01*
Y118242D01*
X197113Y118767D01*
X195013Y119817D02*
X194489Y120341D01*
Y121391D01*
X195013Y121916D01*
X195538D01*
X196063Y121391D01*
Y120866D01*
Y121391D01*
X196588Y121916D01*
X197113D01*
X197637Y121391D01*
Y120341D01*
X197113Y119817D01*
X197637Y122965D02*
Y124015D01*
Y123490D01*
X194489D01*
X195013Y122965D01*
X127822Y119553D02*
X127297Y120078D01*
X126248D01*
X125723Y119553D01*
Y117454D01*
X126248Y116930D01*
X127297D01*
X127822Y117454D01*
X128872Y119553D02*
X129396Y120078D01*
X130446D01*
X130971Y119553D01*
Y119029D01*
X130446Y118504D01*
X129921D01*
X130446D01*
X130971Y117979D01*
Y117454D01*
X130446Y116930D01*
X129396D01*
X128872Y117454D01*
X132020Y119553D02*
X132545Y120078D01*
X133595D01*
X134119Y119553D01*
Y117454D01*
X133595Y116930D01*
X132545D01*
X132020Y117454D01*
Y119553D01*
X26247Y22703D02*
X25723Y23228D01*
X24673D01*
X24148Y22703D01*
Y20604D01*
X24673Y20079D01*
X25723D01*
X26247Y20604D01*
X29396Y20079D02*
X27297D01*
X29396Y22178D01*
Y22703D01*
X28871Y23228D01*
X27822D01*
X27297Y22703D01*
X30446Y20604D02*
X30970Y20079D01*
X32020D01*
X32545Y20604D01*
Y22703D01*
X32020Y23228D01*
X30970D01*
X30446Y22703D01*
Y22178D01*
X30970Y21654D01*
X32545D01*
X26247Y16404D02*
X25723Y16929D01*
X24673D01*
X24148Y16404D01*
Y14305D01*
X24673Y13780D01*
X25723D01*
X26247Y14305D01*
X29396Y13780D02*
X27297D01*
X29396Y15879D01*
Y16404D01*
X28871Y16929D01*
X27822D01*
X27297Y16404D01*
X30446D02*
X30970Y16929D01*
X32020D01*
X32545Y16404D01*
Y15879D01*
X32020Y15354D01*
X32545Y14830D01*
Y14305D01*
X32020Y13780D01*
X30970D01*
X30446Y14305D01*
Y14830D01*
X30970Y15354D01*
X30446Y15879D01*
Y16404D01*
X30970Y15354D02*
X32020D01*
X26247Y10105D02*
X25723Y10629D01*
X24673D01*
X24148Y10105D01*
Y8006D01*
X24673Y7481D01*
X25723D01*
X26247Y8006D01*
X29396Y7481D02*
X27297D01*
X29396Y9580D01*
Y10105D01*
X28871Y10629D01*
X27822D01*
X27297Y10105D01*
X30446Y10629D02*
X32545D01*
Y10105D01*
X30446Y8006D01*
Y7481D01*
X52100Y139633D02*
X51575Y139109D01*
Y138059D01*
X52100Y137534D01*
X54199D01*
X54724Y138059D01*
Y139109D01*
X54199Y139633D01*
X54724Y142782D02*
Y140683D01*
X52625Y142782D01*
X52100D01*
X51575Y142257D01*
Y141208D01*
X52100Y140683D01*
X51575Y145930D02*
X52100Y144881D01*
X53150Y143831D01*
X54199D01*
X54724Y144356D01*
Y145406D01*
X54199Y145930D01*
X53674D01*
X53150Y145406D01*
Y143831D01*
X264305Y99476D02*
X263780Y98951D01*
Y97901D01*
X264305Y97377D01*
X266404D01*
X266929Y97901D01*
Y98951D01*
X266404Y99476D01*
X266929Y102624D02*
Y100525D01*
X264830Y102624D01*
X264305D01*
X263780Y102100D01*
Y101050D01*
X264305Y100525D01*
X263780Y105773D02*
Y103674D01*
X265354D01*
X264830Y104723D01*
Y105248D01*
X265354Y105773D01*
X266404D01*
X266929Y105248D01*
Y104199D01*
X266404Y103674D01*
X271391Y99476D02*
X270867Y98951D01*
Y97901D01*
X271391Y97377D01*
X273491D01*
X274015Y97901D01*
Y98951D01*
X273491Y99476D01*
X274015Y102624D02*
Y100525D01*
X271916Y102624D01*
X271391D01*
X270867Y102100D01*
Y101050D01*
X271391Y100525D01*
X274015Y105248D02*
X270867D01*
X272441Y103674D01*
Y105773D01*
X171917Y143569D02*
X171392Y144094D01*
X170342D01*
X169818Y143569D01*
Y141470D01*
X170342Y140945D01*
X171392D01*
X171917Y141470D01*
X175065Y140945D02*
X172966D01*
X175065Y143044D01*
Y143569D01*
X174540Y144094D01*
X173491D01*
X172966Y143569D01*
X178214Y140945D02*
X176115D01*
X178214Y143044D01*
Y143569D01*
X177689Y144094D01*
X176640D01*
X176115Y143569D01*
X260630Y176846D02*
X260106Y177370D01*
X259056D01*
X258531Y176846D01*
Y174747D01*
X259056Y174222D01*
X260106D01*
X260630Y174747D01*
X263779Y174222D02*
X261680D01*
X263779Y176321D01*
Y176846D01*
X263254Y177370D01*
X262205D01*
X261680Y176846D01*
X264828Y174222D02*
X265878D01*
X265353D01*
Y177370D01*
X264828Y176846D01*
X240027Y130971D02*
X239502Y131496D01*
X238453D01*
X237928Y130971D01*
Y128872D01*
X238453Y128347D01*
X239502D01*
X240027Y128872D01*
X243176Y128347D02*
X241076D01*
X243176Y130446D01*
Y130971D01*
X242651Y131496D01*
X241601D01*
X241076Y130971D01*
X244225D02*
X244750Y131496D01*
X245799D01*
X246324Y130971D01*
Y128872D01*
X245799Y128347D01*
X244750D01*
X244225Y128872D01*
Y130971D01*
X190289Y144226D02*
X189764Y143702D01*
Y142652D01*
X190289Y142127D01*
X192388D01*
X192913Y142652D01*
Y143702D01*
X192388Y144226D01*
X192913Y145276D02*
Y146325D01*
Y145801D01*
X189764D01*
X190289Y145276D01*
X192388Y147900D02*
X192913Y148424D01*
Y149474D01*
X192388Y149999D01*
X190289D01*
X189764Y149474D01*
Y148424D01*
X190289Y147900D01*
X190814D01*
X191339Y148424D01*
Y149999D01*
X201707Y188451D02*
X201182Y188976D01*
X200132D01*
X199608Y188451D01*
Y186352D01*
X200132Y185827D01*
X201182D01*
X201707Y186352D01*
X202756Y185827D02*
X203806D01*
X203281D01*
Y188976D01*
X202756Y188451D01*
X205380D02*
X205905Y188976D01*
X206954D01*
X207479Y188451D01*
Y187926D01*
X206954Y187402D01*
X207479Y186877D01*
Y186352D01*
X206954Y185827D01*
X205905D01*
X205380Y186352D01*
Y186877D01*
X205905Y187402D01*
X205380Y187926D01*
Y188451D01*
X205905Y187402D02*
X206954D01*
X191864Y196589D02*
X191339Y196064D01*
Y195014D01*
X191864Y194490D01*
X193963D01*
X194488Y195014D01*
Y196064D01*
X193963Y196589D01*
X194488Y197638D02*
Y198688D01*
Y198163D01*
X191339D01*
X191864Y197638D01*
X191339Y200262D02*
Y202361D01*
X191864D01*
X193963Y200262D01*
X194488D01*
X183990Y196589D02*
X183465Y196064D01*
Y195014D01*
X183990Y194490D01*
X186089D01*
X186614Y195014D01*
Y196064D01*
X186089Y196589D01*
X186614Y197638D02*
Y198688D01*
Y198163D01*
X183465D01*
X183990Y197638D01*
X183465Y202361D02*
X183990Y201311D01*
X185039Y200262D01*
X186089D01*
X186614Y200787D01*
Y201836D01*
X186089Y202361D01*
X185564D01*
X185039Y201836D01*
Y200262D01*
X175329Y180971D02*
X174804Y181496D01*
X173754D01*
X173230Y180971D01*
Y178872D01*
X173754Y178347D01*
X174804D01*
X175329Y178872D01*
X176378Y178347D02*
X177428D01*
X176903D01*
Y181496D01*
X176378Y180971D01*
X181101Y181496D02*
X179002D01*
Y179921D01*
X180052Y180446D01*
X180576D01*
X181101Y179921D01*
Y178872D01*
X180576Y178347D01*
X179527D01*
X179002Y178872D01*
X156431Y144750D02*
X155906Y145275D01*
X154857D01*
X154332Y144750D01*
Y142651D01*
X154857Y142127D01*
X155906D01*
X156431Y142651D01*
X157481Y142127D02*
X158530D01*
X158005D01*
Y145275D01*
X157481Y144750D01*
X161679Y142127D02*
Y145275D01*
X160104Y143701D01*
X162204D01*
X169029Y170998D02*
X168504Y170473D01*
Y169424D01*
X169029Y168899D01*
X171128D01*
X171653Y169424D01*
Y170473D01*
X171128Y170998D01*
X171653Y172047D02*
Y173097D01*
Y172572D01*
X168504D01*
X169029Y172047D01*
Y174671D02*
X168504Y175196D01*
Y176246D01*
X169029Y176770D01*
X169554D01*
X170079Y176246D01*
Y175721D01*
Y176246D01*
X170604Y176770D01*
X171128D01*
X171653Y176246D01*
Y175196D01*
X171128Y174671D01*
X135171Y161549D02*
X134646Y161024D01*
Y159975D01*
X135171Y159450D01*
X137270D01*
X137795Y159975D01*
Y161024D01*
X137270Y161549D01*
X137795Y162599D02*
Y163648D01*
Y163123D01*
X134646D01*
X135171Y162599D01*
X137795Y167322D02*
Y165223D01*
X135696Y167322D01*
X135171D01*
X134646Y166797D01*
Y165747D01*
X135171Y165223D01*
X128084Y162205D02*
X127560Y161680D01*
Y160631D01*
X128084Y160106D01*
X130183D01*
X130708Y160631D01*
Y161680D01*
X130183Y162205D01*
X130708Y163254D02*
Y164304D01*
Y163779D01*
X127560D01*
X128084Y163254D01*
X130708Y165878D02*
Y166928D01*
Y166403D01*
X127560D01*
X128084Y165878D01*
X261943Y51287D02*
X261418Y50762D01*
Y49712D01*
X261943Y49187D01*
X264042D01*
X264566Y49712D01*
Y50762D01*
X264042Y51287D01*
X264566Y52336D02*
Y53386D01*
Y52861D01*
X261418D01*
X261943Y52336D01*
Y54960D02*
X261418Y55485D01*
Y56534D01*
X261943Y57059D01*
X264042D01*
X264566Y56534D01*
Y55485D01*
X264042Y54960D01*
X261943D01*
X254074Y51287D02*
X253550Y50762D01*
Y49712D01*
X254074Y49187D01*
X256173D01*
X256698Y49712D01*
Y50762D01*
X256173Y51287D01*
Y52336D02*
X256698Y52861D01*
Y53910D01*
X256173Y54435D01*
X254074D01*
X253550Y53910D01*
Y52861D01*
X254074Y52336D01*
X254599D01*
X255124Y52861D01*
Y54435D01*
X246195Y51287D02*
X245670Y50762D01*
Y49712D01*
X246195Y49187D01*
X248294D01*
X248818Y49712D01*
Y50762D01*
X248294Y51287D01*
X246195Y52336D02*
X245670Y52861D01*
Y53910D01*
X246195Y54435D01*
X246719D01*
X247244Y53910D01*
X247769Y54435D01*
X248294D01*
X248818Y53910D01*
Y52861D01*
X248294Y52336D01*
X247769D01*
X247244Y52861D01*
X246719Y52336D01*
X246195D01*
X247244Y52861D02*
Y53910D01*
X82546Y181373D02*
X82021Y181898D01*
X80972D01*
X80447Y181373D01*
Y179274D01*
X80972Y178749D01*
X82021D01*
X82546Y179274D01*
X83596Y181898D02*
X85695D01*
Y181373D01*
X83596Y179274D01*
Y178749D01*
X101444Y129002D02*
X100919Y129527D01*
X99869D01*
X99345Y129002D01*
Y126903D01*
X99869Y126379D01*
X100919D01*
X101444Y126903D01*
X104592Y129527D02*
X103543Y129002D01*
X102493Y127953D01*
Y126903D01*
X103018Y126379D01*
X104068D01*
X104592Y126903D01*
Y127428D01*
X104068Y127953D01*
X102493D01*
X90289Y132546D02*
X89764Y132021D01*
Y130972D01*
X90289Y130447D01*
X92388D01*
X92913Y130972D01*
Y132021D01*
X92388Y132546D01*
X89764Y135695D02*
Y133596D01*
X91339D01*
X90814Y134645D01*
Y135170D01*
X91339Y135695D01*
X92388D01*
X92913Y135170D01*
Y134120D01*
X92388Y133596D01*
X83596Y132546D02*
X83071Y132021D01*
Y130972D01*
X83596Y130447D01*
X85695D01*
X86220Y130972D01*
Y132021D01*
X85695Y132546D01*
X86220Y135170D02*
X83071D01*
X84646Y133596D01*
Y135695D01*
X254987Y20341D02*
X254462Y20866D01*
X253413D01*
X252888Y20341D01*
Y18242D01*
X253413Y17717D01*
X254462D01*
X254987Y18242D01*
X256037Y20341D02*
X256561Y20866D01*
X257611D01*
X258136Y20341D01*
Y19816D01*
X257611Y19291D01*
X257086D01*
X257611D01*
X258136Y18767D01*
Y18242D01*
X257611Y17717D01*
X256561D01*
X256037Y18242D01*
X8924Y304593D02*
X8399Y305118D01*
X7350D01*
X6825Y304593D01*
Y302494D01*
X7350Y301969D01*
X8399D01*
X8924Y302494D01*
X12073Y301969D02*
X9974D01*
X12073Y304068D01*
Y304593D01*
X11548Y305118D01*
X10498D01*
X9974Y304593D01*
X8924Y262467D02*
X8399Y262992D01*
X7350D01*
X6825Y262467D01*
Y260368D01*
X7350Y259843D01*
X8399D01*
X8924Y260368D01*
X9974Y259843D02*
X11023D01*
X10498D01*
Y262992D01*
X9974Y262467D01*
X6825Y148425D02*
Y145276D01*
X8399D01*
X8924Y145801D01*
Y146326D01*
X8399Y146850D01*
X6825D01*
X8399D01*
X8924Y147375D01*
Y147900D01*
X8399Y148425D01*
X6825D01*
X9974D02*
X12073D01*
Y147900D01*
X9974Y145801D01*
Y145276D01*
X12073D01*
X13122D02*
X14172D01*
X13647D01*
Y148425D01*
X13122Y147900D01*
D20*
X268717Y175213D02*
Y179148D01*
X270684D01*
X271340Y178492D01*
Y177181D01*
X270684Y176524D01*
X268717D01*
X272652Y175213D02*
Y179148D01*
X274620D01*
X275276Y178492D01*
Y177181D01*
X274620Y176524D01*
X272652D01*
X273964D02*
X275276Y175213D01*
X278556Y179148D02*
X277244D01*
X276588Y178492D01*
Y175869D01*
X277244Y175213D01*
X278556D01*
X279212Y175869D01*
Y178492D01*
X278556Y179148D01*
X283148Y178492D02*
X282492Y179148D01*
X281180D01*
X280524Y178492D01*
Y175869D01*
X281180Y175213D01*
X282492D01*
X283148Y175869D01*
Y177181D01*
X281836D01*
X284459Y175213D02*
Y175869D01*
X285116D01*
Y175213D01*
X284459D01*
X33283Y367929D02*
Y371928D01*
X35283Y373927D01*
X37282Y371928D01*
Y367929D01*
Y370928D01*
X33283D01*
X43280Y372927D02*
X42281Y373927D01*
X40281D01*
X39281Y372927D01*
Y368929D01*
X40281Y367929D01*
X42281D01*
X43280Y368929D01*
X336039Y98637D02*
Y94701D01*
X338007D01*
X338663Y95357D01*
Y97981D01*
X338007Y98637D01*
X336039D01*
X347718Y112154D02*
X347062Y112810D01*
X345750D01*
X345094Y112154D01*
Y111498D01*
X345750Y110842D01*
X347062D01*
X347718Y110186D01*
Y109530D01*
X347062Y108874D01*
X345750D01*
X345094Y109530D01*
X333151Y121603D02*
X332495Y122259D01*
X331184D01*
X330528Y121603D01*
Y118979D01*
X331184Y118323D01*
X332495D01*
X333151Y118979D01*
Y120291D01*
X331839D01*
X190432Y70384D02*
X186433D01*
Y67385D01*
X188432Y68384D01*
X189432D01*
X190432Y67385D01*
Y65386D01*
X189432Y64386D01*
X187433D01*
X186433Y65386D01*
X192431Y70384D02*
Y66385D01*
X194430Y64386D01*
X196430Y66385D01*
Y70384D01*
X53032Y204937D02*
X55032D01*
X54032D01*
Y210935D01*
X53032Y209935D01*
X62029Y204937D02*
X58030D01*
X62029Y208936D01*
Y209935D01*
X61029Y210935D01*
X59030D01*
X58030Y209935D01*
X64029Y210935D02*
Y206936D01*
X66028Y204937D01*
X68027Y206936D01*
Y210935D01*
X146244Y187606D02*
X145244Y188605D01*
Y190604D01*
X144245Y191604D01*
X146244Y207684D02*
X145244Y208684D01*
Y210683D01*
X144245Y211683D01*
D21*
X191535Y62401D02*
Y59252D01*
X193110D01*
X193634Y59777D01*
Y61876D01*
X193110Y62401D01*
X191535D01*
X196783Y61876D02*
X196258Y62401D01*
X195209D01*
X194684Y61876D01*
Y59777D01*
X195209Y59252D01*
X196258D01*
X196783Y59777D01*
X63189Y202558D02*
Y199409D01*
X64763D01*
X65288Y199934D01*
Y202033D01*
X64763Y202558D01*
X63189D01*
X68437Y202033D02*
X67912Y202558D01*
X66862D01*
X66338Y202033D01*
Y199934D01*
X66862Y199409D01*
X67912D01*
X68437Y199934D01*
D22*
X5408Y32087D02*
Y99803D01*
X4921Y32087D02*
X5408D01*
X0Y31496D02*
Y99803D01*
X10827Y31890D02*
Y99803D01*
X11024D01*
X8071Y32087D02*
Y99606D01*
X8268D01*
X4921Y32087D02*
Y99803D01*
X5894D01*
X1772Y31693D02*
Y99803D01*
X1575D02*
X1772D01*
X-1969Y31496D02*
Y99803D01*
Y-1969D02*
Y31496D01*
X13583D01*
X-1969Y99803D02*
X13757D01*
X-1969D02*
Y380315D01*
X291732Y137205D02*
X382677D01*
Y-1969D02*
Y137205D01*
X-1969Y-1969D02*
X382677D01*
X-1969Y380315D02*
X291732D01*
Y137205D02*
Y380315D01*
X13583Y31496D02*
X13757Y31670D01*
Y99803D01*
X-1969Y-1969D02*
X-1575D01*
D23*
X291024Y126319D02*
Y136614D01*
Y103091D02*
Y114902D01*
Y79587D02*
Y91398D01*
Y56359D02*
Y68170D01*
Y33130D02*
Y44941D01*
Y-846D02*
Y21556D01*
X290984Y100217D02*
X291024Y100256D01*
X290984Y94233D02*
X291024Y94272D01*
X290945Y97343D02*
X290984Y97382D01*
X290945Y50611D02*
X290984Y50650D01*
Y47501D02*
X291024Y47540D01*
X290984Y53485D02*
X291024Y53524D01*
M02*
