G04*
G04 #@! TF.GenerationSoftware,Altium Limited,Altium Designer,20.0.13 (296)*
G04*
G04 Layer_Physical_Order=2*
G04 Layer_Color=32768*
%FSLAX25Y25*%
%MOIN*%
G70*
G01*
G75*
%ADD13C,0.00984*%
%ADD22C,0.03937*%
%ADD23C,0.02362*%
%ADD116C,0.03000*%
%ADD131C,0.04000*%
%ADD132R,0.07087X0.05512*%
%ADD133R,0.06299X0.04724*%
%ADD134R,1.11417X1.06693*%
%ADD135R,1.37795X1.64567*%
%ADD136R,0.64961X0.72047*%
%ADD137R,0.33858X1.16221*%
%ADD138C,0.09937*%
%ADD139O,0.10724X0.11906*%
%AMTHOVALD140*
21,1,0.07087,0.09724,0,0,180.0*
1,1,0.09724,0.03543,0.00000*
1,1,0.09724,-0.03543,0.00000*
21,0,0.07087,0.07724,0,0,180.0*
1,0,0.07724,0.03543,0.00000*
1,0,0.07724,-0.03543,0.00000*
4,0,4,0.03013,0.00530,0.06451,0.03968,0.07512,0.02908,0.04074,-0.00530,0.03013,0.00530,0.0*
4,0,4,-0.04074,0.00530,-0.07512,-0.02908,-0.06451,-0.03968,-0.03013,-0.00530,-0.04074,0.00530,0.0*
4,0,4,0.04074,0.00530,0.07512,-0.02908,0.06451,-0.03968,0.03013,-0.00530,0.04074,0.00530,0.0*
4,0,4,-0.03013,0.00530,-0.06451,0.03968,-0.07512,0.02908,-0.04074,-0.00530,-0.03013,0.00530,0.0*
%
%ADD140THOVALD140*%

%AMTHOVALD141*
21,1,0.07874,0.08937,0,0,90.0*
1,1,0.08937,0.00000,-0.03937*
1,1,0.08937,0.00000,0.03937*
21,0,0.07874,0.06937,0,0,90.0*
1,0,0.06937,0.00000,-0.03937*
1,0,0.06937,0.00000,0.03937*
4,0,4,0.00530,-0.03407,0.03690,-0.06566,0.02629,-0.07627,-0.00530,-0.04467,0.00530,-0.03407,0.0*
4,0,4,0.00530,0.04467,-0.02629,0.07627,-0.03690,0.06566,-0.00530,0.03407,0.00530,0.04467,0.0*
4,0,4,0.00530,-0.04467,-0.02629,-0.07627,-0.03690,-0.06566,-0.00530,-0.03407,0.00530,-0.04467,0.0*
4,0,4,0.00530,0.03407,0.03690,0.06566,0.02629,0.07627,-0.00530,0.04467,0.00530,0.03407,0.0*
%
%ADD141THOVALD141*%

%ADD142C,0.14268*%
%ADD143C,0.09150*%
%ADD144C,0.07969*%
G04:AMPARAMS|DCode=145|XSize=69.685mil|YSize=69.685mil|CornerRadius=0mil|HoleSize=0mil|Usage=FLASHONLY|Rotation=0.000|XOffset=0mil|YOffset=0mil|HoleType=Round|Shape=Relief|Width=15mil|Gap=10mil|Entries=4|*
%AMTHD145*
7,0,0,0.06969,0.04969,0.01500,45*
%
%ADD145THD145*%
G04:AMPARAMS|DCode=146|XSize=57.874mil|YSize=57.874mil|CornerRadius=0mil|HoleSize=0mil|Usage=FLASHONLY|Rotation=0.000|XOffset=0mil|YOffset=0mil|HoleType=Round|Shape=Relief|Width=15mil|Gap=10mil|Entries=4|*
%AMTHD146*
7,0,0,0.05787,0.03787,0.01500,45*
%
%ADD146THD146*%
%ADD147C,0.09543*%
%ADD148C,0.11118*%
%ADD149C,0.12890*%
G04:AMPARAMS|DCode=150|XSize=89.37mil|YSize=89.37mil|CornerRadius=0mil|HoleSize=0mil|Usage=FLASHONLY|Rotation=0.000|XOffset=0mil|YOffset=0mil|HoleType=Round|Shape=Relief|Width=15mil|Gap=10mil|Entries=4|*
%AMTHD150*
7,0,0,0.08937,0.06937,0.01500,45*
%
%ADD150THD150*%
%ADD151O,0.11906X0.10724*%
%AMTHOVALD152*
21,1,0.07087,0.09724,0,0,270.0*
1,1,0.09724,0.00000,0.03543*
1,1,0.09724,0.00000,-0.03543*
21,0,0.07087,0.07724,0,0,270.0*
1,0,0.07724,0.00000,0.03543*
1,0,0.07724,0.00000,-0.03543*
4,0,4,-0.00530,0.03013,-0.03968,0.06451,-0.02908,0.07512,0.00530,0.04074,-0.00530,0.03013,0.0*
4,0,4,-0.00530,-0.04074,0.02908,-0.07512,0.03968,-0.06451,0.00530,-0.03013,-0.00530,-0.04074,0.0*
4,0,4,-0.00530,0.04074,0.02908,0.07512,0.03968,0.06451,0.00530,0.03013,-0.00530,0.04074,0.0*
4,0,4,-0.00530,-0.03013,-0.03968,-0.06451,-0.02908,-0.07512,0.00530,-0.04074,-0.00530,-0.03013,0.0*
%
%ADD152THOVALD152*%

%AMTHOVALD153*
21,1,0.07874,0.08937,0,0,180.0*
1,1,0.08937,0.03937,0.00000*
1,1,0.08937,-0.03937,0.00000*
21,0,0.07874,0.06937,0,0,180.0*
1,0,0.06937,0.03937,0.00000*
1,0,0.06937,-0.03937,0.00000*
4,0,4,0.03407,0.00530,0.06566,0.03690,0.07627,0.02629,0.04467,-0.00530,0.03407,0.00530,0.0*
4,0,4,-0.04467,0.00530,-0.07627,-0.02629,-0.06566,-0.03690,-0.03407,-0.00530,-0.04467,0.00530,0.0*
4,0,4,0.04467,0.00530,0.07627,-0.02629,0.06566,-0.03690,0.03407,-0.00530,0.04467,0.00530,0.0*
4,0,4,-0.03407,0.00530,-0.06566,0.03690,-0.07627,0.02629,-0.04467,-0.00530,-0.03407,0.00530,0.0*
%
%ADD153THOVALD153*%

%ADD154C,0.07378*%
%ADD155C,0.07181*%
G04:AMPARAMS|DCode=156|XSize=63.779mil|YSize=63.779mil|CornerRadius=0mil|HoleSize=0mil|Usage=FLASHONLY|Rotation=0.000|XOffset=0mil|YOffset=0mil|HoleType=Round|Shape=Relief|Width=15mil|Gap=10mil|Entries=4|*
%AMTHD156*
7,0,0,0.06378,0.04378,0.01500,45*
%
%ADD156THD156*%
G04:AMPARAMS|DCode=157|XSize=61.811mil|YSize=61.811mil|CornerRadius=0mil|HoleSize=0mil|Usage=FLASHONLY|Rotation=0.000|XOffset=0mil|YOffset=0mil|HoleType=Round|Shape=Relief|Width=15mil|Gap=10mil|Entries=4|*
%AMTHD157*
7,0,0,0.06181,0.04181,0.01500,45*
%
%ADD157THD157*%
D13*
X290335Y123603D02*
Y123996D01*
Y121437D02*
Y121831D01*
Y119469D02*
Y119863D01*
Y117500D02*
Y117894D01*
Y117500D02*
Y117894D01*
Y119469D02*
Y119863D01*
Y121437D02*
Y121831D01*
Y123603D02*
Y123996D01*
X291713Y117500D02*
Y117894D01*
Y119469D02*
Y119863D01*
Y121437D02*
Y121831D01*
Y123603D02*
Y123996D01*
X290335Y70493D02*
Y70886D01*
Y72658D02*
Y73052D01*
Y74626D02*
Y75020D01*
Y76595D02*
Y76989D01*
X291713Y70493D02*
Y70886D01*
Y72658D02*
Y73052D01*
Y74626D02*
Y75020D01*
Y76595D02*
Y76989D01*
Y76595D02*
Y76989D01*
Y74626D02*
Y75020D01*
Y72658D02*
Y73052D01*
Y70493D02*
Y70886D01*
Y24036D02*
Y24430D01*
Y26201D02*
Y26595D01*
Y28170D02*
Y28563D01*
Y30138D02*
Y30532D01*
Y30138D02*
Y30532D01*
Y28170D02*
Y28563D01*
Y26201D02*
Y26595D01*
Y24036D02*
Y24430D01*
X290335Y30138D02*
Y30532D01*
Y28170D02*
Y28563D01*
Y26201D02*
Y26595D01*
Y24036D02*
Y24430D01*
D22*
X5408Y32087D02*
Y99803D01*
X4921Y32087D02*
X5408D01*
X0Y31496D02*
Y99803D01*
X10827Y31890D02*
Y99803D01*
X11024D01*
X8071Y32087D02*
Y99606D01*
X8268D01*
X4921Y32087D02*
Y99803D01*
X5894D01*
X1772Y31693D02*
Y99803D01*
X1575D02*
X1772D01*
X-1969Y31496D02*
Y99803D01*
Y-1969D02*
Y31496D01*
X13583D01*
X-1969Y99803D02*
X13757D01*
X-1969D02*
Y380315D01*
X291732Y137205D02*
X382677D01*
Y-1969D02*
Y137205D01*
X-1969Y-1969D02*
X382677D01*
X-1969Y380315D02*
X291732D01*
Y137205D02*
Y380315D01*
X13583Y31496D02*
X13757Y31670D01*
Y99803D01*
X-1969Y-1969D02*
X-1575D01*
D23*
X291024Y126319D02*
Y136614D01*
Y103091D02*
Y114902D01*
Y79587D02*
Y91398D01*
Y56359D02*
Y68170D01*
Y33130D02*
Y44941D01*
Y-846D02*
Y21556D01*
X290984Y100217D02*
X291024Y100256D01*
X290984Y94233D02*
X291024Y94272D01*
X290945Y97343D02*
X290984Y97382D01*
X290945Y50611D02*
X290984Y50650D01*
Y47501D02*
X291024Y47540D01*
X290984Y53485D02*
X291024Y53524D01*
D116*
X288189Y1969D02*
Y378773D01*
X285827Y378740D02*
X285827Y-394D01*
D131*
X0Y0D02*
X380761D01*
Y135285D01*
X289830D02*
X380761D01*
X289830D02*
Y378338D01*
X0D02*
X289830D01*
X0Y0D02*
Y378338D01*
D132*
X301575Y39370D02*
D03*
D133*
X279016Y39843D02*
D03*
D134*
X234449Y323425D02*
D03*
D135*
X114567Y296457D02*
D03*
D136*
X32480Y341142D02*
D03*
D137*
X16929Y83307D02*
D03*
D138*
X76378Y351969D02*
D03*
X174803D02*
D03*
X95276Y235039D02*
D03*
X134646D02*
D03*
X75590Y313779D02*
D03*
X154331D02*
D03*
X34252Y283062D02*
D03*
Y240543D02*
D03*
X146203Y102108D02*
D03*
D139*
X56004Y185433D02*
D03*
D140*
X43799Y162205D02*
D03*
D141*
X31201Y181102D02*
D03*
D142*
X13484D02*
D03*
X166929Y14952D02*
D03*
D143*
X301575Y15739D02*
D03*
Y21645D02*
D03*
Y27550D02*
D03*
Y33456D02*
D03*
Y39361D02*
D03*
Y45267D02*
D03*
X24016Y134646D02*
D03*
Y114961D02*
D03*
X279134Y45661D02*
D03*
Y39755D02*
D03*
Y33849D02*
D03*
Y27944D02*
D03*
Y22039D02*
D03*
Y16133D02*
D03*
D144*
X342106Y100220D02*
D03*
Y114362D02*
D03*
D145*
X327973Y114741D02*
D03*
D146*
X62244Y57078D02*
D03*
Y62590D02*
D03*
X64961Y59834D02*
D03*
X67756Y57078D02*
D03*
Y62590D02*
D03*
X73268Y57078D02*
D03*
Y62590D02*
D03*
X64961Y54322D02*
D03*
Y65346D02*
D03*
X70472Y54322D02*
D03*
Y59834D02*
D03*
Y65346D02*
D03*
D147*
X109724Y7421D02*
D03*
X97913D02*
D03*
D148*
X238139Y323416D02*
D03*
X268139Y333417D02*
D03*
Y303416D02*
D03*
X238139Y263417D02*
D03*
X268139D02*
D03*
X189244Y323416D02*
D03*
X219244Y333417D02*
D03*
Y303416D02*
D03*
X189244Y263417D02*
D03*
X219244D02*
D03*
D149*
X244639Y356291D02*
D03*
X264639D02*
D03*
X195744D02*
D03*
X215744D02*
D03*
X23622Y332520D02*
D03*
Y352520D02*
D03*
D150*
X14567Y283062D02*
D03*
Y240543D02*
D03*
X132283Y88189D02*
D03*
D151*
X162598Y57472D02*
D03*
D152*
X185827Y45267D02*
D03*
D153*
X166929Y32668D02*
D03*
D154*
X299921Y59095D02*
D03*
X281496Y90158D02*
D03*
X264173Y150394D02*
D03*
X241732Y175197D02*
D03*
X255118Y51181D02*
D03*
X247244D02*
D03*
X165354Y168504D02*
D03*
X168898Y178740D02*
D03*
Y173228D02*
D03*
X161811Y163386D02*
D03*
Y157480D02*
D03*
X46850Y131496D02*
D03*
X199300Y128400D02*
D03*
X206693Y132677D02*
D03*
X81102Y131496D02*
D03*
X84646D02*
D03*
X88189D02*
D03*
X91732D02*
D03*
X52520Y108661D02*
D03*
X57520D02*
D03*
X190157Y79921D02*
D03*
X201960Y79518D02*
D03*
Y97629D02*
D03*
X224872Y183858D02*
D03*
X70472Y123228D02*
D03*
X73622Y169291D02*
D03*
X66142D02*
D03*
X58661D02*
D03*
X190551Y144882D02*
D03*
X182677Y77165D02*
D03*
X240826Y105433D02*
D03*
X248819Y105512D02*
D03*
X238976Y114567D02*
D03*
X231890Y105512D02*
D03*
X247244Y141339D02*
D03*
X239370Y124016D02*
D03*
X53150Y10236D02*
D03*
X46850Y9449D02*
D03*
Y13780D02*
D03*
X223947Y187795D02*
D03*
X217717Y91339D02*
D03*
X213779Y85827D02*
D03*
X263779Y188189D02*
D03*
X262598Y51181D02*
D03*
X183858Y102362D02*
D03*
Y105905D02*
D03*
X250984Y18898D02*
D03*
X130315Y117323D02*
D03*
X124409Y121260D02*
D03*
X124803Y114961D02*
D03*
X51968Y196850D02*
D03*
X57087D02*
D03*
X61811D02*
D03*
D155*
X222441Y62807D02*
D03*
Y60138D02*
D03*
X270472Y162598D02*
D03*
Y159843D02*
D03*
X229134Y30315D02*
D03*
X213779Y187008D02*
D03*
X213386Y78347D02*
D03*
D156*
X253937Y169685D02*
D03*
X235827Y72441D02*
D03*
X265748Y60630D02*
D03*
X276378Y71260D02*
D03*
X239370Y47244D02*
D03*
Y39370D02*
D03*
X265354Y16142D02*
D03*
X255512Y9449D02*
D03*
X318504Y34646D02*
D03*
X324803D02*
D03*
X311614Y7087D02*
D03*
X198425Y227165D02*
D03*
X207480Y235827D02*
D03*
X197638Y120079D02*
D03*
X152006Y165642D02*
D03*
X118148Y72404D02*
D03*
X50787Y153150D02*
D03*
X178347Y168110D02*
D03*
X147638Y124803D02*
D03*
X151537Y144776D02*
D03*
X139370Y184646D02*
D03*
X170866Y127165D02*
D03*
X111811Y181102D02*
D03*
X100787D02*
D03*
X75590Y155118D02*
D03*
X91732Y153150D02*
D03*
X83858D02*
D03*
X74803Y112598D02*
D03*
X45276Y119685D02*
D03*
X181890Y120079D02*
D03*
X200394Y176378D02*
D03*
X192913D02*
D03*
X228740Y151969D02*
D03*
X216535D02*
D03*
X228740Y165354D02*
D03*
X216929D02*
D03*
X191732Y137402D02*
D03*
X253543Y134646D02*
D03*
X270079Y208268D02*
D03*
Y228346D02*
D03*
X214567Y205512D02*
D03*
X203150Y200000D02*
D03*
X219897Y216535D02*
D03*
X190945Y200000D02*
D03*
X206693Y213386D02*
D03*
X219685Y226772D02*
D03*
X228740Y233858D02*
D03*
Y263386D02*
D03*
X37402Y38189D02*
D03*
X29921Y22441D02*
D03*
Y15748D02*
D03*
Y9055D02*
D03*
X68110Y23819D02*
D03*
D157*
X229134Y49213D02*
D03*
M02*
