G04*
G04 #@! TF.GenerationSoftware,Altium Limited,Altium Designer,20.0.13 (296)*
G04*
G04 Layer_Color=2752767*
%FSLAX25Y25*%
%MOIN*%
G70*
G01*
G75*
%ADD13C,0.00984*%
%ADD22C,0.03937*%
%ADD23C,0.02362*%
%ADD180C,0.00200*%
%ADD181C,0.00267*%
%ADD182C,0.00133*%
D13*
X290335Y123603D02*
Y123996D01*
Y121437D02*
Y121831D01*
Y119469D02*
Y119863D01*
Y117500D02*
Y117894D01*
Y117500D02*
Y117894D01*
Y119469D02*
Y119863D01*
Y121437D02*
Y121831D01*
Y123603D02*
Y123996D01*
X291713Y117500D02*
Y117894D01*
Y119469D02*
Y119863D01*
Y121437D02*
Y121831D01*
Y123603D02*
Y123996D01*
X290335Y70493D02*
Y70886D01*
Y72658D02*
Y73052D01*
Y74626D02*
Y75020D01*
Y76595D02*
Y76989D01*
X291713Y70493D02*
Y70886D01*
Y72658D02*
Y73052D01*
Y74626D02*
Y75020D01*
Y76595D02*
Y76989D01*
Y76595D02*
Y76989D01*
Y74626D02*
Y75020D01*
Y72658D02*
Y73052D01*
Y70493D02*
Y70886D01*
Y24036D02*
Y24430D01*
Y26201D02*
Y26595D01*
Y28170D02*
Y28563D01*
Y30138D02*
Y30532D01*
Y30138D02*
Y30532D01*
Y28170D02*
Y28563D01*
Y26201D02*
Y26595D01*
Y24036D02*
Y24430D01*
X290335Y30138D02*
Y30532D01*
Y28170D02*
Y28563D01*
Y26201D02*
Y26595D01*
Y24036D02*
Y24430D01*
D22*
X5408Y32087D02*
Y99803D01*
X4921Y32087D02*
X5408D01*
X0Y31496D02*
Y99803D01*
X10827Y31890D02*
Y99803D01*
X11024D01*
X8071Y32087D02*
Y99606D01*
X8268D01*
X4921Y32087D02*
Y99803D01*
X5894D01*
X1772Y31693D02*
Y99803D01*
X1575D02*
X1772D01*
X-1969Y31496D02*
Y99803D01*
Y-1969D02*
Y31496D01*
X13583D01*
X-1969Y99803D02*
X13757D01*
X-1969D02*
Y380315D01*
X291732Y137205D02*
X382677D01*
Y-1969D02*
Y137205D01*
X-1969Y-1969D02*
X382677D01*
X-1969Y380315D02*
X291732D01*
Y137205D02*
Y380315D01*
X13583Y31496D02*
X13757Y31670D01*
Y99803D01*
X-1969Y-1969D02*
X-1575D01*
D23*
X291024Y126319D02*
Y136614D01*
Y103091D02*
Y114902D01*
Y79587D02*
Y91398D01*
Y56359D02*
Y68170D01*
Y33130D02*
Y44941D01*
Y-846D02*
Y21556D01*
X290984Y100217D02*
X291024Y100256D01*
X290984Y94233D02*
X291024Y94272D01*
X290945Y97343D02*
X290984Y97382D01*
X290945Y50611D02*
X290984Y50650D01*
Y47501D02*
X291024Y47540D01*
X290984Y53485D02*
X291024Y53524D01*
D180*
X75578Y351168D02*
Y352768D01*
X77178D01*
Y351168D01*
X75578D01*
X174003D02*
Y352768D01*
X175603D01*
Y351168D01*
X174003D01*
X43799Y161405D02*
X42999Y163005D01*
X44599D01*
X43799Y161405D01*
X31201Y180302D02*
X31601Y180702D01*
X32001D01*
X31601Y181102D01*
X32001Y181502D01*
X31601D01*
X31201Y181902D01*
X30801Y181502D01*
X30401D01*
X30801Y181102D01*
X30401Y180702D01*
X30801D01*
X31201Y180302D01*
X12684D02*
X13084Y181102D01*
X12684Y181902D01*
X13484Y181502D01*
X14284Y181902D01*
X13884Y181102D01*
X14284Y180302D01*
X13484Y180702D01*
X12684Y180302D01*
X301175Y15339D02*
Y14939D01*
X301975D01*
Y15339D01*
X302375D01*
Y16139D01*
X301975D01*
Y16539D01*
X301175D01*
Y16139D01*
X300775D01*
Y15339D01*
X301175D01*
Y21245D02*
Y20845D01*
X301975D01*
Y21245D01*
X302375D01*
Y22045D01*
X301975D01*
Y22445D01*
X301175D01*
Y22045D01*
X300775D01*
Y21245D01*
X301175D01*
Y27150D02*
Y26750D01*
X301975D01*
Y27150D01*
X302375D01*
Y27950D01*
X301975D01*
Y28350D01*
X301175D01*
Y27950D01*
X300775D01*
Y27150D01*
X301175D01*
Y33056D02*
Y32656D01*
X301975D01*
Y33056D01*
X302375D01*
Y33856D01*
X301975D01*
Y34256D01*
X301175D01*
Y33856D01*
X300775D01*
Y33056D01*
X301175D01*
Y38961D02*
Y38561D01*
X301975D01*
Y38961D01*
X302375D01*
Y39761D01*
X301975D01*
Y40161D01*
X301175D01*
Y39761D01*
X300775D01*
Y38961D01*
X301175D01*
Y44867D02*
Y44467D01*
X301975D01*
Y44867D01*
X302375D01*
Y45667D01*
X301975D01*
Y46067D01*
X301175D01*
Y45667D01*
X300775D01*
Y44867D01*
X301175D01*
X341305Y99420D02*
X341705D01*
X342106Y99820D01*
X342506Y99420D01*
X342905D01*
Y99820D01*
X342506Y100220D01*
X342905Y100620D01*
Y101020D01*
X342506D01*
X342106Y100620D01*
X341705Y101020D01*
X341305D01*
Y100620D01*
X341705Y100220D01*
X341305Y99820D01*
Y99420D01*
Y113562D02*
X341705D01*
X342106Y113962D01*
X342506Y113562D01*
X342905D01*
Y113962D01*
X342506Y114362D01*
X342905Y114762D01*
Y115162D01*
X342506D01*
X342106Y114762D01*
X341705Y115162D01*
X341305D01*
Y114762D01*
X341705Y114362D01*
X341305Y113962D01*
Y113562D01*
X327173Y113941D02*
X327573D01*
X327973Y114340D01*
X328373Y113941D01*
X328773D01*
Y114340D01*
X328373Y114741D01*
X328773Y115140D01*
Y115541D01*
X328373D01*
X327973Y115140D01*
X327573Y115541D01*
X327173D01*
Y115140D01*
X327573Y114741D01*
X327173Y114340D01*
Y113941D01*
X23616Y134246D02*
Y133846D01*
X24416D01*
Y134246D01*
X24816D01*
Y135046D01*
X24416D01*
Y135446D01*
X23616D01*
Y135046D01*
X23216D01*
Y134246D01*
X23616D01*
Y114561D02*
Y114161D01*
X24416D01*
Y114561D01*
X24816D01*
Y115361D01*
X24416D01*
Y115761D01*
X23616D01*
Y115361D01*
X23216D01*
Y114561D01*
X23616D01*
X61444Y57078D02*
X62244Y57878D01*
X63044Y57078D01*
X62244Y56278D01*
X61444Y57078D01*
Y62590D02*
X62244Y63390D01*
X63044Y62590D01*
X62244Y61790D01*
X61444Y62590D01*
X64161Y59834D02*
X64961Y60634D01*
X65761Y59834D01*
X64961Y59034D01*
X64161Y59834D01*
X66956Y57078D02*
X67756Y57878D01*
X68556Y57078D01*
X67756Y56278D01*
X66956Y57078D01*
Y62590D02*
X67756Y63390D01*
X68556Y62590D01*
X67756Y61790D01*
X66956Y62590D01*
X72468Y57078D02*
X73268Y57878D01*
X74068Y57078D01*
X73268Y56278D01*
X72468Y57078D01*
Y62590D02*
X73268Y63390D01*
X74068Y62590D01*
X73268Y61790D01*
X72468Y62590D01*
X64161Y54322D02*
X64961Y55122D01*
X65761Y54322D01*
X64961Y53522D01*
X64161Y54322D01*
Y65346D02*
X64961Y66146D01*
X65761Y65346D01*
X64961Y64546D01*
X64161Y65346D01*
X69672Y54322D02*
X70472Y55122D01*
X71272Y54322D01*
X70472Y53522D01*
X69672Y54322D01*
Y59834D02*
X70472Y60634D01*
X71272Y59834D01*
X70472Y59034D01*
X69672Y59834D01*
Y65346D02*
X70472Y66146D01*
X71272Y65346D01*
X70472Y64546D01*
X69672Y65346D01*
X108924Y6621D02*
Y8221D01*
X110524D01*
Y6621D01*
X108924D01*
X109324Y7021D02*
Y7821D01*
X110124D01*
Y7021D01*
X109324D01*
X97113Y6621D02*
Y8221D01*
X98713D01*
Y6621D01*
X97113D01*
X97513Y7021D02*
Y7821D01*
X98313D01*
Y7021D01*
X97513D01*
X244639Y355490D02*
X243839Y357090D01*
X245439D01*
X244639Y355490D01*
Y355890D02*
X244239Y356691D01*
X245039D01*
X244639Y355890D01*
X264639Y355490D02*
X263839Y357090D01*
X265439D01*
X264639Y355490D01*
Y355890D02*
X264239Y356691D01*
X265039D01*
X264639Y355890D01*
X195744Y355490D02*
X194944Y357090D01*
X196544D01*
X195744Y355490D01*
Y355890D02*
X195344Y356691D01*
X196144D01*
X195744Y355890D01*
X215744Y355490D02*
X214944Y357090D01*
X216544D01*
X215744Y355490D01*
Y355890D02*
X215344Y356691D01*
X216144D01*
X215744Y355890D01*
X94476Y234239D02*
Y235839D01*
X96076D01*
Y234239D01*
X94476D01*
X133846D02*
Y235839D01*
X135446D01*
Y234239D01*
X133846D01*
X74791Y312980D02*
Y314580D01*
X76390D01*
Y312980D01*
X74791D01*
X153531D02*
Y314580D01*
X155131D01*
Y312980D01*
X153531D01*
X23622Y331720D02*
X22822Y333320D01*
X24422D01*
X23622Y331720D01*
Y332120D02*
X23222Y332920D01*
X24022D01*
X23622Y332120D01*
Y351720D02*
X22822Y353320D01*
X24422D01*
X23622Y351720D01*
Y352120D02*
X23222Y352920D01*
X24022D01*
X23622Y352120D01*
X33452Y282262D02*
Y283862D01*
X35052D01*
Y282262D01*
X33452D01*
X13767D02*
Y283862D01*
X15367D01*
Y282262D01*
X13767D01*
X33452Y239742D02*
Y241342D01*
X35052D01*
Y239742D01*
X33452D01*
X13767D02*
Y241342D01*
X15367D01*
Y239742D01*
X13767D01*
X278734Y45261D02*
Y44861D01*
X279534D01*
Y45261D01*
X279934D01*
Y46061D01*
X279534D01*
Y46461D01*
X278734D01*
Y46061D01*
X278334D01*
Y45261D01*
X278734D01*
Y39355D02*
Y38955D01*
X279534D01*
Y39355D01*
X279934D01*
Y40155D01*
X279534D01*
Y40555D01*
X278734D01*
Y40155D01*
X278334D01*
Y39355D01*
X278734D01*
Y33450D02*
Y33049D01*
X279534D01*
Y33450D01*
X279934D01*
Y34249D01*
X279534D01*
Y34650D01*
X278734D01*
Y34249D01*
X278334D01*
Y33450D01*
X278734D01*
Y27544D02*
Y27144D01*
X279534D01*
Y27544D01*
X279934D01*
Y28344D01*
X279534D01*
Y28744D01*
X278734D01*
Y28344D01*
X278334D01*
Y27544D01*
X278734D01*
Y21639D02*
Y21238D01*
X279534D01*
Y21639D01*
X279934D01*
Y22438D01*
X279534D01*
Y22839D01*
X278734D01*
Y22438D01*
X278334D01*
Y21639D01*
X278734D01*
Y15733D02*
Y15333D01*
X279534D01*
Y15733D01*
X279934D01*
Y16533D01*
X279534D01*
Y16933D01*
X278734D01*
Y16533D01*
X278334D01*
Y15733D01*
X278734D01*
X185827Y44467D02*
X185027Y46067D01*
X186627D01*
X185827Y44467D01*
X166929Y31868D02*
X167329Y32268D01*
X167729D01*
X167329Y32668D01*
X167729Y33068D01*
X167329D01*
X166929Y33468D01*
X166529Y33068D01*
X166129D01*
X166529Y32668D01*
X166129Y32268D01*
X166529D01*
X166929Y31868D01*
X166129Y14152D02*
X166529Y14952D01*
X166129Y15752D01*
X166929Y15352D01*
X167729Y15752D01*
X167329Y14952D01*
X167729Y14152D01*
X166929Y14552D01*
X166129Y14152D01*
X145403Y101308D02*
Y102908D01*
X147003D01*
Y101308D01*
X145403D01*
X131483Y87389D02*
Y88989D01*
X133083D01*
Y87389D01*
X131483D01*
X299921Y58294D02*
X300321Y58694D01*
X300721D01*
X300321Y59095D01*
X300721Y59495D01*
X300321D01*
X299921Y59895D01*
X299521Y59495D01*
X299121D01*
X299521Y59095D01*
X299121Y58694D01*
X299521D01*
X299921Y58294D01*
Y58694D02*
X300121Y58894D01*
X300321D01*
X300121Y59095D01*
X300321Y59294D01*
X300121D01*
X299921Y59495D01*
X299721Y59294D01*
X299521D01*
X299721Y59095D01*
X299521Y58894D01*
X299721D01*
X299921Y58694D01*
X221641Y62007D02*
X222041Y62807D01*
X221641Y63607D01*
X222441Y63207D01*
X223241Y63607D01*
X222841Y62807D01*
X223241Y62007D01*
X222441Y62407D01*
X221641Y62007D01*
X222041Y62407D02*
X222241Y62807D01*
X222041Y63207D01*
X222441Y63007D01*
X222841Y63207D01*
X222641Y62807D01*
X222841Y62407D01*
X222441Y62607D01*
X222041Y62407D01*
X221641Y59338D02*
X222041Y60138D01*
X221641Y60938D01*
X222441Y60538D01*
X223241Y60938D01*
X222841Y60138D01*
X223241Y59338D01*
X222441Y59738D01*
X221641Y59338D01*
X222041Y59738D02*
X222241Y60138D01*
X222041Y60538D01*
X222441Y60338D01*
X222841Y60538D01*
X222641Y60138D01*
X222841Y59738D01*
X222441Y59938D01*
X222041Y59738D01*
X281496Y89358D02*
X281896Y89758D01*
X282296D01*
X281896Y90158D01*
X282296Y90557D01*
X281896D01*
X281496Y90957D01*
X281096Y90557D01*
X280696D01*
X281096Y90158D01*
X280696Y89758D01*
X281096D01*
X281496Y89358D01*
Y89758D02*
X281696Y89957D01*
X281896D01*
X281696Y90158D01*
X281896Y90358D01*
X281696D01*
X281496Y90557D01*
X281296Y90358D01*
X281096D01*
X281296Y90158D01*
X281096Y89957D01*
X281296D01*
X281496Y89758D01*
X264173Y149594D02*
X264573Y149994D01*
X264973D01*
X264573Y150394D01*
X264973Y150794D01*
X264573D01*
X264173Y151194D01*
X263773Y150794D01*
X263373D01*
X263773Y150394D01*
X263373Y149994D01*
X263773D01*
X264173Y149594D01*
Y149994D02*
X264373Y150194D01*
X264573D01*
X264373Y150394D01*
X264573Y150594D01*
X264373D01*
X264173Y150794D01*
X263973Y150594D01*
X263773D01*
X263973Y150394D01*
X263773Y150194D01*
X263973D01*
X264173Y149994D01*
X253937Y168885D02*
X254337Y169285D01*
X254737D01*
X254337Y169685D01*
X254737Y170085D01*
X254337D01*
X253937Y170485D01*
X253537Y170085D01*
X253137D01*
X253537Y169685D01*
X253137Y169285D01*
X253537D01*
X253937Y168885D01*
Y169285D02*
X254137Y169485D01*
X254337D01*
X254137Y169685D01*
X254337Y169885D01*
X254137D01*
X253937Y170085D01*
X253737Y169885D01*
X253537D01*
X253737Y169685D01*
X253537Y169485D01*
X253737D01*
X253937Y169285D01*
X241732Y174397D02*
X242132Y174797D01*
X242532D01*
X242132Y175197D01*
X242532Y175597D01*
X242132D01*
X241732Y175997D01*
X241332Y175597D01*
X240932D01*
X241332Y175197D01*
X240932Y174797D01*
X241332D01*
X241732Y174397D01*
Y174797D02*
X241932Y174997D01*
X242132D01*
X241932Y175197D01*
X242132Y175397D01*
X241932D01*
X241732Y175597D01*
X241532Y175397D01*
X241332D01*
X241532Y175197D01*
X241332Y174997D01*
X241532D01*
X241732Y174797D01*
X269672Y161798D02*
X270072Y162598D01*
X269672Y163398D01*
X270472Y162998D01*
X271272Y163398D01*
X270872Y162598D01*
X271272Y161798D01*
X270472Y162198D01*
X269672Y161798D01*
X270072Y162198D02*
X270272Y162598D01*
X270072Y162998D01*
X270472Y162798D01*
X270872Y162998D01*
X270672Y162598D01*
X270872Y162198D01*
X270472Y162398D01*
X270072Y162198D01*
X269672Y159043D02*
X270072Y159843D01*
X269672Y160643D01*
X270472Y160242D01*
X271272Y160643D01*
X270872Y159843D01*
X271272Y159043D01*
X270472Y159442D01*
X269672Y159043D01*
X270072Y159442D02*
X270272Y159843D01*
X270072Y160242D01*
X270472Y160043D01*
X270872Y160242D01*
X270672Y159843D01*
X270872Y159442D01*
X270472Y159643D01*
X270072Y159442D01*
X235827Y71641D02*
X236227Y72041D01*
X236627D01*
X236227Y72441D01*
X236627Y72841D01*
X236227D01*
X235827Y73241D01*
X235427Y72841D01*
X235027D01*
X235427Y72441D01*
X235027Y72041D01*
X235427D01*
X235827Y71641D01*
Y72041D02*
X236027Y72241D01*
X236227D01*
X236027Y72441D01*
X236227Y72641D01*
X236027D01*
X235827Y72841D01*
X235627Y72641D01*
X235427D01*
X235627Y72441D01*
X235427Y72241D01*
X235627D01*
X235827Y72041D01*
X265748Y59830D02*
X266148Y60230D01*
X266548D01*
X266148Y60630D01*
X266548Y61030D01*
X266148D01*
X265748Y61430D01*
X265348Y61030D01*
X264948D01*
X265348Y60630D01*
X264948Y60230D01*
X265348D01*
X265748Y59830D01*
Y60230D02*
X265948Y60430D01*
X266148D01*
X265948Y60630D01*
X266148Y60830D01*
X265948D01*
X265748Y61030D01*
X265548Y60830D01*
X265348D01*
X265548Y60630D01*
X265348Y60430D01*
X265548D01*
X265748Y60230D01*
X276378Y70460D02*
X276778Y70860D01*
X277178D01*
X276778Y71260D01*
X277178Y71660D01*
X276778D01*
X276378Y72060D01*
X275978Y71660D01*
X275578D01*
X275978Y71260D01*
X275578Y70860D01*
X275978D01*
X276378Y70460D01*
Y70860D02*
X276578Y71060D01*
X276778D01*
X276578Y71260D01*
X276778Y71460D01*
X276578D01*
X276378Y71660D01*
X276178Y71460D01*
X275978D01*
X276178Y71260D01*
X275978Y71060D01*
X276178D01*
X276378Y70860D01*
X239370Y46444D02*
X239770Y46844D01*
X240170D01*
X239770Y47244D01*
X240170Y47644D01*
X239770D01*
X239370Y48044D01*
X238970Y47644D01*
X238570D01*
X238970Y47244D01*
X238570Y46844D01*
X238970D01*
X239370Y46444D01*
Y46844D02*
X239570Y47044D01*
X239770D01*
X239570Y47244D01*
X239770Y47444D01*
X239570D01*
X239370Y47644D01*
X239170Y47444D01*
X238970D01*
X239170Y47244D01*
X238970Y47044D01*
X239170D01*
X239370Y46844D01*
Y38570D02*
X239770Y38970D01*
X240170D01*
X239770Y39370D01*
X240170Y39770D01*
X239770D01*
X239370Y40170D01*
X238970Y39770D01*
X238570D01*
X238970Y39370D01*
X238570Y38970D01*
X238970D01*
X239370Y38570D01*
Y38970D02*
X239570Y39170D01*
X239770D01*
X239570Y39370D01*
X239770Y39570D01*
X239570D01*
X239370Y39770D01*
X239170Y39570D01*
X238970D01*
X239170Y39370D01*
X238970Y39170D01*
X239170D01*
X239370Y38970D01*
X255118Y50381D02*
X255518Y50781D01*
X255918D01*
X255518Y51181D01*
X255918Y51581D01*
X255518D01*
X255118Y51981D01*
X254718Y51581D01*
X254318D01*
X254718Y51181D01*
X254318Y50781D01*
X254718D01*
X255118Y50381D01*
Y50781D02*
X255318Y50981D01*
X255518D01*
X255318Y51181D01*
X255518Y51381D01*
X255318D01*
X255118Y51581D01*
X254918Y51381D01*
X254718D01*
X254918Y51181D01*
X254718Y50981D01*
X254918D01*
X255118Y50781D01*
X247244Y50381D02*
X247644Y50781D01*
X248044D01*
X247644Y51181D01*
X248044Y51581D01*
X247644D01*
X247244Y51981D01*
X246844Y51581D01*
X246444D01*
X246844Y51181D01*
X246444Y50781D01*
X246844D01*
X247244Y50381D01*
Y50781D02*
X247444Y50981D01*
X247644D01*
X247444Y51181D01*
X247644Y51381D01*
X247444D01*
X247244Y51581D01*
X247044Y51381D01*
X246844D01*
X247044Y51181D01*
X246844Y50981D01*
X247044D01*
X247244Y50781D01*
X228334Y48413D02*
X228734Y49213D01*
X228334Y50013D01*
X229134Y49613D01*
X229934Y50013D01*
X229534Y49213D01*
X229934Y48413D01*
X229134Y48813D01*
X228334Y48413D01*
X228734Y48813D02*
X228934Y49213D01*
X228734Y49613D01*
X229134Y49413D01*
X229534Y49613D01*
X229334Y49213D01*
X229534Y48813D01*
X229134Y49013D01*
X228734Y48813D01*
X228334Y29515D02*
X228734Y30315D01*
X228334Y31115D01*
X229134Y30715D01*
X229934Y31115D01*
X229534Y30315D01*
X229934Y29515D01*
X229134Y29915D01*
X228334Y29515D01*
X228734Y29915D02*
X228934Y30315D01*
X228734Y30715D01*
X229134Y30515D01*
X229534Y30715D01*
X229334Y30315D01*
X229534Y29915D01*
X229134Y30115D01*
X228734Y29915D01*
X265354Y15342D02*
X265754Y15742D01*
X266154D01*
X265754Y16142D01*
X266154Y16542D01*
X265754D01*
X265354Y16942D01*
X264954Y16542D01*
X264554D01*
X264954Y16142D01*
X264554Y15742D01*
X264954D01*
X265354Y15342D01*
Y15742D02*
X265554Y15942D01*
X265754D01*
X265554Y16142D01*
X265754Y16342D01*
X265554D01*
X265354Y16542D01*
X265154Y16342D01*
X264954D01*
X265154Y16142D01*
X264954Y15942D01*
X265154D01*
X265354Y15742D01*
X255512Y8649D02*
X255912Y9049D01*
X256312D01*
X255912Y9449D01*
X256312Y9849D01*
X255912D01*
X255512Y10249D01*
X255112Y9849D01*
X254712D01*
X255112Y9449D01*
X254712Y9049D01*
X255112D01*
X255512Y8649D01*
Y9049D02*
X255712Y9249D01*
X255912D01*
X255712Y9449D01*
X255912Y9649D01*
X255712D01*
X255512Y9849D01*
X255312Y9649D01*
X255112D01*
X255312Y9449D01*
X255112Y9249D01*
X255312D01*
X255512Y9049D01*
X318504Y33846D02*
X318904Y34246D01*
X319304D01*
X318904Y34646D01*
X319304Y35046D01*
X318904D01*
X318504Y35446D01*
X318104Y35046D01*
X317704D01*
X318104Y34646D01*
X317704Y34246D01*
X318104D01*
X318504Y33846D01*
Y34246D02*
X318704Y34446D01*
X318904D01*
X318704Y34646D01*
X318904Y34846D01*
X318704D01*
X318504Y35046D01*
X318304Y34846D01*
X318104D01*
X318304Y34646D01*
X318104Y34446D01*
X318304D01*
X318504Y34246D01*
X324803Y33846D02*
X325203Y34246D01*
X325603D01*
X325203Y34646D01*
X325603Y35046D01*
X325203D01*
X324803Y35446D01*
X324403Y35046D01*
X324003D01*
X324403Y34646D01*
X324003Y34246D01*
X324403D01*
X324803Y33846D01*
Y34246D02*
X325003Y34446D01*
X325203D01*
X325003Y34646D01*
X325203Y34846D01*
X325003D01*
X324803Y35046D01*
X324603Y34846D01*
X324403D01*
X324603Y34646D01*
X324403Y34446D01*
X324603D01*
X324803Y34246D01*
X311614Y6287D02*
X312014Y6687D01*
X312414D01*
X312014Y7087D01*
X312414Y7487D01*
X312014D01*
X311614Y7887D01*
X311214Y7487D01*
X310814D01*
X311214Y7087D01*
X310814Y6687D01*
X311214D01*
X311614Y6287D01*
Y6687D02*
X311814Y6887D01*
X312014D01*
X311814Y7087D01*
X312014Y7287D01*
X311814D01*
X311614Y7487D01*
X311414Y7287D01*
X311214D01*
X311414Y7087D01*
X311214Y6887D01*
X311414D01*
X311614Y6687D01*
X198425Y226365D02*
X198825Y226765D01*
X199225D01*
X198825Y227165D01*
X199225Y227565D01*
X198825D01*
X198425Y227965D01*
X198025Y227565D01*
X197625D01*
X198025Y227165D01*
X197625Y226765D01*
X198025D01*
X198425Y226365D01*
Y226765D02*
X198625Y226965D01*
X198825D01*
X198625Y227165D01*
X198825Y227365D01*
X198625D01*
X198425Y227565D01*
X198225Y227365D01*
X198025D01*
X198225Y227165D01*
X198025Y226965D01*
X198225D01*
X198425Y226765D01*
X207480Y235027D02*
X207880Y235427D01*
X208280D01*
X207880Y235827D01*
X208280Y236227D01*
X207880D01*
X207480Y236627D01*
X207080Y236227D01*
X206680D01*
X207080Y235827D01*
X206680Y235427D01*
X207080D01*
X207480Y235027D01*
Y235427D02*
X207680Y235627D01*
X207880D01*
X207680Y235827D01*
X207880Y236027D01*
X207680D01*
X207480Y236227D01*
X207280Y236027D01*
X207080D01*
X207280Y235827D01*
X207080Y235627D01*
X207280D01*
X207480Y235427D01*
X197638Y119279D02*
X198038Y119679D01*
X198438D01*
X198038Y120079D01*
X198438Y120479D01*
X198038D01*
X197638Y120879D01*
X197238Y120479D01*
X196838D01*
X197238Y120079D01*
X196838Y119679D01*
X197238D01*
X197638Y119279D01*
Y119679D02*
X197838Y119879D01*
X198038D01*
X197838Y120079D01*
X198038Y120279D01*
X197838D01*
X197638Y120479D01*
X197438Y120279D01*
X197238D01*
X197438Y120079D01*
X197238Y119879D01*
X197438D01*
X197638Y119679D01*
X152006Y164842D02*
X152406Y165242D01*
X152806D01*
X152406Y165642D01*
X152806Y166042D01*
X152406D01*
X152006Y166442D01*
X151606Y166042D01*
X151206D01*
X151606Y165642D01*
X151206Y165242D01*
X151606D01*
X152006Y164842D01*
Y165242D02*
X152206Y165442D01*
X152406D01*
X152206Y165642D01*
X152406Y165842D01*
X152206D01*
X152006Y166042D01*
X151806Y165842D01*
X151606D01*
X151806Y165642D01*
X151606Y165442D01*
X151806D01*
X152006Y165242D01*
X118148Y71604D02*
X118548Y72004D01*
X118948D01*
X118548Y72404D01*
X118948Y72803D01*
X118548D01*
X118148Y73203D01*
X117748Y72803D01*
X117348D01*
X117748Y72404D01*
X117348Y72004D01*
X117748D01*
X118148Y71604D01*
Y72004D02*
X118348Y72203D01*
X118548D01*
X118348Y72404D01*
X118548Y72603D01*
X118348D01*
X118148Y72803D01*
X117948Y72603D01*
X117748D01*
X117948Y72404D01*
X117748Y72203D01*
X117948D01*
X118148Y72004D01*
X50787Y152350D02*
X51187Y152750D01*
X51587D01*
X51187Y153150D01*
X51587Y153550D01*
X51187D01*
X50787Y153950D01*
X50387Y153550D01*
X49987D01*
X50387Y153150D01*
X49987Y152750D01*
X50387D01*
X50787Y152350D01*
Y152750D02*
X50987Y152950D01*
X51187D01*
X50987Y153150D01*
X51187Y153350D01*
X50987D01*
X50787Y153550D01*
X50587Y153350D01*
X50387D01*
X50587Y153150D01*
X50387Y152950D01*
X50587D01*
X50787Y152750D01*
X178347Y167310D02*
X178746Y167710D01*
X179147D01*
X178746Y168110D01*
X179147Y168510D01*
X178746D01*
X178347Y168910D01*
X177946Y168510D01*
X177547D01*
X177946Y168110D01*
X177547Y167710D01*
X177946D01*
X178347Y167310D01*
Y167710D02*
X178547Y167910D01*
X178746D01*
X178547Y168110D01*
X178746Y168310D01*
X178547D01*
X178347Y168510D01*
X178147Y168310D01*
X177946D01*
X178147Y168110D01*
X177946Y167910D01*
X178147D01*
X178347Y167710D01*
X147638Y124003D02*
X148038Y124403D01*
X148438D01*
X148038Y124803D01*
X148438Y125203D01*
X148038D01*
X147638Y125603D01*
X147238Y125203D01*
X146838D01*
X147238Y124803D01*
X146838Y124403D01*
X147238D01*
X147638Y124003D01*
Y124403D02*
X147838Y124603D01*
X148038D01*
X147838Y124803D01*
X148038Y125003D01*
X147838D01*
X147638Y125203D01*
X147438Y125003D01*
X147238D01*
X147438Y124803D01*
X147238Y124603D01*
X147438D01*
X147638Y124403D01*
X151537Y143976D02*
X151937Y144376D01*
X152337D01*
X151937Y144776D01*
X152337Y145176D01*
X151937D01*
X151537Y145576D01*
X151137Y145176D01*
X150737D01*
X151137Y144776D01*
X150737Y144376D01*
X151137D01*
X151537Y143976D01*
Y144376D02*
X151737Y144576D01*
X151937D01*
X151737Y144776D01*
X151937Y144976D01*
X151737D01*
X151537Y145176D01*
X151337Y144976D01*
X151137D01*
X151337Y144776D01*
X151137Y144576D01*
X151337D01*
X151537Y144376D01*
X139370Y183846D02*
X139770Y184246D01*
X140170D01*
X139770Y184646D01*
X140170Y185046D01*
X139770D01*
X139370Y185446D01*
X138970Y185046D01*
X138570D01*
X138970Y184646D01*
X138570Y184246D01*
X138970D01*
X139370Y183846D01*
Y184246D02*
X139570Y184446D01*
X139770D01*
X139570Y184646D01*
X139770Y184846D01*
X139570D01*
X139370Y185046D01*
X139170Y184846D01*
X138970D01*
X139170Y184646D01*
X138970Y184446D01*
X139170D01*
X139370Y184246D01*
X170866Y126365D02*
X171266Y126765D01*
X171666D01*
X171266Y127165D01*
X171666Y127565D01*
X171266D01*
X170866Y127965D01*
X170466Y127565D01*
X170066D01*
X170466Y127165D01*
X170066Y126765D01*
X170466D01*
X170866Y126365D01*
Y126765D02*
X171066Y126965D01*
X171266D01*
X171066Y127165D01*
X171266Y127365D01*
X171066D01*
X170866Y127565D01*
X170666Y127365D01*
X170466D01*
X170666Y127165D01*
X170466Y126965D01*
X170666D01*
X170866Y126765D01*
X111811Y180302D02*
X112211Y180702D01*
X112611D01*
X112211Y181102D01*
X112611Y181502D01*
X112211D01*
X111811Y181902D01*
X111411Y181502D01*
X111011D01*
X111411Y181102D01*
X111011Y180702D01*
X111411D01*
X111811Y180302D01*
Y180702D02*
X112011Y180902D01*
X112211D01*
X112011Y181102D01*
X112211Y181302D01*
X112011D01*
X111811Y181502D01*
X111611Y181302D01*
X111411D01*
X111611Y181102D01*
X111411Y180902D01*
X111611D01*
X111811Y180702D01*
X100787Y180302D02*
X101187Y180702D01*
X101587D01*
X101187Y181102D01*
X101587Y181502D01*
X101187D01*
X100787Y181902D01*
X100387Y181502D01*
X99987D01*
X100387Y181102D01*
X99987Y180702D01*
X100387D01*
X100787Y180302D01*
Y180702D02*
X100987Y180902D01*
X101187D01*
X100987Y181102D01*
X101187Y181302D01*
X100987D01*
X100787Y181502D01*
X100587Y181302D01*
X100387D01*
X100587Y181102D01*
X100387Y180902D01*
X100587D01*
X100787Y180702D01*
X75590Y154318D02*
X75990Y154718D01*
X76390D01*
X75990Y155118D01*
X76390Y155518D01*
X75990D01*
X75590Y155918D01*
X75191Y155518D01*
X74791D01*
X75191Y155118D01*
X74791Y154718D01*
X75191D01*
X75590Y154318D01*
Y154718D02*
X75791Y154918D01*
X75990D01*
X75791Y155118D01*
X75990Y155318D01*
X75791D01*
X75590Y155518D01*
X75390Y155318D01*
X75191D01*
X75390Y155118D01*
X75191Y154918D01*
X75390D01*
X75590Y154718D01*
X91732Y152350D02*
X92132Y152750D01*
X92532D01*
X92132Y153150D01*
X92532Y153550D01*
X92132D01*
X91732Y153950D01*
X91332Y153550D01*
X90932D01*
X91332Y153150D01*
X90932Y152750D01*
X91332D01*
X91732Y152350D01*
Y152750D02*
X91932Y152950D01*
X92132D01*
X91932Y153150D01*
X92132Y153350D01*
X91932D01*
X91732Y153550D01*
X91532Y153350D01*
X91332D01*
X91532Y153150D01*
X91332Y152950D01*
X91532D01*
X91732Y152750D01*
X83858Y152350D02*
X84258Y152750D01*
X84658D01*
X84258Y153150D01*
X84658Y153550D01*
X84258D01*
X83858Y153950D01*
X83458Y153550D01*
X83058D01*
X83458Y153150D01*
X83058Y152750D01*
X83458D01*
X83858Y152350D01*
Y152750D02*
X84058Y152950D01*
X84258D01*
X84058Y153150D01*
X84258Y153350D01*
X84058D01*
X83858Y153550D01*
X83658Y153350D01*
X83458D01*
X83658Y153150D01*
X83458Y152950D01*
X83658D01*
X83858Y152750D01*
X74803Y111798D02*
X75203Y112198D01*
X75603D01*
X75203Y112598D01*
X75603Y112998D01*
X75203D01*
X74803Y113398D01*
X74403Y112998D01*
X74003D01*
X74403Y112598D01*
X74003Y112198D01*
X74403D01*
X74803Y111798D01*
Y112198D02*
X75003Y112398D01*
X75203D01*
X75003Y112598D01*
X75203Y112798D01*
X75003D01*
X74803Y112998D01*
X74603Y112798D01*
X74403D01*
X74603Y112598D01*
X74403Y112398D01*
X74603D01*
X74803Y112198D01*
X45276Y118885D02*
X45676Y119285D01*
X46076D01*
X45676Y119685D01*
X46076Y120085D01*
X45676D01*
X45276Y120485D01*
X44876Y120085D01*
X44476D01*
X44876Y119685D01*
X44476Y119285D01*
X44876D01*
X45276Y118885D01*
Y119285D02*
X45476Y119485D01*
X45676D01*
X45476Y119685D01*
X45676Y119885D01*
X45476D01*
X45276Y120085D01*
X45076Y119885D01*
X44876D01*
X45076Y119685D01*
X44876Y119485D01*
X45076D01*
X45276Y119285D01*
X181890Y119279D02*
X182290Y119679D01*
X182690D01*
X182290Y120079D01*
X182690Y120479D01*
X182290D01*
X181890Y120879D01*
X181490Y120479D01*
X181090D01*
X181490Y120079D01*
X181090Y119679D01*
X181490D01*
X181890Y119279D01*
Y119679D02*
X182090Y119879D01*
X182290D01*
X182090Y120079D01*
X182290Y120279D01*
X182090D01*
X181890Y120479D01*
X181690Y120279D01*
X181490D01*
X181690Y120079D01*
X181490Y119879D01*
X181690D01*
X181890Y119679D01*
X200394Y175578D02*
X200794Y175978D01*
X201194D01*
X200794Y176378D01*
X201194Y176778D01*
X200794D01*
X200394Y177178D01*
X199994Y176778D01*
X199594D01*
X199994Y176378D01*
X199594Y175978D01*
X199994D01*
X200394Y175578D01*
Y175978D02*
X200594Y176178D01*
X200794D01*
X200594Y176378D01*
X200794Y176578D01*
X200594D01*
X200394Y176778D01*
X200194Y176578D01*
X199994D01*
X200194Y176378D01*
X199994Y176178D01*
X200194D01*
X200394Y175978D01*
X192913Y175578D02*
X193313Y175978D01*
X193713D01*
X193313Y176378D01*
X193713Y176778D01*
X193313D01*
X192913Y177178D01*
X192513Y176778D01*
X192113D01*
X192513Y176378D01*
X192113Y175978D01*
X192513D01*
X192913Y175578D01*
Y175978D02*
X193113Y176178D01*
X193313D01*
X193113Y176378D01*
X193313Y176578D01*
X193113D01*
X192913Y176778D01*
X192713Y176578D01*
X192513D01*
X192713Y176378D01*
X192513Y176178D01*
X192713D01*
X192913Y175978D01*
X228740Y151169D02*
X229140Y151568D01*
X229540D01*
X229140Y151969D01*
X229540Y152368D01*
X229140D01*
X228740Y152769D01*
X228340Y152368D01*
X227940D01*
X228340Y151969D01*
X227940Y151568D01*
X228340D01*
X228740Y151169D01*
Y151568D02*
X228940Y151769D01*
X229140D01*
X228940Y151969D01*
X229140Y152169D01*
X228940D01*
X228740Y152368D01*
X228540Y152169D01*
X228340D01*
X228540Y151969D01*
X228340Y151769D01*
X228540D01*
X228740Y151568D01*
X216535Y151169D02*
X216935Y151568D01*
X217335D01*
X216935Y151969D01*
X217335Y152368D01*
X216935D01*
X216535Y152769D01*
X216135Y152368D01*
X215735D01*
X216135Y151969D01*
X215735Y151568D01*
X216135D01*
X216535Y151169D01*
Y151568D02*
X216735Y151769D01*
X216935D01*
X216735Y151969D01*
X216935Y152169D01*
X216735D01*
X216535Y152368D01*
X216335Y152169D01*
X216135D01*
X216335Y151969D01*
X216135Y151769D01*
X216335D01*
X216535Y151568D01*
X228740Y164554D02*
X229140Y164954D01*
X229540D01*
X229140Y165354D01*
X229540Y165754D01*
X229140D01*
X228740Y166154D01*
X228340Y165754D01*
X227940D01*
X228340Y165354D01*
X227940Y164954D01*
X228340D01*
X228740Y164554D01*
Y164954D02*
X228940Y165154D01*
X229140D01*
X228940Y165354D01*
X229140Y165554D01*
X228940D01*
X228740Y165754D01*
X228540Y165554D01*
X228340D01*
X228540Y165354D01*
X228340Y165154D01*
X228540D01*
X228740Y164954D01*
X216929Y164554D02*
X217329Y164954D01*
X217729D01*
X217329Y165354D01*
X217729Y165754D01*
X217329D01*
X216929Y166154D01*
X216529Y165754D01*
X216129D01*
X216529Y165354D01*
X216129Y164954D01*
X216529D01*
X216929Y164554D01*
Y164954D02*
X217129Y165154D01*
X217329D01*
X217129Y165354D01*
X217329Y165554D01*
X217129D01*
X216929Y165754D01*
X216729Y165554D01*
X216529D01*
X216729Y165354D01*
X216529Y165154D01*
X216729D01*
X216929Y164954D01*
X212980Y186208D02*
X213380Y187008D01*
X212980Y187808D01*
X213779Y187408D01*
X214580Y187808D01*
X214179Y187008D01*
X214580Y186208D01*
X213779Y186608D01*
X212980Y186208D01*
X213380Y186608D02*
X213580Y187008D01*
X213380Y187408D01*
X213779Y187208D01*
X214179Y187408D01*
X213980Y187008D01*
X214179Y186608D01*
X213779Y186808D01*
X213380Y186608D01*
X191732Y136602D02*
X192132Y137002D01*
X192532D01*
X192132Y137402D01*
X192532Y137802D01*
X192132D01*
X191732Y138202D01*
X191332Y137802D01*
X190932D01*
X191332Y137402D01*
X190932Y137002D01*
X191332D01*
X191732Y136602D01*
Y137002D02*
X191932Y137202D01*
X192132D01*
X191932Y137402D01*
X192132Y137602D01*
X191932D01*
X191732Y137802D01*
X191532Y137602D01*
X191332D01*
X191532Y137402D01*
X191332Y137202D01*
X191532D01*
X191732Y137002D01*
X253543Y133846D02*
X253943Y134246D01*
X254343D01*
X253943Y134646D01*
X254343Y135046D01*
X253943D01*
X253543Y135446D01*
X253143Y135046D01*
X252743D01*
X253143Y134646D01*
X252743Y134246D01*
X253143D01*
X253543Y133846D01*
Y134246D02*
X253743Y134446D01*
X253943D01*
X253743Y134646D01*
X253943Y134846D01*
X253743D01*
X253543Y135046D01*
X253343Y134846D01*
X253143D01*
X253343Y134646D01*
X253143Y134446D01*
X253343D01*
X253543Y134246D01*
X270079Y207468D02*
X270479Y207868D01*
X270879D01*
X270479Y208268D01*
X270879Y208668D01*
X270479D01*
X270079Y209068D01*
X269679Y208668D01*
X269279D01*
X269679Y208268D01*
X269279Y207868D01*
X269679D01*
X270079Y207468D01*
Y207868D02*
X270279Y208068D01*
X270479D01*
X270279Y208268D01*
X270479Y208468D01*
X270279D01*
X270079Y208668D01*
X269879Y208468D01*
X269679D01*
X269879Y208268D01*
X269679Y208068D01*
X269879D01*
X270079Y207868D01*
Y227547D02*
X270479Y227946D01*
X270879D01*
X270479Y228346D01*
X270879Y228747D01*
X270479D01*
X270079Y229147D01*
X269679Y228747D01*
X269279D01*
X269679Y228346D01*
X269279Y227946D01*
X269679D01*
X270079Y227547D01*
Y227946D02*
X270279Y228147D01*
X270479D01*
X270279Y228346D01*
X270479Y228547D01*
X270279D01*
X270079Y228747D01*
X269879Y228547D01*
X269679D01*
X269879Y228346D01*
X269679Y228147D01*
X269879D01*
X270079Y227946D01*
X214567Y204712D02*
X214967Y205112D01*
X215367D01*
X214967Y205512D01*
X215367Y205912D01*
X214967D01*
X214567Y206312D01*
X214167Y205912D01*
X213767D01*
X214167Y205512D01*
X213767Y205112D01*
X214167D01*
X214567Y204712D01*
Y205112D02*
X214767Y205312D01*
X214967D01*
X214767Y205512D01*
X214967Y205712D01*
X214767D01*
X214567Y205912D01*
X214367Y205712D01*
X214167D01*
X214367Y205512D01*
X214167Y205312D01*
X214367D01*
X214567Y205112D01*
X203150Y199200D02*
X203550Y199600D01*
X203950D01*
X203550Y200000D01*
X203950Y200400D01*
X203550D01*
X203150Y200800D01*
X202750Y200400D01*
X202350D01*
X202750Y200000D01*
X202350Y199600D01*
X202750D01*
X203150Y199200D01*
Y199600D02*
X203350Y199800D01*
X203550D01*
X203350Y200000D01*
X203550Y200200D01*
X203350D01*
X203150Y200400D01*
X202950Y200200D01*
X202750D01*
X202950Y200000D01*
X202750Y199800D01*
X202950D01*
X203150Y199600D01*
X219897Y215735D02*
X220297Y216135D01*
X220697D01*
X220297Y216535D01*
X220697Y216935D01*
X220297D01*
X219897Y217335D01*
X219497Y216935D01*
X219097D01*
X219497Y216535D01*
X219097Y216135D01*
X219497D01*
X219897Y215735D01*
Y216135D02*
X220097Y216335D01*
X220297D01*
X220097Y216535D01*
X220297Y216735D01*
X220097D01*
X219897Y216935D01*
X219697Y216735D01*
X219497D01*
X219697Y216535D01*
X219497Y216335D01*
X219697D01*
X219897Y216135D01*
X190945Y199200D02*
X191345Y199600D01*
X191745D01*
X191345Y200000D01*
X191745Y200400D01*
X191345D01*
X190945Y200800D01*
X190545Y200400D01*
X190145D01*
X190545Y200000D01*
X190145Y199600D01*
X190545D01*
X190945Y199200D01*
Y199600D02*
X191145Y199800D01*
X191345D01*
X191145Y200000D01*
X191345Y200200D01*
X191145D01*
X190945Y200400D01*
X190745Y200200D01*
X190545D01*
X190745Y200000D01*
X190545Y199800D01*
X190745D01*
X190945Y199600D01*
X206693Y212586D02*
X207093Y212986D01*
X207493D01*
X207093Y213386D01*
X207493Y213786D01*
X207093D01*
X206693Y214186D01*
X206293Y213786D01*
X205893D01*
X206293Y213386D01*
X205893Y212986D01*
X206293D01*
X206693Y212586D01*
Y212986D02*
X206893Y213186D01*
X207093D01*
X206893Y213386D01*
X207093Y213586D01*
X206893D01*
X206693Y213786D01*
X206493Y213586D01*
X206293D01*
X206493Y213386D01*
X206293Y213186D01*
X206493D01*
X206693Y212986D01*
X219685Y225972D02*
X220085Y226372D01*
X220485D01*
X220085Y226772D01*
X220485Y227172D01*
X220085D01*
X219685Y227572D01*
X219285Y227172D01*
X218885D01*
X219285Y226772D01*
X218885Y226372D01*
X219285D01*
X219685Y225972D01*
Y226372D02*
X219885Y226572D01*
X220085D01*
X219885Y226772D01*
X220085Y226972D01*
X219885D01*
X219685Y227172D01*
X219485Y226972D01*
X219285D01*
X219485Y226772D01*
X219285Y226572D01*
X219485D01*
X219685Y226372D01*
X228740Y233058D02*
X229140Y233458D01*
X229540D01*
X229140Y233858D01*
X229540Y234258D01*
X229140D01*
X228740Y234658D01*
X228340Y234258D01*
X227940D01*
X228340Y233858D01*
X227940Y233458D01*
X228340D01*
X228740Y233058D01*
Y233458D02*
X228940Y233658D01*
X229140D01*
X228940Y233858D01*
X229140Y234058D01*
X228940D01*
X228740Y234258D01*
X228540Y234058D01*
X228340D01*
X228540Y233858D01*
X228340Y233658D01*
X228540D01*
X228740Y233458D01*
Y262586D02*
X229140Y262986D01*
X229540D01*
X229140Y263386D01*
X229540Y263786D01*
X229140D01*
X228740Y264186D01*
X228340Y263786D01*
X227940D01*
X228340Y263386D01*
X227940Y262986D01*
X228340D01*
X228740Y262586D01*
Y262986D02*
X228940Y263186D01*
X229140D01*
X228940Y263386D01*
X229140Y263586D01*
X228940D01*
X228740Y263786D01*
X228540Y263586D01*
X228340D01*
X228540Y263386D01*
X228340Y263186D01*
X228540D01*
X228740Y262986D01*
X165354Y167704D02*
X165754Y168104D01*
X166154D01*
X165754Y168504D01*
X166154Y168904D01*
X165754D01*
X165354Y169304D01*
X164954Y168904D01*
X164554D01*
X164954Y168504D01*
X164554Y168104D01*
X164954D01*
X165354Y167704D01*
Y168104D02*
X165554Y168304D01*
X165754D01*
X165554Y168504D01*
X165754Y168704D01*
X165554D01*
X165354Y168904D01*
X165154Y168704D01*
X164954D01*
X165154Y168504D01*
X164954Y168304D01*
X165154D01*
X165354Y168104D01*
X168898Y177940D02*
X169298Y178340D01*
X169698D01*
X169298Y178740D01*
X169698Y179140D01*
X169298D01*
X168898Y179540D01*
X168498Y179140D01*
X168098D01*
X168498Y178740D01*
X168098Y178340D01*
X168498D01*
X168898Y177940D01*
Y178340D02*
X169098Y178540D01*
X169298D01*
X169098Y178740D01*
X169298Y178940D01*
X169098D01*
X168898Y179140D01*
X168698Y178940D01*
X168498D01*
X168698Y178740D01*
X168498Y178540D01*
X168698D01*
X168898Y178340D01*
Y172428D02*
X169298Y172828D01*
X169698D01*
X169298Y173228D01*
X169698Y173628D01*
X169298D01*
X168898Y174028D01*
X168498Y173628D01*
X168098D01*
X168498Y173228D01*
X168098Y172828D01*
X168498D01*
X168898Y172428D01*
Y172828D02*
X169098Y173028D01*
X169298D01*
X169098Y173228D01*
X169298Y173428D01*
X169098D01*
X168898Y173628D01*
X168698Y173428D01*
X168498D01*
X168698Y173228D01*
X168498Y173028D01*
X168698D01*
X168898Y172828D01*
X161811Y162586D02*
X162211Y162986D01*
X162611D01*
X162211Y163386D01*
X162611Y163786D01*
X162211D01*
X161811Y164186D01*
X161411Y163786D01*
X161011D01*
X161411Y163386D01*
X161011Y162986D01*
X161411D01*
X161811Y162586D01*
Y162986D02*
X162011Y163186D01*
X162211D01*
X162011Y163386D01*
X162211Y163586D01*
X162011D01*
X161811Y163786D01*
X161611Y163586D01*
X161411D01*
X161611Y163386D01*
X161411Y163186D01*
X161611D01*
X161811Y162986D01*
Y156680D02*
X162211Y157080D01*
X162611D01*
X162211Y157480D01*
X162611Y157880D01*
X162211D01*
X161811Y158280D01*
X161411Y157880D01*
X161011D01*
X161411Y157480D01*
X161011Y157080D01*
X161411D01*
X161811Y156680D01*
Y157080D02*
X162011Y157280D01*
X162211D01*
X162011Y157480D01*
X162211Y157680D01*
X162011D01*
X161811Y157880D01*
X161611Y157680D01*
X161411D01*
X161611Y157480D01*
X161411Y157280D01*
X161611D01*
X161811Y157080D01*
X37402Y37389D02*
X37802Y37789D01*
X38202D01*
X37802Y38189D01*
X38202Y38589D01*
X37802D01*
X37402Y38989D01*
X37002Y38589D01*
X36602D01*
X37002Y38189D01*
X36602Y37789D01*
X37002D01*
X37402Y37389D01*
Y37789D02*
X37602Y37989D01*
X37802D01*
X37602Y38189D01*
X37802Y38389D01*
X37602D01*
X37402Y38589D01*
X37202Y38389D01*
X37002D01*
X37202Y38189D01*
X37002Y37989D01*
X37202D01*
X37402Y37789D01*
X29921Y21641D02*
X30321Y22041D01*
X30721D01*
X30321Y22441D01*
X30721Y22841D01*
X30321D01*
X29921Y23241D01*
X29521Y22841D01*
X29121D01*
X29521Y22441D01*
X29121Y22041D01*
X29521D01*
X29921Y21641D01*
Y22041D02*
X30121Y22241D01*
X30321D01*
X30121Y22441D01*
X30321Y22641D01*
X30121D01*
X29921Y22841D01*
X29721Y22641D01*
X29521D01*
X29721Y22441D01*
X29521Y22241D01*
X29721D01*
X29921Y22041D01*
Y14948D02*
X30321Y15348D01*
X30721D01*
X30321Y15748D01*
X30721Y16148D01*
X30321D01*
X29921Y16548D01*
X29521Y16148D01*
X29121D01*
X29521Y15748D01*
X29121Y15348D01*
X29521D01*
X29921Y14948D01*
Y15348D02*
X30121Y15548D01*
X30321D01*
X30121Y15748D01*
X30321Y15948D01*
X30121D01*
X29921Y16148D01*
X29721Y15948D01*
X29521D01*
X29721Y15748D01*
X29521Y15548D01*
X29721D01*
X29921Y15348D01*
Y8255D02*
X30321Y8655D01*
X30721D01*
X30321Y9055D01*
X30721Y9455D01*
X30321D01*
X29921Y9855D01*
X29521Y9455D01*
X29121D01*
X29521Y9055D01*
X29121Y8655D01*
X29521D01*
X29921Y8255D01*
Y8655D02*
X30121Y8855D01*
X30321D01*
X30121Y9055D01*
X30321Y9255D01*
X30121D01*
X29921Y9455D01*
X29721Y9255D01*
X29521D01*
X29721Y9055D01*
X29521Y8855D01*
X29721D01*
X29921Y8655D01*
X68110Y23019D02*
X68510Y23419D01*
X68910D01*
X68510Y23819D01*
X68910Y24219D01*
X68510D01*
X68110Y24619D01*
X67710Y24219D01*
X67310D01*
X67710Y23819D01*
X67310Y23419D01*
X67710D01*
X68110Y23019D01*
Y23419D02*
X68310Y23619D01*
X68510D01*
X68310Y23819D01*
X68510Y24019D01*
X68310D01*
X68110Y24219D01*
X67910Y24019D01*
X67710D01*
X67910Y23819D01*
X67710Y23619D01*
X67910D01*
X68110Y23419D01*
X46850Y130696D02*
X47250Y131096D01*
X47650D01*
X47250Y131496D01*
X47650Y131896D01*
X47250D01*
X46850Y132296D01*
X46450Y131896D01*
X46050D01*
X46450Y131496D01*
X46050Y131096D01*
X46450D01*
X46850Y130696D01*
Y131096D02*
X47050Y131296D01*
X47250D01*
X47050Y131496D01*
X47250Y131696D01*
X47050D01*
X46850Y131896D01*
X46650Y131696D01*
X46450D01*
X46650Y131496D01*
X46450Y131296D01*
X46650D01*
X46850Y131096D01*
X199300Y127600D02*
X199700Y128000D01*
X200100D01*
X199700Y128400D01*
X200100Y128800D01*
X199700D01*
X199300Y129200D01*
X198900Y128800D01*
X198500D01*
X198900Y128400D01*
X198500Y128000D01*
X198900D01*
X199300Y127600D01*
Y128000D02*
X199500Y128200D01*
X199700D01*
X199500Y128400D01*
X199700Y128600D01*
X199500D01*
X199300Y128800D01*
X199100Y128600D01*
X198900D01*
X199100Y128400D01*
X198900Y128200D01*
X199100D01*
X199300Y128000D01*
X206693Y131877D02*
X207093Y132277D01*
X207493D01*
X207093Y132677D01*
X207493Y133077D01*
X207093D01*
X206693Y133477D01*
X206293Y133077D01*
X205893D01*
X206293Y132677D01*
X205893Y132277D01*
X206293D01*
X206693Y131877D01*
Y132277D02*
X206893Y132477D01*
X207093D01*
X206893Y132677D01*
X207093Y132877D01*
X206893D01*
X206693Y133077D01*
X206493Y132877D01*
X206293D01*
X206493Y132677D01*
X206293Y132477D01*
X206493D01*
X206693Y132277D01*
X81102Y130696D02*
X81502Y131096D01*
X81902D01*
X81502Y131496D01*
X81902Y131896D01*
X81502D01*
X81102Y132296D01*
X80702Y131896D01*
X80302D01*
X80702Y131496D01*
X80302Y131096D01*
X80702D01*
X81102Y130696D01*
Y131096D02*
X81302Y131296D01*
X81502D01*
X81302Y131496D01*
X81502Y131696D01*
X81302D01*
X81102Y131896D01*
X80902Y131696D01*
X80702D01*
X80902Y131496D01*
X80702Y131296D01*
X80902D01*
X81102Y131096D01*
X84646Y130696D02*
X85046Y131096D01*
X85446D01*
X85046Y131496D01*
X85446Y131896D01*
X85046D01*
X84646Y132296D01*
X84246Y131896D01*
X83846D01*
X84246Y131496D01*
X83846Y131096D01*
X84246D01*
X84646Y130696D01*
Y131096D02*
X84846Y131296D01*
X85046D01*
X84846Y131496D01*
X85046Y131696D01*
X84846D01*
X84646Y131896D01*
X84446Y131696D01*
X84246D01*
X84446Y131496D01*
X84246Y131296D01*
X84446D01*
X84646Y131096D01*
X88189Y130696D02*
X88589Y131096D01*
X88989D01*
X88589Y131496D01*
X88989Y131896D01*
X88589D01*
X88189Y132296D01*
X87789Y131896D01*
X87389D01*
X87789Y131496D01*
X87389Y131096D01*
X87789D01*
X88189Y130696D01*
Y131096D02*
X88389Y131296D01*
X88589D01*
X88389Y131496D01*
X88589Y131696D01*
X88389D01*
X88189Y131896D01*
X87989Y131696D01*
X87789D01*
X87989Y131496D01*
X87789Y131296D01*
X87989D01*
X88189Y131096D01*
X91732Y130696D02*
X92132Y131096D01*
X92532D01*
X92132Y131496D01*
X92532Y131896D01*
X92132D01*
X91732Y132296D01*
X91332Y131896D01*
X90932D01*
X91332Y131496D01*
X90932Y131096D01*
X91332D01*
X91732Y130696D01*
Y131096D02*
X91932Y131296D01*
X92132D01*
X91932Y131496D01*
X92132Y131696D01*
X91932D01*
X91732Y131896D01*
X91532Y131696D01*
X91332D01*
X91532Y131496D01*
X91332Y131296D01*
X91532D01*
X91732Y131096D01*
X52520Y107861D02*
X52920Y108261D01*
X53320D01*
X52920Y108661D01*
X53320Y109061D01*
X52920D01*
X52520Y109461D01*
X52120Y109061D01*
X51720D01*
X52120Y108661D01*
X51720Y108261D01*
X52120D01*
X52520Y107861D01*
Y108261D02*
X52720Y108461D01*
X52920D01*
X52720Y108661D01*
X52920Y108861D01*
X52720D01*
X52520Y109061D01*
X52320Y108861D01*
X52120D01*
X52320Y108661D01*
X52120Y108461D01*
X52320D01*
X52520Y108261D01*
X57520Y107861D02*
X57920Y108261D01*
X58320D01*
X57920Y108661D01*
X58320Y109061D01*
X57920D01*
X57520Y109461D01*
X57120Y109061D01*
X56720D01*
X57120Y108661D01*
X56720Y108261D01*
X57120D01*
X57520Y107861D01*
Y108261D02*
X57720Y108461D01*
X57920D01*
X57720Y108661D01*
X57920Y108861D01*
X57720D01*
X57520Y109061D01*
X57320Y108861D01*
X57120D01*
X57320Y108661D01*
X57120Y108461D01*
X57320D01*
X57520Y108261D01*
X190157Y79121D02*
X190558Y79521D01*
X190957D01*
X190558Y79921D01*
X190957Y80321D01*
X190558D01*
X190157Y80721D01*
X189758Y80321D01*
X189357D01*
X189758Y79921D01*
X189357Y79521D01*
X189758D01*
X190157Y79121D01*
Y79521D02*
X190357Y79721D01*
X190558D01*
X190357Y79921D01*
X190558Y80121D01*
X190357D01*
X190157Y80321D01*
X189957Y80121D01*
X189758D01*
X189957Y79921D01*
X189758Y79721D01*
X189957D01*
X190157Y79521D01*
X212586Y77547D02*
X212986Y78347D01*
X212586Y79146D01*
X213386Y78746D01*
X214186Y79146D01*
X213786Y78347D01*
X214186Y77547D01*
X213386Y77947D01*
X212586Y77547D01*
X212986Y77947D02*
X213186Y78347D01*
X212986Y78746D01*
X213386Y78547D01*
X213786Y78746D01*
X213586Y78347D01*
X213786Y77947D01*
X213386Y78146D01*
X212986Y77947D01*
X201960Y78718D02*
X202360Y79118D01*
X202760D01*
X202360Y79518D01*
X202760Y79918D01*
X202360D01*
X201960Y80318D01*
X201560Y79918D01*
X201160D01*
X201560Y79518D01*
X201160Y79118D01*
X201560D01*
X201960Y78718D01*
Y79118D02*
X202160Y79318D01*
X202360D01*
X202160Y79518D01*
X202360Y79718D01*
X202160D01*
X201960Y79918D01*
X201760Y79718D01*
X201560D01*
X201760Y79518D01*
X201560Y79318D01*
X201760D01*
X201960Y79118D01*
Y96829D02*
X202360Y97229D01*
X202760D01*
X202360Y97629D01*
X202760Y98029D01*
X202360D01*
X201960Y98429D01*
X201560Y98029D01*
X201160D01*
X201560Y97629D01*
X201160Y97229D01*
X201560D01*
X201960Y96829D01*
Y97229D02*
X202160Y97429D01*
X202360D01*
X202160Y97629D01*
X202360Y97829D01*
X202160D01*
X201960Y98029D01*
X201760Y97829D01*
X201560D01*
X201760Y97629D01*
X201560Y97429D01*
X201760D01*
X201960Y97229D01*
X224872Y183058D02*
X225272Y183458D01*
X225672D01*
X225272Y183858D01*
X225672Y184258D01*
X225272D01*
X224872Y184658D01*
X224472Y184258D01*
X224072D01*
X224472Y183858D01*
X224072Y183458D01*
X224472D01*
X224872Y183058D01*
Y183458D02*
X225072Y183658D01*
X225272D01*
X225072Y183858D01*
X225272Y184058D01*
X225072D01*
X224872Y184258D01*
X224672Y184058D01*
X224472D01*
X224672Y183858D01*
X224472Y183658D01*
X224672D01*
X224872Y183458D01*
X70472Y122428D02*
X70872Y122828D01*
X71272D01*
X70872Y123228D01*
X71272Y123628D01*
X70872D01*
X70472Y124028D01*
X70072Y123628D01*
X69672D01*
X70072Y123228D01*
X69672Y122828D01*
X70072D01*
X70472Y122428D01*
Y122828D02*
X70672Y123028D01*
X70872D01*
X70672Y123228D01*
X70872Y123428D01*
X70672D01*
X70472Y123628D01*
X70272Y123428D01*
X70072D01*
X70272Y123228D01*
X70072Y123028D01*
X70272D01*
X70472Y122828D01*
X73622Y168491D02*
X74022Y168891D01*
X74422D01*
X74022Y169291D01*
X74422Y169691D01*
X74022D01*
X73622Y170091D01*
X73222Y169691D01*
X72822D01*
X73222Y169291D01*
X72822Y168891D01*
X73222D01*
X73622Y168491D01*
Y168891D02*
X73822Y169091D01*
X74022D01*
X73822Y169291D01*
X74022Y169491D01*
X73822D01*
X73622Y169691D01*
X73422Y169491D01*
X73222D01*
X73422Y169291D01*
X73222Y169091D01*
X73422D01*
X73622Y168891D01*
X66142Y168491D02*
X66542Y168891D01*
X66942D01*
X66542Y169291D01*
X66942Y169691D01*
X66542D01*
X66142Y170091D01*
X65742Y169691D01*
X65342D01*
X65742Y169291D01*
X65342Y168891D01*
X65742D01*
X66142Y168491D01*
Y168891D02*
X66342Y169091D01*
X66542D01*
X66342Y169291D01*
X66542Y169491D01*
X66342D01*
X66142Y169691D01*
X65942Y169491D01*
X65742D01*
X65942Y169291D01*
X65742Y169091D01*
X65942D01*
X66142Y168891D01*
X58661Y168491D02*
X59061Y168891D01*
X59461D01*
X59061Y169291D01*
X59461Y169691D01*
X59061D01*
X58661Y170091D01*
X58261Y169691D01*
X57861D01*
X58261Y169291D01*
X57861Y168891D01*
X58261D01*
X58661Y168491D01*
Y168891D02*
X58861Y169091D01*
X59061D01*
X58861Y169291D01*
X59061Y169491D01*
X58861D01*
X58661Y169691D01*
X58461Y169491D01*
X58261D01*
X58461Y169291D01*
X58261Y169091D01*
X58461D01*
X58661Y168891D01*
X190551Y144082D02*
X190951Y144482D01*
X191351D01*
X190951Y144882D01*
X191351Y145282D01*
X190951D01*
X190551Y145682D01*
X190151Y145282D01*
X189751D01*
X190151Y144882D01*
X189751Y144482D01*
X190151D01*
X190551Y144082D01*
Y144482D02*
X190751Y144682D01*
X190951D01*
X190751Y144882D01*
X190951Y145082D01*
X190751D01*
X190551Y145282D01*
X190351Y145082D01*
X190151D01*
X190351Y144882D01*
X190151Y144682D01*
X190351D01*
X190551Y144482D01*
X182677Y76365D02*
X183077Y76765D01*
X183477D01*
X183077Y77165D01*
X183477Y77565D01*
X183077D01*
X182677Y77965D01*
X182277Y77565D01*
X181877D01*
X182277Y77165D01*
X181877Y76765D01*
X182277D01*
X182677Y76365D01*
Y76765D02*
X182877Y76965D01*
X183077D01*
X182877Y77165D01*
X183077Y77365D01*
X182877D01*
X182677Y77565D01*
X182477Y77365D01*
X182277D01*
X182477Y77165D01*
X182277Y76965D01*
X182477D01*
X182677Y76765D01*
X240826Y104633D02*
X241226Y105033D01*
X241626D01*
X241226Y105433D01*
X241626Y105833D01*
X241226D01*
X240826Y106233D01*
X240426Y105833D01*
X240026D01*
X240426Y105433D01*
X240026Y105033D01*
X240426D01*
X240826Y104633D01*
Y105033D02*
X241026Y105233D01*
X241226D01*
X241026Y105433D01*
X241226Y105633D01*
X241026D01*
X240826Y105833D01*
X240626Y105633D01*
X240426D01*
X240626Y105433D01*
X240426Y105233D01*
X240626D01*
X240826Y105033D01*
X248819Y104712D02*
X249219Y105112D01*
X249619D01*
X249219Y105512D01*
X249619Y105912D01*
X249219D01*
X248819Y106312D01*
X248419Y105912D01*
X248019D01*
X248419Y105512D01*
X248019Y105112D01*
X248419D01*
X248819Y104712D01*
Y105112D02*
X249019Y105312D01*
X249219D01*
X249019Y105512D01*
X249219Y105712D01*
X249019D01*
X248819Y105912D01*
X248619Y105712D01*
X248419D01*
X248619Y105512D01*
X248419Y105312D01*
X248619D01*
X248819Y105112D01*
X238976Y113767D02*
X239376Y114167D01*
X239776D01*
X239376Y114567D01*
X239776Y114967D01*
X239376D01*
X238976Y115367D01*
X238576Y114967D01*
X238176D01*
X238576Y114567D01*
X238176Y114167D01*
X238576D01*
X238976Y113767D01*
Y114167D02*
X239176Y114367D01*
X239376D01*
X239176Y114567D01*
X239376Y114767D01*
X239176D01*
X238976Y114967D01*
X238776Y114767D01*
X238576D01*
X238776Y114567D01*
X238576Y114367D01*
X238776D01*
X238976Y114167D01*
X231890Y104712D02*
X232290Y105112D01*
X232690D01*
X232290Y105512D01*
X232690Y105912D01*
X232290D01*
X231890Y106312D01*
X231490Y105912D01*
X231090D01*
X231490Y105512D01*
X231090Y105112D01*
X231490D01*
X231890Y104712D01*
Y105112D02*
X232090Y105312D01*
X232290D01*
X232090Y105512D01*
X232290Y105712D01*
X232090D01*
X231890Y105912D01*
X231690Y105712D01*
X231490D01*
X231690Y105512D01*
X231490Y105312D01*
X231690D01*
X231890Y105112D01*
X247244Y140539D02*
X247644Y140939D01*
X248044D01*
X247644Y141339D01*
X248044Y141739D01*
X247644D01*
X247244Y142139D01*
X246844Y141739D01*
X246444D01*
X246844Y141339D01*
X246444Y140939D01*
X246844D01*
X247244Y140539D01*
Y140939D02*
X247444Y141139D01*
X247644D01*
X247444Y141339D01*
X247644Y141539D01*
X247444D01*
X247244Y141739D01*
X247044Y141539D01*
X246844D01*
X247044Y141339D01*
X246844Y141139D01*
X247044D01*
X247244Y140939D01*
X239370Y123216D02*
X239770Y123616D01*
X240170D01*
X239770Y124016D01*
X240170Y124416D01*
X239770D01*
X239370Y124816D01*
X238970Y124416D01*
X238570D01*
X238970Y124016D01*
X238570Y123616D01*
X238970D01*
X239370Y123216D01*
Y123616D02*
X239570Y123816D01*
X239770D01*
X239570Y124016D01*
X239770Y124216D01*
X239570D01*
X239370Y124416D01*
X239170Y124216D01*
X238970D01*
X239170Y124016D01*
X238970Y123816D01*
X239170D01*
X239370Y123616D01*
X53150Y9436D02*
X53550Y9836D01*
X53950D01*
X53550Y10236D01*
X53950Y10636D01*
X53550D01*
X53150Y11036D01*
X52750Y10636D01*
X52350D01*
X52750Y10236D01*
X52350Y9836D01*
X52750D01*
X53150Y9436D01*
Y9836D02*
X53350Y10036D01*
X53550D01*
X53350Y10236D01*
X53550Y10436D01*
X53350D01*
X53150Y10636D01*
X52950Y10436D01*
X52750D01*
X52950Y10236D01*
X52750Y10036D01*
X52950D01*
X53150Y9836D01*
X46850Y8649D02*
X47250Y9049D01*
X47650D01*
X47250Y9449D01*
X47650Y9849D01*
X47250D01*
X46850Y10249D01*
X46450Y9849D01*
X46050D01*
X46450Y9449D01*
X46050Y9049D01*
X46450D01*
X46850Y8649D01*
Y9049D02*
X47050Y9249D01*
X47250D01*
X47050Y9449D01*
X47250Y9649D01*
X47050D01*
X46850Y9849D01*
X46650Y9649D01*
X46450D01*
X46650Y9449D01*
X46450Y9249D01*
X46650D01*
X46850Y9049D01*
Y12979D02*
X47250Y13379D01*
X47650D01*
X47250Y13780D01*
X47650Y14179D01*
X47250D01*
X46850Y14580D01*
X46450Y14179D01*
X46050D01*
X46450Y13780D01*
X46050Y13379D01*
X46450D01*
X46850Y12979D01*
Y13379D02*
X47050Y13579D01*
X47250D01*
X47050Y13780D01*
X47250Y13980D01*
X47050D01*
X46850Y14179D01*
X46650Y13980D01*
X46450D01*
X46650Y13780D01*
X46450Y13579D01*
X46650D01*
X46850Y13379D01*
X223947Y186995D02*
X224347Y187395D01*
X224747D01*
X224347Y187795D01*
X224747Y188195D01*
X224347D01*
X223947Y188595D01*
X223547Y188195D01*
X223147D01*
X223547Y187795D01*
X223147Y187395D01*
X223547D01*
X223947Y186995D01*
Y187395D02*
X224147Y187595D01*
X224347D01*
X224147Y187795D01*
X224347Y187995D01*
X224147D01*
X223947Y188195D01*
X223747Y187995D01*
X223547D01*
X223747Y187795D01*
X223547Y187595D01*
X223747D01*
X223947Y187395D01*
X217717Y90539D02*
X218116Y90939D01*
X218516D01*
X218116Y91339D01*
X218516Y91739D01*
X218116D01*
X217717Y92139D01*
X217317Y91739D01*
X216916D01*
X217317Y91339D01*
X216916Y90939D01*
X217317D01*
X217717Y90539D01*
Y90939D02*
X217916Y91139D01*
X218116D01*
X217916Y91339D01*
X218116Y91539D01*
X217916D01*
X217717Y91739D01*
X217516Y91539D01*
X217317D01*
X217516Y91339D01*
X217317Y91139D01*
X217516D01*
X217717Y90939D01*
X213779Y85027D02*
X214179Y85427D01*
X214580D01*
X214179Y85827D01*
X214580Y86227D01*
X214179D01*
X213779Y86627D01*
X213380Y86227D01*
X212980D01*
X213380Y85827D01*
X212980Y85427D01*
X213380D01*
X213779Y85027D01*
Y85427D02*
X213980Y85627D01*
X214179D01*
X213980Y85827D01*
X214179Y86027D01*
X213980D01*
X213779Y86227D01*
X213580Y86027D01*
X213380D01*
X213580Y85827D01*
X213380Y85627D01*
X213580D01*
X213779Y85427D01*
X263779Y187389D02*
X264179Y187789D01*
X264580D01*
X264179Y188189D01*
X264580Y188589D01*
X264179D01*
X263779Y188989D01*
X263380Y188589D01*
X262980D01*
X263380Y188189D01*
X262980Y187789D01*
X263380D01*
X263779Y187389D01*
Y187789D02*
X263980Y187989D01*
X264179D01*
X263980Y188189D01*
X264179Y188389D01*
X263980D01*
X263779Y188589D01*
X263580Y188389D01*
X263380D01*
X263580Y188189D01*
X263380Y187989D01*
X263580D01*
X263779Y187789D01*
X262598Y50381D02*
X262998Y50781D01*
X263398D01*
X262998Y51181D01*
X263398Y51581D01*
X262998D01*
X262598Y51981D01*
X262198Y51581D01*
X261798D01*
X262198Y51181D01*
X261798Y50781D01*
X262198D01*
X262598Y50381D01*
Y50781D02*
X262798Y50981D01*
X262998D01*
X262798Y51181D01*
X262998Y51381D01*
X262798D01*
X262598Y51581D01*
X262398Y51381D01*
X262198D01*
X262398Y51181D01*
X262198Y50981D01*
X262398D01*
X262598Y50781D01*
X183858Y101562D02*
X184258Y101962D01*
X184658D01*
X184258Y102362D01*
X184658Y102762D01*
X184258D01*
X183858Y103162D01*
X183458Y102762D01*
X183058D01*
X183458Y102362D01*
X183058Y101962D01*
X183458D01*
X183858Y101562D01*
Y101962D02*
X184058Y102162D01*
X184258D01*
X184058Y102362D01*
X184258Y102562D01*
X184058D01*
X183858Y102762D01*
X183658Y102562D01*
X183458D01*
X183658Y102362D01*
X183458Y102162D01*
X183658D01*
X183858Y101962D01*
Y105105D02*
X184258Y105506D01*
X184658D01*
X184258Y105905D01*
X184658Y106306D01*
X184258D01*
X183858Y106705D01*
X183458Y106306D01*
X183058D01*
X183458Y105905D01*
X183058Y105506D01*
X183458D01*
X183858Y105105D01*
Y105506D02*
X184058Y105705D01*
X184258D01*
X184058Y105905D01*
X184258Y106105D01*
X184058D01*
X183858Y106306D01*
X183658Y106105D01*
X183458D01*
X183658Y105905D01*
X183458Y105705D01*
X183658D01*
X183858Y105506D01*
X250984Y18098D02*
X251384Y18498D01*
X251784D01*
X251384Y18898D01*
X251784Y19298D01*
X251384D01*
X250984Y19698D01*
X250584Y19298D01*
X250184D01*
X250584Y18898D01*
X250184Y18498D01*
X250584D01*
X250984Y18098D01*
Y18498D02*
X251184Y18698D01*
X251384D01*
X251184Y18898D01*
X251384Y19098D01*
X251184D01*
X250984Y19298D01*
X250784Y19098D01*
X250584D01*
X250784Y18898D01*
X250584Y18698D01*
X250784D01*
X250984Y18498D01*
X130315Y116523D02*
X130715Y116923D01*
X131115D01*
X130715Y117323D01*
X131115Y117723D01*
X130715D01*
X130315Y118123D01*
X129915Y117723D01*
X129515D01*
X129915Y117323D01*
X129515Y116923D01*
X129915D01*
X130315Y116523D01*
Y116923D02*
X130515Y117123D01*
X130715D01*
X130515Y117323D01*
X130715Y117523D01*
X130515D01*
X130315Y117723D01*
X130115Y117523D01*
X129915D01*
X130115Y117323D01*
X129915Y117123D01*
X130115D01*
X130315Y116923D01*
X124409Y120460D02*
X124809Y120860D01*
X125209D01*
X124809Y121260D01*
X125209Y121660D01*
X124809D01*
X124409Y122060D01*
X124009Y121660D01*
X123609D01*
X124009Y121260D01*
X123609Y120860D01*
X124009D01*
X124409Y120460D01*
Y120860D02*
X124609Y121060D01*
X124809D01*
X124609Y121260D01*
X124809Y121460D01*
X124609D01*
X124409Y121660D01*
X124209Y121460D01*
X124009D01*
X124209Y121260D01*
X124009Y121060D01*
X124209D01*
X124409Y120860D01*
X124803Y114161D02*
X125203Y114561D01*
X125603D01*
X125203Y114961D01*
X125603Y115361D01*
X125203D01*
X124803Y115761D01*
X124403Y115361D01*
X124003D01*
X124403Y114961D01*
X124003Y114561D01*
X124403D01*
X124803Y114161D01*
Y114561D02*
X125003Y114761D01*
X125203D01*
X125003Y114961D01*
X125203Y115161D01*
X125003D01*
X124803Y115361D01*
X124603Y115161D01*
X124403D01*
X124603Y114961D01*
X124403Y114761D01*
X124603D01*
X124803Y114561D01*
X51968Y196050D02*
X52368Y196450D01*
X52768D01*
X52368Y196850D01*
X52768Y197250D01*
X52368D01*
X51968Y197650D01*
X51569Y197250D01*
X51169D01*
X51569Y196850D01*
X51169Y196450D01*
X51569D01*
X51968Y196050D01*
Y196450D02*
X52169Y196650D01*
X52368D01*
X52169Y196850D01*
X52368Y197050D01*
X52169D01*
X51968Y197250D01*
X51768Y197050D01*
X51569D01*
X51768Y196850D01*
X51569Y196650D01*
X51768D01*
X51968Y196450D01*
X57087Y196050D02*
X57487Y196450D01*
X57887D01*
X57487Y196850D01*
X57887Y197250D01*
X57487D01*
X57087Y197650D01*
X56687Y197250D01*
X56287D01*
X56687Y196850D01*
X56287Y196450D01*
X56687D01*
X57087Y196050D01*
Y196450D02*
X57287Y196650D01*
X57487D01*
X57287Y196850D01*
X57487Y197050D01*
X57287D01*
X57087Y197250D01*
X56887Y197050D01*
X56687D01*
X56887Y196850D01*
X56687Y196650D01*
X56887D01*
X57087Y196450D01*
X61811Y196050D02*
X62211Y196450D01*
X62611D01*
X62211Y196850D01*
X62611Y197250D01*
X62211D01*
X61811Y197650D01*
X61411Y197250D01*
X61011D01*
X61411Y196850D01*
X61011Y196450D01*
X61411D01*
X61811Y196050D01*
Y196450D02*
X62011Y196650D01*
X62211D01*
X62011Y196850D01*
X62211Y197050D01*
X62011D01*
X61811Y197250D01*
X61611Y197050D01*
X61411D01*
X61611Y196850D01*
X61411Y196650D01*
X61611D01*
X61811Y196450D01*
D181*
X56804Y185433D02*
G03*
X56804Y185433I-800J0D01*
G01*
X238939Y323416D02*
G03*
X238939Y323416I-800J0D01*
G01*
X268939Y333417D02*
G03*
X268939Y333417I-800J0D01*
G01*
Y303416D02*
G03*
X268939Y303416I-800J0D01*
G01*
X238939Y263417D02*
G03*
X238939Y263417I-800J0D01*
G01*
X268939D02*
G03*
X268939Y263417I-800J0D01*
G01*
X190044Y323416D02*
G03*
X190044Y323416I-800J0D01*
G01*
X220044Y333417D02*
G03*
X220044Y333417I-800J0D01*
G01*
Y303416D02*
G03*
X220044Y303416I-800J0D01*
G01*
X190044Y263417D02*
G03*
X190044Y263417I-800J0D01*
G01*
X220044D02*
G03*
X220044Y263417I-800J0D01*
G01*
X163398Y57472D02*
G03*
X163398Y57472I-800J0D01*
G01*
D182*
X238539Y323416D02*
G03*
X238539Y323416I-400J0D01*
G01*
X268539Y333417D02*
G03*
X268539Y333417I-400J0D01*
G01*
Y303416D02*
G03*
X268539Y303416I-400J0D01*
G01*
X238539Y263417D02*
G03*
X238539Y263417I-400J0D01*
G01*
X268539D02*
G03*
X268539Y263417I-400J0D01*
G01*
X189644Y323416D02*
G03*
X189644Y323416I-400J0D01*
G01*
X219644Y333417D02*
G03*
X219644Y333417I-400J0D01*
G01*
Y303416D02*
G03*
X219644Y303416I-400J0D01*
G01*
X189644Y263417D02*
G03*
X189644Y263417I-400J0D01*
G01*
X219644D02*
G03*
X219644Y263417I-400J0D01*
G01*
M02*
