G04*
G04 #@! TF.GenerationSoftware,Altium Limited,Altium Designer,20.0.13 (296)*
G04*
G04 Layer_Color=255*
%FSLAX25Y25*%
%MOIN*%
G70*
G01*
G75*
%ADD13C,0.00984*%
%ADD22C,0.03937*%
%ADD23C,0.02362*%
%ADD60C,0.08268*%
%ADD74R,0.04331X0.04921*%
%ADD75R,0.03800X0.03100*%
%ADD78R,0.02756X0.05118*%
%ADD79R,0.03100X0.03800*%
%ADD87R,0.05118X0.02756*%
%ADD118C,0.07874*%
%ADD119O,0.07087X0.14173*%
%ADD120O,0.15748X0.07874*%
%ADD121O,0.07874X0.15748*%
%ADD122O,0.06693X0.04724*%
%ADD123C,0.03937*%
%ADD124C,0.01181*%
%ADD125C,0.09843*%
%ADD126C,0.11811*%
%ADD127O,0.14173X0.07087*%
%ADD169R,0.03543X0.06299*%
%ADD170R,0.04331X0.02362*%
%ADD171R,0.04646X0.02284*%
%ADD172R,0.06299X0.03543*%
D13*
X290335Y123603D02*
Y123996D01*
Y121437D02*
Y121831D01*
Y119469D02*
Y119863D01*
Y117500D02*
Y117894D01*
Y117500D02*
Y117894D01*
Y119469D02*
Y119863D01*
Y121437D02*
Y121831D01*
Y123603D02*
Y123996D01*
X291713Y117500D02*
Y117894D01*
Y119469D02*
Y119863D01*
Y121437D02*
Y121831D01*
Y123603D02*
Y123996D01*
X290335Y70493D02*
Y70886D01*
Y72658D02*
Y73052D01*
Y74626D02*
Y75020D01*
Y76595D02*
Y76989D01*
X291713Y70493D02*
Y70886D01*
Y72658D02*
Y73052D01*
Y74626D02*
Y75020D01*
Y76595D02*
Y76989D01*
Y76595D02*
Y76989D01*
Y74626D02*
Y75020D01*
Y72658D02*
Y73052D01*
Y70493D02*
Y70886D01*
Y24036D02*
Y24430D01*
Y26201D02*
Y26595D01*
Y28170D02*
Y28563D01*
Y30138D02*
Y30532D01*
Y30138D02*
Y30532D01*
Y28170D02*
Y28563D01*
Y26201D02*
Y26595D01*
Y24036D02*
Y24430D01*
X290335Y30138D02*
Y30532D01*
Y28170D02*
Y28563D01*
Y26201D02*
Y26595D01*
Y24036D02*
Y24430D01*
D22*
X5408Y32087D02*
Y99803D01*
X4921Y32087D02*
X5408D01*
X0Y31496D02*
Y99803D01*
X10827Y31890D02*
Y99803D01*
X11024D01*
X8071Y32087D02*
Y99606D01*
X8268D01*
X4921Y32087D02*
Y99803D01*
X5894D01*
X1772Y31693D02*
Y99803D01*
X1575D02*
X1772D01*
X-1969Y31496D02*
Y99803D01*
Y-1969D02*
Y31496D01*
X13583D01*
X-1969Y99803D02*
X13757D01*
X-1969D02*
Y380315D01*
X291732Y137205D02*
X382677D01*
Y-1969D02*
Y137205D01*
X-1969Y-1969D02*
X382677D01*
X-1969Y380315D02*
X291732D01*
Y137205D02*
Y380315D01*
X13583Y31496D02*
X13757Y31670D01*
Y99803D01*
X-1969Y-1969D02*
X-1575D01*
D23*
X291024Y126319D02*
Y136614D01*
Y103091D02*
Y114902D01*
Y79587D02*
Y91398D01*
Y56359D02*
Y68170D01*
Y33130D02*
Y44941D01*
Y-846D02*
Y21556D01*
X290984Y100217D02*
X291024Y100256D01*
X290984Y94233D02*
X291024Y94272D01*
X290945Y97343D02*
X290984Y97382D01*
X290945Y50611D02*
X290984Y50650D01*
Y47501D02*
X291024Y47540D01*
X290984Y53485D02*
X291024Y53524D01*
D60*
X13484Y181102D02*
D03*
X166929Y14952D02*
D03*
D74*
X314370Y61024D02*
D03*
X304528D02*
D03*
D75*
X330315Y20464D02*
D03*
X336615D02*
D03*
X298425Y66929D02*
D03*
X304725D02*
D03*
X308268Y71645D02*
D03*
X314568D02*
D03*
Y76763D02*
D03*
X308268D02*
D03*
X320866Y92511D02*
D03*
X327166D02*
D03*
X349212Y51968D02*
D03*
X355512D02*
D03*
X367426D02*
D03*
X361126D02*
D03*
D78*
X311614Y13968D02*
D03*
X319094D02*
D03*
X327756Y98417D02*
D03*
X320276D02*
D03*
D79*
X349213Y8267D02*
D03*
Y14567D02*
D03*
X324016Y14559D02*
D03*
Y8259D02*
D03*
X318898Y26763D02*
D03*
Y20463D02*
D03*
X324016Y26763D02*
D03*
Y20463D02*
D03*
X307874Y81881D02*
D03*
Y88181D02*
D03*
X314961D02*
D03*
Y81881D02*
D03*
X348819Y88181D02*
D03*
Y81881D02*
D03*
X353937Y88181D02*
D03*
Y81881D02*
D03*
X359055Y81881D02*
D03*
Y88181D02*
D03*
X353937Y76370D02*
D03*
Y70070D02*
D03*
X359055Y76370D02*
D03*
Y70070D02*
D03*
X353937Y64559D02*
D03*
Y58259D02*
D03*
X359055Y64559D02*
D03*
Y58259D02*
D03*
D87*
X312205Y37983D02*
D03*
Y45464D02*
D03*
X327953Y37983D02*
D03*
Y45464D02*
D03*
X320079Y37983D02*
D03*
Y45464D02*
D03*
X312598Y19873D02*
D03*
Y27354D02*
D03*
D118*
X76378Y351969D02*
D03*
X174803D02*
D03*
X24016Y134646D02*
D03*
Y114961D02*
D03*
X95276Y235039D02*
D03*
X134646D02*
D03*
X75590Y313779D02*
D03*
X154331D02*
D03*
X34252Y283062D02*
D03*
X14567D02*
D03*
X34252Y240543D02*
D03*
X14567D02*
D03*
X146203Y102108D02*
D03*
X132283Y88189D02*
D03*
D119*
X56004Y185433D02*
D03*
D120*
X43799Y162205D02*
D03*
X166929Y32668D02*
D03*
D121*
X31201Y181102D02*
D03*
X185827Y45267D02*
D03*
D122*
X301575Y15739D02*
D03*
Y21645D02*
D03*
Y27550D02*
D03*
Y33456D02*
D03*
Y39361D02*
D03*
Y45267D02*
D03*
X279134Y45661D02*
D03*
Y39755D02*
D03*
Y33849D02*
D03*
Y27944D02*
D03*
Y22039D02*
D03*
Y16133D02*
D03*
D123*
X342106Y100220D02*
D03*
Y114362D02*
D03*
X327973Y114741D02*
D03*
D124*
X62244Y57078D02*
D03*
Y62590D02*
D03*
X64961Y59834D02*
D03*
X67756Y57078D02*
D03*
Y62590D02*
D03*
X73268Y57078D02*
D03*
Y62590D02*
D03*
X64961Y54322D02*
D03*
Y65346D02*
D03*
X70472Y54322D02*
D03*
Y59834D02*
D03*
Y65346D02*
D03*
D125*
X238139Y323416D02*
D03*
X268139Y333417D02*
D03*
Y303416D02*
D03*
X238139Y263417D02*
D03*
X268139D02*
D03*
X189244Y323416D02*
D03*
X219244Y333417D02*
D03*
Y303416D02*
D03*
X189244Y263417D02*
D03*
X219244D02*
D03*
D126*
X244639Y356291D02*
D03*
X264639D02*
D03*
X195744D02*
D03*
X215744D02*
D03*
X23622Y332520D02*
D03*
Y352520D02*
D03*
D127*
X162598Y57472D02*
D03*
D169*
X330118Y27157D02*
D03*
X341535D02*
D03*
D170*
X340748Y15542D02*
D03*
Y8062D02*
D03*
X330511Y15542D02*
D03*
Y11802D02*
D03*
Y8062D02*
D03*
D171*
X321051Y56744D02*
D03*
Y61744D02*
D03*
Y66744D02*
D03*
Y71744D02*
D03*
Y76744D02*
D03*
Y81744D02*
D03*
Y86744D02*
D03*
X341996Y56744D02*
D03*
Y61744D02*
D03*
Y66744D02*
D03*
Y71744D02*
D03*
Y76744D02*
D03*
Y81744D02*
D03*
Y86744D02*
D03*
D172*
X366142Y69389D02*
D03*
Y57972D02*
D03*
Y88468D02*
D03*
Y77050D02*
D03*
M02*
