G04*
G04 #@! TF.GenerationSoftware,Altium Limited,Altium Designer,20.0.13 (296)*
G04*
G04 Layer_Color=255*
%FSLAX25Y25*%
%MOIN*%
G70*
G01*
G75*
%ADD13C,0.00984*%
%ADD22C,0.03937*%
%ADD23C,0.02362*%
%ADD60C,0.08268*%
%ADD72R,0.24410X0.15354*%
%ADD73R,0.17323X0.12992*%
%ADD74R,0.04331X0.04921*%
%ADD75R,0.03800X0.03100*%
%ADD76R,0.03543X0.03150*%
%ADD77R,0.04134X0.02165*%
%ADD78R,0.02756X0.05118*%
%ADD79R,0.03100X0.03800*%
%ADD80R,0.03543X0.03543*%
%ADD81R,0.03543X0.05906*%
%ADD82R,0.05906X0.03543*%
%ADD83R,0.02756X0.05906*%
%ADD84R,0.03937X0.03150*%
%ADD85R,0.04724X0.01181*%
%ADD86R,0.01181X0.04724*%
%ADD87R,0.05118X0.02756*%
%ADD88R,0.07874X0.04331*%
%ADD89R,0.01575X0.05315*%
%ADD90R,0.08268X0.06299*%
%ADD91R,0.07480X0.07480*%
%ADD92R,0.05906X0.01968*%
%ADD93R,0.02362X0.04724*%
%ADD94R,0.05118X0.13386*%
%ADD95R,0.15354X0.24410*%
%ADD96R,0.12992X0.17323*%
%ADD97R,0.03937X0.01968*%
%ADD98R,0.03150X0.03543*%
%ADD99R,0.05906X0.05984*%
%ADD100R,0.12205X0.08661*%
%ADD101R,0.11811X0.07874*%
%ADD102R,0.06299X0.06299*%
%ADD103R,0.02165X0.04134*%
%ADD104R,0.12992X0.06299*%
%ADD105R,0.04724X0.06299*%
G04:AMPARAMS|DCode=106|XSize=62.99mil|YSize=49.21mil|CornerRadius=0mil|HoleSize=0mil|Usage=FLASHONLY|Rotation=45.000|XOffset=0mil|YOffset=0mil|HoleType=Round|Shape=Rectangle|*
%AMROTATEDRECTD106*
4,1,4,-0.00487,-0.03967,-0.03967,-0.00487,0.00487,0.03967,0.03967,0.00487,-0.00487,-0.03967,0.0*
%
%ADD106ROTATEDRECTD106*%

%ADD107R,0.06102X0.04724*%
%ADD118C,0.07874*%
%ADD119O,0.07087X0.14173*%
%ADD120O,0.15748X0.07874*%
%ADD121O,0.07874X0.15748*%
%ADD122O,0.06693X0.04724*%
%ADD123C,0.03937*%
%ADD124C,0.01181*%
%ADD125C,0.09843*%
%ADD126C,0.11811*%
%ADD127O,0.14173X0.07087*%
D13*
X290335Y123603D02*
Y123996D01*
Y121437D02*
Y121831D01*
Y119469D02*
Y119863D01*
Y117500D02*
Y117894D01*
Y117500D02*
Y117894D01*
Y119469D02*
Y119863D01*
Y121437D02*
Y121831D01*
Y123603D02*
Y123996D01*
X291713Y117500D02*
Y117894D01*
Y119469D02*
Y119863D01*
Y121437D02*
Y121831D01*
Y123603D02*
Y123996D01*
X290335Y70493D02*
Y70886D01*
Y72658D02*
Y73052D01*
Y74626D02*
Y75020D01*
Y76595D02*
Y76989D01*
X291713Y70493D02*
Y70886D01*
Y72658D02*
Y73052D01*
Y74626D02*
Y75020D01*
Y76595D02*
Y76989D01*
Y76595D02*
Y76989D01*
Y74626D02*
Y75020D01*
Y72658D02*
Y73052D01*
Y70493D02*
Y70886D01*
Y24036D02*
Y24430D01*
Y26201D02*
Y26595D01*
Y28170D02*
Y28563D01*
Y30138D02*
Y30532D01*
Y30138D02*
Y30532D01*
Y28170D02*
Y28563D01*
Y26201D02*
Y26595D01*
Y24036D02*
Y24430D01*
X290335Y30138D02*
Y30532D01*
Y28170D02*
Y28563D01*
Y26201D02*
Y26595D01*
Y24036D02*
Y24430D01*
D22*
X5408Y32087D02*
Y99803D01*
X4921Y32087D02*
X5408D01*
X0Y31496D02*
Y99803D01*
X10827Y31890D02*
Y99803D01*
X11024D01*
X8071Y32087D02*
Y99606D01*
X8268D01*
X4921Y32087D02*
Y99803D01*
X5894D01*
X1772Y31693D02*
Y99803D01*
X1575D02*
X1772D01*
X-1969Y31496D02*
Y99803D01*
Y-1969D02*
Y31496D01*
X13583D01*
X-1969Y99803D02*
X13757D01*
X-1969D02*
Y380315D01*
X291732Y137205D02*
X382677D01*
Y-1969D02*
Y137205D01*
X-1969Y-1969D02*
X382677D01*
X-1969Y380315D02*
X291732D01*
Y137205D02*
Y380315D01*
X13583Y31496D02*
X13757Y31670D01*
Y99803D01*
X-1969Y-1969D02*
X-1575D01*
D23*
X291024Y126319D02*
Y136614D01*
Y103091D02*
Y114902D01*
Y79587D02*
Y91398D01*
Y56359D02*
Y68170D01*
Y33130D02*
Y44941D01*
Y-846D02*
Y21556D01*
X290984Y100217D02*
X291024Y100256D01*
X290984Y94233D02*
X291024Y94272D01*
X290945Y97343D02*
X290984Y97382D01*
X290945Y50611D02*
X290984Y50650D01*
Y47501D02*
X291024Y47540D01*
X290984Y53485D02*
X291024Y53524D01*
D60*
X13484Y181102D02*
D03*
X166929Y14952D02*
D03*
D72*
X28445Y206496D02*
D03*
Y155709D02*
D03*
D73*
X63681Y178543D02*
D03*
D74*
X341929Y79921D02*
D03*
X332087D02*
D03*
D75*
X331889Y67323D02*
D03*
X338189D02*
D03*
X331889Y46842D02*
D03*
X338189D02*
D03*
X85394Y21910D02*
D03*
X79094D02*
D03*
X73229Y16339D02*
D03*
X66929D02*
D03*
X245276Y134646D02*
D03*
X238976D02*
D03*
X250000Y150394D02*
D03*
X256300D02*
D03*
X259843Y158409D02*
D03*
X253543D02*
D03*
X259843Y164409D02*
D03*
X253543D02*
D03*
X253937Y175197D02*
D03*
X247637D02*
D03*
X200393Y182677D02*
D03*
X206693D02*
D03*
X234252Y237787D02*
D03*
X240552D02*
D03*
X222835D02*
D03*
X216535D02*
D03*
X177165Y136614D02*
D03*
X183465D02*
D03*
X177165Y131881D02*
D03*
X183465D02*
D03*
X264960Y78759D02*
D03*
X271260D02*
D03*
X115748Y127944D02*
D03*
X109448D02*
D03*
X51968Y128740D02*
D03*
X58268D02*
D03*
X178740Y175197D02*
D03*
X185040D02*
D03*
X170866Y147244D02*
D03*
X177166D02*
D03*
D76*
X338976Y52550D02*
D03*
Y60031D02*
D03*
X331102Y56291D02*
D03*
X61811Y16339D02*
D03*
Y23819D02*
D03*
X53937Y20079D02*
D03*
X239764Y250975D02*
D03*
Y243495D02*
D03*
X247638Y247235D02*
D03*
X217717Y243447D02*
D03*
Y250927D02*
D03*
X209842Y247187D02*
D03*
D77*
X251181Y31496D02*
D03*
X240158D02*
D03*
X266142Y250629D02*
D03*
X255118D02*
D03*
X190551D02*
D03*
X201575D02*
D03*
D78*
X250984Y25197D02*
D03*
X258465D02*
D03*
X42717Y9046D02*
D03*
X35236D02*
D03*
X42717Y15739D02*
D03*
X35236D02*
D03*
X42717Y22432D02*
D03*
X35236D02*
D03*
X161811Y137787D02*
D03*
X154331D02*
D03*
D79*
X196457Y142126D02*
D03*
Y148426D02*
D03*
X47244Y17708D02*
D03*
Y24008D02*
D03*
X233858Y245314D02*
D03*
Y251613D02*
D03*
X223228D02*
D03*
Y245314D02*
D03*
X226772Y125189D02*
D03*
Y118888D02*
D03*
X221654D02*
D03*
Y125189D02*
D03*
X216535Y118888D02*
D03*
Y125189D02*
D03*
X207480Y91329D02*
D03*
Y97629D02*
D03*
Y85818D02*
D03*
Y79518D02*
D03*
X211417Y118888D02*
D03*
Y125189D02*
D03*
X122835Y40945D02*
D03*
Y34645D02*
D03*
X136221Y177559D02*
D03*
Y171259D02*
D03*
X219000Y196851D02*
D03*
Y190551D02*
D03*
D80*
X73228Y65346D02*
D03*
X62205D02*
D03*
X73228Y54322D02*
D03*
X62205D02*
D03*
X67716D02*
D03*
Y65346D02*
D03*
X73228Y59834D02*
D03*
X62205D02*
D03*
X67716D02*
D03*
D81*
X37520Y100188D02*
D03*
X42520D02*
D03*
X47520D02*
D03*
X52520D02*
D03*
X57520D02*
D03*
X62520D02*
D03*
X67520D02*
D03*
X72520D02*
D03*
X77520D02*
D03*
X82520D02*
D03*
X87520D02*
D03*
X92520D02*
D03*
X97520D02*
D03*
X102520D02*
D03*
Y31291D02*
D03*
X97520D02*
D03*
X92520D02*
D03*
X87520D02*
D03*
X82520D02*
D03*
X77520D02*
D03*
X72520D02*
D03*
X67520D02*
D03*
X62520D02*
D03*
X57520D02*
D03*
X52520D02*
D03*
X47520D02*
D03*
X42520D02*
D03*
X37520D02*
D03*
D82*
X107441Y88239D02*
D03*
Y83239D02*
D03*
Y78239D02*
D03*
Y73239D02*
D03*
Y68239D02*
D03*
Y63239D02*
D03*
Y58239D02*
D03*
Y53239D02*
D03*
Y48239D02*
D03*
Y43239D02*
D03*
D83*
X112677Y14114D02*
D03*
X106772D02*
D03*
X94961D02*
D03*
D84*
X118189Y11358D02*
D03*
Y3484D02*
D03*
X89449D02*
D03*
Y11358D02*
D03*
D85*
X205220Y168298D02*
D03*
Y166330D02*
D03*
Y164361D02*
D03*
Y162393D02*
D03*
Y160424D02*
D03*
Y158456D02*
D03*
Y156487D02*
D03*
Y154519D02*
D03*
Y152550D02*
D03*
Y150582D02*
D03*
Y148613D02*
D03*
Y146645D02*
D03*
X238685D02*
D03*
Y148613D02*
D03*
Y150582D02*
D03*
Y152550D02*
D03*
Y154519D02*
D03*
Y156487D02*
D03*
Y158456D02*
D03*
Y160424D02*
D03*
Y162393D02*
D03*
Y164361D02*
D03*
Y166330D02*
D03*
Y168298D02*
D03*
D86*
X211126Y140739D02*
D03*
X213094D02*
D03*
X215063D02*
D03*
X217031D02*
D03*
X219000D02*
D03*
X220968D02*
D03*
X222937D02*
D03*
X224905D02*
D03*
X226874D02*
D03*
X228842D02*
D03*
X230811D02*
D03*
X232779D02*
D03*
Y174204D02*
D03*
X230811D02*
D03*
X228842D02*
D03*
X226874D02*
D03*
X224905D02*
D03*
X222937D02*
D03*
X220968D02*
D03*
X219000D02*
D03*
X217031D02*
D03*
X215063D02*
D03*
X213094D02*
D03*
X211126D02*
D03*
D87*
X192913Y190149D02*
D03*
Y182668D02*
D03*
X184992Y190046D02*
D03*
Y182566D02*
D03*
X195669Y105700D02*
D03*
Y113180D02*
D03*
X188976Y105700D02*
D03*
Y113180D02*
D03*
X272047Y93692D02*
D03*
Y86212D02*
D03*
X265354Y93692D02*
D03*
Y86212D02*
D03*
X262992Y45661D02*
D03*
Y38180D02*
D03*
X255118Y45661D02*
D03*
Y38180D02*
D03*
X247244Y45661D02*
D03*
Y38180D02*
D03*
X46850Y137205D02*
D03*
Y144685D02*
D03*
X91339Y138583D02*
D03*
Y146063D02*
D03*
X84646Y138583D02*
D03*
Y146063D02*
D03*
X170079Y165945D02*
D03*
Y158465D02*
D03*
X129134Y170276D02*
D03*
Y177756D02*
D03*
D88*
X244488Y228189D02*
D03*
Y218189D02*
D03*
Y208189D02*
D03*
Y198189D02*
D03*
Y188189D02*
D03*
D89*
X233071Y18504D02*
D03*
X230512D02*
D03*
X227953D02*
D03*
X225394D02*
D03*
X222835D02*
D03*
D90*
X215748Y18012D02*
D03*
X240158D02*
D03*
D91*
X232677Y7972D02*
D03*
X223228D02*
D03*
X212795D02*
D03*
X243110D02*
D03*
D92*
X235571Y93759D02*
D03*
Y88759D02*
D03*
Y83759D02*
D03*
Y78759D02*
D03*
X257224D02*
D03*
Y83759D02*
D03*
Y88759D02*
D03*
Y93759D02*
D03*
X101772Y133445D02*
D03*
Y138445D02*
D03*
Y143445D02*
D03*
Y148445D02*
D03*
X123425D02*
D03*
Y143445D02*
D03*
Y138445D02*
D03*
Y133445D02*
D03*
X195669Y101172D02*
D03*
Y96172D02*
D03*
Y91172D02*
D03*
Y86172D02*
D03*
X174016D02*
D03*
Y91172D02*
D03*
Y96172D02*
D03*
Y101172D02*
D03*
D93*
X225493Y35236D02*
D03*
Y44291D02*
D03*
X229233Y35236D02*
D03*
Y44291D02*
D03*
X232973Y35236D02*
D03*
Y44291D02*
D03*
D94*
X117520Y116920D02*
D03*
X109252D02*
D03*
D95*
X141535Y29912D02*
D03*
X192323D02*
D03*
D96*
X169488Y65149D02*
D03*
D97*
X165748Y100838D02*
D03*
Y96507D02*
D03*
D98*
X58071Y122835D02*
D03*
X50591D02*
D03*
X54331Y114961D02*
D03*
D99*
X82992Y116929D02*
D03*
D100*
X95669D02*
D03*
D101*
X90945Y168110D02*
D03*
X114567D02*
D03*
D102*
X90551Y209440D02*
D03*
X104724D02*
D03*
D103*
X90945Y189755D02*
D03*
Y200779D02*
D03*
X161811Y116535D02*
D03*
Y127559D02*
D03*
D104*
X152756Y177550D02*
D03*
D105*
X161811Y152354D02*
D03*
X152756D02*
D03*
X143701D02*
D03*
D106*
X179189Y157755D02*
D03*
X189489Y168055D02*
D03*
X185314Y151630D02*
D03*
X195614Y161930D02*
D03*
D107*
X154331Y188948D02*
D03*
Y209460D02*
D03*
X119685Y188948D02*
D03*
Y209460D02*
D03*
D118*
X76378Y351969D02*
D03*
X174803D02*
D03*
X24016Y134646D02*
D03*
Y114961D02*
D03*
X95276Y235039D02*
D03*
X134646D02*
D03*
X75590Y313779D02*
D03*
X154331D02*
D03*
X34252Y283062D02*
D03*
X14567D02*
D03*
X34252Y240543D02*
D03*
X14567D02*
D03*
X146203Y102108D02*
D03*
X132283Y88189D02*
D03*
D119*
X56004Y185433D02*
D03*
D120*
X43799Y162205D02*
D03*
X166929Y32668D02*
D03*
D121*
X31201Y181102D02*
D03*
X185827Y45267D02*
D03*
D122*
X301575Y15739D02*
D03*
Y21645D02*
D03*
Y27550D02*
D03*
Y33456D02*
D03*
Y39361D02*
D03*
Y45267D02*
D03*
X279134Y45661D02*
D03*
Y39755D02*
D03*
Y33849D02*
D03*
Y27944D02*
D03*
Y22039D02*
D03*
Y16133D02*
D03*
D123*
X342106Y100220D02*
D03*
Y114362D02*
D03*
X327973Y114741D02*
D03*
D124*
X62244Y57078D02*
D03*
Y62590D02*
D03*
X64961Y59834D02*
D03*
X67756Y57078D02*
D03*
Y62590D02*
D03*
X73268Y57078D02*
D03*
Y62590D02*
D03*
X64961Y54322D02*
D03*
Y65346D02*
D03*
X70472Y54322D02*
D03*
Y59834D02*
D03*
Y65346D02*
D03*
D125*
X238139Y323416D02*
D03*
X268139Y333417D02*
D03*
Y303416D02*
D03*
X238139Y263417D02*
D03*
X268139D02*
D03*
X189244Y323416D02*
D03*
X219244Y333417D02*
D03*
Y303416D02*
D03*
X189244Y263417D02*
D03*
X219244D02*
D03*
D126*
X244639Y356291D02*
D03*
X264639D02*
D03*
X195744D02*
D03*
X215744D02*
D03*
X23622Y332520D02*
D03*
Y352520D02*
D03*
D127*
X162598Y57472D02*
D03*
M02*
