M48
;Layer_Color=9474304
;FILE_FORMAT=2:5
INCH,LZ
;TYPE=PLATED
T1F00S00C0.00787
T2F00S00C0.01181
T3F00S00C0.01378
T4F00S00C0.01968
T5F00S00C0.03150
T6F00S00C0.03543
T7F00S00C0.03937
T10F00S00C0.05118
T11F00S00C0.06890
;TYPE=NON_PLATED
T12F00S00C0.08268
%
T01
X0064961Y0054322
X0062244Y0057078
X0064961Y0059834
X0062244Y006259
X0064961Y0065346
X0070472
X0067756Y006259
X0070472Y0059834
X0067756Y0057078
X0070472Y0054322
X0073268Y0057078
Y006259
T02
X0229134Y0030315
Y0049213
X0222441Y0060138
Y0062807
X0213386Y0078347
X0213779Y0187008
X0270472Y0162598
Y0159843
T03
X0029921Y0009055
Y0015748
Y0022441
X0037402Y0038189
X004685Y001378
Y0009449
X005315Y0010236
X006811Y0023819
X023937Y003937
X0250984Y0018898
X0255512Y0009449
X0265354Y0016142
X0311614Y0007087
X0318504Y0034646
X0324803
X0299921Y0059095
X0265748Y006063
X0262598Y0051181
X0255118
X0247244
X023937Y0047244
X0235827Y0072441
X0213779Y0085827
X0217717Y0091339
X023189Y0105512
X0240826Y0105433
X0248819Y0105512
X0238976Y0114567
X023937Y0124016
X0253543Y0134646
X0247244Y0141339
X0264173Y0150394
X0253937Y0169685
X0241732Y0175197
X022874Y0165354
X0216929
X0216535Y0151969
X022874
X0224872Y0183858
X0223947Y0187795
X0263779Y0188189
X0281496Y0090158
X0276378Y007126
X020196Y0079518
X0190157Y0079921
X0182677Y0077165
X0183858Y0102362
Y0105905
X018189Y0120079
X0197638
X01993Y01284
X0206693Y0132677
X0191732Y0137402
X0190551Y0144882
X0192913Y0176378
X0200394
X0178347Y016811
X0165354Y0168504
X0168898Y0173228
Y017874
X0161811Y0163386
Y015748
X0152006Y0165642
X0151537Y0144776
X0147638Y0124803
X0130315Y0117323
X0124803Y0114961
X0124409Y012126
X0091732Y0131496
X0088189
X0084646
X0081102
X0070472Y0123228
X0074803Y0112598
X005752Y0108661
X0058661Y0169291
X0066142
X0073622
X007559Y0155118
X0083858Y015315
X0091732
X0100787Y0181102
X0111811
X013937Y0184646
X0170866Y0127165
X020196Y0097629
X0118148Y0072404
X0061811Y019685
X0057087
X0051968
X0050787Y015315
X004685Y0131496
X0045276Y0119685
X005252Y0108661
X0190945Y02
X020315
X0206693Y0213386
X0198425Y0227165
X020748Y0235827
X0219685Y0226772
X0219897Y0216535
X0214567Y0205512
X022874Y0233858
Y0263386
X0270079Y0228346
Y0208268
T04
X0342106Y010022
Y0114362
X0327973Y0114741
T05
X0279134Y0016133
Y0022039
Y0027944
Y0033849
Y0039755
X0301575Y0039361
Y0033456
Y002755
Y0021645
Y0015739
Y0045267
X0279134Y0045661
X0024016Y0114961
Y0134646
T06
X0097913Y0007421
X0109724
T07
X0132283Y0088189
X0146203Y0102108
X0034252Y0240543
X0014567
Y0283062
X0034252
X007559Y0313779
X0076378Y0351969
X0174803
X0154331Y0313779
X0134646Y0235039
X0095276
T10
X0189244Y0263417
Y0323416
X0219244Y0333417
X0238139Y0323416
X0219244Y0303416
Y0263417
X0238139
X0268139
Y0303416
Y0333417
T11
X0023622Y033252
Y035252
X0215744Y0356291
X0244639
X0264639
X0195744
T12
X0166929Y0014952
X0013484Y0181102
M30
