G04*
G04 #@! TF.GenerationSoftware,Altium Limited,Altium Designer,20.0.13 (296)*
G04*
G04 Layer_Color=128*
%FSLAX25Y25*%
%MOIN*%
G70*
G01*
G75*
%ADD13C,0.00984*%
%ADD22C,0.03937*%
%ADD23C,0.02362*%
%ADD180C,0.00200*%
D13*
X290335Y123603D02*
Y123996D01*
Y121437D02*
Y121831D01*
Y119469D02*
Y119863D01*
Y117500D02*
Y117894D01*
Y117500D02*
Y117894D01*
Y119469D02*
Y119863D01*
Y121437D02*
Y121831D01*
Y123603D02*
Y123996D01*
X291713Y117500D02*
Y117894D01*
Y119469D02*
Y119863D01*
Y121437D02*
Y121831D01*
Y123603D02*
Y123996D01*
X290335Y70493D02*
Y70886D01*
Y72658D02*
Y73052D01*
Y74626D02*
Y75020D01*
Y76595D02*
Y76989D01*
X291713Y70493D02*
Y70886D01*
Y72658D02*
Y73052D01*
Y74626D02*
Y75020D01*
Y76595D02*
Y76989D01*
Y76595D02*
Y76989D01*
Y74626D02*
Y75020D01*
Y72658D02*
Y73052D01*
Y70493D02*
Y70886D01*
Y24036D02*
Y24430D01*
Y26201D02*
Y26595D01*
Y28170D02*
Y28563D01*
Y30138D02*
Y30532D01*
Y30138D02*
Y30532D01*
Y28170D02*
Y28563D01*
Y26201D02*
Y26595D01*
Y24036D02*
Y24430D01*
X290335Y30138D02*
Y30532D01*
Y28170D02*
Y28563D01*
Y26201D02*
Y26595D01*
Y24036D02*
Y24430D01*
D22*
X5408Y32087D02*
Y99803D01*
X4921Y32087D02*
X5408D01*
X0Y31496D02*
Y99803D01*
X10827Y31890D02*
Y99803D01*
X11024D01*
X8071Y32087D02*
Y99606D01*
X8268D01*
X4921Y32087D02*
Y99803D01*
X5894D01*
X1772Y31693D02*
Y99803D01*
X1575D02*
X1772D01*
X-1969Y31496D02*
Y99803D01*
Y-1969D02*
Y31496D01*
X13583D01*
X-1969Y99803D02*
X13757D01*
X-1969D02*
Y380315D01*
X291732Y137205D02*
X382677D01*
Y-1969D02*
Y137205D01*
X-1969Y-1969D02*
X382677D01*
X-1969Y380315D02*
X291732D01*
Y137205D02*
Y380315D01*
X13583Y31496D02*
X13757Y31670D01*
Y99803D01*
X-1969Y-1969D02*
X-1575D01*
D23*
X291024Y126319D02*
Y136614D01*
Y103091D02*
Y114902D01*
Y79587D02*
Y91398D01*
Y56359D02*
Y68170D01*
Y33130D02*
Y44941D01*
Y-846D02*
Y21556D01*
X290984Y100217D02*
X291024Y100256D01*
X290984Y94233D02*
X291024Y94272D01*
X290945Y97343D02*
X290984Y97382D01*
X290945Y50611D02*
X290984Y50650D01*
Y47501D02*
X291024Y47540D01*
X290984Y53485D02*
X291024Y53524D01*
D180*
X74410Y351969D02*
X78347D01*
X76378Y350000D02*
Y353937D01*
X172835Y351969D02*
X176772D01*
X174803Y350000D02*
Y353937D01*
X53642Y185433D02*
X58366D01*
X56004Y183071D02*
Y187795D01*
X41437Y162205D02*
X46161D01*
X43799Y159843D02*
Y164567D01*
X29232Y181102D02*
X33169D01*
X31201Y179134D02*
Y183071D01*
X9350Y181102D02*
X17618D01*
X13484Y176969D02*
Y185236D01*
X300000Y15739D02*
X303150D01*
X301575Y14164D02*
Y17314D01*
X300000Y21645D02*
X303150D01*
X301575Y20070D02*
Y23220D01*
X300000Y27550D02*
X303150D01*
X301575Y25975D02*
Y29125D01*
X300000Y33456D02*
X303150D01*
X301575Y31881D02*
Y35031D01*
X300000Y39361D02*
X303150D01*
X301575Y37786D02*
Y40936D01*
X300000Y45267D02*
X303150D01*
X301575Y43692D02*
Y46842D01*
X341121Y100220D02*
X343090D01*
X342106Y99236D02*
Y101204D01*
X341121Y114362D02*
X343090D01*
X342106Y113378D02*
Y115347D01*
X326989Y114741D02*
X328958D01*
X327973Y113756D02*
Y115725D01*
X22441Y134646D02*
X25591D01*
X24016Y133071D02*
Y136221D01*
X22441Y114961D02*
X25591D01*
X24016Y113386D02*
Y116535D01*
X61850Y57078D02*
X62638D01*
X62244Y56684D02*
Y57472D01*
X61850Y62590D02*
X62638D01*
X62244Y62196D02*
Y62983D01*
X64567Y59834D02*
X65354D01*
X64961Y59440D02*
Y60228D01*
X67362Y57078D02*
X68150D01*
X67756Y56684D02*
Y57472D01*
X67362Y62590D02*
X68150D01*
X67756Y62196D02*
Y62983D01*
X72874Y57078D02*
X73661D01*
X73268Y56684D02*
Y57472D01*
X72874Y62590D02*
X73661D01*
X73268Y62196D02*
Y62983D01*
X64567Y54322D02*
X65354D01*
X64961Y53928D02*
Y54716D01*
X64567Y65346D02*
X65354D01*
X64961Y64952D02*
Y65739D01*
X70079Y54322D02*
X70866D01*
X70472Y53928D02*
Y54716D01*
X70079Y59834D02*
X70866D01*
X70472Y59440D02*
Y60228D01*
X70079Y65346D02*
X70866D01*
X70472Y64952D02*
Y65739D01*
X107953Y7421D02*
X111496D01*
X109724Y5650D02*
Y9193D01*
X96142Y7421D02*
X99685D01*
X97913Y5650D02*
Y9193D01*
X235579Y323416D02*
X240698D01*
X238139Y320857D02*
Y325975D01*
X265580Y333417D02*
X270698D01*
X268139Y330857D02*
Y335976D01*
X265580Y303416D02*
X270698D01*
X268139Y300857D02*
Y305976D01*
X235579Y263417D02*
X240698D01*
X238139Y260857D02*
Y265975D01*
X265580Y263417D02*
X270698D01*
X268139Y260857D02*
Y265975D01*
X186685Y323416D02*
X191803D01*
X189244Y320857D02*
Y325975D01*
X216685Y333417D02*
X221803D01*
X219244Y330857D02*
Y335976D01*
X216685Y303416D02*
X221803D01*
X219244Y300857D02*
Y305976D01*
X186685Y263417D02*
X191803D01*
X189244Y260857D02*
Y265975D01*
X216685Y263417D02*
X221803D01*
X219244Y260857D02*
Y265975D01*
X241194Y356291D02*
X248083D01*
X244639Y352846D02*
Y359735D01*
X261194Y356291D02*
X268084D01*
X264639Y352846D02*
Y359735D01*
X192299Y356291D02*
X199189D01*
X195744Y352846D02*
Y359735D01*
X212299Y356291D02*
X219189D01*
X215744Y352846D02*
Y359735D01*
X93307Y235039D02*
X97244D01*
X95276Y233071D02*
Y237008D01*
X132677Y235039D02*
X136614D01*
X134646Y233071D02*
Y237008D01*
X73622Y313779D02*
X77559D01*
X75590Y311811D02*
Y315748D01*
X152362Y313779D02*
X156299D01*
X154331Y311811D02*
Y315748D01*
X20177Y332520D02*
X27067D01*
X23622Y329075D02*
Y335965D01*
X20177Y352520D02*
X27067D01*
X23622Y349075D02*
Y355965D01*
X32283Y283062D02*
X36220D01*
X34252Y281094D02*
Y285031D01*
X12598Y283062D02*
X16535D01*
X14567Y281094D02*
Y285031D01*
X32283Y240543D02*
X36220D01*
X34252Y238574D02*
Y242511D01*
X12598Y240543D02*
X16535D01*
X14567Y238574D02*
Y242511D01*
X277559Y45661D02*
X280709D01*
X279134Y44086D02*
Y47235D01*
X277559Y39755D02*
X280709D01*
X279134Y38180D02*
Y41330D01*
X277559Y33849D02*
X280709D01*
X279134Y32275D02*
Y35424D01*
X277559Y27944D02*
X280709D01*
X279134Y26369D02*
Y29519D01*
X277559Y22039D02*
X280709D01*
X279134Y20464D02*
Y23613D01*
X277559Y16133D02*
X280709D01*
X279134Y14558D02*
Y17708D01*
X160236Y57472D02*
X164961D01*
X162598Y55109D02*
Y59834D01*
X183465Y45267D02*
X188189D01*
X185827Y42905D02*
Y47629D01*
X164961Y32668D02*
X168898D01*
X166929Y30700D02*
Y34637D01*
X162795Y14952D02*
X171063D01*
X166929Y10818D02*
Y19086D01*
X144234Y102108D02*
X148171D01*
X146203Y100140D02*
Y104077D01*
X130315Y88189D02*
X134252D01*
X132283Y86221D02*
Y90158D01*
X299232Y59095D02*
X300610D01*
X299921Y58406D02*
Y59784D01*
X221850Y62807D02*
X223031D01*
X222441Y62216D02*
Y63397D01*
X221850Y60138D02*
X223031D01*
X222441Y59548D02*
Y60729D01*
X280807Y90158D02*
X282185D01*
X281496Y89468D02*
Y90847D01*
X263484Y150394D02*
X264862D01*
X264173Y149705D02*
Y151083D01*
X253248Y169685D02*
X254626D01*
X253937Y168996D02*
Y170374D01*
X241043Y175197D02*
X242421D01*
X241732Y174508D02*
Y175886D01*
X269882Y162598D02*
X271063D01*
X270472Y162008D02*
Y163189D01*
X269882Y159843D02*
X271063D01*
X270472Y159252D02*
Y160433D01*
X235138Y72441D02*
X236516D01*
X235827Y71752D02*
Y73130D01*
X265059Y60630D02*
X266437D01*
X265748Y59941D02*
Y61319D01*
X275689Y71260D02*
X277067D01*
X276378Y70571D02*
Y71949D01*
X238681Y47244D02*
X240059D01*
X239370Y46555D02*
Y47933D01*
X238681Y39370D02*
X240059D01*
X239370Y38681D02*
Y40059D01*
X254429Y51181D02*
X255807D01*
X255118Y50492D02*
Y51870D01*
X246555Y51181D02*
X247933D01*
X247244Y50492D02*
Y51870D01*
X228543Y49213D02*
X229724D01*
X229134Y48622D02*
Y49803D01*
X228543Y30315D02*
X229724D01*
X229134Y29724D02*
Y30906D01*
X264665Y16142D02*
X266043D01*
X265354Y15453D02*
Y16831D01*
X254823Y9449D02*
X256201D01*
X255512Y8760D02*
Y10138D01*
X317815Y34646D02*
X319193D01*
X318504Y33957D02*
Y35335D01*
X324114Y34646D02*
X325492D01*
X324803Y33957D02*
Y35335D01*
X310925Y7087D02*
X312303D01*
X311614Y6398D02*
Y7776D01*
X197736Y227165D02*
X199114D01*
X198425Y226476D02*
Y227854D01*
X206791Y235827D02*
X208169D01*
X207480Y235138D02*
Y236516D01*
X196949Y120079D02*
X198327D01*
X197638Y119390D02*
Y120768D01*
X151317Y165642D02*
X152695D01*
X152006Y164953D02*
Y166331D01*
X117459Y72404D02*
X118837D01*
X118148Y71715D02*
Y73093D01*
X50098Y153150D02*
X51476D01*
X50787Y152461D02*
Y153839D01*
X177657Y168110D02*
X179035D01*
X178347Y167421D02*
Y168799D01*
X146949Y124803D02*
X148327D01*
X147638Y124114D02*
Y125492D01*
X150848Y144776D02*
X152226D01*
X151537Y144087D02*
Y145465D01*
X138681Y184646D02*
X140059D01*
X139370Y183957D02*
Y185335D01*
X170177Y127165D02*
X171555D01*
X170866Y126476D02*
Y127854D01*
X111122Y181102D02*
X112500D01*
X111811Y180413D02*
Y181791D01*
X100098Y181102D02*
X101476D01*
X100787Y180413D02*
Y181791D01*
X74902Y155118D02*
X76279D01*
X75590Y154429D02*
Y155807D01*
X91043Y153150D02*
X92421D01*
X91732Y152461D02*
Y153839D01*
X83169Y153150D02*
X84547D01*
X83858Y152461D02*
Y153839D01*
X74114Y112598D02*
X75492D01*
X74803Y111909D02*
Y113287D01*
X44587Y119685D02*
X45965D01*
X45276Y118996D02*
Y120374D01*
X181201Y120079D02*
X182579D01*
X181890Y119390D02*
Y120768D01*
X199705Y176378D02*
X201083D01*
X200394Y175689D02*
Y177067D01*
X192224Y176378D02*
X193602D01*
X192913Y175689D02*
Y177067D01*
X228051Y151969D02*
X229429D01*
X228740Y151279D02*
Y152657D01*
X215846Y151969D02*
X217224D01*
X216535Y151279D02*
Y152657D01*
X228051Y165354D02*
X229429D01*
X228740Y164665D02*
Y166043D01*
X216240Y165354D02*
X217618D01*
X216929Y164665D02*
Y166043D01*
X213189Y187008D02*
X214370D01*
X213779Y186417D02*
Y187598D01*
X191043Y137402D02*
X192421D01*
X191732Y136713D02*
Y138091D01*
X252854Y134646D02*
X254232D01*
X253543Y133957D02*
Y135335D01*
X269390Y208268D02*
X270768D01*
X270079Y207579D02*
Y208957D01*
X269390Y228346D02*
X270768D01*
X270079Y227658D02*
Y229035D01*
X213878Y205512D02*
X215256D01*
X214567Y204823D02*
Y206201D01*
X202461Y200000D02*
X203839D01*
X203150Y199311D02*
Y200689D01*
X219208Y216535D02*
X220586D01*
X219897Y215846D02*
Y217224D01*
X190256Y200000D02*
X191634D01*
X190945Y199311D02*
Y200689D01*
X206004Y213386D02*
X207382D01*
X206693Y212697D02*
Y214075D01*
X218996Y226772D02*
X220374D01*
X219685Y226083D02*
Y227461D01*
X228051Y233858D02*
X229429D01*
X228740Y233169D02*
Y234547D01*
X228051Y263386D02*
X229429D01*
X228740Y262697D02*
Y264075D01*
X164665Y168504D02*
X166043D01*
X165354Y167815D02*
Y169193D01*
X168209Y178740D02*
X169587D01*
X168898Y178051D02*
Y179429D01*
X168209Y173228D02*
X169587D01*
X168898Y172539D02*
Y173917D01*
X161122Y163386D02*
X162500D01*
X161811Y162697D02*
Y164075D01*
X161122Y157480D02*
X162500D01*
X161811Y156791D02*
Y158169D01*
X36713Y38189D02*
X38091D01*
X37402Y37500D02*
Y38878D01*
X29232Y22441D02*
X30610D01*
X29921Y21752D02*
Y23130D01*
X29232Y15748D02*
X30610D01*
X29921Y15059D02*
Y16437D01*
X29232Y9055D02*
X30610D01*
X29921Y8366D02*
Y9744D01*
X67421Y23819D02*
X68799D01*
X68110Y23130D02*
Y24508D01*
X46161Y131496D02*
X47539D01*
X46850Y130807D02*
Y132185D01*
X198611Y128400D02*
X199989D01*
X199300Y127711D02*
Y129089D01*
X206004Y132677D02*
X207382D01*
X206693Y131988D02*
Y133366D01*
X80413Y131496D02*
X81791D01*
X81102Y130807D02*
Y132185D01*
X83957Y131496D02*
X85335D01*
X84646Y130807D02*
Y132185D01*
X87500Y131496D02*
X88878D01*
X88189Y130807D02*
Y132185D01*
X91043Y131496D02*
X92421D01*
X91732Y130807D02*
Y132185D01*
X51831Y108661D02*
X53209D01*
X52520Y107973D02*
Y109350D01*
X56831Y108661D02*
X58209D01*
X57520Y107973D02*
Y109350D01*
X189469Y79921D02*
X190847D01*
X190157Y79232D02*
Y80610D01*
X212795Y78347D02*
X213976D01*
X213386Y77756D02*
Y78937D01*
X201271Y79518D02*
X202649D01*
X201960Y78829D02*
Y80207D01*
X201271Y97629D02*
X202649D01*
X201960Y96940D02*
Y98318D01*
X224183Y183858D02*
X225561D01*
X224872Y183169D02*
Y184547D01*
X69784Y123228D02*
X71161D01*
X70472Y122539D02*
Y123917D01*
X72933Y169291D02*
X74311D01*
X73622Y168602D02*
Y169980D01*
X65453Y169291D02*
X66831D01*
X66142Y168602D02*
Y169980D01*
X57973Y169291D02*
X59350D01*
X58661Y168602D02*
Y169980D01*
X189862Y144882D02*
X191240D01*
X190551Y144193D02*
Y145571D01*
X181988Y77165D02*
X183366D01*
X182677Y76476D02*
Y77854D01*
X240137Y105433D02*
X241515D01*
X240826Y104744D02*
Y106122D01*
X248130Y105512D02*
X249508D01*
X248819Y104823D02*
Y106201D01*
X238287Y114567D02*
X239665D01*
X238976Y113878D02*
Y115256D01*
X231201Y105512D02*
X232579D01*
X231890Y104823D02*
Y106201D01*
X246555Y141339D02*
X247933D01*
X247244Y140650D02*
Y142027D01*
X238681Y124016D02*
X240059D01*
X239370Y123327D02*
Y124705D01*
X52461Y10236D02*
X53839D01*
X53150Y9547D02*
Y10925D01*
X46161Y9449D02*
X47539D01*
X46850Y8760D02*
Y10138D01*
X46161Y13780D02*
X47539D01*
X46850Y13091D02*
Y14469D01*
X223258Y187795D02*
X224636D01*
X223947Y187106D02*
Y188484D01*
X217028Y91339D02*
X218406D01*
X217717Y90650D02*
Y92027D01*
X213091Y85827D02*
X214469D01*
X213779Y85138D02*
Y86516D01*
X263091Y188189D02*
X264469D01*
X263779Y187500D02*
Y188878D01*
X261910Y51181D02*
X263287D01*
X262598Y50492D02*
Y51870D01*
X183169Y102362D02*
X184547D01*
X183858Y101673D02*
Y103051D01*
X183169Y105905D02*
X184547D01*
X183858Y105217D02*
Y106595D01*
X250295Y18898D02*
X251673D01*
X250984Y18209D02*
Y19587D01*
X129626Y117323D02*
X131004D01*
X130315Y116634D02*
Y118012D01*
X123721Y121260D02*
X125098D01*
X124409Y120571D02*
Y121949D01*
X124114Y114961D02*
X125492D01*
X124803Y114272D02*
Y115650D01*
X51279Y196850D02*
X52658D01*
X51968Y196161D02*
Y197539D01*
X56398Y196850D02*
X57776D01*
X57087Y196161D02*
Y197539D01*
X61122Y196850D02*
X62500D01*
X61811Y196161D02*
Y197539D01*
M02*
